<?xml version="1.0" standalone="no"?>
<!DOCTYPE svg PUBLIC "-//W3C//DTD SVG 1.1//EN" "http://www.w3.org/Graphics/SVG/1.1/DTD/svg11.dtd" >
<svg xmlns="http://www.w3.org/2000/svg">
<metadata>
Created by FontPrep 20130207 at Mon Aug  3 10:13:33 2015
 By DSType
Copyright (c) 2012 by Dino dos Santos. All rights reserved.
</metadata>
<defs>
<font id="3cb2025a7bc5745f39e09d3bd895f243" horiz-adv-x='1024' >
  <font-face 
    font-family="Prelo-MediumItalic"
    font-weight="500"
    font-style="italic"
    font-stretch="normal"
    units-per-em="2048"
    panose-1="0 0 6 0 0 0 0 0 0 0"
    ascent="1536"
    descent="-512"
    x-height="1024"
    cap-height="1393"
    bbox="-315 -434 2212 1843"
    underline-thickness="102"
    underline-position="-102"
    unicode-range="U+0020-FB02"
  />
<missing-glyph horiz-adv-x="1208" 
d="M199 25h821l-344 467zM1049 37l133 952l-488 -479zM305 993l-135 -960l489 477zM680 530l481 469h-829zM1208 1024l-143 -1024h-922l144 1024h921z" />
    <glyph glyph-name="fi" unicode="fi" horiz-adv-x="1095" 
d="M784 1434q70 0 178 -18t173 -48l-39 -133q-139 51 -291 51t-205 -50t-68 -151l-10 -61h604l-143 -1024h-184l125 891h-420l-146 -1041q-20 -150 -95 -216t-240 -64q-72 0 -164 14l39 144q72 -10 131 -10t98 31q39 32 49 118l143 1024h-153l18 121l154 12l10 61
q25 177 129 263t307 86z" />
    <glyph glyph-name="fl" unicode="fl" horiz-adv-x="1095" 
d="M784 1434q150 0 260 -45h134l-195 -1389h-184l176 1245q-102 41 -212 41t-163 -50t-68 -151l-10 -61h266l-18 -133h-266l-146 -1041q-20 -150 -95 -216t-240 -64q-72 0 -164 14l39 144q72 -10 131 -10t98 31q39 32 49 118l143 1024h-153l18 121l154 12l10 61
q25 177 129 263t307 86z" />
    <glyph glyph-name="f_f" unicode="ff" horiz-adv-x="1310" 
d="M692 1434q70 0 164 -15l-39 -143q-72 10 -104 10q-88 0 -127 -48t-54 -153l-10 -61h420l14 92q25 172 104 245t236 73q72 0 164 -15l-39 -143q-72 10 -104 10q-88 0 -127 -48t-53 -153l-11 -61h267l-19 -133h-266l-145 -1041q-19 -150 -95 -216t-241 -64q-70 0 -162 14
l37 144q72 -10 131 -10t98 31q39 32 49 118l144 1024h-420l-146 -1041q-20 -150 -95 -216t-240 -64q-72 0 -164 14l39 144q72 -10 131 -10t98 31q39 32 49 118l143 1024h-153l18 121l154 12l14 92q25 172 104 245t236 73z" />
    <glyph glyph-name="f_f_i" unicode="ffi" horiz-adv-x="1699" 
d="M692 1434q70 0 164 -15l-39 -143q-72 10 -104 10q-88 0 -127 -48t-54 -153l-10 -61h420l10 61q25 177 129 263t308 86q69 0 177 -18t173 -48l-39 -133q-138 51 -290 51t-206 -50t-67 -151l-11 -61h605l-144 -1024h-184l125 891h-420l-145 -1041q-19 -150 -95 -216
t-241 -64q-70 0 -162 14l37 144q72 -10 131 -10t98 31q39 32 49 118l144 1024h-420l-146 -1041q-20 -150 -95 -216t-240 -64q-72 0 -164 14l39 144q72 -10 131 -10t98 31q39 32 49 118l143 1024h-153l18 121l154 12l14 92q25 172 104 245t236 73z" />
    <glyph glyph-name="f_f_l" unicode="ffl" horiz-adv-x="1699" 
d="M692 1434q70 0 164 -15l-39 -143q-72 10 -104 10q-88 0 -127 -48t-54 -153l-10 -61h420l10 61q25 177 129 263t308 86q150 0 260 -45h133l-195 -1389h-184l176 1245q-101 41 -211 41t-164 -50t-67 -151l-11 -61h267l-19 -133h-266l-145 -1041q-19 -150 -95 -216t-241 -64
q-70 0 -162 14l37 144q72 -10 131 -10t98 31q39 32 49 118l144 1024h-420l-146 -1041q-20 -150 -95 -216t-240 -64q-72 0 -164 14l39 144q72 -10 131 -10t98 31q39 32 49 118l143 1024h-153l18 121l154 12l14 92q25 172 104 245t236 73z" />
    <glyph glyph-name=".notdef" horiz-adv-x="1208" 
d="M199 25h821l-344 467zM1049 37l133 952l-488 -479zM305 993l-135 -960l489 477zM680 530l481 469h-829zM1208 1024l-143 -1024h-922l144 1024h921z" />
    <glyph glyph-name=".null" horiz-adv-x="0" 
 />
    <glyph glyph-name="nonmarkingreturn" horiz-adv-x="681" 
 />
    <glyph glyph-name="space" unicode=" " horiz-adv-x="368" 
 />
    <glyph glyph-name="exclam" unicode="!" horiz-adv-x="409" 
d="M334 266l-37 -266h-184l37 266h184zM494 1393l-144 -953h-164l123 953h185z" />
    <glyph glyph-name="quotedbl" unicode="&#x22;" horiz-adv-x="819" 
d="M903 1393l-59 -277h-144l19 277h184zM494 1393l-60 -277h-143l18 277h185z" />
    <glyph glyph-name="numbersign" unicode="#" horiz-adv-x="1245" 
d="M801 358l76 308h-287l-76 -308h287zM621 788h286l58 236h133l-58 -236h205l-31 -122h-204l-76 -308h205l-29 -122h-205l-59 -236h-133l59 236h-287l-59 -236h-133l59 236h-205l29 122h205l76 308h-205l31 122h204l58 236h133z" />
    <glyph glyph-name="dollar" unicode="$" 
d="M792 1239q-168 -1 -238 -65t-71 -159q0 -141 243 -205q74 -19 81 -22q172 -45 270 -131q99 -85 99 -251t-127 -290t-390 -136l-26 -185h-82l27 185q-238 6 -457 71l57 164q244 -61 432 -61t272 63q85 63 85 164q0 73 -32 108q-32 34 -49 48q-37 31 -176 70
q-222 63 -327 157q-107 94 -107 254t121 274t381 121l27 184h82l-27 -184q199 -6 414 -72l-66 -163q-248 61 -416 61z" />
    <glyph glyph-name="percent" unicode="%" horiz-adv-x="1556" 
d="M1200 86q100 0 146 73q45 73 45 165q0 141 -138 141q-71 0 -117 -43q-72 -69 -73 -197q0 -139 137 -139zM1266 561q243 0 243 -239q0 -119 -77 -226q-78 -106 -246 -106q-242 0 -242 243q0 125 81 227t241 101zM504 928q70 0 116 43q74 69 74 194q0 141 -137 142
q-102 0 -147 -74t-45 -164q0 -141 139 -141zM463 0h-123l954 1393h123zM489 831q-119 -1 -181 59t-62 174t67 219q78 120 273 120q104 1 166 -59t61 -180q0 -120 -78 -227q-78 -106 -246 -106z" />
    <glyph glyph-name="ampersand" unicode="&#x26;" horiz-adv-x="1443" 
d="M354 354q0 -94 67 -154t204 -61q200 0 350 119l-340 406q-135 -66 -208 -141t-73 -169zM842 1286q-123 0 -178 -76q-56 -76 -56 -143t27 -115t80 -116q157 72 225 144t68 158q0 84 -54 116t-112 32zM156 292q0 142 84 250t313 216q-4 6 -17 23q-14 17 -18 25t-28 41
q-24 34 -32 56q-8 21 -20 49t-12 84q0 143 118 260t322 117q150 -1 234 -69t84 -188t-79 -220t-296 -203l307 -350q125 135 184 334h175q-76 -266 -256 -459l145 -176l-139 -131l-154 188q-211 -160 -489 -159q-213 0 -320 85q-106 85 -106 227z" />
    <glyph glyph-name="quotesingle" unicode="'" horiz-adv-x="409" 
d="M494 1393l-60 -277h-143l18 277h185z" />
    <glyph glyph-name="parenleft" unicode="(" horiz-adv-x="675" 
d="M391 451q0 -356 172 -738h-123q-229 354 -229 791q0 279 126 590t380 585h123q-449 -604 -449 -1228z" />
    <glyph glyph-name="parenright" unicode=")" horiz-adv-x="675" 
d="M479 982q0 328 -172 697h123q229 -360 229 -782q-1 -281 -125 -593t-380 -591h-123q246 338 347 639q101 302 101 630z" />
    <glyph glyph-name="asterisk" unicode="*" horiz-adv-x="854" 
d="M569 1393h109l-51 -260l282 81l19 -106l-285 -41l152 -219l-95 -66l-131 246l-194 -246l-78 66l215 219l-274 41l47 106l260 -81z" />
    <glyph glyph-name="plus" unicode="+" horiz-adv-x="1024" 
d="M676 621h323l-22 -154h-322l-47 -324h-153l47 324h-324l23 154h321l45 321h154z" />
    <glyph glyph-name="comma" unicode="," horiz-adv-x="409" 
d="M106 -266l78 266h-71l37 266h184l-37 -266l-129 -266h-62z" />
    <glyph glyph-name="hyphen" unicode="-" horiz-adv-x="1024" 
d="M977 467h-799l23 154h798z" />
    <glyph glyph-name="period" unicode="." horiz-adv-x="409" 
d="M297 0h-184l37 266h184z" />
    <glyph glyph-name="slash" unicode="/" horiz-adv-x="1105" 
d="M1210 1393l-954 -1393h-164l955 1393h163z" />
    <glyph glyph-name="zero" unicode="0" horiz-adv-x="1208" 
d="M784 1260q-118 0 -202 -88t-122 -226q-65 -233 -67 -463q0 -350 234 -350q96 -1 170 63t114 155q41 91 76 241t35 332q0 336 -238 336zM604 -20q-408 0 -407 485q0 190 31 349t75 253q45 94 110 174q140 172 392 172q412 0 412 -475q0 -261 -66 -480q-41 -136 -105 -239
t-178 -171t-264 -68z" />
    <glyph glyph-name="one" unicode="1" horiz-adv-x="759" 
d="M242 1004l-27 153q324 135 475 246h133l-196 -1403h-185l166 1182z" />
    <glyph glyph-name="two" unicode="2" horiz-adv-x="1126" 
d="M938 1017q0 71 -26 120t-84 79t-140 29q-162 0 -356 -82l-35 148q250 102 450 102q201 0 297 -94t97 -248q0 -211 -167 -426t-577 -477v-4h639l-22 -164h-901l24 180q507 306 667 518q134 178 134 319z" />
    <glyph glyph-name="three" unicode="3" horiz-adv-x="1167" 
d="M580 133q100 0 173 30t107 77q58 81 64 175q6 93 -70 149t-231 57h-174l22 153h166q174 0 256 89t87 185t-51 153q-56 59 -212 59t-346 -86l-37 143q213 96 457 96q184 0 287 -86t89 -244q-8 -125 -88 -223t-225 -141v-4q133 -29 200 -115t58 -205q-14 -180 -148 -298
q-134 -117 -398 -117t-439 98l78 141q164 -86 375 -86z" />
    <glyph glyph-name="four" unicode="4" horiz-adv-x="1208" 
d="M809 512l90 641h-4q-184 -285 -541 -641h455zM1118 1393l-125 -881h195l-21 -154h-194l-51 -358h-185l51 358h-645l21 154q461 434 725 881h229z" />
    <glyph glyph-name="five" unicode="5" horiz-adv-x="1167" 
d="M770 891q172 0 265 -91t93 -276t-121 -352q-63 -86 -181 -139t-273 -53q-221 0 -426 102l76 143q176 -92 360 -92t276 113q91 113 91 252q0 100 -56 168t-184 67q-162 0 -284 -135l-136 12l144 783h757l-22 -164h-598l-94 -467l4 -2q137 131 309 131z" />
    <glyph glyph-name="six" unicode="6" horiz-adv-x="1167" 
d="M610 133q150 0 236 118t86 275q0 104 -54 175t-196 71t-281 -164q-23 -106 -22 -194q0 -281 231 -281zM753 932q187 0 281 -96t94 -286t-118 -371q-60 -89 -166 -144t-244 -55q-215 0 -313 126t-99 334q0 70 15 174q113 799 692 799q162 0 311 -51l-43 -143
q-152 41 -272 41q-199 0 -327 -158t-158 -348l4 -2q156 180 343 180z" />
    <glyph glyph-name="seven" unicode="7" horiz-adv-x="1024" 
d="M903 1229h-639l25 164h839l-18 -133q-236 -316 -413 -622t-277 -638h-205q84 276 282 620t406 605v4z" />
    <glyph glyph-name="eight" unicode="8" horiz-adv-x="1208" 
d="M648 119q160 0 238 82q77 82 77 178q0 118 -135 188q-50 27 -74 37l-84 35q-315 -106 -316 -313q0 -90 67 -148t227 -59zM1024 1087q0 97 -73 143t-187 46t-195 -71q-82 -71 -82 -173q0 -156 254 -229q283 94 283 284zM877 731q278 -126 278 -299t-123 -306
q-61 -67 -174 -107t-258 -39q-202 0 -320 80t-118 227q0 289 377 420v4q-238 109 -238 290q0 160 130 286t380 126q174 0 288 -80q113 -80 113 -211t-74 -220t-261 -167v-4z" />
    <glyph glyph-name="nine" unicode="9" horiz-adv-x="1167" 
d="M760 1260q-150 0 -237 -118t-87 -274q0 -106 56 -176t184 -69q154 -1 293 163q23 102 22 193q0 281 -231 281zM616 461q-186 0 -281 97q-95 96 -95 288t118 368q60 88 166 144t244 55q215 0 314 -127t100 -334q0 -70 -15 -174q-62 -445 -263 -631q-182 -169 -431 -167
q-154 0 -309 53l43 141q152 -41 272 -41q199 0 327 158t157 348l-5 2q-156 -180 -342 -180z" />
    <glyph glyph-name="colon" unicode=":" horiz-adv-x="409" 
d="M297 0h-184l37 266h184zM393 676h-184l37 266h184z" />
    <glyph glyph-name="semicolon" unicode=";" horiz-adv-x="409" 
d="M106 -266l78 266h-71l37 266h184l-37 -266l-129 -266h-62zM430 942l-37 -266h-184l37 266h184z" />
    <glyph glyph-name="less" unicode="&#x3c;" horiz-adv-x="778" 
d="M793 901l-23 -166l-391 -223l328 -223l-23 -166l-508 334l17 112z" />
    <glyph glyph-name="equal" unicode="=" horiz-adv-x="1024" 
d="M948 262h-798l22 154h799zM1006 672h-799l22 153h799z" />
    <glyph glyph-name="greater" unicode="&#x3e;" horiz-adv-x="778" 
d="M129 113l23 166l391 233l-326 233l25 166l503 -342l-16 -112z" />
    <glyph glyph-name="question" unicode="?" horiz-adv-x="983" 
d="M522 0h-184l37 266h184zM686 1413q196 0 278 -83q80 -83 80 -203q0 -121 -45 -207t-109 -137q-66 -50 -132 -91q-163 -101 -176 -200l-9 -62h-163l8 62q12 86 61 152t109 107q60 42 122 82q140 93 140 242q0 164 -225 164q-132 0 -314 -63l-30 159q209 78 405 78z" />
    <glyph glyph-name="at" unicode="@" horiz-adv-x="1699" 
d="M920 512q-117 0 -167 -49t-51 -121q0 -109 146 -109q115 0 207 68l30 211h-165zM994 944q138 0 202 -45q63 -45 64 -151q0 -57 -66 -502q121 0 210 56t133 142q83 162 83 301q0 219 -158 351t-399 133q-168 -1 -309 -57q-140 -56 -232 -143t-156 -198
q-122 -209 -120 -419q0 -246 154 -400t409 -153l-27 -105q-297 0 -477 179t-180 464q0 247 143 487q76 126 184 225t270 163t353 63q289 1 476 -159t188 -416q0 -157 -78 -315q-93 -188 -276 -266q-103 -44 -230 -44h-123l12 80h-4q-115 -94 -262 -94q-106 0 -166 52
q-59 52 -59 142q0 123 89 204t284 81h172q4 34 10 102t-30 99t-134 31t-258 -46l-12 101q182 57 320 57z" />
    <glyph glyph-name="A" unicode="A" horiz-adv-x="1331" 
d="M827 1161l-317 -643h451l-130 643h-4zM979 354h-533l-167 -354h-207l676 1403h239l273 -1403h-216z" />
    <glyph glyph-name="B" unicode="B" horiz-adv-x="1249" 
d="M731 174q153 0 217 79t64 189q0 182 -238 183h-358l-64 -451h379zM788 799q147 0 208 73q60 74 61 177q0 170 -209 170h-348l-60 -420h348zM893 1393q184 0 279 -77q96 -77 96 -206t-68 -239t-209 -152l-2 -4q109 -27 167 -101t58 -165q0 -170 -98 -299
q-51 -68 -148 -109t-231 -41h-604l197 1393h563z" />
    <glyph glyph-name="C" unicode="C" horiz-adv-x="1269" 
d="M199 492q0 197 36 350q36 154 87 242t125 166q159 163 460 163q238 0 473 -72l-67 -163q-247 61 -393 61t-239 -51t-144 -125t-91 -207t-40 -332q0 -371 339 -370q171 0 433 61l20 -164q-256 -72 -491 -71q-508 0 -508 512z" />
    <glyph glyph-name="D" unicode="D" horiz-adv-x="1331" 
d="M653 174q119 0 208 51t138 125t88 205t39 310q0 177 -74 265t-251 89h-301l-148 -1045h301zM827 1393q504 0 504 -498q0 -250 -75 -454q-46 -128 -120 -221q-74 -92 -204 -156q-131 -64 -301 -64h-498l197 1393h497z" />
    <glyph glyph-name="E" unicode="E" horiz-adv-x="1146" 
d="M500 1219l-58 -410h605l-25 -174h-604l-66 -461h707l-25 -174h-901l197 1393h891l-25 -174h-696z" />
    <glyph glyph-name="F" unicode="F" horiz-adv-x="1095" 
d="M1176 1219h-676l-64 -451h584l-25 -174h-583l-84 -594h-195l197 1393h870z" />
    <glyph glyph-name="G" unicode="G" horiz-adv-x="1310" 
d="M199 492q0 197 36 350q36 154 87 242t125 166q159 163 460 163q227 0 463 -72l-67 -163q-245 61 -387 61t-235 -51t-144 -125t-91 -207t-40 -332q0 -371 339 -370q139 0 273 69l45 320h-266l24 174h461l-88 -627q-139 -55 -247 -83t-240 -27q-508 0 -508 512z" />
    <glyph glyph-name="H" unicode="H" horiz-adv-x="1310" 
d="M133 0l197 1393h194l-82 -584h656l82 584h194l-196 -1393h-195l90 635h-655l-90 -635h-195z" />
    <glyph glyph-name="I" unicode="I" horiz-adv-x="460" 
d="M133 0l197 1393h194l-196 -1393h-195z" />
    <glyph glyph-name="J" unicode="J" horiz-adv-x="686" 
d="M223 -20q-96 0 -188 14l41 166q59 -10 136 -10q166 0 198 210l145 1033h195l-148 -1043q-29 -198 -123 -284t-256 -86z" />
    <glyph glyph-name="K" unicode="K" horiz-adv-x="1286" 
d="M422 672l741 721h232l-582 -578l395 -815h-243l-318 659l-262 -253l-57 -406h-195l197 1393h194z" />
    <glyph glyph-name="L" unicode="L" horiz-adv-x="1105" 
d="M524 1393l-172 -1219h686l-24 -174h-881l197 1393h194z" />
    <glyph glyph-name="M" unicode="M" horiz-adv-x="1638" 
d="M868 324h4l574 1069h256l-197 -1393h-194l145 1034h-4l-565 -1034h-144l-270 1034h-4l-145 -1034h-191l197 1393h256z" />
    <glyph glyph-name="N" unicode="N" horiz-adv-x="1331" 
d="M133 0l197 1393h194l531 -1033h4l147 1033h189l-197 -1393h-194l-535 1014h-4l-141 -1014h-191z" />
    <glyph glyph-name="O" unicode="O" horiz-adv-x="1413" 
d="M885 1249q-481 0 -482 -741q0 -172 73 -268t269 -96t305 142q107 143 135 306q29 163 29 318t-73 247q-74 92 -256 92zM707 -20q-508 0 -508 516q0 124 13 234t59 240t120 223t207 157t309 63q277 0 395 -133t117 -371q0 -192 -38 -348t-91 -248t-128 -169
q-74 -76 -192 -120t-263 -44z" />
    <glyph glyph-name="P" unicode="P" 
d="M788 727q154 0 222 89q68 88 68 194q-1 206 -220 209h-358l-70 -492h358zM903 1393q181 1 279 -93t98 -257t-105 -318q-53 -78 -155 -125t-236 -47h-378l-78 -553h-195l197 1393h573z" />
    <glyph glyph-name="Q" unicode="Q" horiz-adv-x="1413" 
d="M885 1249q-481 0 -482 -743q0 -170 73 -266t268 -96t305 143q109 146 136 310t27 317t-72 244t-255 91zM1104 -215q-234 0 -358 94q-54 41 -82 101q-465 23 -465 522q0 419 173 662q108 154 304 216q104 33 231 33q512 0 512 -504q0 -285 -110 -539q-59 -136 -179 -224
t-286 -99q39 -92 258 -92q76 0 166 14l-25 -174q-82 -10 -139 -10z" />
    <glyph glyph-name="R" unicode="R" horiz-adv-x="1259" 
d="M776 717q156 0 229 90q73 89 73 197t-59 161q-58 53 -161 54h-358l-72 -502h348zM903 1393q179 1 277 -95t98 -245t-79 -285q-40 -70 -115 -123t-175 -72l275 -573h-228l-254 543h-296l-78 -543h-195l197 1393h573z" />
    <glyph glyph-name="S" unicode="S" 
d="M796 1239q-168 0 -239 -63q-70 -63 -70 -147t56 -128q31 -25 51 -39q44 -31 216 -75q173 -44 270 -130q98 -87 98 -257t-138 -296t-412 -124q-274 0 -505 71l57 164q246 -61 434 -61t271 62q84 62 84 152t-32 123q-32 32 -48 46t-55 29q-40 16 -56 22t-65 19
q-214 57 -324 154t-110 260t130 277q129 114 381 115q252 0 488 -72l-68 -163q-246 61 -414 61z" />
    <glyph glyph-name="T" unicode="T" horiz-adv-x="1146" 
d="M842 1219l-170 -1219h-195l170 1219h-383l25 174h962l-24 -174h-385z" />
    <glyph glyph-name="U" unicode="U" horiz-adv-x="1310" 
d="M391 374q0 -100 65 -166t228 -65q205 0 287 118q66 95 84 231l127 901h194l-127 -901q-70 -512 -594 -512q-461 0 -460 387q0 88 137 1026h194q-135 -919 -135 -1019z" />
    <glyph glyph-name="V" unicode="V" horiz-adv-x="1331" 
d="M711 233l540 1160h205l-668 -1403h-239l-281 1403h217l224 -1160h2z" />
    <glyph glyph-name="W" unicode="W" horiz-adv-x="1925" 
d="M1112 1081l-428 -1091h-250l-166 1403h217l119 -1151h2l445 1151h229l123 -1151h2l440 1151h205l-561 -1403h-252l-121 1091h-4z" />
    <glyph glyph-name="X" unicode="X" horiz-adv-x="1331" 
d="M733 567h-4l-434 -567h-217l555 729l-324 664h230l247 -502h5l387 502h227l-512 -664l362 -729h-233z" />
    <glyph glyph-name="Y" unicode="Y" horiz-adv-x="1269" 
d="M739 692l445 701h211l-592 -901l-70 -492h-194l69 492l-340 901h224l243 -701h4z" />
    <glyph glyph-name="Z" unicode="Z" horiz-adv-x="1146" 
d="M952 1219h-657l24 174h922l-20 -144l-842 -1071l-2 -4h713l-25 -174h-983l20 143l850 1071v5z" />
    <glyph glyph-name="bracketleft" unicode="[" horiz-adv-x="614" 
d="M502 -287h-430l276 1966h430l-14 -112h-236l-245 -1741h235z" />
    <glyph glyph-name="backslash" unicode="\" horiz-adv-x="1105" 
d="M289 1393h164l561 -1393h-164z" />
    <glyph glyph-name="bracketright" unicode="]" horiz-adv-x="614" 
d="M528 1567h-235l14 112h430l-276 -1966h-430l16 113h236z" />
    <glyph glyph-name="asciicircum" unicode="^" horiz-adv-x="778" 
d="M362 1044h-102l270 390h119l164 -390h-102l-136 287z" />
    <glyph glyph-name="underscore" unicode="_" horiz-adv-x="1024" 
d="M879 -236h-799l16 113h799z" />
    <glyph glyph-name="grave" unicode="`" horiz-adv-x="522" 
d="M498 1434l84 -287h-144l-135 287h195z" />
    <glyph glyph-name="a" unicode="a" horiz-adv-x="1091" 
d="M674 891q-244 0 -306 -351q-13 -75 -14 -147q0 -260 213 -260q139 0 258 88l82 584q-90 86 -233 86zM158 356q0 185 45 317t97 204q52 71 138 119t197 48q184 0 295 -116h4l47 102h141l-143 -1030h-184l14 102h-4q-143 -123 -330 -122q-317 0 -317 376z" />
    <glyph glyph-name="b" unicode="b" horiz-adv-x="1085" 
d="M565 133q94 0 162 52q69 53 99 137q55 154 57 307q0 262 -211 262q-149 0 -258 -86l-82 -584q88 -88 233 -88zM1081 668q0 -185 -45 -317t-97 -204q-52 -71 -138 -119t-197 -48q-182 0 -297 118h-4l-47 -104h-141l202 1440h185l-72 -512h4q143 123 330 122
q317 0 317 -376z" />
    <glyph glyph-name="c" unicode="c" horiz-adv-x="983" 
d="M594 -20q-436 0 -436 397q0 334 164 511q61 68 170 112t264 44t329 -45l-53 -149q-160 41 -288 41q-235 0 -319 -174q-69 -141 -71 -303q0 -281 262 -281q150 0 320 41l14 -147q-186 -47 -356 -47z" />
    <glyph glyph-name="d" unicode="d" horiz-adv-x="1085" 
d="M672 891q-78 0 -137 -37q-102 -64 -147 -216q-36 -116 -36 -247q0 -258 213 -258q139 0 258 88l82 584q-82 86 -233 86zM156 352q0 195 45 323t95 201q50 72 137 120t198 48q186 0 287 -116h4l71 506h185l-203 -1434h-184l14 102h-4q-137 -123 -330 -122q-315 0 -315 372
z" />
    <glyph glyph-name="e" unicode="e" horiz-adv-x="1085" 
d="M922 725q0 176 -207 176q-270 0 -336 -301h520q23 61 23 125zM356 403q0 -270 295 -270q178 0 326 41l4 -147q-170 -47 -377 -47q-446 0 -446 401q0 483 337 619q108 44 248 44q369 0 369 -309q0 -107 -49 -254h-701q-6 -39 -6 -78z" />
    <glyph glyph-name="f" unicode="f" horiz-adv-x="706" 
d="M692 1434q70 0 164 -15l-39 -143q-72 10 -104 10q-88 0 -125 -33t-49 -116l-17 -113h246l-18 -133h-246l-146 -1041q-20 -150 -95 -216t-240 -64q-72 0 -164 14l39 144q72 -10 131 -10t98 31q39 32 49 118l143 1024h-153l18 121l154 12l18 129q23 149 97 215t239 66z" />
    <glyph glyph-name="g" unicode="g" horiz-adv-x="1091" 
d="M674 891q-244 0 -306 -351q-13 -75 -14 -147q0 -260 213 -260q139 0 258 88l82 584q-90 86 -233 86zM158 356q0 185 45 317t97 204q52 71 138 119t197 48q184 0 295 -116h4l47 102h141l-145 -1057q-53 -401 -494 -401q-205 0 -370 47l22 148q141 -41 320 -41
q297 0 338 272l16 104h-4q-143 -123 -330 -122q-317 0 -317 376z" />
    <glyph glyph-name="h" unicode="h" horiz-adv-x="1085" 
d="M1079 788q0 -72 -106 -788h-185q98 674 99 729q0 162 -178 162q-123 0 -303 -117l-109 -774h-184l200 1434h185l-76 -553h4q184 164 387 163q266 0 266 -256z" />
    <glyph glyph-name="i" unicode="i" horiz-adv-x="409" 
d="M440 1024l-143 -1024h-184l143 1024h184zM494 1393l-37 -256h-185l37 256h185z" />
    <glyph glyph-name="j" unicode="j" horiz-adv-x="491" 
d="M522 1024l-164 -1174q-20 -150 -96 -216t-242 -64q-70 0 -161 14l39 144q72 -10 131 -10t97 31q38 32 50 118l162 1157h184zM575 1393l-36 -256h-185l37 256h184z" />
    <glyph glyph-name="k" unicode="k" horiz-adv-x="1105" 
d="M383 606l549 418h225l-438 -352l315 -672h-217l-242 567l-221 -166l-57 -401h-184l200 1434h185z" />
    <glyph glyph-name="l" unicode="l" horiz-adv-x="409" 
d="M313 1434h185l-201 -1434h-184z" />
    <glyph glyph-name="m" unicode="m" horiz-adv-x="1699" 
d="M1427 1044q266 0 267 -256q0 -72 -107 -788h-184q98 664 98 725q0 166 -178 166q-102 0 -279 -121q0 -45 -10 -113l-92 -657h-184l94 674q27 217 -174 217q-104 0 -272 -117l-109 -774h-184l143 1024h184l-18 -143h4q176 164 356 163q219 0 256 -178q193 178 389 178z
" />
    <glyph glyph-name="n" unicode="n" horiz-adv-x="1085" 
d="M1079 788q0 -72 -106 -788h-185q98 678 99 729q0 162 -178 162q-123 0 -303 -117l-109 -774h-184l143 1024h184l-18 -143h4q184 164 387 163q266 0 266 -256z" />
    <glyph glyph-name="o" unicode="o" horiz-adv-x="1126" 
d="M692 891q-82 0 -145 -36t-98 -88q-95 -141 -95 -374q0 -260 232 -260q100 0 173 52q73 51 105 135q59 153 62 307q-1 264 -234 264zM563 -20q-406 0 -405 395q0 191 63 349q37 93 96 162q59 70 161 114t235 44q408 0 407 -399q0 -328 -163 -510q-59 -67 -161 -111
t-233 -44z" />
    <glyph glyph-name="p" unicode="p" horiz-adv-x="1085" 
d="M557 133q245 0 306 350q13 76 14 150q0 258 -213 258q-135 0 -258 -86l-82 -584q98 -88 233 -88zM1073 672q0 -238 -90 -441q-49 -113 -148 -183t-237 -68q-182 0 -287 118h-4l-71 -508h-185l201 1434h184l-14 -102h4q143 123 332 122q315 0 315 -372z" />
    <glyph glyph-name="q" unicode="q" horiz-adv-x="1085" 
d="M668 891q-94 0 -162 -53q-68 -52 -98 -138q-55 -155 -58 -307q0 -260 211 -260q143 0 258 88l82 584q-86 86 -233 86zM152 356q0 185 45 317t97 204q52 71 138 119t197 48q186 0 297 -116h4l47 102h141l-203 -1440h-184l72 512h-4q-141 -123 -330 -122q-317 0 -317 376z
" />
    <glyph glyph-name="r" unicode="r" horiz-adv-x="757" 
d="M297 0h-184l143 1024h184l-22 -164h4q193 184 412 184l-25 -174q-201 0 -406 -116z" />
    <glyph glyph-name="s" unicode="s" horiz-adv-x="983" 
d="M646 897q-152 0 -202 -52t-49 -106q0 -96 199 -137q166 -38 261 -104t95 -199t-98 -226t-346 -93t-416 47l53 147q174 -45 379 -45q131 0 186 55q54 55 54 109q0 104 -211 145q-166 31 -254 91t-88 197q0 138 100 228q99 90 325 90t400 -45l-53 -149q-183 47 -335 47z
" />
    <glyph glyph-name="t" unicode="t" horiz-adv-x="768" 
d="M422 265q0 -136 138 -136q66 0 122 10l-4 -145q-96 -14 -210 -14t-175 52t-62 173q1 74 93 686h-154l16 121l156 12l61 287h162l-39 -287h287l-18 -133h-287q-86 -557 -86 -626z" />
    <glyph glyph-name="u" unicode="u" horiz-adv-x="1085" 
d="M154 240q0 70 106 784h184q-98 -672 -98 -721q0 -170 178 -170q133 0 303 119l109 772h184l-145 -1024h-184l22 143h-4q-193 -164 -389 -163q-266 0 -266 260z" />
    <glyph glyph-name="v" unicode="v" horiz-adv-x="1146" 
d="M459 -10l-234 1034h207l172 -827h4l404 827h196l-526 -1034h-223z" />
    <glyph glyph-name="w" unicode="w" horiz-adv-x="1617" 
d="M911 741l-313 -751h-205l-168 1034h205l113 -827h4l321 827h179l102 -827h4l332 827h194l-452 -1034h-205l-107 751h-4z" />
    <glyph glyph-name="x" unicode="x" horiz-adv-x="1116" 
d="M825 0l-223 397h-4l-328 -397h-198l452 535l-278 489h213l203 -356h4l292 356h195l-414 -485l305 -539h-219z" />
    <glyph glyph-name="y" unicode="y" horiz-adv-x="1146" 
d="M205 -430q-74 0 -150 14l39 154q55 -10 94 -10q164 0 289 252l-252 1044h207l180 -838h4l396 838h196l-536 -1085q-98 -199 -207 -284t-260 -85z" />
    <glyph glyph-name="z" unicode="z" horiz-adv-x="962" 
d="M774 881h-563l20 143h799l-18 -133l-693 -744l-2 -4h609l-19 -143h-850l19 133l698 744v4z" />
    <glyph glyph-name="braceleft" unicode="{" horiz-adv-x="696" 
d="M524 522q0 -72 -49 -300t-49 -282t15 -91t90 -51q22 -3 65 -3l-12 -82q-174 0 -263 43t-90 176q0 82 47 297q46 215 46 279t-27 95q-27 32 -94 42l14 103q53 8 86 26q51 28 73 118q22 89 33 258t19 230q27 182 132 240t300 59l-10 -82q-49 0 -75 -4q-84 -13 -119 -92
q-22 -49 -32 -119t-18 -223q-10 -154 -20 -219q-16 -113 -70 -166t-147 -76l-2 -4q157 -38 157 -172z" />
    <glyph glyph-name="bar" unicode="|" horiz-adv-x="389" 
d="M104 -205l254 1802h123l-254 -1802h-123z" />
    <glyph glyph-name="braceright" unicode="}" horiz-adv-x="696" 
d="M369 872q0 72 48 300t48 282q0 106 -50 124q-50 19 -118 19l10 82q174 0 263 -43t89 -176q0 -80 -45 -295t-45 -278t26 -96t93 -43l-14 -103q-53 -9 -86 -27q-51 -29 -73 -117q-22 -89 -33 -258t-19 -231q-27 -182 -132 -240t-300 -59l12 82q49 0 74 4q25 3 61 23
q69 37 92 198q8 59 17 213q8 154 18 220q17 113 71 165t148 76l2 4q-157 38 -157 174z" />
    <glyph glyph-name="asciitilde" unicode="~" horiz-adv-x="937" 
d="M750 553q-38 0 -176 51t-177 51q-66 0 -178 -98l-51 47q135 180 242 180q53 0 189 -54t167 -54q75 0 145 84l43 -55q-96 -152 -204 -152z" />
    <glyph glyph-name="exclamdown" unicode="&#xa1;" horiz-adv-x="409" 
d="M246 -369h-185l144 953h164zM403 758h-184l37 266h184z" />
    <glyph glyph-name="cent" unicode="&#xa2;" horiz-adv-x="1054" 
d="M596 137l104 750q-92 -7 -160 -57t-106 -120q-70 -133 -71 -268t59 -215t174 -90zM549 -205l26 185q-195 8 -303 122t-106 314q0 199 121 395q61 98 176 164t262 69l25 185h81l-26 -187q137 -8 282 -73l-43 -144q-158 59 -260 64l-106 -754q111 2 280 66v-144
q-160 -68 -301 -75l-26 -187h-82z" />
    <glyph glyph-name="sterling" unicode="&#xa3;" horiz-adv-x="1259" 
d="M874 1413q289 0 465 -123l-98 -151q-176 100 -381 100q-152 0 -232 -59t-96 -158l-32 -244h471l-21 -143h-471l-67 -471h716l-22 -164h-1004l23 164h102l68 471h-102l20 143h102l37 266q27 190 167 280t355 89z" />
    <glyph glyph-name="currency" unicode="&#xa4;" horiz-adv-x="1433" 
d="M1049 1239q-342 0 -455 -352h86l-23 -92h-88q-16 -82 -20 -185h420l-31 -112h-389q25 -344 346 -344q203 0 416 149l45 -149q-250 -174 -506 -174t-382 137t-130 381h-162l14 112h150q16 325 172 553q80 117 215 184t313 66q277 0 467 -174l-86 -147q-168 147 -372 147z
" />
    <glyph glyph-name="yen" unicode="&#xa5;" horiz-adv-x="1331" 
d="M1184 553l-17 -113h-342l-61 -440h-195l62 440h-344l16 113h313l-317 840h223l244 -701h4l444 701h211l-555 -840h314z" />
    <glyph glyph-name="brokenbar" unicode="&#xa6;" horiz-adv-x="348" 
d="M84 -205l115 819h123l-115 -819h-123zM221 778l117 819h123l-117 -819h-123z" />
    <glyph glyph-name="section" unicode="&#xa7;" horiz-adv-x="1210" 
d="M430 737v-24q0 -133 211 -200q47 -15 113 -32q367 -86 366 -342q0 -176 -127 -313q-63 -70 -176 -112t-260 -42q-260 0 -491 72l57 164q246 -61 459 -62q158 0 244 74t85 174q0 66 -40 103t-65 49l-39 18q-48 22 -171 53q-375 104 -375 365q0 18 4 55h205zM827 1546
q-167 0 -239 -68t-72 -163q0 -94 112 -147q90 -43 212 -72q369 -84 368 -338q0 -41 -8 -76h-205q2 10 2 29q0 63 -53 109t-95 62q-113 42 -136 45t-29 5q-377 104 -377 364q0 176 132 300t407 124q225 1 461 -71l-68 -164q-246 61 -412 61z" />
    <glyph glyph-name="dieresis" unicode="&#xa8;" horiz-adv-x="911" 
d="M903 1167h-153l32 246h154zM494 1167h-154l33 246h153z" />
    <glyph glyph-name="copyright" unicode="&#xa9;" horiz-adv-x="1566" 
d="M952 956q-96 0 -152 -30q-134 -71 -134 -293q0 -201 196 -201q113 0 215 62l31 -84q-123 -78 -267 -78t-221 74t-77 224t81 277q93 150 336 150q130 0 228 -76l-53 -88q-87 63 -183 63zM244 610q0 -236 156 -392t395 -157q141 -1 265 51q215 89 350 310q116 189 116 364
q0 231 -157 386t-396 155q-139 0 -262 -50q-217 -88 -342 -289q-125 -200 -125 -378zM983 1413q271 0 451 -175t180 -439q0 -115 -52 -250t-150 -265t-263 -217q-166 -87 -367 -87q-272 0 -449 176t-177 440q0 117 53 254t150 265t262 213t362 85z" />
    <glyph glyph-name="ordfeminine" unicode="&#xaa;" horiz-adv-x="604" 
d="M469 1122q-141 0 -141 -104q0 -76 96 -76q74 0 133 45l18 135h-106zM471 1178h113q10 62 10 88q0 62 -107 61q-63 0 -163 -18l-5 73q103 20 195 20t133 -27q41 -28 41 -84t-53 -410h-92l6 51q-82 -62 -161 -62t-117 35t-38 90q1 91 65 137t173 46z" />
    <glyph glyph-name="guillemotleft" unicode="&#xab;" horiz-adv-x="1361" 
d="M1378 911l-24 -166l-391 -233l325 -233l-22 -166l-506 344l16 112zM795 911l-25 -166l-391 -233l326 -233l-23 -166l-506 344l17 112z" />
    <glyph glyph-name="logicalnot" unicode="&#xac;" horiz-adv-x="1208" 
d="M1143 621l-53 -375h-154l31 221h-748l23 154h901z" />
    <glyph glyph-name="softhyphen" unicode="&#xad;" horiz-adv-x="1024" 
d="M178 467l23 154h798l-22 -154h-799z" />
    <glyph glyph-name="registered" unicode="&#xae;" horiz-adv-x="1566" 
d="M901 678q90 0 132 46t42 118q0 106 -131 106h-170l-39 -270h166zM956 1049q113 -1 174 -51q62 -50 62 -140t-49 -167t-158 -95l162 -252h-139l-148 234h-139l-33 -234h-113l99 705h282zM242 610q0 -236 156 -392t395 -157q176 0 321 77q252 134 364 427q46 121 46 221
q0 231 -157 386t-396 155q-139 0 -262 -50q-217 -88 -342 -289q-125 -200 -125 -378zM983 1413q271 0 451 -175t180 -439q0 -115 -52 -250t-150 -265t-263 -217q-166 -87 -367 -87q-272 0 -449 176t-177 440q0 117 53 254t150 265t262 213t362 85z" />
    <glyph glyph-name="macron" unicode="&#xaf;" horiz-adv-x="880" 
d="M930 1219h-635l18 122h635z" />
    <glyph glyph-name="degree" unicode="&#xb0;" horiz-adv-x="534" 
d="M551 1220q0 48 -27 74q-26 26 -74 27q-48 0 -88 -38t-40 -86t28 -76q28 -27 76 -27q49 0 87 39t38 87zM250 1191q0 77 64 139q65 62 142 62t123 -44q46 -45 46 -122q0 -76 -65 -140q-66 -64 -142 -64t-122 46t-46 123z" />
    <glyph glyph-name="plusminus" unicode="&#xb1;" horiz-adv-x="1024" 
d="M469 236l35 245h-322l21 154h321l45 313h154l-45 -313h323l-20 -154h-324l-34 -245h323l-22 -154h-799l22 154h322z" />
    <glyph glyph-name="twosuperior" unicode="&#xb2;" horiz-adv-x="638" 
d="M657 1595q0 109 -125 109q-74 0 -178 -47l-18 74q119 61 224 61q106 0 154 -48t48 -124q0 -109 -87 -215t-282 -231v-3h318l-13 -86h-452l12 95q399 240 399 415z" />
    <glyph glyph-name="threesuperior" unicode="&#xb3;" horiz-adv-x="659" 
d="M774 1630q0 -143 -158 -194q129 -31 129 -148q-1 -88 -65 -156t-204 -67q-140 0 -226 59l41 76q100 -55 190 -55t128 44t38 93q0 102 -147 102h-88l12 80h82q88 0 128 46t40 92q0 100 -111 100q-69 0 -192 -53l-19 73q108 60 214 60t157 -40t51 -112z" />
    <glyph glyph-name="acute" unicode="&#xb4;" horiz-adv-x="522" 
d="M426 1434h195l-213 -287h-144z" />
    <glyph glyph-name="paragraph" unicode="&#xb6;" horiz-adv-x="1146" 
d="M578 604q-166 0 -264 89q-97 89 -97 239t102 297q51 72 149 118t222 46h572l-11 -72h-168l-186 -1321h-82l186 1321h-133l-102 -717h-188z" />
    <glyph glyph-name="periodcentered" unicode="&#xb7;" horiz-adv-x="491" 
d="M391 379h-184l37 266h184z" />
    <glyph glyph-name="cedilla" unicode="&#xb8;" horiz-adv-x="598" 
d="M230 -420q-88 0 -162 25l20 61q58 -14 114 -14t90 35t34 75q0 76 -115 84l22 154h72l-16 -113q152 -14 151 -125q0 -82 -61 -132t-149 -50z" />
    <glyph glyph-name="onesuperior" unicode="&#xb9;" horiz-adv-x="618" 
d="M451 1165l71 512l-180 -86l-14 76q166 68 237 121h70l-88 -623h205l-13 -80h-506l13 80h205z" />
    <glyph glyph-name="ordmasculine" unicode="&#xba;" horiz-adv-x="655" 
d="M516 1327q-103 0 -140 -90q-30 -72 -30 -156q0 -133 117 -133q67 0 107 46t50 96t11 108q0 129 -115 129zM248 1071q0 118 53 215q29 53 87 85t140 32q201 0 201 -195q0 -123 -51 -220q-63 -118 -225 -118q-205 0 -205 201z" />
    <glyph glyph-name="guillemotright" unicode="&#xbb;" horiz-adv-x="1361" 
d="M825 911l504 -342l-16 -112l-600 -344l22 166l391 233l-325 233zM242 911l503 -342l-16 -112l-600 -344l23 166l391 233l-326 233z" />
    <glyph glyph-name="onequarter" unicode="&#xbc;" horiz-adv-x="1638" 
d="M1401 258l43 313q-100 -150 -264 -313h221zM1559 696l-62 -438h96l-12 -80h-96l-25 -178h-96l25 178h-322l12 80q236 223 359 438h121zM393 756l72 512l-180 -86l-15 75q166 68 240 121h68l-89 -622h205l-12 -80h-506l12 80h205zM563 0h-61l954 1393h62z" />
    <glyph glyph-name="onehalf" unicode="&#xbd;" horiz-adv-x="1638" 
d="M1620 535q0 -109 -87 -215t-282 -232v-2h318l-13 -86h-452l12 94q399 240 400 416q0 109 -125 108q-74 0 -179 -47l-18 74q118 61 224 61t154 -48t48 -123zM393 756l72 512l-180 -86l-15 75q166 68 240 121h68l-89 -622h205l-12 -80h-506l12 80h205zM522 0h-61l954 1393
h62z" />
    <glyph glyph-name="threequarters" unicode="&#xbe;" horiz-adv-x="1638" 
d="M1401 258l43 313q-100 -150 -264 -313h221zM1559 696l-62 -438h96l-12 -80h-96l-25 -178h-96l25 178h-322l12 80q236 223 359 438h121zM499 1372q105 0 156 -40t52 -111q0 -143 -158 -195q129 -31 129 -147q0 -88 -65 -156t-205 -68t-226 60l41 76q101 -55 191 -55
t128 43q38 44 38 93q0 102 -148 103h-88l12 80h82q88 0 128 46t40 92q0 101 -110 99q-70 0 -193 -53l-18 74q109 59 214 59zM563 0h-61l954 1393h62z" />
    <glyph glyph-name="questiondown" unicode="&#xbf;" horiz-adv-x="983" 
d="M439 -389q-195 0 -275 83t-80 204q0 122 45 208t110 136t131 92q159 98 175 198l8 62h164l-8 -62q-11 -86 -61 -152t-110 -106q-60 -41 -121 -81q-141 -96 -141 -244q0 -164 226 -164q133 0 315 63l31 -159q-213 -78 -409 -78zM604 1024h184l-36 -266h-185z" />
    <glyph glyph-name="Agrave" unicode="&#xc0;" horiz-adv-x="1331" 
d="M961 518l-130 643h-4l-317 -643h451zM279 0h-207l676 1403h239l273 -1403h-216l-65 354h-533zM881 1802l84 -286h-144l-135 286h195z" />
    <glyph glyph-name="Aacute" unicode="&#xc1;" horiz-adv-x="1331" 
d="M961 518l-130 643h-4l-317 -643h451zM279 0h-207l676 1403h239l273 -1403h-216l-65 354h-533zM977 1802h194l-213 -286h-143z" />
    <glyph glyph-name="Acircumflex" unicode="&#xc2;" horiz-adv-x="1331" 
d="M961 518l-130 643h-4l-317 -643h451zM279 0h-207l676 1403h239l273 -1403h-216l-65 354h-533zM610 1516l250 286h133l170 -286h-143l-107 184l-159 -184h-144z" />
    <glyph glyph-name="Atilde" unicode="&#xc3;" horiz-adv-x="1331" 
d="M961 518l-130 643h-4l-317 -643h451zM279 0h-207l676 1403h239l273 -1403h-216l-65 354h-533zM790 1628q-40 0 -73 -17t-105 -81l-51 67q131 170 242 170q53 0 139 -54t117 -54q65 0 145 94l41 -76q-96 -152 -207 -151q-39 0 -124 51q-84 51 -124 51z" />
    <glyph glyph-name="Adieresis" unicode="&#xc4;" horiz-adv-x="1331" 
d="M961 518l-130 643h-4l-317 -643h451zM279 0h-207l676 1403h239l273 -1403h-216l-65 354h-533zM1174 1536h-154l33 246h153zM764 1536h-154l33 246h154z" />
    <glyph glyph-name="Aring" unicode="&#xc5;" horiz-adv-x="1331" 
d="M961 518l-130 643h-4l-317 -643h451zM279 0h-207l676 1403h239l273 -1403h-216l-65 354h-533zM809 1628q0 -86 84 -86q41 0 74 33t33 74t-24 65q-22 24 -62 23q-40 0 -73 -34q-32 -34 -32 -75zM743 1624q1 66 55 117t122 51t105 -36q38 -36 38 -102t-53 -118
q-52 -51 -120 -51t-108 37q-39 36 -39 102z" />
    <glyph glyph-name="AE" unicode="&#xc6;" horiz-adv-x="1896" 
d="M975 651l80 566h-4l-367 -566h291zM268 0h-196l909 1393h989l-24 -174h-697l-57 -410h604l-24 -174h-605l-65 -461h706l-24 -174h-901l69 498h-356z" />
    <glyph glyph-name="Ccedilla" unicode="&#xc7;" horiz-adv-x="1269" 
d="M939 1413q206 0 441 -72l-67 -163q-246 61 -382 61t-219 -34t-134 -94t-98 -150t-67 -291q-7 -70 -7 -144q0 -180 80 -276t254 -96q176 0 438 61l20 -164q-240 -68 -471 -71l-12 -93q154 -14 153 -125q0 -82 -61 -132t-147 -50t-164 25l20 61q53 -14 113 -14q59 0 91 36
t32 72q0 78 -113 86l18 136q-459 20 -458 512q0 124 14 234t59 241t120 224t208 157t339 63z" />
    <glyph glyph-name="Egrave" unicode="&#xc8;" horiz-adv-x="1146" 
d="M442 809h605l-25 -174h-604l-66 -461h707l-25 -174h-901l197 1393h891l-25 -174h-696zM782 1802l84 -286h-143l-135 286h194z" />
    <glyph glyph-name="Eacute" unicode="&#xc9;" horiz-adv-x="1146" 
d="M442 809h605l-25 -174h-604l-66 -461h707l-25 -174h-901l197 1393h891l-25 -174h-696zM879 1802h194l-213 -286h-143z" />
    <glyph glyph-name="Ecircumflex" unicode="&#xca;" horiz-adv-x="1146" 
d="M442 809h605l-25 -174h-604l-66 -461h707l-25 -174h-901l197 1393h891l-25 -174h-696zM512 1516l250 286h133l170 -286h-143l-107 184l-160 -184h-143z" />
    <glyph glyph-name="Edieresis" unicode="&#xcb;" horiz-adv-x="1146" 
d="M442 809h605l-25 -174h-604l-66 -461h707l-25 -174h-901l197 1393h891l-25 -174h-696zM1075 1536h-153l32 246h154zM666 1536h-154l33 246h153z" />
    <glyph glyph-name="Igrave" unicode="&#xcc;" horiz-adv-x="460" 
d="M524 1393l-196 -1393h-195l197 1393h194zM442 1843l84 -287h-143l-135 287h194z" />
    <glyph glyph-name="Iacute" unicode="&#xcd;" horiz-adv-x="460" 
d="M524 1393l-196 -1393h-195l197 1393h194zM541 1843h194l-213 -287h-143z" />
    <glyph glyph-name="Icircumflex" unicode="&#xce;" horiz-adv-x="460" 
d="M524 1393l-196 -1393h-195l197 1393h194zM172 1556l250 287h133l170 -287h-143l-107 185l-160 -185h-143z" />
    <glyph glyph-name="Idieresis" unicode="&#xcf;" horiz-adv-x="460" 
d="M524 1393l-196 -1393h-195l197 1393h194zM735 1577h-153l32 246h154zM326 1577h-154l33 246h153z" />
    <glyph glyph-name="Eth" unicode="&#xd0;" horiz-adv-x="1351" 
d="M674 174q119 0 208 51t138 125t88 205t39 310q0 177 -75 265t-251 89h-301l-63 -455h245l-16 -113h-246l-67 -477h301zM848 1393q504 0 504 -498q0 -245 -75 -454q-46 -128 -120 -221q-74 -92 -205 -156t-301 -64h-497l92 651h-123l16 113h123l88 629h498z" />
    <glyph glyph-name="Ntilde" unicode="&#xd1;" horiz-adv-x="1331" 
d="M524 1393l531 -1033h4l147 1033h189l-197 -1393h-194l-535 1014h-4l-141 -1014h-191l197 1393h194zM783 1628q-41 0 -73 -17t-104 -81l-51 67q131 170 242 170q53 0 139 -54t117 -54q65 0 145 94l41 -76q-96 -152 -207 -151q-39 0 -124 51t-125 51z" />
    <glyph glyph-name="Ograve" unicode="&#xd2;" horiz-adv-x="1413" 
d="M885 1249q-481 0 -482 -741q0 -172 73 -268t269 -96t305 142q107 143 135 306q29 163 29 318t-73 247q-74 92 -256 92zM707 -20q-508 0 -508 516q0 124 13 234t59 240t120 223t207 157t309 63q277 0 395 -133t117 -371q0 -192 -38 -348t-91 -248t-128 -169
q-74 -76 -192 -120t-263 -44zM915 1802l84 -286h-143l-135 286h194z" />
    <glyph glyph-name="Oacute" unicode="&#xd3;" horiz-adv-x="1413" 
d="M885 1249q-481 0 -482 -741q0 -172 73 -268t269 -96t305 142q107 143 135 306q29 163 29 318t-73 247q-74 92 -256 92zM707 -20q-508 0 -508 516q0 124 13 234t59 240t120 223t207 157t309 63q277 0 395 -133t117 -371q0 -192 -38 -348t-91 -248t-128 -169
q-74 -76 -192 -120t-263 -44zM1012 1802h194l-213 -286h-143z" />
    <glyph glyph-name="Ocircumflex" unicode="&#xd4;" horiz-adv-x="1413" 
d="M885 1249q-481 0 -482 -741q0 -172 73 -268t269 -96t305 142q107 143 135 306q29 163 29 318t-73 247q-74 92 -256 92zM707 -20q-508 0 -508 516q0 124 13 234t59 240t120 223t207 157t309 63q277 0 395 -133t117 -371q0 -192 -38 -348t-91 -248t-128 -169
q-74 -76 -192 -120t-263 -44zM645 1516l250 286h133l170 -286h-143l-107 184l-160 -184h-143z" />
    <glyph glyph-name="Otilde" unicode="&#xd5;" horiz-adv-x="1413" 
d="M885 1249q-481 0 -482 -741q0 -172 73 -268t269 -96t305 142q107 143 135 306q29 163 29 318t-73 247q-74 92 -256 92zM707 -20q-508 0 -508 516q0 124 13 234t59 240t120 223t207 157t309 63q277 0 395 -133t117 -371q0 -192 -38 -348t-91 -248t-128 -169
q-74 -76 -192 -120t-263 -44zM824 1628q-40 0 -72 -17t-105 -81l-51 67q131 170 242 170q53 0 139 -54t117 -54q65 0 145 94l41 -76q-96 -152 -207 -151q-39 0 -124 51t-125 51z" />
    <glyph glyph-name="Odieresis" unicode="&#xd6;" horiz-adv-x="1413" 
d="M885 1249q-481 0 -482 -741q0 -172 73 -268t269 -96t305 142q107 143 135 306q29 163 29 318t-73 247q-74 92 -256 92zM707 -20q-508 0 -508 516q0 124 13 234t59 240t120 223t207 157t309 63q277 0 395 -133t117 -371q0 -192 -38 -348t-91 -248t-128 -169
q-74 -76 -192 -120t-263 -44zM1208 1536h-153l32 246h154zM799 1536h-154l33 246h153z" />
    <glyph glyph-name="multiply" unicode="&#xd7;" horiz-adv-x="1013" 
d="M692 543l246 -285l-125 -108l-246 284l-325 -284l-92 108l325 285l-246 286l125 109l244 -287l328 287l92 -109z" />
    <glyph glyph-name="Oslash" unicode="&#xd8;" horiz-adv-x="1413" 
d="M729 143q94 0 171 32q314 130 314 724q1 92 -30 160l-731 -785q76 -131 276 -131zM428 356l729 779q-76 115 -270 114q-125 0 -219 -53t-144 -130t-88 -215q-37 -138 -35 -343q0 -89 27 -152zM1419 907q0 -119 -14 -231q-13 -112 -61 -243q-48 -132 -122 -228t-208 -161
q-133 -65 -307 -64q-268 0 -394 147l-176 -190l-53 47l184 198q-70 123 -69 312q0 430 174 670q111 155 304 216q105 33 232 33q256 0 383 -133l189 203l55 -49l-195 -207q78 -119 78 -320z" />
    <glyph glyph-name="Ugrave" unicode="&#xd9;" horiz-adv-x="1310" 
d="M391 374q0 -100 65 -166t228 -65q205 0 287 118q66 95 84 231l127 901h194l-127 -901q-70 -512 -594 -512q-461 0 -460 387q0 88 137 1026h194q-135 -919 -135 -1019zM864 1802l84 -286h-143l-135 286h194z" />
    <glyph glyph-name="Uacute" unicode="&#xda;" horiz-adv-x="1310" 
d="M391 374q0 -100 65 -166t228 -65q205 0 287 118q66 95 84 231l127 901h194l-127 -901q-70 -512 -594 -512q-461 0 -460 387q0 88 137 1026h194q-135 -919 -135 -1019zM961 1802h194l-213 -286h-143z" />
    <glyph glyph-name="Ucircumflex" unicode="&#xdb;" horiz-adv-x="1310" 
d="M391 374q0 -100 65 -166t228 -65q205 0 287 118q66 95 84 231l127 901h194l-127 -901q-70 -512 -594 -512q-461 0 -460 387q0 88 137 1026h194q-135 -919 -135 -1019zM594 1516l250 286h133l170 -286h-143l-107 184l-160 -184h-143z" />
    <glyph glyph-name="Udieresis" unicode="&#xdc;" horiz-adv-x="1310" 
d="M391 374q0 -100 65 -166t228 -65q205 0 287 118q66 95 84 231l127 901h194l-127 -901q-70 -512 -594 -512q-461 0 -460 387q0 88 137 1026h194q-135 -919 -135 -1019zM1157 1536h-153l32 246h154zM748 1536h-154l33 246h153z" />
    <glyph glyph-name="Yacute" unicode="&#xdd;" horiz-adv-x="1269" 
d="M1395 1393l-592 -901l-70 -492h-194l69 492l-340 901h224l243 -701h4l445 701h211zM940 1802h195l-213 -286h-144z" />
    <glyph glyph-name="Thorn" unicode="&#xde;" 
d="M741 461q81 -1 143 27t94 73q60 84 60 187q0 102 -61 153t-166 51h-348l-70 -491h348zM856 1126q182 0 284 -94t101 -258q0 -164 -108 -316q-55 -77 -157 -124t-239 -47h-368l-41 -287h-195l197 1393h194l-37 -267h369z" />
    <glyph glyph-name="germandbls" unicode="&#xdf;" horiz-adv-x="1320" 
d="M860 1434q180 0 280 -64t101 -192q0 -94 -49 -171q-50 -77 -108 -117q-156 -107 -156 -163q0 -29 37 -53t91 -44q54 -22 107 -52t90 -85q37 -56 37 -135q0 -158 -119 -268t-344 -110q-135 0 -258 40l43 144q122 -41 212 -41q216 0 259 155q43 139 -111 222
q-50 28 -100 52q-123 60 -123 139q1 80 98 165q40 35 80 72q97 90 97 189t-60 134t-141 35q-147 0 -215 -85t-90 -228l-160 -1123q-20 -150 -95 -216t-240 -64q-68 0 -162 14l37 144q72 -10 132 -10t98 31q38 32 50 118l164 1157q57 410 518 410z" />
    <glyph glyph-name="agrave" unicode="&#xe0;" horiz-adv-x="1091" 
d="M674 891q-244 0 -306 -351q-13 -75 -14 -147q0 -260 213 -260q139 0 258 88l82 584q-90 86 -233 86zM158 356q0 185 45 317t97 204q52 71 138 119t197 48q184 0 295 -116h4l47 102h141l-143 -1030h-184l14 102h-4q-143 -123 -330 -122q-317 0 -317 376zM709 1434l84 -287
h-144l-135 287h195z" />
    <glyph glyph-name="aacute" unicode="&#xe1;" horiz-adv-x="1091" 
d="M674 891q-244 0 -306 -351q-13 -75 -14 -147q0 -260 213 -260q139 0 258 88l82 584q-90 86 -233 86zM158 356q0 185 45 317t97 204q52 71 138 119t197 48q184 0 295 -116h4l47 102h141l-143 -1030h-184l14 102h-4q-143 -123 -330 -122q-317 0 -317 376zM805 1434h194
l-213 -287h-143z" />
    <glyph glyph-name="acircumflex" unicode="&#xe2;" horiz-adv-x="1091" 
d="M674 891q-244 0 -306 -351q-13 -75 -14 -147q0 -260 213 -260q139 0 258 88l82 584q-90 86 -233 86zM158 356q0 185 45 317t97 204q52 71 138 119t197 48q184 0 295 -116h4l47 102h141l-143 -1030h-184l14 102h-4q-143 -123 -330 -122q-317 0 -317 376zM438 1147l250 287
h133l170 -287h-143l-107 184l-159 -184h-144z" />
    <glyph glyph-name="atilde" unicode="&#xe3;" horiz-adv-x="1091" 
d="M674 891q-244 0 -306 -351q-13 -75 -14 -147q0 -260 213 -260q139 0 258 88l82 584q-90 86 -233 86zM158 356q0 185 45 317t97 204q52 71 138 119t197 48q184 0 295 -116h4l47 102h141l-143 -1030h-184l14 102h-4q-143 -123 -330 -122q-317 0 -317 376zM866 1157
q-39 0 -124 51q-85 52 -125 52q-41 0 -73 -18t-104 -81l-51 68q131 170 242 170q53 0 139 -54t117 -55q65 0 145 94l41 -75q-96 -152 -207 -152z" />
    <glyph glyph-name="adieresis" unicode="&#xe4;" horiz-adv-x="1091" 
d="M674 891q-244 0 -306 -351q-13 -75 -14 -147q0 -260 213 -260q139 0 258 88l82 584q-90 86 -233 86zM158 356q0 185 45 317t97 204q52 71 138 119t197 48q184 0 295 -116h4l47 102h141l-143 -1030h-184l14 102h-4q-143 -123 -330 -122q-317 0 -317 376zM1001 1167h-153
l33 246h153zM592 1167h-154l33 246h154z" />
    <glyph glyph-name="aring" unicode="&#xe5;" horiz-adv-x="1091" 
d="M674 891q-244 0 -306 -351q-13 -75 -14 -147q0 -260 213 -260q139 0 258 88l82 584q-90 86 -233 86zM158 356q0 185 45 317t97 204q52 71 138 119t197 48q184 0 295 -116h4l47 102h141l-143 -1030h-184l14 102h-4q-143 -123 -330 -122q-317 0 -317 376zM637 1259
q0 -87 84 -85q41 0 74 32t33 74q0 41 -23 65q-23 23 -64 23t-73 -34t-31 -75zM571 1256q1 66 55 116q54 51 122 51q68 1 105 -35q38 -36 38 -103t-53 -118q-52 -51 -120 -51t-108 37q-39 37 -39 103z" />
    <glyph glyph-name="ae" unicode="&#xe6;" horiz-adv-x="1730" 
d="M594 481q-154 0 -218 -58t-65 -149q0 -152 191 -151q170 0 305 117q-20 120 2 241h-215zM1569 725q0 176 -209 176q-270 0 -336 -301h520q25 63 25 125zM1249 -20q-307 0 -405 192q-199 -193 -434 -192q-133 0 -211 66t-78 183q0 177 123 271t354 94h225q18 125 19 143
q4 82 -46 118t-180 36t-317 -37l-6 147q219 43 379 43t220 -48t93 -150q135 199 404 198q367 0 366 -309q0 -117 -47 -254h-700q-6 -41 -7 -75q0 -272 295 -273q178 0 326 41l4 -147q-170 -47 -377 -47z" />
    <glyph glyph-name="ccedilla" unicode="&#xe7;" horiz-adv-x="983" 
d="M744 891q-235 0 -319 -174q-69 -141 -71 -303q0 -281 262 -281q150 0 320 41l14 -147q-168 -45 -321 -47l-15 -93q152 -14 152 -125q0 -82 -61 -132t-147 -50t-165 25l21 61q58 -14 114 -14t90 35t33 75q0 76 -114 84l20 134q-399 16 -399 397q0 334 164 511
q61 68 170 112t264 44t329 -45l-53 -149q-160 41 -288 41z" />
    <glyph glyph-name="egrave" unicode="&#xe8;" horiz-adv-x="1085" 
d="M922 725q0 176 -207 176q-270 0 -336 -301h520q23 61 23 125zM356 403q0 -270 295 -270q178 0 326 41l4 -147q-170 -47 -377 -47q-446 0 -446 401q0 483 337 619q108 44 248 44q369 0 369 -309q0 -107 -49 -254h-701q-6 -39 -6 -78zM723 1434l84 -287h-143l-136 287h195z
" />
    <glyph glyph-name="eacute" unicode="&#xe9;" horiz-adv-x="1085" 
d="M922 725q0 176 -207 176q-270 0 -336 -301h520q23 61 23 125zM356 403q0 -270 295 -270q178 0 326 41l4 -147q-170 -47 -377 -47q-446 0 -446 401q0 483 337 619q108 44 248 44q369 0 369 -309q0 -107 -49 -254h-701q-6 -39 -6 -78zM821 1434h195l-213 -287h-144z" />
    <glyph glyph-name="ecircumflex" unicode="&#xea;" horiz-adv-x="1085" 
d="M922 725q0 176 -207 176q-270 0 -336 -301h520q23 61 23 125zM356 403q0 -270 295 -270q178 0 326 41l4 -147q-170 -47 -377 -47q-446 0 -446 401q0 483 337 619q108 44 248 44q369 0 369 -309q0 -107 -49 -254h-701q-6 -39 -6 -78zM455 1147l250 287h133l170 -287h-144
l-106 184l-160 -184h-143z" />
    <glyph glyph-name="edieresis" unicode="&#xeb;" horiz-adv-x="1085" 
d="M922 725q0 176 -207 176q-270 0 -336 -301h520q23 61 23 125zM356 403q0 -270 295 -270q178 0 326 41l4 -147q-170 -47 -377 -47q-446 0 -446 401q0 483 337 619q108 44 248 44q369 0 369 -309q0 -107 -49 -254h-701q-6 -39 -6 -78zM1016 1167h-154l33 246h154zM606 1167
h-153l32 246h154z" />
    <glyph glyph-name="igrave" unicode="&#xec;" horiz-adv-x="409" 
d="M113 0l143 1024h184l-143 -1024h-184zM360 1434l84 -287h-143l-135 287h194z" />
    <glyph glyph-name="iacute" unicode="&#xed;" horiz-adv-x="409" 
d="M113 0l143 1024h184l-143 -1024h-184zM463 1434h194l-213 -287h-143z" />
    <glyph glyph-name="icircumflex" unicode="&#xee;" horiz-adv-x="409" 
d="M113 0l143 1024h184l-143 -1024h-184zM90 1147l250 287h133l170 -287h-143l-107 184l-160 -184h-143z" />
    <glyph glyph-name="idieresis" unicode="&#xef;" horiz-adv-x="409" 
d="M113 0l143 1024h184l-143 -1024h-184zM651 1167h-153l32 246h154zM242 1167h-154l33 246h153z" />
    <glyph glyph-name="eth" unicode="&#xf0;" horiz-adv-x="1126" 
d="M348 387q0 -121 66 -187t166 -67q299 0 344 475q-94 164 -244 164t-236 -99q-96 -115 -96 -286zM609 1260q-124 0 -277 -52l-4 144q170 61 344 61t284 -94l177 156l57 -66l-164 -145q117 -139 117 -418q0 -117 -25 -254q-106 -612 -571 -612q-178 0 -287 103
q-108 103 -108 288t107 361q55 88 157 144t216 56q216 0 322 -180q11 5 13 116q0 178 -76 277l-160 -139l-57 67l141 121q-82 66 -206 66z" />
    <glyph glyph-name="ntilde" unicode="&#xf1;" horiz-adv-x="1085" 
d="M1079 788q0 -72 -106 -788h-185q98 678 99 729q0 162 -178 162q-123 0 -303 -117l-109 -774h-184l143 1024h184l-18 -143h4q184 164 387 163q266 0 266 -256zM854 1157q-39 0 -124 51q-85 52 -125 52t-73 -18t-104 -81l-51 68q131 170 241 170q54 0 140 -54t116 -55
q66 0 146 94l41 -75q-96 -152 -207 -152z" />
    <glyph glyph-name="ograve" unicode="&#xf2;" horiz-adv-x="1126" 
d="M692 891q-82 0 -145 -36t-98 -88q-95 -141 -95 -374q0 -260 232 -260q100 0 173 52q73 51 105 135q59 153 62 307q-1 264 -234 264zM563 -20q-406 0 -405 395q0 191 63 349q37 93 96 162q59 70 161 114t235 44q408 0 407 -399q0 -328 -163 -510q-59 -67 -161 -111
t-233 -44zM723 1434l84 -287h-143l-136 287h195z" />
    <glyph glyph-name="oacute" unicode="&#xf3;" horiz-adv-x="1126" 
d="M692 891q-82 0 -145 -36t-98 -88q-95 -141 -95 -374q0 -260 232 -260q100 0 173 52q73 51 105 135q59 153 62 307q-1 264 -234 264zM563 -20q-406 0 -405 395q0 191 63 349q37 93 96 162q59 70 161 114t235 44q408 0 407 -399q0 -328 -163 -510q-59 -67 -161 -111
t-233 -44zM821 1434h195l-213 -287h-144z" />
    <glyph glyph-name="ocircumflex" unicode="&#xf4;" horiz-adv-x="1126" 
d="M692 891q-82 0 -145 -36t-98 -88q-95 -141 -95 -374q0 -260 232 -260q100 0 173 52q73 51 105 135q59 153 62 307q-1 264 -234 264zM563 -20q-406 0 -405 395q0 191 63 349q37 93 96 162q59 70 161 114t235 44q408 0 407 -399q0 -328 -163 -510q-59 -67 -161 -111
t-233 -44zM455 1147l250 287h133l170 -287h-144l-106 184l-160 -184h-143z" />
    <glyph glyph-name="otilde" unicode="&#xf5;" horiz-adv-x="1126" 
d="M692 891q-82 0 -145 -36t-98 -88q-95 -141 -95 -374q0 -260 232 -260q100 0 173 52q73 51 105 135q59 153 62 307q-1 264 -234 264zM563 -20q-406 0 -405 395q0 191 63 349q37 93 96 162q59 70 161 114t235 44q408 0 407 -399q0 -328 -163 -510q-59 -67 -161 -111
t-233 -44zM883 1157q-39 0 -124 51q-85 52 -125 52t-73 -18t-104 -81l-51 68q131 170 241 170q53 0 139 -54t117 -55q66 0 146 94l41 -75q-96 -152 -207 -152z" />
    <glyph glyph-name="odieresis" unicode="&#xf6;" horiz-adv-x="1126" 
d="M692 891q-82 0 -145 -36t-98 -88q-95 -141 -95 -374q0 -260 232 -260q100 0 173 52q73 51 105 135q59 153 62 307q-1 264 -234 264zM563 -20q-406 0 -405 395q0 191 63 349q37 93 96 162q59 70 161 114t235 44q408 0 407 -399q0 -328 -163 -510q-59 -67 -161 -111
t-233 -44zM1016 1167h-154l33 246h154zM606 1167h-153l32 246h154z" />
    <glyph glyph-name="divide" unicode="&#xf7;" horiz-adv-x="1024" 
d="M608 92h-164l33 246h164zM977 467h-799l23 154h798zM698 748h-163l34 245h164z" />
    <glyph glyph-name="oslash" unicode="&#xf8;" horiz-adv-x="1126" 
d="M576 133q116 0 188 49q116 79 150 271q34 193 -7 274l-504 -510q57 -84 173 -84zM712 891q-216 0 -289 -179q-63 -150 -65 -300q0 -64 23 -113l506 508q-61 84 -175 84zM1126 645q0 -326 -162 -510q-60 -67 -162 -111t-233 -44q-199 0 -299 106l-147 -149l-53 47l149 153
q-55 90 -55 238q0 325 159 511q58 70 160 114t236 44q201 0 299 -104l149 150l54 -50l-152 -151q57 -96 57 -244z" />
    <glyph glyph-name="ugrave" unicode="&#xf9;" horiz-adv-x="1085" 
d="M154 240q0 70 106 784h184q-98 -672 -98 -721q0 -170 178 -170q133 0 303 119l109 772h184l-145 -1024h-184l22 143h-4q-193 -164 -389 -163q-266 0 -266 260zM692 1434l84 -287h-143l-135 287h194z" />
    <glyph glyph-name="uacute" unicode="&#xfa;" horiz-adv-x="1085" 
d="M154 240q0 70 106 784h184q-98 -672 -98 -721q0 -170 178 -170q133 0 303 119l109 772h184l-145 -1024h-184l22 143h-4q-193 -164 -389 -163q-266 0 -266 260zM788 1434h195l-213 -287h-143z" />
    <glyph glyph-name="ucircumflex" unicode="&#xfb;" horiz-adv-x="1085" 
d="M154 240q0 70 106 784h184q-98 -672 -98 -721q0 -170 178 -170q133 0 303 119l109 772h184l-145 -1024h-184l22 143h-4q-193 -164 -389 -163q-266 0 -266 260zM422 1147l250 287h133l170 -287h-144l-106 184l-160 -184h-143z" />
    <glyph glyph-name="udieresis" unicode="&#xfc;" horiz-adv-x="1085" 
d="M154 240q0 70 106 784h184q-98 -672 -98 -721q0 -170 178 -170q133 0 303 119l109 772h184l-145 -1024h-184l22 143h-4q-193 -164 -389 -163q-266 0 -266 260zM985 1167h-154l33 246h154zM575 1167h-153l33 246h153z" />
    <glyph glyph-name="yacute" unicode="&#xfd;" horiz-adv-x="1146" 
d="M205 -430q-74 0 -150 14l39 154q55 -10 94 -10q164 0 289 252l-252 1044h207l180 -838h4l396 838h196l-536 -1085q-98 -199 -207 -284t-260 -85zM829 1434h195l-213 -287h-143z" />
    <glyph glyph-name="thorn" unicode="&#xfe;" horiz-adv-x="1085" 
d="M557 133q245 0 306 350q13 76 14 150q0 258 -213 258q-135 0 -258 -86l-82 -584q98 -88 233 -88zM1073 672q0 -238 -90 -441q-49 -113 -148 -183t-237 -68q-182 0 -287 118h-4l-71 -508h-185l258 1844h185l-72 -512h4q143 123 332 122q315 0 315 -372z" />
    <glyph glyph-name="ydieresis" unicode="&#xff;" horiz-adv-x="1146" 
d="M205 -430q-74 0 -150 14l39 154q55 -10 94 -10q164 0 289 252l-252 1044h207l180 -838h4l396 838h196l-536 -1085q-98 -199 -207 -284t-260 -85zM1026 1167h-154l33 246h154zM616 1167h-153l33 246h153z" />
    <glyph glyph-name="Amacron" unicode="&#x100;" horiz-adv-x="1331" 
d="M961 518l-130 643h-4l-317 -643h451zM279 0h-207l676 1403h239l273 -1403h-216l-65 354h-533zM1214 1587h-634l18 123h635z" />
    <glyph glyph-name="amacron" unicode="&#x101;" horiz-adv-x="1091" 
d="M674 891q-244 0 -306 -351q-13 -75 -14 -147q0 -260 213 -260q139 0 258 88l82 584q-90 86 -233 86zM158 356q0 185 45 317t97 204q52 71 138 119t197 48q184 0 295 -116h4l47 102h141l-143 -1030h-184l14 102h-4q-143 -123 -330 -122q-317 0 -317 376zM1042 1219h-634
l18 122h635z" />
    <glyph glyph-name="Abreve" unicode="&#x102;" horiz-adv-x="1331" 
d="M961 518l-130 643h-4l-317 -643h451zM279 0h-207l676 1403h239l273 -1403h-216l-65 354h-533zM643 1802h78q10 -72 54 -120t128 -48q160 0 232 168h79q-78 -276 -325 -276q-119 0 -183 70t-63 206z" />
    <glyph glyph-name="abreve" unicode="&#x103;" horiz-adv-x="1091" 
d="M674 891q-244 0 -306 -351q-13 -75 -14 -147q0 -260 213 -260q139 0 258 88l82 584q-90 86 -233 86zM158 356q0 185 45 317t97 204q52 71 138 119t197 48q184 0 295 -116h4l47 102h141l-143 -1030h-184l14 102h-4q-143 -123 -330 -122q-317 0 -317 376zM471 1434h78
q10 -72 54 -120t128 -48q160 0 232 168h79q-78 -276 -325 -277q-119 0 -183 71t-63 206z" />
    <glyph glyph-name="Aogonek" unicode="&#x104;" horiz-adv-x="1331" 
d="M961 518l-132 643l-319 -643h451zM1028 -250q0 -88 105 -88q47 0 120 35v-47q-82 -60 -173 -60t-137 33t-46 97t56 140q56 77 159 140h-68l-65 354h-533l-167 -354h-207l678 1403h239l271 -1403q-112 -33 -172 -110t-60 -140z" />
    <glyph glyph-name="aogonek" unicode="&#x105;" horiz-adv-x="1091" 
d="M674 891q-244 0 -306 -351q-13 -75 -14 -147q0 -260 213 -260q139 0 258 88l82 584q-90 86 -233 86zM760 -250q0 -88 104 -88q43 0 123 35v-47q-82 -60 -173 -60t-137 34t-46 100t62 147q62 80 153 129h-51l14 102h-4q-143 -123 -330 -122q-317 0 -317 376q0 185 45 317
t97 204q52 71 138 119t197 48q184 0 295 -116h4l47 102h141l-143 -1030h-41q-82 -57 -130 -126t-48 -124z" />
    <glyph glyph-name="Cacute" unicode="&#x106;" horiz-adv-x="1269" 
d="M199 492q0 197 36 350q36 154 87 242t125 166q159 163 460 163q238 0 473 -72l-67 -163q-247 61 -393 61t-239 -51t-144 -125t-91 -207t-40 -332q0 -371 339 -370q171 0 433 61l20 -164q-256 -72 -491 -71q-508 0 -508 512zM1016 1802h194l-213 -286h-143z" />
    <glyph glyph-name="cacute" unicode="&#x107;" horiz-adv-x="983" 
d="M594 -20q-436 0 -436 397q0 334 164 511q61 68 170 112t264 44t329 -45l-53 -149q-160 41 -288 41q-235 0 -319 -174q-69 -141 -71 -303q0 -281 262 -281q150 0 320 41l14 -147q-186 -47 -356 -47zM836 1434h194l-213 -287h-143z" />
    <glyph glyph-name="Cdotaccent" unicode="&#x10a;" horiz-adv-x="1269" 
d="M199 492q0 197 36 350q36 154 87 242t125 166q159 163 460 163q238 0 473 -72l-67 -163q-247 61 -393 61t-239 -51t-144 -125t-91 -207t-40 -332q0 -371 339 -370q171 0 433 61l20 -164q-256 -72 -491 -71q-508 0 -508 512zM1018 1505h-184l36 256h185z" />
    <glyph glyph-name="cdotaccent" unicode="&#x10b;" horiz-adv-x="983" 
d="M594 -20q-436 0 -436 397q0 334 164 511q61 68 170 112t264 44t329 -45l-53 -149q-160 41 -288 41q-235 0 -319 -174q-69 -141 -71 -303q0 -281 262 -281q150 0 320 41l14 -147q-186 -47 -356 -47zM838 1137h-185l37 256h184z" />
    <glyph glyph-name="Ccaron" unicode="&#x10c;" horiz-adv-x="1269" 
d="M199 492q0 197 36 350q36 154 87 242t125 166q159 163 460 163q238 0 473 -72l-67 -163q-247 61 -393 61t-239 -51t-144 -125t-91 -207t-40 -332q0 -371 339 -370q171 0 433 61l20 -164q-256 -72 -491 -71q-508 0 -508 512zM688 1802h143l109 -184l158 184h143l-248 -286
h-133z" />
    <glyph glyph-name="ccaron" unicode="&#x10d;" horiz-adv-x="983" 
d="M594 -20q-436 0 -436 397q0 334 164 511q61 68 170 112t264 44t329 -45l-53 -149q-160 41 -288 41q-235 0 -319 -174q-69 -141 -71 -303q0 -281 262 -281q150 0 320 41l14 -147q-186 -47 -356 -47zM508 1434h143l109 -185l158 185h143l-248 -287h-133z" />
    <glyph glyph-name="Dcaron" unicode="&#x10e;" horiz-adv-x="1331" 
d="M653 174q119 0 208 51t138 125t88 205t39 310q0 177 -74 265t-251 89h-301l-148 -1045h301zM827 1393q504 0 504 -498q0 -250 -75 -454q-46 -128 -120 -221q-74 -92 -204 -156q-131 -64 -301 -64h-498l197 1393h497zM602 1802h143l109 -184l158 184h143l-248 -286h-133z
" />
    <glyph glyph-name="dcaron" unicode="&#x10f;" horiz-adv-x="1085" 
d="M672 891q-78 0 -137 -37q-102 -64 -147 -216q-36 -116 -36 -247q0 -258 213 -258q139 0 258 88l82 584q-82 86 -233 86zM1288 1290h-51l20 144h144l-21 -144l-92 -174h-61zM156 352q0 195 45 323t95 201q50 72 137 120t198 48q186 0 287 -116h4l71 506h185l-203 -1434
h-184l14 102h-4q-137 -123 -330 -122q-315 0 -315 372z" />
    <glyph glyph-name="Dcroat" unicode="&#x110;" horiz-adv-x="1351" 
d="M674 174q119 0 208 51t138 125t88 205t39 310q0 177 -75 265t-251 89h-301l-63 -455h245l-16 -113h-246l-67 -477h301zM848 1393q504 0 504 -498q0 -245 -75 -454q-46 -128 -120 -221q-74 -92 -205 -156t-301 -64h-497l92 651h-123l16 113h123l88 629h498z" />
    <glyph glyph-name="dcroat" unicode="&#x111;" horiz-adv-x="1085" 
d="M672 891q-78 0 -137 -37q-102 -64 -147 -216q-36 -116 -36 -247q0 -258 213 -258q139 0 258 88l82 584q-86 86 -233 86zM156 352q0 195 45 323t95 201q50 72 137 120t198 48q186 0 287 -116h4l32 225h-225l14 113h226l24 168h185l-25 -168h143l-14 -113h-143l-164 -1153
h-184l14 102h-4q-137 -123 -330 -122q-315 0 -315 372z" />
    <glyph glyph-name="Emacron" unicode="&#x112;" horiz-adv-x="1146" 
d="M442 809h605l-25 -174h-604l-66 -461h707l-25 -174h-901l197 1393h891l-25 -174h-696zM1116 1587h-635l19 123h635z" />
    <glyph glyph-name="emacron" unicode="&#x113;" horiz-adv-x="1085" 
d="M922 725q0 176 -207 176q-270 0 -336 -301h520q23 61 23 125zM356 403q0 -270 295 -270q178 0 326 41l4 -147q-170 -47 -377 -47q-446 0 -446 401q0 483 337 619q108 44 248 44q369 0 369 -309q0 -107 -49 -254h-701q-6 -39 -6 -78zM1059 1219h-635l18 122h635z" />
    <glyph glyph-name="Edotaccent" unicode="&#x116;" horiz-adv-x="1146" 
d="M442 809h605l-25 -174h-604l-66 -461h707l-25 -174h-901l197 1393h891l-25 -174h-696zM881 1505h-185l37 256h185z" />
    <glyph glyph-name="edotaccent" unicode="&#x117;" horiz-adv-x="1085" 
d="M922 725q0 176 -207 176q-270 0 -336 -301h520q23 61 23 125zM356 403q0 -270 295 -270q178 0 326 41l4 -147q-170 -47 -377 -47q-446 0 -446 401q0 483 337 619q108 44 248 44q369 0 369 -309q0 -107 -49 -254h-701q-6 -39 -6 -78zM823 1137h-184l37 256h184z" />
    <glyph glyph-name="Eogonek" unicode="&#x118;" horiz-adv-x="1146" 
d="M725 -285q0 145 215 285h-807l195 1393h891l-23 -174h-696l-60 -410h604l-22 -174h-604l-66 -461h707l-25 -174q-82 -57 -130 -126t-48 -124q0 -88 105 -88q42 0 122 35v-47q-82 -60 -173 -60t-138 33t-47 92z" />
    <glyph glyph-name="eogonek" unicode="&#x119;" horiz-adv-x="1085" 
d="M920 725q0 176 -209 176q-268 0 -334 -301h520q23 68 23 125zM354 403q0 -270 295 -270q178 0 328 41v-147q-80 -57 -128 -126t-48 -124q0 -88 104 -88q47 0 121 35v-50q-82 -59 -172 -59t-137 34t-47 91t45 127t133 133q-117 -20 -246 -20q-446 0 -446 403
q0 324 166 506q61 67 170 111t249 44q369 0 369 -309q0 -96 -49 -254h-701q-6 -39 -6 -78z" />
    <glyph glyph-name="Ecaron" unicode="&#x11a;" horiz-adv-x="1146" 
d="M442 809h605l-25 -174h-604l-66 -461h707l-25 -174h-901l197 1393h891l-25 -174h-696zM551 1802h143l109 -184l158 184h143l-248 -286h-133z" />
    <glyph glyph-name="ecaron" unicode="&#x11b;" horiz-adv-x="1085" 
d="M922 725q0 176 -207 176q-270 0 -336 -301h520q23 61 23 125zM356 403q0 -270 295 -270q178 0 326 41l4 -147q-170 -47 -377 -47q-446 0 -446 401q0 483 337 619q108 44 248 44q369 0 369 -309q0 -107 -49 -254h-701q-6 -39 -6 -78zM494 1434h143l108 -185l158 185h144
l-248 -287h-133z" />
    <glyph glyph-name="Gbreve" unicode="&#x11e;" horiz-adv-x="1310" 
d="M199 492q0 197 36 350q36 154 87 242t125 166q159 163 460 163q227 0 463 -72l-67 -163q-245 61 -387 61t-235 -51t-144 -125t-91 -207t-40 -332q0 -371 339 -370q139 0 273 69l45 320h-266l24 174h461l-88 -627q-139 -55 -247 -83t-240 -27q-508 0 -508 512zM662 1802
h77q11 -72 55 -120t128 -48q160 0 231 168h80q-78 -276 -326 -276q-119 0 -182 70t-63 206z" />
    <glyph glyph-name="gbreve" unicode="&#x11f;" horiz-adv-x="1091" 
d="M674 891q-244 0 -306 -351q-13 -75 -14 -147q0 -260 213 -260q139 0 258 88l82 584q-90 86 -233 86zM158 356q0 185 45 317t97 204q52 71 138 119t197 48q184 0 295 -116h4l47 102h141l-145 -1057q-53 -401 -494 -401q-205 0 -370 47l22 148q141 -41 320 -41
q297 0 338 272l16 104h-4q-143 -123 -330 -122q-317 0 -317 376zM471 1434h78q10 -72 54 -120t128 -48q160 0 232 168h79q-78 -276 -325 -277q-119 0 -183 71t-63 206z" />
    <glyph glyph-name="Gdotaccent" unicode="&#x120;" horiz-adv-x="1310" 
d="M199 492q0 197 36 350q36 154 87 242t125 166q159 163 460 163q227 0 463 -72l-67 -163q-245 61 -387 61t-235 -51t-144 -125t-91 -207t-40 -332q0 -371 339 -370q139 0 273 69l45 320h-266l24 174h461l-88 -627q-139 -55 -247 -83t-240 -27q-508 0 -508 512zM999 1505
h-184l37 256h184z" />
    <glyph glyph-name="gdotaccent" unicode="&#x121;" horiz-adv-x="1091" 
d="M674 891q-244 0 -306 -351q-13 -75 -14 -147q0 -260 213 -260q139 0 258 88l82 584q-90 86 -233 86zM158 356q0 185 45 317t97 204q52 71 138 119t197 48q184 0 295 -116h4l47 102h141l-145 -1057q-53 -401 -494 -401q-205 0 -370 47l22 148q141 -41 320 -41
q297 0 338 272l16 104h-4q-143 -123 -330 -122q-317 0 -317 376zM807 1137h-184l36 256h185z" />
    <glyph glyph-name="Gcommaaccent" unicode="&#x122;" horiz-adv-x="1310" 
d="M606 -205h-51l20 144h144l-21 -144l-92 -174h-61zM199 492q0 197 36 350q36 154 87 242t125 166q159 163 460 163q227 0 463 -72l-67 -163q-245 61 -387 61t-235 -51t-144 -125t-91 -207t-40 -332q0 -371 339 -370q139 0 273 69l45 320h-266l24 174h461l-88 -627
q-139 -55 -247 -83t-240 -27q-508 0 -508 512z" />
    <glyph glyph-name="gcommaaccent" unicode="&#x123;" horiz-adv-x="1091" 
d="M674 891q-244 0 -306 -351q-13 -75 -14 -147q0 -260 213 -260q139 0 258 88l82 584q-90 86 -233 86zM158 356q0 185 45 317t97 204q52 71 138 119t197 48q184 0 295 -116h4l47 102h141l-145 -1057q-53 -401 -494 -401q-205 0 -370 47l22 148q141 -41 320 -41
q297 0 338 272l16 104h-4q-143 -123 -330 -122q-317 0 -317 376zM745 1229h52l-21 -144h-143l20 144l92 174h62z" />
    <glyph glyph-name="Hbar" unicode="&#x126;" horiz-adv-x="1310" 
d="M1098 809l37 262h-656l-37 -262h656zM299 1184l31 209h194l-30 -209h655l31 209h194l-31 -209h144l-14 -113h-144l-151 -1071h-195l90 635h-655l-90 -635h-195l152 1071h-144l15 113h143z" />
    <glyph glyph-name="hbar" unicode="&#x127;" horiz-adv-x="1085" 
d="M1079 788q0 -72 -106 -788h-185q98 674 98 742t-40 108q-40 41 -150 41t-290 -117l-109 -774h-184l161 1153h-143l16 113h144l22 168h185l-23 -168h225l-16 -113h-225l-37 -272h4q184 164 387 163q266 0 266 -256z" />
    <glyph glyph-name="Imacron" unicode="&#x12a;" horiz-adv-x="460" 
d="M524 1393l-196 -1393h-195l197 1393h194zM776 1628h-635l19 123h635z" />
    <glyph glyph-name="imacron" unicode="&#x12b;" horiz-adv-x="409" 
d="M113 0l143 1024h184l-143 -1024h-184zM694 1219h-635l19 122h635z" />
    <glyph glyph-name="Iogonek" unicode="&#x12e;" horiz-adv-x="460" 
d="M211 -338q43 0 123 35v-47q-82 -60 -174 -60t-138 33t-46 97t56 141q58 76 161 139h-58l195 1393h194l-194 -1393q-109 -39 -166 -113t-58 -137q0 -88 105 -88z" />
    <glyph glyph-name="iogonek" unicode="&#x12f;" horiz-adv-x="409" 
d="M76 -250q0 -88 104 -88q43 0 123 35v-47q-82 -60 -173 -60t-137 34t-46 100t62 147q62 80 153 129h-49l143 1024h184l-143 -1024h-43q-82 -57 -130 -126t-48 -124zM496 1393l-37 -256h-185l37 256h185z" />
    <glyph glyph-name="Idotaccent" unicode="&#x130;" horiz-adv-x="460" 
d="M524 1393l-196 -1393h-195l197 1393h194zM543 1546h-185l37 256h185z" />
    <glyph glyph-name="dotlessi" unicode="&#x131;" horiz-adv-x="409" 
d="M440 1024l-143 -1024h-184l143 1024h184z" />
    <glyph glyph-name="IJ" unicode="&#x132;" horiz-adv-x="1146" 
d="M684 -20q-94 0 -188 14l41 166q59 -10 135 -10t130 49q52 49 68 161l146 1033h194l-147 -1043q-29 -198 -123 -284t-256 -86zM133 0l197 1393h194l-196 -1393h-195z" />
    <glyph glyph-name="ij" unicode="&#x133;" horiz-adv-x="813" 
d="M844 1024l-164 -1174q-20 -150 -96 -216t-242 -64q-68 0 -160 14l37 144q71 -10 131 -10t98 31q38 32 50 118l161 1157h185zM440 1024l-143 -1024h-184l143 1024h184zM897 1393l-37 -256h-184l37 256h184zM494 1393l-37 -256h-185l37 256h185z" />
    <glyph glyph-name="Kcommaaccent" unicode="&#x136;" horiz-adv-x="1286" 
d="M582 -205h-52l21 144h143l-20 -144l-92 -174h-62zM1395 1393l-582 -578l395 -815h-243l-318 659l-262 -253l-57 -406h-195l197 1393h194l-102 -721l741 721h232z" />
    <glyph glyph-name="kcommaaccent" unicode="&#x137;" horiz-adv-x="1105" 
d="M504 -205h-51l20 144h143l-20 -144l-92 -174h-62zM1157 1024l-438 -352l315 -672h-217l-242 567l-221 -166l-57 -401h-184l200 1434h185l-115 -828l549 418h225z" />
    <glyph glyph-name="Lacute" unicode="&#x139;" horiz-adv-x="1105" 
d="M1038 174l-24 -174h-881l197 1393h194l-172 -1219h686zM532 1802h195l-213 -286h-143z" />
    <glyph glyph-name="lacute" unicode="&#x13a;" horiz-adv-x="409" 
d="M297 0h-184l200 1434h185zM514 1843h195l-213 -287h-144z" />
    <glyph glyph-name="Lcommaaccent" unicode="&#x13b;" horiz-adv-x="1105" 
d="M504 -205h-51l20 144h143l-20 -144l-92 -174h-62zM1038 174l-24 -174h-881l197 1393h194l-172 -1219h686z" />
    <glyph glyph-name="lcommaaccent" unicode="&#x13c;" horiz-adv-x="409" 
d="M156 -205h-52l21 144h143l-20 -144l-92 -174h-62zM297 0h-184l200 1434h185z" />
    <glyph glyph-name="Lcaron" unicode="&#x13d;" horiz-adv-x="1105" 
d="M723 1126h-72l37 267h184l-36 -267l-131 -266h-62zM1038 174l-24 -174h-881l197 1393h194l-172 -1219h686z" />
    <glyph glyph-name="lcaron" unicode="&#x13e;" horiz-adv-x="409" 
d="M618 1167h-71l37 267h184l-37 -267l-131 -266h-61zM297 0h-184l200 1434h185z" />
    <glyph glyph-name="Ldot" unicode="&#x13f;" horiz-adv-x="1105" 
d="M786 608h-184l37 266h184zM1038 174l-24 -174h-881l197 1393h194l-172 -1219h686z" />
    <glyph glyph-name="ldot" unicode="&#x140;" horiz-adv-x="409" 
d="M647 481h-184l37 267h184zM297 0h-184l200 1434h185z" />
    <glyph glyph-name="Lslash" unicode="&#x141;" horiz-adv-x="1126" 
d="M453 739l-80 -565h686l-25 -174h-880l98 694l-150 -32l19 112l147 33l82 586h195l-76 -541l233 55l-16 -112z" />
    <glyph glyph-name="lslash" unicode="&#x142;" horiz-adv-x="491" 
d="M436 705l-98 -705h-184l92 657l-201 -47l16 113l201 47l92 664h185l-86 -617l202 49l-16 -112z" />
    <glyph glyph-name="Nacute" unicode="&#x143;" horiz-adv-x="1331" 
d="M524 1393l531 -1033h4l147 1033h189l-197 -1393h-194l-535 1014h-4l-141 -1014h-191l197 1393h194zM971 1802h194l-213 -286h-143z" />
    <glyph glyph-name="nacute" unicode="&#x144;" horiz-adv-x="1085" 
d="M1079 788q0 -72 -106 -788h-185q98 678 99 729q0 162 -178 162q-123 0 -303 -117l-109 -774h-184l143 1024h184l-18 -143h4q184 164 387 163q266 0 266 -256zM793 1434h194l-213 -287h-143z" />
    <glyph glyph-name="Ncommaaccent" unicode="&#x145;" horiz-adv-x="1331" 
d="M616 -205h-51l21 144h143l-20 -144l-93 -174h-61zM524 1393l531 -1033h4l147 1033h189l-197 -1393h-194l-535 1014h-4l-141 -1014h-191l197 1393h194z" />
    <glyph glyph-name="ncommaaccent" unicode="&#x146;" horiz-adv-x="1085" 
d="M494 -205h-52l21 144h143l-20 -144l-92 -174h-62zM1079 788q0 -72 -106 -788h-185q98 678 99 729q0 162 -178 162q-123 0 -303 -117l-109 -774h-184l143 1024h184l-18 -143h4q184 164 387 163q266 0 266 -256z" />
    <glyph glyph-name="Ncaron" unicode="&#x147;" horiz-adv-x="1331" 
d="M524 1393l531 -1033h4l147 1033h189l-197 -1393h-194l-535 1014h-4l-141 -1014h-191l197 1393h194zM643 1802h143l109 -184l158 184h143l-248 -286h-133z" />
    <glyph glyph-name="ncaron" unicode="&#x148;" horiz-adv-x="1085" 
d="M1079 788q0 -72 -106 -788h-185q98 678 99 729q0 162 -178 162q-123 0 -303 -117l-109 -774h-184l143 1024h184l-18 -143h4q184 164 387 163q266 0 266 -256zM465 1434h143l109 -185l157 185h144l-248 -287h-133z" />
    <glyph glyph-name="Eng" unicode="&#x14a;" horiz-adv-x="1331" 
d="M1014 0l-545 1014h-4l-141 -1014h-191l197 1393h194l531 -1033h4l147 1033h189l-217 -1545q-23 -150 -98 -216t-240 -66q-74 0 -162 16l39 144q166 -31 228 21q38 32 50 118z" />
    <glyph glyph-name="eng" unicode="&#x14b;" horiz-adv-x="1085" 
d="M887 727q0 164 -178 164q-127 0 -303 -117l-109 -774h-184l143 1024h184l-20 -143h4q188 164 387 163q266 0 266 -258q0 -72 -127 -936q-20 -150 -95 -216t-241 -64q-69 0 -161 14l39 144q72 -10 131 -10t97 31q38 32 50 118q117 807 117 860z" />
    <glyph glyph-name="Omacron" unicode="&#x14c;" horiz-adv-x="1413" 
d="M885 1249q-481 0 -482 -741q0 -172 73 -268t269 -96t305 142q107 143 135 306q29 163 29 318t-73 247q-74 92 -256 92zM707 -20q-508 0 -508 516q0 124 13 234t59 240t120 223t207 157t309 63q277 0 395 -133t117 -371q0 -192 -38 -348t-91 -248t-128 -169
q-74 -76 -192 -120t-263 -44zM1249 1587h-635l19 123h635z" />
    <glyph glyph-name="omacron" unicode="&#x14d;" horiz-adv-x="1126" 
d="M692 891q-82 0 -145 -36t-98 -88q-95 -141 -95 -374q0 -260 232 -260q100 0 173 52q73 51 105 135q59 153 62 307q-1 264 -234 264zM563 -20q-406 0 -405 395q0 191 63 349q37 93 96 162q59 70 161 114t235 44q408 0 407 -399q0 -328 -163 -510q-59 -67 -161 -111
t-233 -44zM1059 1219h-635l18 122h635z" />
    <glyph glyph-name="Ohungarumlaut" unicode="&#x150;" horiz-adv-x="1413" 
d="M885 1249q-481 0 -482 -741q0 -172 73 -268t269 -96t305 142q107 143 135 306q29 163 29 318t-73 247q-74 92 -256 92zM707 -20q-508 0 -508 516q0 124 13 234t59 240t120 223t207 157t309 63q277 0 395 -133t117 -371q0 -192 -38 -348t-91 -248t-128 -169
q-74 -76 -192 -120t-263 -44zM1149 1761h123l-178 -245h-103zM913 1761h123l-178 -245h-102z" />
    <glyph glyph-name="ohungarumlaut" unicode="&#x151;" horiz-adv-x="1126" 
d="M692 891q-82 0 -145 -36t-98 -88q-95 -141 -95 -374q0 -260 232 -260q100 0 173 52q73 51 105 135q59 153 62 307q-1 264 -234 264zM563 -20q-406 0 -405 395q0 191 63 349q37 93 96 162q59 70 161 114t235 44q408 0 407 -399q0 -328 -163 -510q-59 -67 -161 -111
t-233 -44zM956 1393h123l-178 -246h-102zM721 1393h123l-178 -246h-103z" />
    <glyph glyph-name="OE" unicode="&#x152;" horiz-adv-x="2105" 
d="M885 1249q-481 0 -482 -741q0 -172 73 -268t253 -97q271 0 382 240q58 126 81 286q22 161 22 230q0 166 -73 258q-74 92 -256 92zM199 496q0 265 73 476q45 130 120 223t207 155t308 63q285 0 357 -246l30 226h887l-24 -174h-697l-57 -410h604l-25 -174h-604l-65 -461
h706l-24 -174h-897l35 233h-3q-111 -254 -423 -253q-508 0 -508 516z" />
    <glyph glyph-name="oe" unicode="&#x153;" horiz-adv-x="1835" 
d="M692 891q-82 0 -145 -36t-98 -88q-95 -141 -95 -374q0 -260 232 -260q274 0 329 367q10 76 11 127q-1 264 -234 264zM1462 901q-268 0 -334 -301h521q23 63 22 125q0 176 -209 176zM1354 -20q-313 0 -381 237q-129 -238 -410 -237q-406 0 -405 395q0 191 63 349
q37 93 96 162q59 70 161 114t235 44q281 0 344 -237q133 238 436 237q367 0 367 -309q-1 -117 -50 -254h-698q-6 -41 -6 -75q-4 -273 308 -273q164 0 310 41l5 -147q-170 -47 -375 -47z" />
    <glyph glyph-name="Racute" unicode="&#x154;" horiz-adv-x="1259" 
d="M776 717q156 0 229 90q73 89 73 197t-59 161q-58 53 -161 54h-358l-72 -502h348zM903 1393q179 1 277 -95t98 -245t-79 -285q-40 -70 -115 -123t-175 -72l275 -573h-228l-254 543h-296l-78 -543h-195l197 1393h573zM874 1802h195l-213 -286h-143z" />
    <glyph glyph-name="racute" unicode="&#x155;" horiz-adv-x="757" 
d="M256 1024h184l-22 -164h4q193 184 412 184l-25 -174q-201 0 -406 -116l-106 -754h-184zM641 1434h195l-213 -287h-144z" />
    <glyph glyph-name="Rcommaaccent" unicode="&#x156;" horiz-adv-x="1259" 
d="M582 -205h-52l21 144h143l-20 -144l-92 -174h-62zM776 717q156 0 229 90q73 89 73 197t-59 161q-58 53 -161 54h-358l-72 -502h348zM903 1393q179 1 277 -95t98 -245t-79 -285q-40 -70 -115 -123t-175 -72l275 -573h-228l-254 543h-296l-78 -543h-195l197 1393h573z" />
    <glyph glyph-name="rcommaaccent" unicode="&#x157;" horiz-adv-x="757" 
d="M154 -205h-52l21 144h143l-20 -144l-92 -174h-62zM256 1024h184l-22 -164h4q193 184 412 184l-25 -174q-201 0 -406 -116l-106 -754h-184z" />
    <glyph glyph-name="Rcaron" unicode="&#x158;" horiz-adv-x="1259" 
d="M776 717q156 0 229 90q73 89 73 197t-59 161q-58 53 -161 54h-358l-72 -502h348zM903 1393q179 1 277 -95t98 -245t-79 -285q-40 -70 -115 -123t-175 -72l275 -573h-228l-254 543h-296l-78 -543h-195l197 1393h573zM547 1802h143l109 -184l157 184h144l-248 -286h-133z
" />
    <glyph glyph-name="rcaron" unicode="&#x159;" horiz-adv-x="757" 
d="M256 1024h184l-22 -164h4q193 184 412 184l-25 -174q-201 0 -406 -116l-106 -754h-184zM311 1434h144l108 -185l158 185h143l-248 -287h-133z" />
    <glyph glyph-name="Sacute" unicode="&#x15a;" 
d="M796 1239q-168 0 -239 -63q-70 -63 -70 -147t56 -128q31 -25 51 -39q44 -31 216 -75q173 -44 270 -130q98 -87 98 -257t-138 -296t-412 -124q-274 0 -505 71l57 164q246 -61 434 -61t271 62q84 62 84 152t-32 123q-32 32 -48 46t-55 29q-40 16 -56 22t-65 19
q-214 57 -324 154t-110 260t130 277q129 114 381 115q252 0 488 -72l-68 -163q-246 61 -414 61zM922 1802h194l-213 -286h-143z" />
    <glyph glyph-name="sacute" unicode="&#x15b;" horiz-adv-x="983" 
d="M646 897q-152 0 -202 -52t-49 -106q0 -96 199 -137q166 -38 261 -104t95 -199t-98 -226t-346 -93t-416 47l53 147q174 -45 379 -45q131 0 186 55q54 55 54 109q0 104 -211 145q-166 31 -254 91t-88 197q0 138 100 228q99 90 325 90t400 -45l-53 -149q-183 47 -335 47z
M739 1434h195l-213 -287h-143z" />
    <glyph glyph-name="Scedilla" unicode="&#x15e;" 
d="M566 -420q-86 0 -165 25l21 61q56 -14 114 -14t91 36t32 72q0 78 -114 86l18 134q-240 10 -440 71l57 164q246 -61 459 -61q158 0 245 74t87 175q1 51 -19 76q-20 23 -32 37t-37 26t-40 21q-15 8 -48 20t-82 25q-48 14 -58 17q-377 104 -376 364q0 176 132 300t406 124
q225 0 461 -72l-68 -163q-246 61 -414 61t-239 -70q-72 -70 -72 -162t112 -146q84 -41 214 -73q367 -86 367 -339q0 -171 -121 -310q-61 -71 -170 -113t-252 -46l-12 -93q152 -14 151 -125q0 -82 -61 -132t-147 -50z" />
    <glyph glyph-name="scedilla" unicode="&#x15f;" horiz-adv-x="983" 
d="M646 897q-152 0 -202 -52t-49 -106q0 -96 199 -137q166 -38 261 -104t95 -197t-93 -223t-310 -98l-15 -93q152 -14 152 -125q0 -82 -61 -132t-147 -50t-165 25l21 61q58 -14 114 -14t90 35t33 75q0 76 -114 84l20 134q-240 6 -385 47l53 147q174 -45 379 -45
q131 0 186 55q54 55 54 109q0 104 -211 145q-166 31 -254 91t-88 197q0 138 100 228q99 90 325 90t400 -45l-53 -149q-183 47 -335 47z" />
    <glyph glyph-name="Scaron" unicode="&#x160;" 
d="M796 1239q-168 0 -239 -63q-70 -63 -70 -147t56 -128q31 -25 51 -39q44 -31 216 -75q173 -44 270 -130q98 -87 98 -257t-138 -296t-412 -124q-274 0 -505 71l57 164q246 -61 434 -61t271 62q84 62 84 152t-32 123q-32 32 -48 46t-55 29q-40 16 -56 22t-65 19
q-214 57 -324 154t-110 260t130 277q129 114 381 115q252 0 488 -72l-68 -163q-246 61 -414 61zM594 1802h143l109 -184l158 184h143l-248 -286h-133z" />
    <glyph glyph-name="scaron" unicode="&#x161;" horiz-adv-x="983" 
d="M646 897q-152 0 -202 -52t-49 -106q0 -96 199 -137q166 -38 261 -104t95 -199t-98 -226t-346 -93t-416 47l53 147q174 -45 379 -45q131 0 186 55q54 55 54 109q0 104 -211 145q-166 31 -254 91t-88 197q0 138 100 228q99 90 325 90t400 -45l-53 -149q-183 47 -335 47z
M412 1434h143l109 -185l157 185h144l-248 -287h-133z" />
    <glyph glyph-name="Tcedilla" unicode="&#x162;" horiz-adv-x="1146" 
d="M534 -420q-88 0 -163 25l20 61q57 -14 114 -14t91 35t33 75q0 76 -115 84l23 154h-60l170 1219h-383l25 174h962l-24 -174h-385l-170 -1219h-64l-16 -113q152 -14 151 -125q0 -82 -61 -132q-60 -50 -148 -50z" />
    <glyph glyph-name="tcedilla" unicode="&#x163;" horiz-adv-x="768" 
d="M422 265q0 -136 138 -136q66 0 122 10l-4 -145q-90 -14 -174 -14l-15 -93q152 -14 152 -125q0 -82 -61 -132q-60 -50 -148 -50t-164 25l21 61q57 -14 113 -14t91 35q34 35 33 75q0 76 -114 84l20 136q-198 18 -200 206q0 90 92 703h-154l16 121l156 12l61 287h162
l-39 -287h287l-18 -133h-287q-86 -557 -86 -626z" />
    <glyph glyph-name="Tcaron" unicode="&#x164;" horiz-adv-x="1146" 
d="M477 0l170 1219h-383l25 174h962l-24 -174h-385l-170 -1219h-195zM551 1802h143l109 -184l158 184h143l-248 -286h-133z" />
    <glyph glyph-name="tcaron" unicode="&#x165;" horiz-adv-x="768" 
d="M422 -205h-51l20 144h144l-21 -144l-92 -174h-62zM422 265q0 -136 138 -136q66 0 122 10l-4 -145q-96 -14 -210 -14t-175 52t-62 173q0 74 93 686h-154l16 121l156 12l61 287h162l-39 -287h287l-18 -133h-287q-86 -557 -86 -626z" />
    <glyph glyph-name="Tbar" unicode="&#x166;" horiz-adv-x="1146" 
d="M563 610l84 609h-383l25 174h962l-24 -174h-385l-84 -609h174l-17 -112h-174l-69 -498h-195l70 498h-174l16 112h174z" />
    <glyph glyph-name="tbar" unicode="&#x167;" horiz-adv-x="768" 
d="M422 264q0 -135 151 -135q53 0 109 10l-4 -145q-96 -14 -210 -14t-175 52t-62 173q0 61 37 297h-123l17 112h123l39 277h-154l16 121l156 12l61 287h162l-39 -287h287l-18 -133h-287l-39 -277h266l-16 -112h-266q-31 -180 -31 -238z" />
    <glyph glyph-name="Umacron" unicode="&#x16a;" horiz-adv-x="1310" 
d="M391 374q0 -100 65 -166t228 -65q205 0 287 118q66 95 84 231l127 901h194l-127 -901q-70 -512 -594 -512q-461 0 -460 387q0 88 137 1026h194q-135 -919 -135 -1019zM1198 1587h-635l19 123h635z" />
    <glyph glyph-name="umacron" unicode="&#x16b;" horiz-adv-x="1085" 
d="M154 240q0 70 106 784h184q-98 -672 -98 -721q0 -170 178 -170q133 0 303 119l109 772h184l-145 -1024h-184l22 143h-4q-193 -164 -389 -163q-266 0 -266 260zM1026 1219h-635l19 122h634z" />
    <glyph glyph-name="Uring" unicode="&#x16e;" horiz-adv-x="1310" 
d="M391 374q0 -100 65 -166t228 -65q205 0 287 118q66 95 84 231l127 901h194l-127 -901q-70 -512 -594 -512q-461 0 -460 387q0 88 137 1026h194q-135 -919 -135 -1019zM793 1628q-1 -86 83 -86q40 0 74 33q33 33 33 74q-1 41 -23 65t-63 23q-41 0 -73 -34t-31 -75z
M902 1792q68 0 106 -36t39 -102t-53 -118q-54 -51 -122 -51t-106 37q-39 36 -39 102t54 117q53 51 121 51z" />
    <glyph glyph-name="uring" unicode="&#x16f;" horiz-adv-x="1085" 
d="M154 240q0 70 106 784h184q-98 -672 -98 -721q0 -170 178 -170q133 0 303 119l109 772h184l-145 -1024h-184l22 143h-4q-193 -164 -389 -163q-266 0 -266 260zM621 1259q-1 -87 83 -85q40 0 74 32q33 32 33 74q0 41 -23 65q-24 23 -64 23t-72 -34t-31 -75zM730 1423
q68 0 107 -35q37 -36 37 -103t-53 -118t-121 -51t-106 37q-39 37 -39 103t54 116q53 51 121 51z" />
    <glyph glyph-name="Uhungarumlaut" unicode="&#x170;" horiz-adv-x="1310" 
d="M391 374q0 -100 65 -166t228 -65q205 0 287 118q66 95 84 231l127 901h194l-127 -901q-70 -512 -594 -512q-461 0 -460 387q0 88 137 1026h194q-135 -919 -135 -1019zM1098 1761h123l-179 -245h-102zM862 1761h123l-178 -245h-102z" />
    <glyph glyph-name="uhungarumlaut" unicode="&#x171;" horiz-adv-x="1085" 
d="M154 240q0 70 106 784h184q-98 -672 -98 -721q0 -170 178 -170q133 0 303 119l109 772h184l-145 -1024h-184l22 143h-4q-193 -164 -389 -163q-266 0 -266 260zM926 1393h123l-179 -246h-102zM690 1393h123l-178 -246h-103z" />
    <glyph glyph-name="Uogonek" unicode="&#x172;" horiz-adv-x="1310" 
d="M391 374q1 -100 63 -166t228 -65q205 0 287 118q63 91 86 231l125 901h194l-125 -901q-70 -494 -557 -512q-152 -115 -151 -230q0 -88 104 -88q43 0 123 35v-47q-82 -60 -174 -60t-138 33t-46 92q0 135 188 267q-403 25 -403 385q0 106 135 1026h194
q-133 -919 -133 -1019z" />
    <glyph glyph-name="uogonek" unicode="&#x173;" horiz-adv-x="1085" 
d="M762 -250q0 -88 104 -88q43 0 123 35v-47q-82 -60 -173 -60t-137 34t-46 100t62 147q62 80 153 129h-57l22 143h-4q-193 -164 -389 -163q-266 0 -266 260q0 70 106 784h184q-98 -672 -98 -721q0 -170 178 -170q133 0 303 119l109 772h184l-145 -1024h-35
q-82 -57 -130 -126t-48 -124z" />
    <glyph glyph-name="Wcircumflex" unicode="&#x174;" horiz-adv-x="1925" 
d="M434 -10l-166 1403h217l119 -1151h2l445 1151h229l123 -1151h2l440 1151h205l-561 -1403h-252l-121 1091h-4l-428 -1091h-250zM901 1516l250 286h133l170 -286h-143l-107 184l-160 -184h-143z" />
    <glyph glyph-name="wcircumflex" unicode="&#x175;" horiz-adv-x="1617" 
d="M393 -10l-168 1034h205l113 -827h4l321 827h179l102 -827h4l332 827h194l-452 -1034h-205l-107 751h-4l-313 -751h-205zM698 1147l250 287h133l170 -287h-143l-107 184l-159 -184h-144z" />
    <glyph glyph-name="Ycircumflex" unicode="&#x176;" horiz-adv-x="1269" 
d="M1395 1393l-592 -901l-70 -492h-194l69 492l-340 901h224l243 -701h4l445 701h211zM573 1516l250 286h133l170 -286h-143l-106 184l-160 -184h-144z" />
    <glyph glyph-name="ycircumflex" unicode="&#x177;" horiz-adv-x="1146" 
d="M205 -430q-74 0 -150 14l39 154q55 -10 94 -10q164 0 289 252l-252 1044h207l180 -838h4l396 838h196l-536 -1085q-98 -199 -207 -284t-260 -85zM463 1147l250 287h133l170 -287h-144l-106 184l-160 -184h-143z" />
    <glyph glyph-name="Ydieresis" unicode="&#x178;" horiz-adv-x="1269" 
d="M1395 1393l-592 -901l-70 -492h-194l69 492l-340 901h224l243 -701h4l445 701h211zM1137 1536h-154l33 246h153zM727 1536h-154l33 246h154z" />
    <glyph glyph-name="Zacute" unicode="&#x179;" horiz-adv-x="1146" 
d="M952 1219h-657l24 174h922l-20 -144l-842 -1071l-2 -4h713l-25 -174h-983l20 143l850 1071v5zM879 1802h194l-213 -286h-143z" />
    <glyph glyph-name="zacute" unicode="&#x17a;" horiz-adv-x="962" 
d="M774 881h-563l20 143h799l-18 -133l-693 -744l-2 -4h609l-19 -143h-850l19 133l698 744v4zM715 1434h194l-213 -287h-143z" />
    <glyph glyph-name="Zdotaccent" unicode="&#x17b;" horiz-adv-x="1146" 
d="M952 1219h-657l24 174h922l-20 -144l-842 -1071l-2 -4h713l-25 -174h-983l20 143l850 1071v5zM881 1505h-185l37 256h185z" />
    <glyph glyph-name="zdotaccent" unicode="&#x17c;" horiz-adv-x="962" 
d="M774 881h-563l20 143h799l-18 -133l-693 -744l-2 -4h609l-19 -143h-850l19 133l698 744v4zM717 1137h-185l37 256h185z" />
    <glyph glyph-name="Zcaron" unicode="&#x17d;" horiz-adv-x="1146" 
d="M952 1219h-657l24 174h922l-20 -144l-842 -1071l-2 -4h713l-25 -174h-983l20 143l850 1071v5zM551 1802h143l109 -184l158 184h143l-248 -286h-133z" />
    <glyph glyph-name="zcaron" unicode="&#x17e;" horiz-adv-x="962" 
d="M774 881h-563l20 143h799l-18 -133l-693 -744l-2 -4h609l-19 -143h-850l19 133l698 744v4zM387 1434h143l109 -185l158 185h143l-248 -287h-133z" />
    <glyph glyph-name="Schwa" unicode="&#x18f;" horiz-adv-x="1351" 
d="M373 383q1 -99 71 -169t202 -71q132 0 210 35q198 87 258 406h-706q-35 -102 -35 -201zM846 1413q510 0 510 -512q0 -102 -19 -215q-39 -305 -193 -505q-154 -201 -499 -201q-243 0 -355 102t-112 284t66 392h895q8 57 8 125q-4 172 -83 264t-252 92t-435 -61l-21 163
q252 72 490 72z" />
    <glyph glyph-name="florin" unicode="&#x192;" horiz-adv-x="706" 
d="M692 1434q70 0 164 -15l-39 -143q-72 10 -104 10q-88 0 -127 -48t-54 -153l-10 -61h266l-18 -133h-266l-135 -973q-25 -180 -105 -264t-244 -84q-70 0 -161 14l39 144q72 -10 104 -11q88 1 128 49t54 152l135 973h-153l18 121l154 12l14 92q25 172 104 245t236 73z" />
    <glyph glyph-name="Scommaaccent" unicode="&#x218;" 
d="M567 -205h-51l21 144h143l-21 -144l-92 -174h-61zM796 1239q-168 0 -239 -63q-70 -63 -70 -147t56 -128q31 -25 51 -39q44 -31 216 -75q173 -44 270 -130q98 -87 98 -257t-138 -296t-412 -124q-274 0 -505 71l57 164q246 -61 434 -61t271 62q84 62 84 152t-32 123
q-32 32 -48 46t-55 29q-40 16 -56 22t-65 19q-214 57 -324 154t-110 260t130 277q129 114 381 115q252 0 488 -72l-68 -163q-246 61 -414 61z" />
    <glyph glyph-name="scommaaccent" unicode="&#x219;" horiz-adv-x="983" 
d="M465 -205h-51l20 144h144l-21 -144l-92 -174h-62zM646 897q-152 0 -202 -52t-49 -106q0 -96 199 -137q166 -38 261 -104t95 -199t-98 -226t-346 -93t-416 47l53 147q174 -45 379 -45q131 0 186 55q54 55 54 109q0 104 -211 145q-166 31 -254 91t-88 197q0 138 100 228
q99 90 325 90t400 -45l-53 -149q-183 47 -335 47z" />
    <glyph glyph-name="uni021A" unicode="&#x21a;" horiz-adv-x="1146" 
d="M524 -205h-51l21 144h143l-21 -144l-92 -174h-61zM477 0l170 1219h-383l25 174h962l-24 -174h-385l-170 -1219h-195z" />
    <glyph glyph-name="uni021B" unicode="&#x21b;" horiz-adv-x="768" 
d="M422 -205h-51l20 144h144l-21 -144l-92 -174h-62zM422 265q0 -136 138 -136q66 0 122 10l-4 -145q-96 -14 -210 -14t-175 52t-62 173q0 74 93 686h-154l16 121l156 12l61 287h162l-39 -287h287l-18 -133h-287q-86 -557 -86 -626z" />
    <glyph glyph-name="dotlessj" unicode="&#x237;" horiz-adv-x="491" 
d="M522 1024l-164 -1174q-20 -150 -96 -216t-242 -64q-70 0 -161 14l39 144q72 -10 131 -10t97 31q38 32 50 118l162 1157h184z" />
    <glyph glyph-name="schwa" unicode="&#x259;" horiz-adv-x="1085" 
d="M313 301q0 -178 209 -178q268 0 334 303h-518q-25 -68 -25 -125zM568 891q-170 0 -308 -41l-4 149q172 45 375 45q449 0 448 -403q0 -190 -65 -345q-38 -93 -100 -160q-62 -68 -172 -112t-250 -44q-367 0 -367 309q0 113 49 254h698q29 187 -63 277q-71 70 -241 71z" />
    <glyph glyph-name="circumflex" unicode="&#x2c6;" horiz-adv-x="798" 
d="M428 1147h-143l250 287h133l170 -287h-144l-106 184z" />
    <glyph glyph-name="caron" unicode="&#x2c7;" horiz-adv-x="798" 
d="M467 1434l108 -185l158 185h144l-248 -287h-133l-172 287h143z" />
    <glyph glyph-name="breve" unicode="&#x2d8;" horiz-adv-x="817" 
d="M326 1434h77q11 -72 55 -120t128 -48q160 0 231 168h80q-78 -276 -326 -277q-119 0 -182 71t-63 206z" />
    <glyph glyph-name="dotaccent" unicode="&#x2d9;" horiz-adv-x="409" 
d="M446 1137h-184l37 256h184z" />
    <glyph glyph-name="ring" unicode="&#x2da;" horiz-adv-x="561" 
d="M365 1259q-1 -87 83 -85q40 0 74 32q33 32 33 74q0 41 -23 65q-24 23 -64 23t-72 -34t-31 -75zM474 1423q68 0 107 -35q37 -36 37 -103t-53 -118t-121 -51t-106 37q-39 37 -39 103t54 116q53 51 121 51z" />
    <glyph glyph-name="ogonek" unicode="&#x2db;" horiz-adv-x="614" 
d="M86 -276q0 66 62 147q62 80 153 129h92q-82 -57 -130 -126t-48 -124q0 -88 104 -88q43 0 123 35v-47q-82 -60 -173 -60t-137 34t-46 100z" />
    <glyph glyph-name="tilde" unicode="&#x2dc;" horiz-adv-x="917" 
d="M772 1157q-39 0 -124 51q-85 52 -125 52q-41 0 -73 -18t-104 -81l-51 68q131 170 242 170q53 0 139 -54t117 -55q65 0 145 94l41 -75q-96 -152 -207 -152z" />
    <glyph glyph-name="hungarumlaut" unicode="&#x2dd;" horiz-adv-x="727" 
d="M678 1393h123l-178 -246h-103zM442 1393h123l-178 -246h-102z" />
    <glyph glyph-name="commaaccentcomb" unicode="&#x326;" horiz-adv-x="0" 
d="M-315 -379l61 174h-51l20 144h144l-21 -144l-92 -174h-61z" />
    <glyph glyph-name="Delta" unicode="&#x394;" horiz-adv-x="1286" 
d="M213 82h791l-271 1081zM1184 0h-1082l705 1454z" />
    <glyph glyph-name="Omega" unicode="&#x3a9;" horiz-adv-x="1372" 
d="M885 1413q260 0 389 -133t129 -340t-103 -402q-51 -97 -146 -170t-218 -96l-21 -139h383l-18 -133h-516l49 354q285 32 365 387q18 84 18 168q0 340 -334 340q-112 0 -196 -40t-134 -99t-89 -164q-40 -105 -41 -254q-2 -313 257 -338l-49 -354h-518l19 133h385l20 139
q-158 31 -238 150t-79 294q0 175 86 345q49 98 124 175t199 127t277 50z" />
    <glyph glyph-name="mu" unicode="&#x3bc;" horiz-adv-x="1085" 
d="M344 303q0 -170 176 -170q133 0 303 119l109 772h184l-143 -1024h-185l21 143h-4q-160 -131 -313 -151q-145 -6 -187 78l-20 -152q-25 -186 -111 -267t-246 -81q-59 0 -151 14l37 144q72 -10 104 -11q90 -1 129 49t53 152l156 1106h184q-96 -674 -96 -721z" />
    <glyph glyph-name="pi" unicode="&#x3c0;" horiz-adv-x="1085" 
d="M113 0l143 1024h860l-143 -1024h-185l121 860h-491l-121 -860h-184z" />
    <glyph glyph-name="Wgrave" unicode="&#x1e80;" horiz-adv-x="1925" 
d="M434 -10l-166 1403h217l119 -1151h2l445 1151h229l123 -1151h2l440 1151h205l-561 -1403h-252l-121 1091h-4l-428 -1091h-250zM1171 1802l84 -286h-143l-135 286h194z" />
    <glyph glyph-name="wgrave" unicode="&#x1e81;" horiz-adv-x="1617" 
d="M393 -10l-168 1034h205l113 -827h4l321 827h179l102 -827h4l332 827h194l-452 -1034h-205l-107 751h-4l-313 -751h-205zM969 1434l84 -287h-144l-135 287h195z" />
    <glyph glyph-name="Wacute" unicode="&#x1e82;" horiz-adv-x="1925" 
d="M434 -10l-166 1403h217l119 -1151h2l445 1151h229l123 -1151h2l440 1151h205l-561 -1403h-252l-121 1091h-4l-428 -1091h-250zM1268 1802h194l-213 -286h-143z" />
    <glyph glyph-name="wacute" unicode="&#x1e83;" horiz-adv-x="1617" 
d="M393 -10l-168 1034h205l113 -827h4l321 827h179l102 -827h4l332 827h194l-452 -1034h-205l-107 751h-4l-313 -751h-205zM1065 1434h195l-213 -287h-144z" />
    <glyph glyph-name="Wdieresis" unicode="&#x1e84;" horiz-adv-x="1925" 
d="M434 -10l-166 1403h217l119 -1151h2l445 1151h229l123 -1151h2l440 1151h205l-561 -1403h-252l-121 1091h-4l-428 -1091h-250zM1464 1536h-153l32 246h154zM1055 1536h-154l33 246h153z" />
    <glyph glyph-name="wdieresis" unicode="&#x1e85;" horiz-adv-x="1617" 
d="M393 -10l-168 1034h205l113 -827h4l321 827h179l102 -827h4l332 827h194l-452 -1034h-205l-107 751h-4l-313 -751h-205zM1262 1167h-154l33 246h153zM852 1167h-154l33 246h154z" />
    <glyph glyph-name="Ygrave" unicode="&#x1ef2;" horiz-adv-x="1269" 
d="M1395 1393l-592 -901l-70 -492h-194l69 492l-340 901h224l243 -701h4l445 701h211zM844 1802l84 -286h-144l-135 286h195z" />
    <glyph glyph-name="ygrave" unicode="&#x1ef3;" horiz-adv-x="1146" 
d="M205 -430q-74 0 -150 14l39 154q55 -10 94 -10q164 0 289 252l-252 1044h207l180 -838h4l396 838h196l-536 -1085q-98 -199 -207 -284t-260 -85zM733 1434l84 -287h-143l-135 287h194z" />
    <glyph glyph-name="figuredash" unicode="&#x2012;" horiz-adv-x="1423" 
d="M1376 467h-1198l23 154h1198z" />
    <glyph glyph-name="endash" unicode="&#x2013;" horiz-adv-x="1423" 
d="M1376 467h-1198l23 154h1198z" />
    <glyph glyph-name="emdash" unicode="&#x2014;" horiz-adv-x="1556" 
d="M1509 467h-1331l23 154h1331z" />
    <glyph glyph-name="quoteleft" unicode="&#x2018;" horiz-adv-x="409" 
d="M463 1393l-80 -267h72l-37 -266h-185l37 266l131 267h62z" />
    <glyph glyph-name="quoteright" unicode="&#x2019;" horiz-adv-x="409" 
d="M264 860l80 266h-72l37 267h185l-37 -267l-131 -266h-62z" />
    <glyph glyph-name="quotesinglbase" unicode="&#x201a;" horiz-adv-x="409" 
d="M98 -328l78 267h-72l37 266h185l-37 -266l-129 -267h-62z" />
    <glyph glyph-name="quotedblleft" unicode="&#x201c;" horiz-adv-x="860" 
d="M913 1393l-79 -267h71l-37 -266h-184l37 266q25 52 74 150t57 117h61zM463 1393l-80 -267h72l-37 -266h-185l37 266l131 267h62z" />
    <glyph glyph-name="quotedblright" unicode="&#x201d;" horiz-adv-x="860" 
d="M715 860l80 266h-72l37 267h184l-37 -267l-131 -266h-61zM264 860l80 266h-72l37 267h185l-37 -267l-131 -266h-62z" />
    <glyph glyph-name="quotedblbase" unicode="&#x201e;" horiz-adv-x="860" 
d="M549 -328l78 267h-72l37 266h184l-37 -266l-129 -267h-61zM98 -328l78 267h-72l37 266h185l-37 -266l-129 -267h-62z" />
    <glyph glyph-name="dagger" unicode="&#x2020;" horiz-adv-x="1187" 
d="M803 860l-111 -860h-194l131 860l-396 -10l23 174l393 -10l49 420h195l-70 -420l396 10l-23 -174z" />
    <glyph glyph-name="daggerdbl" unicode="&#x2021;" horiz-adv-x="1187" 
d="M631 881l-395 -11l24 174l393 -10l45 400h195l-66 -400l396 10l-25 -174l-393 11l-45 -328l395 10l-25 -174l-393 10l-45 -399h-194l65 399l-395 -10l25 174l393 -10z" />
    <glyph glyph-name="bullet" unicode="&#x2022;" horiz-adv-x="491" 
d="M391 379h-184l37 266h184z" />
    <glyph glyph-name="onedotenleader" unicode="&#x2024;" horiz-adv-x="409" 
d="M297 0h-184l37 266h184z" />
    <glyph glyph-name="twodotenleader" unicode="&#x2025;" horiz-adv-x="716" 
d="M604 0h-184l37 266h184zM297 0h-184l37 266h184z" />
    <glyph glyph-name="ellipsis" unicode="&#x2026;" 
d="M1116 0h-184l37 266h184zM707 0h-185l37 266h184zM297 0h-184l37 266h184z" />
    <glyph glyph-name="perthousand" unicode="&#x2030;" horiz-adv-x="2211" 
d="M1855 86q100 0 146 73q45 73 45 165q0 141 -137 141q-72 0 -118 -43t-59 -93t-14 -104q0 -139 137 -139zM1200 86q100 0 146 73q45 73 45 165q0 141 -138 141q-71 0 -117 -43q-72 -69 -73 -197q0 -139 137 -139zM1841 -10q-241 0 -241 243q0 125 80 227q81 102 241 101
q241 0 243 -239q0 -120 -77 -226q-78 -106 -246 -106zM1266 561q243 0 243 -239q0 -119 -77 -226q-78 -106 -246 -106q-242 0 -242 243q0 125 81 227t241 101zM504 928q70 0 116 43q74 69 74 194q0 141 -137 142q-102 0 -147 -74t-45 -164q0 -141 139 -141zM463 0h-123
l954 1393h123zM489 831q-119 -1 -181 59t-62 174t67 219q78 120 273 120q104 1 166 -59t61 -180q0 -120 -78 -227q-78 -106 -246 -106z" />
    <glyph glyph-name="guilsinglleft" unicode="&#x2039;" horiz-adv-x="778" 
d="M795 911l-25 -166l-391 -233l326 -233l-23 -166l-506 344l17 112z" />
    <glyph glyph-name="guilsinglright" unicode="&#x203a;" horiz-adv-x="778" 
d="M129 113l23 166l391 233l-326 233l25 166l503 -342l-16 -112z" />
    <glyph glyph-name="exclamdbl" unicode="&#x203c;" horiz-adv-x="716" 
d="M641 266l-37 -266h-184l37 266h184zM334 266l-37 -266h-184l37 266h184zM801 1393l-144 -953h-163l122 953h185zM494 1393l-144 -953h-164l123 953h185z" />
    <glyph glyph-name="fraction" unicode="&#x2044;" horiz-adv-x="942" 
d="M123 0h-62l955 1393h61z" />
    <glyph glyph-name="colonsign" unicode="&#x20a1;" horiz-adv-x="1290" 
d="M701 -20q-65 0 -130 10l-28 -195h-82l31 213q-332 102 -291 578q53 676 483 800l31 211h82l-27 -194q68 10 132 10t93 -2l27 186h82l-27 -192q156 -14 297 -64l-67 -163q-236 61 -406 61q-451 0 -495 -651q-16 -211 64 -323t278 -111q154 0 423 61l23 -164
q-174 -47 -317 -63l-27 -193h-82l27 187q-29 -2 -94 -2z" />
    <glyph glyph-name="uni20A8" unicode="&#x20a8;" horiz-adv-x="1306" 
d="M664 717q225 0 284 194h-686l12 93h691v12q-1 96 -59 149t-161 54h-440l10 81l15 93h1085l-14 -93h-336q100 -92 100 -256l-2 -40h197l-12 -93h-201q-31 -123 -118 -217t-232 -121l274 -573h-227l-254 543h-379l22 174h431z" />
    <glyph glyph-name="Euro" unicode="&#x20ac;" horiz-adv-x="1433" 
d="M1049 1239q-342 0 -455 -352h86l-23 -92h-88q-16 -82 -20 -185h420l-31 -112h-389q25 -344 346 -344q203 0 416 149l45 -149q-250 -174 -506 -174t-382 137t-130 381h-162l14 112h150q16 325 172 553q80 117 215 184t313 66q277 0 467 -174l-86 -147q-168 147 -372 147z
" />
    <glyph glyph-name="uni2113" unicode="&#x2113;" horiz-adv-x="919" 
d="M860 1253q0 66 -32 104t-83 38q-141 0 -176 -283l-55 -395q346 346 346 536zM748 1454q80 0 126 -44t46 -120q0 -133 -106 -280t-308 -348q-57 -406 -57 -443q0 -178 139 -178q160 0 280 270h37q-61 -155 -154 -243t-213 -88t-180 73q-59 74 -59 159t27 277l-193 -170
l-20 23l221 203l69 497q25 182 116 297t229 115z" />
    <glyph glyph-name="uni2116" unicode="&#x2116;" horiz-adv-x="2189" 
d="M2134 543h-684l14 112h684zM1831 821q141 0 201 109q49 89 49 186q0 193 -183 193q-90 -1 -149 -53q-100 -89 -100 -248q0 -187 182 -187zM330 1393h194l531 -1033h4l147 1033h189l-197 -1393h-194l-535 1014h-4l-141 -1014h-191zM1798 717q-128 0 -206 73
q-76 73 -76 209t80 265q92 149 334 149q128 0 205 -73t77 -209t-81 -265q-92 -149 -333 -149z" />
    <glyph glyph-name="trademark" unicode="&#x2122;" horiz-adv-x="1617" 
d="M1147 1393l145 -519l285 519h156l-101 -705h-112l71 510h-4l-287 -510h-88l-141 510l-72 -510h-108l100 705h156zM590 1292l-84 -604h-113l84 604h-213l15 101h540l-14 -101h-215z" />
    <glyph glyph-name="estimated" unicode="&#x212e;" horiz-adv-x="1507" 
d="M944 1358q-226 0 -407 -158l-56 -387h779l55 387q-145 158 -371 158zM961 1454q262 0 428 -163t165 -462q0 -55 -6 -114h-1081l-68 -482q145 -160 367 -159q334 0 563 321l86 -53q-164 -195 -311 -279t-350 -83q-274 0 -437 171q-162 171 -161 441q0 225 118 442
q64 117 154 209q90 91 229 151t304 60z" />
    <glyph glyph-name="oneeighth" unicode="&#x215b;" horiz-adv-x="1638" 
d="M1339 307q-153 -51 -153 -153t142 -101q74 0 116 37q41 37 41 87t-36 76t-110 54zM1386 625q-56 0 -95 -34q-40 -34 -40 -85q0 -76 125 -113q139 45 140 137q0 47 -37 71t-93 24zM1583 197q0 -84 -70 -151q-70 -66 -189 -66q-239 1 -241 155q0 143 189 209
q-117 55 -117 148q0 92 74 148t172 56t155 -40t58 -109q0 -119 -166 -189q66 -36 100 -72t35 -89zM393 756l72 512l-180 -86l-15 75q166 68 240 121h68l-89 -622h205l-12 -80h-506l12 80h205zM496 0h-62l955 1393h61z" />
    <glyph glyph-name="threeeighths" unicode="&#x215c;" horiz-adv-x="1638" 
d="M1339 307q-153 -51 -153 -153t142 -101q74 0 116 37q41 37 41 87t-36 76t-110 54zM1386 625q-56 0 -95 -34q-40 -34 -40 -85q0 -76 125 -113q139 45 140 137q0 47 -37 71t-93 24zM1583 197q0 -84 -70 -151q-70 -66 -189 -66q-239 1 -241 155q0 143 189 209
q-117 55 -117 148q0 92 74 148t172 56t155 -40t58 -109q0 -119 -166 -189q66 -36 100 -72t35 -89zM499 1372q105 0 156 -40t52 -111q0 -143 -158 -195q129 -31 129 -147q0 -88 -65 -156t-205 -68t-226 60l41 76q101 -55 191 -55t128 43q38 44 38 93q0 102 -148 103h-88
l12 80h82q88 0 128 46t40 92q0 101 -110 99q-70 0 -193 -53l-18 74q109 59 214 59zM481 0h-61l954 1393h62z" />
    <glyph glyph-name="fiveeighths" unicode="&#x215d;" horiz-adv-x="1638" 
d="M1339 307q-153 -51 -153 -153t142 -101q74 0 116 37q41 37 41 87t-36 76t-110 54zM1386 625q-56 0 -95 -34q-40 -34 -40 -85q0 -76 125 -113q139 45 140 137q0 47 -37 71t-93 24zM1583 197q0 -84 -70 -151q-70 -66 -189 -66q-239 1 -241 155q0 143 189 209
q-117 55 -117 148q0 92 74 148t172 56t155 -40t58 -109q0 -119 -166 -189q66 -36 100 -72t35 -89zM507 1114q179 0 179 -192q0 -100 -77 -184q-77 -83 -198 -83t-227 64l39 74q203 -108 306 -9q53 48 53 114q1 132 -117 132q-80 0 -141 -65l-70 6l70 391h383l-13 -84h-297
l-43 -223l2 -2q66 61 151 61zM481 0h-61l954 1393h62z" />
    <glyph glyph-name="seveneighths" unicode="&#x215e;" horiz-adv-x="1638" 
d="M1339 307q-153 -51 -153 -153t142 -101q74 0 116 37q41 37 41 87t-36 76t-110 54zM1386 625q-56 0 -95 -34q-40 -34 -40 -85q0 -76 125 -113q139 45 140 137q0 47 -37 71t-93 24zM1583 197q0 -84 -70 -151q-70 -66 -189 -66q-239 1 -241 155q0 143 189 209
q-117 55 -117 148q0 92 74 148t172 56t155 -40t58 -109q0 -119 -166 -189q66 -36 100 -72t35 -89zM623 1288h-359l10 84h465l-10 -69q-82 -113 -135 -191q-54 -78 -116 -199t-97 -237h-102q43 137 141 309t201 301zM379 0h-62l955 1393h61z" />
    <glyph glyph-name="partialdiff" unicode="&#x2202;" horiz-adv-x="1175" 
d="M729 772q-102 0 -182 -49q-128 -78 -185 -263q-20 -69 -20 -124q0 -96 55 -150t146 -53q298 0 409 475q-74 164 -223 164zM741 1260q-137 0 -297 -52q12 90 17 144q178 61 336 61q418 0 417 -420q0 -159 -68 -407t-235 -427q-166 -179 -424 -179q-162 0 -254 82t-92 230
q-1 146 63 288t202 247t328 105q188 0 270 -180l2 2h2q31 119 30 213q0 135 -80 214t-217 79z" />
    <glyph glyph-name="emptyset" unicode="&#x2205;" horiz-adv-x="1413" 
d="M714 143q138 1 230 57t141 137t87 222t38 326q0 184 -69 268l-647 -934q82 -76 220 -76zM469 244l647 934q-78 72 -218 72t-233 -55q-93 -54 -143 -131q-50 -78 -79 -186q-31 -108 -37 -192t-7 -178q0 -174 70 -264zM1415 913q0 -119 -14 -231q-15 -112 -61 -244
q-46 -133 -120 -230t-208 -163q-133 -65 -321 -65t-310 77l-96 -139h-41l110 160q-160 127 -159 418q0 120 14 232t60 242t120 224t207 156q132 62 322 63q190 0 311 -76l94 138h41l-109 -156q160 -123 160 -406z" />
    <glyph glyph-name="product" unicode="&#x220f;" horiz-adv-x="1331" 
d="M133 0l201 1434h1065l-201 -1434h-184l178 1270h-696l-179 -1270h-184z" />
    <glyph glyph-name="summation" unicode="&#x2211;" horiz-adv-x="1126" 
d="M539 1219v-5l264 -518l-408 -518l-2 -4h656l-25 -174h-922l21 143l436 551l-280 555l20 144h922l-25 -174h-657z" />
    <glyph glyph-name="minus" unicode="&#x2212;" horiz-adv-x="1024" 
d="M977 467h-799l23 154h798z" />
    <glyph glyph-name="bulletoperator" unicode="&#x2219;" horiz-adv-x="491" 
d="M391 379h-184l37 266h184z" />
    <glyph glyph-name="radical" unicode="&#x221a;" horiz-adv-x="1648" 
d="M266 799h498l127 -602h4l604 1237h197l-727 -1444h-224l-165 696h-330z" />
    <glyph glyph-name="infinity" unicode="&#x221e;" horiz-adv-x="1394" 
d="M454 698q-93 0 -154 -65q-60 -66 -60 -146q0 -79 43 -123t128 -44t161 60t122 128q-23 66 -85 128t-155 62zM1298 537q0 168 -168 168q-86 1 -164 -61t-126 -134q24 -72 90 -128t158 -56t151 66t59 145zM373 213q-119 0 -187 67t-67 179q0 152 101 252t263 100
q193 0 303 -217q166 217 375 217q121 0 190 -67t68 -179q0 -145 -100 -249t-260 -103q-207 0 -307 215q-60 -86 -160 -150t-219 -65z" />
    <glyph glyph-name="integral" unicode="&#x222b;" horiz-adv-x="706" 
d="M692 1434q70 0 164 -15l-39 -143q-72 10 -104 10q-88 0 -127 -48t-54 -153l-174 -1235q-20 -147 -95 -214t-243 -66q-70 0 -161 14l39 144q72 -10 104 -11q90 0 127 34t47 116l176 1249q25 172 104 245t236 73z" />
    <glyph glyph-name="approxequal" unicode="&#x2248;" horiz-adv-x="999" 
d="M735 225q-39 0 -176 51t-176 52q-70 0 -178 -99l-53 47q135 180 243 181q53 -1 189 -55t168 -54q73 0 145 84l41 -55q-94 -152 -203 -152zM440 737q-70 0 -178 -98l-53 47q137 180 244 180q53 0 189 -54t167 -54q73 0 145 84l41 -56q-94 -152 -202 -151q-39 0 -177 51
t-176 51z" />
    <glyph glyph-name="notequal" unicode="&#x2260;" horiz-adv-x="1024" 
d="M459 416l176 256h-428l22 153h510l285 414h82l-285 -414h207l-22 -153h-289l-176 -256h430l-23 -154h-512l-284 -416h-82l284 416h-204l22 154h287z" />
    <glyph glyph-name="lessequal" unicode="&#x2264;" horiz-adv-x="983" 
d="M893 164l-14 -113h-758l14 113h758zM969 983l-19 -133l-516 -236l449 -235l-19 -133l-631 323l15 93z" />
    <glyph glyph-name="greaterequal" unicode="&#x2265;" horiz-adv-x="983" 
d="M135 164h758l-14 -113h-758zM293 983l631 -321l-15 -93l-721 -323l19 133l514 235l-447 236z" />
    <glyph glyph-name="lozenge" unicode="&#x25ca;" horiz-adv-x="966" 
d="M512 199l340 506l-199 505l-342 -505zM160 705l516 765h29l299 -765l-515 -766h-28z" />
    <glyph glyph-name="a.sups" horiz-adv-x="604" 
d="M469 1122q-141 0 -141 -104q0 -76 96 -76q74 0 133 45l18 135h-106zM471 1178h113q10 62 10 88q0 62 -107 61q-63 0 -163 -18l-5 73q103 20 195 20t133 -27q41 -28 41 -84t-53 -410h-92l6 51q-82 -62 -161 -62t-117 35t-38 90q1 91 65 137t173 46z" />
    <glyph glyph-name="b.sups" horiz-adv-x="624" 
d="M441 948q64 0 103 52q38 52 47 102t9 96q0 129 -104 129q-65 0 -131 -43l-41 -293q53 -43 117 -43zM452 870q-79 0 -139 60h-2l-24 -51h-70l100 718h93l-37 -256h2q72 61 168 62q156 0 155 -184q0 -120 -45 -223q-56 -126 -201 -126z" />
    <glyph glyph-name="d.sups" horiz-adv-x="624" 
d="M495 1327q-77 0 -114 -82t-37 -168q0 -129 109 -129q68 0 127 43l41 293q-49 43 -126 43zM246 1063q0 109 45 212q57 128 203 128q80 0 133 -62h2l37 256h92l-101 -718h-92l6 51h-2q-78 -59 -159 -60q-164 0 -164 193z" />
    <glyph glyph-name="e.sups" horiz-adv-x="645" 
d="M360 1182h258q10 27 15 63q0 86 -107 86q-137 1 -166 -149zM471 870q-223 0 -223 205q0 16 4 62q41 266 291 266q182 0 182 -156q0 -47 -25 -125h-350q-2 -14 -2 -41q0 -133 148 -133q93 1 163 21v-74q-90 -25 -188 -25z" />
    <glyph glyph-name="h.sups" horiz-adv-x="614" 
d="M567 1403q133 0 133 -129q0 -51 -53 -393h-92q49 328 49 362q0 84 -88 84q-66 0 -151 -59l-56 -387h-92l100 716h93l-37 -276h2q92 82 192 82z" />
    <glyph glyph-name="i.sups" horiz-adv-x="276" 
d="M381 1393l-74 -512h-92l74 512h92zM410 1597l-19 -127h-92l18 127h93z" />
    <glyph glyph-name="l.sups" horiz-adv-x="276" 
d="M317 1597h93l-103 -716h-92z" />
    <glyph glyph-name="m.sups" horiz-adv-x="921" 
d="M562 1403q102 0 118 -88q94 88 194 88q133 0 134 -129q0 -51 -54 -393h-92q49 324 49 360q0 86 -88 86q-53 0 -139 -61q0 -29 -6 -62l-45 -323h-92l47 338q14 109 -88 108q-55 0 -135 -59l-56 -387h-92l72 512h92l-8 -72h2q85 82 187 82z" />
    <glyph glyph-name="n.sups" horiz-adv-x="614" 
d="M567 1403q133 0 133 -129q0 -51 -53 -393h-92q49 324 49 362q0 84 -88 84q-66 0 -151 -59l-56 -387h-92l72 512h92l-8 -72h2q92 82 192 82z" />
    <glyph glyph-name="o.sups" horiz-adv-x="655" 
d="M516 1327q-103 0 -140 -90q-30 -72 -30 -156q0 -133 117 -133q67 0 107 46t50 96t11 108q0 129 -115 129zM248 1071q0 118 53 215q29 53 87 85t140 32q201 0 201 -195q0 -123 -51 -220q-63 -118 -225 -118q-205 0 -205 201z" />
    <glyph glyph-name="r.sups" horiz-adv-x="471" 
d="M307 881h-92l74 512h92l-12 -82h2q96 92 204 92l-10 -86q-106 0 -203 -60z" />
    <glyph glyph-name="s.sups" horiz-adv-x="593" 
d="M373 1251q0 -45 93 -65t138 -49t45 -93t-50 -119t-170 -55t-210 25l27 74q88 -23 172 -23t110 30t27 56q0 46 -94 64t-138 48t-44 96t51 115q52 48 166 48t196 -23l-28 -73q-86 23 -155 23q-136 0 -136 -79z" />
    <glyph glyph-name="t.sups" horiz-adv-x="503" 
d="M481 946q10 0 51 4v-71q-57 -8 -94 -9q-129 0 -129 113q0 49 45 344h-78l11 59l78 7l30 143h82l-20 -143h143l-10 -66h-144q-41 -283 -40 -313q0 -68 75 -68z" />
    <glyph glyph-name="T_h" horiz-adv-x="2109" 
d="M2103 788q0 -72 -106 -788h-185q98 674 99 723q0 168 -178 168q-123 0 -303 -117l-109 -774h-184l172 1219h-467l-170 -1219h-195l170 1219h-383l25 174h1229l-72 -512h4q184 164 387 163q266 0 266 -256z" />
    <glyph glyph-name="f_f_j" horiz-adv-x="1699" 
d="M694 1434q70 0 160 -15l-37 -143q-72 10 -104 10q-88 0 -127 -48t-56 -153l-6 -61h420l6 61q25 177 130 263t311 86q70 0 176 -18t172 -48l-39 -133q-138 51 -290 51t-206 -50t-69 -151l-7 -61h605l-166 -1174q-19 -150 -95 -216t-241 -64q-68 0 -162 14l37 144
q72 -10 131 -10t98 31q39 32 49 118l144 1024h-420l-145 -1041q-19 -150 -95 -216t-241 -64q-70 0 -162 14l37 144q72 -10 131 -10t98 31q39 32 49 118l144 1024h-420l-146 -1041q-20 -150 -95 -216t-240 -64q-72 0 -164 14l39 144q72 -10 131 -10t98 31q39 32 49 118
l143 1024h-153l18 121l156 12l12 92q25 172 104 245t238 73z" />
    <glyph glyph-name="f_j" horiz-adv-x="1095" 
d="M786 1434q70 0 176 -18t173 -48l-39 -133q-139 51 -291 51t-205 -50t-70 -151l-6 -61h604l-165 -1174q-19 -150 -95 -216t-241 -64q-70 0 -162 14l37 144q72 -10 131 -10t98 31q39 32 49 118l144 1024h-420l-146 -1041q-20 -150 -95 -216t-240 -64q-72 0 -164 14l39 144
q72 -10 131 -10t98 31q39 32 49 118l143 1024h-153l18 121l156 12l6 61q25 177 130 263t310 86z" />
    <glyph glyph-name="A.sc" horiz-adv-x="1249" 
d="M879 440l-119 518l-271 -518h390zM897 287h-471l-147 -287h-207l616 1198h219l271 -1198h-215z" />
    <glyph glyph-name="Aacute.sc" horiz-adv-x="1249" 
d="M489 440h390l-119 518zM279 0h-207l616 1198h219l271 -1198h-215l-66 287h-471zM907 1597h195l-213 -286h-144z" />
    <glyph glyph-name="Abreve.sc" horiz-adv-x="1249" 
d="M489 440h390l-119 518zM279 0h-207l616 1198h219l271 -1198h-215l-66 287h-471zM571 1597h78q10 -71 54 -119t128 -48q160 0 232 167h80q-78 -276 -326 -276q-119 1 -183 71t-63 205z" />
    <glyph glyph-name="Acircumflex.sc" horiz-adv-x="1249" 
d="M489 440h390l-119 518zM279 0h-207l616 1198h219l271 -1198h-215l-66 287h-471zM541 1311l250 286h133l170 -286h-144l-106 184l-160 -184h-143z" />
    <glyph glyph-name="Adieresis.sc" horiz-adv-x="1249" 
d="M489 440h390l-119 518zM279 0h-207l616 1198h219l271 -1198h-215l-66 287h-471zM1102 1331h-154l33 246h154zM692 1331h-153l32 246h154z" />
    <glyph glyph-name="Agrave.sc" horiz-adv-x="1249" 
d="M489 440h390l-119 518zM279 0h-207l616 1198h219l271 -1198h-215l-66 287h-471zM809 1597l84 -286h-143l-136 286h195z" />
    <glyph glyph-name="Amacron.sc" horiz-adv-x="1249" 
d="M489 440h390l-119 518zM279 0h-207l616 1198h219l271 -1198h-215l-66 287h-471zM1145 1382h-635l18 123h635z" />
    <glyph glyph-name="Aogonek.sc" horiz-adv-x="1249" 
d="M879 440l-121 518l-269 -518h390zM1057 -338q47 0 121 35v-47q-82 -60 -174 -60t-137 33q-46 33 -46 97q-1 64 55 140q56 75 160 140h-73l-66 287h-469l-149 -287h-207l618 1198h219l269 -1198q-106 -33 -166 -109t-60 -141q0 -88 105 -88z" />
    <glyph glyph-name="Aring.sc" horiz-adv-x="1249" 
d="M489 440h390l-119 518zM279 0h-207l616 1198h219l271 -1198h-215l-66 287h-471zM739 1423q1 -86 85 -86q40 0 73 33t33 74q0 40 -23 64t-63 24t-73 -34q-32 -34 -32 -75zM850 1587q68 0 105 -36q38 -37 38 -103t-53 -117q-52 -51 -120 -51t-107 37t-39 103t54 116
q54 51 122 51z" />
    <glyph glyph-name="Atilde.sc" horiz-adv-x="1249" 
d="M489 440h390l-119 518zM279 0h-207l616 1198h219l271 -1198h-215l-66 287h-471zM969 1321q-39 0 -124 51t-125 51t-73 -17t-104 -81l-51 68q131 170 241 170q53 -1 139 -55t117 -54q66 0 146 94l41 -75q-96 -152 -207 -152z" />
    <glyph glyph-name="AE.sc" horiz-adv-x="1814" 
d="M1026 1024h-4l-326 -434h271zM950 1188h910l-25 -164h-625l-47 -338h533l-23 -164h-532l-51 -358h634l-22 -164h-819l61 436h-348l-328 -436h-196z" />
    <glyph glyph-name="B.sc" horiz-adv-x="1167" 
d="M657 164q145 0 210 62t67 155q0 152 -244 151h-297l-53 -368h317zM690 676q143 0 208 60t65 147q0 141 -215 141h-287l-47 -348h276zM1124 384q0 -88 -22 -147q-22 -61 -70 -117q-105 -120 -366 -120h-533l168 1188h522q166 0 253 -64t87 -183q1 -120 -69 -209t-199 -116
l-2 -4q107 -16 169 -78t62 -150z" />
    <glyph glyph-name="C.sc" horiz-adv-x="1198" 
d="M886 1208q192 0 394 -71l-66 -154q-195 61 -372 61q-459 0 -459 -585q0 -160 79 -238q79 -77 250 -77t392 61l22 -154q-231 -72 -440 -71q-260 0 -380 114t-120 343q0 230 73 411q44 108 115 184q72 76 196 126t316 50z" />
    <glyph glyph-name="Cacute.sc" horiz-adv-x="1198" 
d="M886 1208q192 0 394 -71l-66 -154q-195 61 -372 61q-459 0 -459 -585q0 -160 79 -238q79 -77 250 -77t392 61l22 -154q-231 -72 -440 -71q-260 0 -380 114t-120 343q0 230 73 411q44 108 115 184q72 76 196 126t316 50zM963 1597h194l-213 -286h-143z" />
    <glyph glyph-name="Ccaron.sc" horiz-adv-x="1198" 
d="M886 1208q192 0 394 -71l-66 -154q-195 61 -372 61q-459 0 -459 -585q0 -160 79 -238q79 -77 250 -77t392 61l22 -154q-231 -72 -440 -71q-260 0 -380 114t-120 343q0 230 73 411q44 108 115 184q72 76 196 126t316 50zM635 1597h143l109 -184l157 184h144l-248 -286
h-133z" />
    <glyph glyph-name="Ccedilla.sc" horiz-adv-x="1198" 
d="M842 1044q-459 0 -459 -585q0 -160 79 -238t250 -78t392 62l22 -154q-217 -68 -407 -71l-14 -93q152 -14 151 -125q0 -82 -61 -132t-147 -50t-165 25l21 61q58 -14 114 -14t90 35t33 75q0 76 -114 84l20 134q-241 8 -351 122t-110 339q0 226 73 407q44 108 115 184
q72 76 196 126t316 50t394 -71l-66 -154q-195 61 -372 61z" />
    <glyph glyph-name="Cdotaccent.sc" horiz-adv-x="1198" 
d="M886 1208q192 0 394 -71l-66 -154q-195 61 -372 61q-459 0 -459 -585q0 -160 79 -238q79 -77 250 -77t392 61l22 -154q-231 -72 -440 -71q-260 0 -380 114t-120 343q0 230 73 411q44 108 115 184q72 76 196 126t316 50zM965 1300h-185l37 256h184z" />
    <glyph glyph-name="D.sc" horiz-adv-x="1249" 
d="M596 164q442 0 442 575q0 145 -73 215q-74 70 -248 70h-256l-121 -860h256zM752 1188q481 0 481 -434q0 -218 -75 -395q-44 -105 -112 -182t-189 -127q-120 -50 -273 -50h-451l168 1188h451z" />
    <glyph glyph-name="Eth.sc" horiz-adv-x="1249" 
d="M596 164q442 0 442 575q0 145 -73 215q-74 70 -248 70h-236l-51 -362h266l-14 -113h-266l-56 -385h236zM752 1188q481 0 481 -434q0 -218 -75 -395q-44 -105 -112 -182t-189 -127q-120 -50 -273 -50h-430l77 549h-143l14 113h144l76 526h430z" />
    <glyph glyph-name="Dcaron.sc" horiz-adv-x="1249" 
d="M596 164q442 0 442 575q0 145 -73 215q-74 70 -248 70h-256l-121 -860h256zM752 1188q481 0 481 -434q0 -218 -75 -395q-44 -105 -112 -182t-189 -127q-120 -50 -273 -50h-451l168 1188h451zM543 1597h143l109 -184l157 184h144l-248 -286h-133z" />
    <glyph glyph-name="Dcroat.sc" horiz-adv-x="1249" 
d="M596 164q442 0 442 575q0 145 -73 215q-74 70 -248 70h-236l-51 -362h266l-14 -113h-266l-56 -385h236zM752 1188q481 0 481 -434q0 -218 -75 -395q-44 -105 -112 -182t-189 -127q-120 -50 -273 -50h-430l77 549h-143l14 113h144l76 526h430z" />
    <glyph glyph-name="E.sc" horiz-adv-x="1064" 
d="M461 1024l-47 -338h532l-22 -164h-533l-51 -358h635l-23 -164h-819l168 1188h809l-25 -164h-624z" />
    <glyph glyph-name="Eacute.sc" horiz-adv-x="1064" 
d="M414 686h532l-22 -164h-533l-51 -358h635l-23 -164h-819l168 1188h809l-25 -164h-624zM829 1597h195l-213 -286h-143z" />
    <glyph glyph-name="Ecaron.sc" horiz-adv-x="1064" 
d="M414 686h532l-22 -164h-533l-51 -358h635l-23 -164h-819l168 1188h809l-25 -164h-624zM502 1597h143l109 -184l157 184h144l-248 -286h-133z" />
    <glyph glyph-name="Ecircumflex.sc" horiz-adv-x="1064" 
d="M414 686h532l-22 -164h-533l-51 -358h635l-23 -164h-819l168 1188h809l-25 -164h-624zM463 1311l250 286h133l170 -286h-144l-106 184l-160 -184h-143z" />
    <glyph glyph-name="Edieresis.sc" horiz-adv-x="1064" 
d="M414 686h532l-22 -164h-533l-51 -358h635l-23 -164h-819l168 1188h809l-25 -164h-624zM1026 1331h-154l33 246h154zM616 1331h-153l33 246h153z" />
    <glyph glyph-name="Edotaccent.sc" horiz-adv-x="1064" 
d="M414 686h532l-22 -164h-533l-51 -358h635l-23 -164h-819l168 1188h809l-25 -164h-624zM831 1300h-184l37 256h184z" />
    <glyph glyph-name="Egrave.sc" horiz-adv-x="1064" 
d="M414 686h532l-22 -164h-533l-51 -358h635l-23 -164h-819l168 1188h809l-25 -164h-624zM733 1597l84 -286h-143l-135 286h194z" />
    <glyph glyph-name="Emacron.sc" horiz-adv-x="1064" 
d="M414 686h532l-22 -164h-533l-51 -358h635l-23 -164h-819l168 1188h809l-25 -164h-624zM1067 1382h-635l19 123h634z" />
    <glyph glyph-name="Eogonek.sc" horiz-adv-x="1064" 
d="M645 -280q0 64 56 141q56 76 159 139h-725l166 1188h809l-23 -164h-624l-47 -338h532l-22 -164h-533l-51 -358h635l-23 -164q-82 -57 -130 -126t-48 -124q0 -88 105 -88q43 0 123 35v-47q-82 -60 -174 -60t-138 33q-47 33 -47 97z" />
    <glyph glyph-name="F.sc" horiz-adv-x="1013" 
d="M1065 1024h-604l-53 -379h512l-23 -164h-512l-68 -481h-184l168 1188h789z" />
    <glyph glyph-name="G.sc" horiz-adv-x="1249" 
d="M842 1044q-459 0 -459 -585q0 -160 79 -238t253 -78q104 0 233 31l45 318h-225l20 133h410l-82 -574q-219 -72 -430 -71q-260 0 -380 114t-120 343q0 230 73 411q44 108 115 184q72 76 196 126t316 50t394 -71l-66 -154q-195 61 -372 61z" />
    <glyph glyph-name="Gbreve.sc" horiz-adv-x="1249" 
d="M842 1044q-459 0 -459 -585q0 -160 79 -238t253 -78q104 0 233 31l45 318h-225l20 133h410l-82 -574q-219 -72 -430 -71q-260 0 -380 114t-120 343q0 230 73 411q44 108 115 184q72 76 196 126t316 50t394 -71l-66 -154q-195 61 -372 61zM629 1597h78q10 -71 54 -119
t128 -48q160 0 231 167h80q-78 -276 -326 -276q-119 1 -182 71t-63 205z" />
    <glyph glyph-name="Gcommaaccent.sc" horiz-adv-x="1249" 
d="M637 -205h-51l20 144h144l-21 -144l-92 -174h-62zM842 1044q-459 0 -459 -585q0 -160 79 -238t253 -78q104 0 233 31l45 318h-225l20 133h410l-82 -574q-219 -72 -430 -71q-260 0 -380 114t-120 343q0 230 73 411q44 108 115 184q72 76 196 126t316 50t394 -71l-66 -154
q-195 61 -372 61z" />
    <glyph glyph-name="Gdotaccent.sc" horiz-adv-x="1249" 
d="M842 1044q-459 0 -459 -585q0 -160 79 -238t253 -78q104 0 233 31l45 318h-225l20 133h410l-82 -574q-219 -72 -430 -71q-260 0 -380 114t-120 343q0 230 73 411q44 108 115 184q72 76 196 126t316 50t394 -71l-66 -154q-195 61 -372 61zM965 1300h-185l37 256h184z" />
    <glyph glyph-name="H.sc" 
d="M133 0l168 1188h184l-71 -502h594l71 502h185l-168 -1188h-185l74 522h-594l-74 -522h-184z" />
    <glyph glyph-name="Hbar.sc" horiz-adv-x="1269" 
d="M1028 686l31 221h-594l-31 -221h594zM297 1020l25 168h184l-25 -168h594l25 168h184l-24 -168h143l-17 -113h-143l-127 -907h-184l74 522h-594l-74 -522h-184l127 907h-144l17 113h143z" />
    <glyph glyph-name="I.sc" horiz-adv-x="450" 
d="M133 0l168 1188h184l-168 -1188h-184z" />
    <glyph glyph-name="IJ.sc" horiz-adv-x="1085" 
d="M633 -20q-96 0 -189 14l41 166q59 -10 136 -10t130 49q52 49 68 161l117 828h194l-118 -838q-29 -198 -123 -284t-256 -86zM485 1188l-168 -1188h-184l168 1188h184z" />
    <glyph glyph-name="Iacute.sc" horiz-adv-x="450" 
d="M485 1188l-168 -1188h-184l168 1188h184zM502 1597h194l-213 -286h-143z" />
    <glyph glyph-name="Icircumflex.sc" horiz-adv-x="450" 
d="M485 1188l-168 -1188h-184l168 1188h184zM135 1311l250 286h133l170 -286h-143l-107 184l-159 -184h-144z" />
    <glyph glyph-name="Idieresis.sc" horiz-adv-x="450" 
d="M485 1188l-168 -1188h-184l168 1188h184zM696 1331h-153l32 246h154zM287 1331h-154l33 246h153z" />
    <glyph glyph-name="Idotaccent.sc" horiz-adv-x="450" 
d="M485 1188l-168 -1188h-184l168 1188h184zM504 1300h-185l37 256h185z" />
    <glyph glyph-name="Igrave.sc" horiz-adv-x="450" 
d="M485 1188l-168 -1188h-184l168 1188h184zM403 1597l84 -286h-143l-135 286h194z" />
    <glyph glyph-name="Imacron.sc" horiz-adv-x="450" 
d="M485 1188l-168 -1188h-184l168 1188h184zM739 1382h-635l19 123h635z" />
    <glyph glyph-name="Iogonek.sc" horiz-adv-x="450" 
d="M207 -338q43 0 123 35v-47q-82 -60 -174 -60t-138 33q-47 33 -47 97q-1 64 57 143q58 78 160 137h-53l166 1188h184l-166 -1188q-98 -29 -157 -109t-60 -141q0 -88 105 -88z" />
    <glyph glyph-name="J.sc" horiz-adv-x="675" 
d="M223 -20q-96 0 -188 14l41 166q59 -10 136 -10q166 0 198 210l116 828h195l-119 -838q-29 -198 -123 -284t-256 -86z" />
    <glyph glyph-name="K.sc" horiz-adv-x="1204" 
d="M401 590l654 598h229l-518 -486l360 -702h-233l-279 567l-249 -233l-48 -334h-184l168 1188h184z" />
    <glyph glyph-name="Kcommaaccent.sc" horiz-adv-x="1204" 
d="M543 -205h-51l20 144h143l-20 -144l-92 -174h-62zM1284 1188l-518 -486l360 -702h-233l-279 567l-249 -233l-48 -334h-184l168 1188h184l-84 -598l654 598h229z" />
    <glyph glyph-name="L.sc" horiz-adv-x="1024" 
d="M485 1188l-145 -1024h614l-22 -164h-799l168 1188h184z" />
    <glyph glyph-name="Lacute.sc" horiz-adv-x="1024" 
d="M954 164l-22 -164h-799l168 1188h184l-145 -1024h614zM502 1597h194l-213 -286h-143z" />
    <glyph glyph-name="Lcaron.sc" horiz-adv-x="1024" 
d="M702 922h-71l37 266h184l-37 -266l-131 -267h-61zM954 164l-22 -164h-799l168 1188h184l-145 -1024h614z" />
    <glyph glyph-name="Lcommaaccent.sc" horiz-adv-x="1024" 
d="M463 -205h-51l20 144h143l-20 -144l-92 -174h-62zM954 164l-22 -164h-799l168 1188h184l-145 -1024h614z" />
    <glyph glyph-name="Ldot.sc" horiz-adv-x="1024" 
d="M760 532h-185l37 267h185zM954 164l-22 -164h-799l168 1188h184l-145 -1024h614z" />
    <glyph glyph-name="Lslash.sc" horiz-adv-x="1024" 
d="M399 575l-59 -411h614l-22 -164h-799l74 530l-148 -32l17 112l149 33l76 545h184l-71 -500l233 55l-16 -112z" />
    <glyph glyph-name="M.sc" horiz-adv-x="1556" 
d="M825 303h4l506 885h256l-168 -1188h-184l125 883h-4l-514 -883h-144l-260 883h-4l-125 -883h-180l168 1188h256z" />
    <glyph glyph-name="N.sc" horiz-adv-x="1249" 
d="M133 0l168 1188h195l481 -885h4l125 885h178l-168 -1188h-194l-480 887h-4l-125 -887h-180z" />
    <glyph glyph-name="Nacute.sc" horiz-adv-x="1249" 
d="M496 1188l481 -885h4l125 885h178l-168 -1188h-194l-480 887h-4l-125 -887h-180l168 1188h195zM901 1597h195l-213 -286h-144z" />
    <glyph glyph-name="Ncaron.sc" horiz-adv-x="1249" 
d="M496 1188l481 -885h4l125 885h178l-168 -1188h-194l-480 887h-4l-125 -887h-180l168 1188h195zM573 1597h144l108 -184l158 184h143l-247 -286h-134z" />
    <glyph glyph-name="Ncommaaccent.sc" horiz-adv-x="1249" 
d="M575 -205h-51l21 144h143l-20 -144l-93 -174h-61zM496 1188l481 -885h4l125 885h178l-168 -1188h-194l-480 887h-4l-125 -887h-180l168 1188h195z" />
    <glyph glyph-name="Eng.sc" horiz-adv-x="1249" 
d="M932 0l-490 887h-4l-125 -887h-180l168 1188h195l481 -885h4l125 885h178l-188 -1338q-20 -150 -96 -216t-242 -64q-66 0 -160 14l37 144q72 -10 131 -10t97 31q38 32 50 118z" />
    <glyph glyph-name="Ntilde.sc" horiz-adv-x="1249" 
d="M496 1188l481 -885h4l125 885h178l-168 -1188h-194l-480 887h-4l-125 -887h-180l168 1188h195zM963 1321q-39 0 -124 51t-125 51t-73 -17t-104 -81l-52 68q131 170 242 170q53 -1 139 -55t117 -54q65 0 145 94l41 -75q-96 -152 -206 -152z" />
    <glyph glyph-name="O.sc" horiz-adv-x="1331" 
d="M817 1055q-434 0 -434 -606q0 -150 69 -233t247 -83t276 112q97 112 123 245t26 272t-68 216q-69 77 -239 77zM666 -20q-477 0 -478 452q0 402 182 600q68 76 188 126t280 50q252 0 366 -110t115 -337q0 -226 -72 -407q-43 -110 -111 -190t-190 -132q-120 -52 -280 -52z
" />
    <glyph glyph-name="Oacute.sc" horiz-adv-x="1331" 
d="M817 1055q-434 0 -434 -606q0 -150 69 -233t247 -83t276 112q97 112 123 245t26 272t-68 216q-69 77 -239 77zM666 -20q-477 0 -478 452q0 402 182 600q68 76 188 126t280 50q252 0 366 -110t115 -337q0 -226 -72 -407q-43 -110 -111 -190t-190 -132q-120 -52 -280 -52z
M942 1597h195l-213 -286h-144z" />
    <glyph glyph-name="Ocircumflex.sc" horiz-adv-x="1331" 
d="M817 1055q-434 0 -434 -606q0 -150 69 -233t247 -83t276 112q97 112 123 245t26 272t-68 216q-69 77 -239 77zM666 -20q-477 0 -478 452q0 402 182 600q68 76 188 126t280 50q252 0 366 -110t115 -337q0 -226 -72 -407q-43 -110 -111 -190t-190 -132q-120 -52 -280 -52z
M575 1311l250 286h133l170 -286h-143l-106 184l-160 -184h-144z" />
    <glyph glyph-name="Odieresis.sc" horiz-adv-x="1331" 
d="M817 1055q-434 0 -434 -606q0 -150 69 -233t247 -83t276 112q97 112 123 245t26 272t-68 216q-69 77 -239 77zM666 -20q-477 0 -478 452q0 402 182 600q68 76 188 126t280 50q252 0 366 -110t115 -337q0 -226 -72 -407q-43 -110 -111 -190t-190 -132q-120 -52 -280 -52z
M1139 1331h-154l33 246h153zM729 1331h-154l33 246h154z" />
    <glyph glyph-name="Ograve.sc" horiz-adv-x="1331" 
d="M817 1055q-434 0 -434 -606q0 -150 69 -233t247 -83t276 112q97 112 123 245t26 272t-68 216q-69 77 -239 77zM666 -20q-477 0 -478 452q0 402 182 600q68 76 188 126t280 50q252 0 366 -110t115 -337q0 -226 -72 -407q-43 -110 -111 -190t-190 -132q-120 -52 -280 -52z
M846 1597l84 -286h-144l-135 286h195z" />
    <glyph glyph-name="Ohungarumlaut.sc" horiz-adv-x="1331" 
d="M817 1055q-434 0 -434 -606q0 -150 69 -233t247 -83t276 112q97 112 123 245t26 272t-68 216q-69 77 -239 77zM666 -20q-477 0 -478 452q0 402 182 600q68 76 188 126t280 50q252 0 366 -110t115 -337q0 -226 -72 -407q-43 -110 -111 -190t-190 -132q-120 -52 -280 -52z
M1079 1556h123l-178 -245h-102zM844 1556h123l-179 -245h-102z" />
    <glyph glyph-name="Omacron.sc" horiz-adv-x="1331" 
d="M817 1055q-434 0 -434 -606q0 -150 69 -233t247 -83t276 112q97 112 123 245t26 272t-68 216q-69 77 -239 77zM666 -20q-477 0 -478 452q0 402 182 600q68 76 188 126t280 50q252 0 366 -110t115 -337q0 -226 -72 -407q-43 -110 -111 -190t-190 -132q-120 -52 -280 -52z
M1180 1382h-635l18 123h635z" />
    <glyph glyph-name="Oslash.sc" horiz-adv-x="1331" 
d="M688 133q111 0 194 44q83 43 128 107q46 64 80 175t34 249t-30 193l-645 -680q76 -88 239 -88zM817 1055q-434 0 -434 -611q0 -98 33 -155l645 680q-76 86 -244 86zM666 -20q-227 0 -344 106l-146 -154l-51 50l143 153q-82 109 -82 297q0 399 182 599q68 77 190 127
t282 50q231 0 348 -104l141 147l51 -47l-139 -147q78 -104 78 -314t-72 -391q-43 -112 -111 -190t-191 -130q-122 -52 -279 -52z" />
    <glyph glyph-name="Otilde.sc" horiz-adv-x="1331" 
d="M817 1055q-434 0 -434 -606q0 -150 69 -233t247 -83t276 112q97 112 123 245t26 272t-68 216q-69 77 -239 77zM666 -20q-477 0 -478 452q0 402 182 600q68 76 188 126t280 50q252 0 366 -110t115 -337q0 -226 -72 -407q-43 -110 -111 -190t-190 -132q-120 -52 -280 -52z
M1004 1321q-39 0 -124 51t-125 51t-73 -17t-104 -81l-52 68q131 170 242 170q53 -1 139 -55t117 -54q65 0 145 94l41 -75q-96 -152 -206 -152z" />
    <glyph glyph-name="OE.sc" horiz-adv-x="1966" 
d="M817 1055q-434 0 -434 -606q0 -150 69 -233t236 -83q220 0 309 135q88 135 115 336q12 80 12 152q0 145 -68 222q-69 77 -239 77zM666 -20q-477 0 -478 452q0 402 182 600q68 76 188 126t280 50q287 0 356 -215l27 195h792l-22 -164h-625l-47 -338h532l-24 -164h-533
l-49 -358h635l-25 -164h-806l28 203q-129 -223 -411 -223z" />
    <glyph glyph-name="P.sc" horiz-adv-x="1146" 
d="M694 563q152 0 220 82q68 83 67 183q0 196 -223 196h-297l-64 -461h297zM793 1188q184 0 281 -84t97 -246t-99 -299q-52 -72 -153 -116t-239 -44h-307l-56 -399h-184l168 1188h492z" />
    <glyph glyph-name="Thorn.sc" horiz-adv-x="1146" 
d="M666 365q154 -1 220 81t66 182q-1 198 -221 197h-297l-65 -460h297zM754 989q186 0 288 -86t102 -246t-105 -300q-54 -71 -156 -113t-240 -43h-297l-29 -201h-184l168 1188h184l-28 -199h297z" />
    <glyph glyph-name="Q.sc" horiz-adv-x="1331" 
d="M688 133q109 0 192 43t128 108q44 65 80 179t36 275t-68 239q-69 78 -239 78q-434 0 -434 -609q1 -147 69 -230t236 -83zM1030 -213q-311 0 -403 195q-438 16 -439 448q0 236 71 419q42 107 112 183q69 76 189 126t280 50q252 0 366 -110t115 -330q0 -518 -315 -682
q-98 -51 -226 -59q39 -86 211 -86q72 -2 193 8l-21 -154q-63 -8 -133 -8z" />
    <glyph glyph-name="R.sc" horiz-adv-x="1177" 
d="M694 563q158 0 222 83q64 82 65 182q0 196 -213 196h-307l-64 -461h297zM793 1188q184 0 281 -85t97 -237q0 -207 -141 -339q-82 -77 -203 -97l275 -430h-232l-243 399h-254l-56 -399h-184l168 1188h492z" />
    <glyph glyph-name="Racute.sc" horiz-adv-x="1177" 
d="M694 563q158 0 222 83q64 82 65 182q0 196 -213 196h-307l-64 -461h297zM793 1188q184 0 281 -85t97 -237q0 -207 -141 -339q-82 -77 -203 -97l275 -430h-232l-243 399h-254l-56 -399h-184l168 1188h492zM836 1597h194l-213 -286h-143z" />
    <glyph glyph-name="Rcaron.sc" horiz-adv-x="1177" 
d="M694 563q158 0 222 83q64 82 65 182q0 196 -213 196h-307l-64 -461h297zM793 1188q184 0 281 -85t97 -237q0 -207 -141 -339q-82 -77 -203 -97l275 -430h-232l-243 399h-254l-56 -399h-184l168 1188h492zM508 1597h143l109 -184l158 184h143l-248 -286h-133z" />
    <glyph glyph-name="Rcommaaccent.sc" horiz-adv-x="1177" 
d="M541 -205h-52l21 144h143l-20 -144l-92 -174h-62zM694 563q158 0 222 83q64 82 65 182q0 196 -213 196h-307l-64 -461h297zM793 1188q184 0 281 -85t97 -237q0 -207 -141 -339q-82 -77 -203 -97l275 -430h-232l-243 399h-254l-56 -399h-184l168 1188h492z" />
    <glyph glyph-name="S.sc" horiz-adv-x="1167" 
d="M274 807q0 174 111 288q111 113 344 113t469 -71l-65 -154q-242 61 -404 61q-254 0 -254 -186q0 -60 41 -91q57 -44 235 -76q179 -32 269 -103q90 -70 90 -197q0 -168 -128 -290t-378 -122t-481 72l65 154q242 -61 412 -61t241 60q71 62 71 146t-88 118q-87 34 -142 42
q-214 31 -321 107q-87 62 -87 190z" />
    <glyph glyph-name="Sacute.sc" horiz-adv-x="1167" 
d="M274 807q0 174 111 288q111 113 344 113t469 -71l-65 -154q-242 61 -404 61q-254 0 -254 -186q0 -60 41 -91q57 -44 235 -76q179 -32 269 -103q90 -70 90 -197q0 -168 -128 -290t-378 -122t-481 72l65 154q242 -61 412 -61t241 60q71 62 71 146t-88 118q-87 34 -142 42
q-214 31 -321 107q-87 62 -87 190zM850 1597h194l-213 -286h-143z" />
    <glyph glyph-name="Scaron.sc" horiz-adv-x="1167" 
d="M274 807q0 174 111 288q111 113 344 113t469 -71l-65 -154q-242 61 -404 61q-254 0 -254 -186q0 -60 41 -91q57 -44 235 -76q179 -32 269 -103q90 -70 90 -197q0 -168 -128 -290t-378 -122t-481 72l65 154q242 -61 412 -61t241 60q71 62 71 146t-88 118q-87 34 -142 42
q-214 31 -321 107q-87 62 -87 190zM522 1597h144l108 -184l158 184h143l-248 -286h-133z" />
    <glyph glyph-name="Scedilla.sc" horiz-adv-x="1167" 
d="M270 807q0 172 112 287q112 114 344 114t468 -71l-66 -154q-238 61 -403 61q-254 0 -254 -186q0 -60 41 -91q57 -44 236 -76t268 -101q90 -70 90 -197q0 -168 -121 -288t-375 -125l-14 -93q154 -14 154 -125q0 -82 -62 -132t-148 -50q-88 0 -163 25l20 61q53 -14 113 -14
t92 36t31 72q0 78 -113 86l19 134q-217 10 -418 71l65 154q238 -61 408 -61t242 60q72 62 72 133t-51 113q-37 33 -241 70q-172 35 -259 96t-87 191z" />
    <glyph glyph-name="Scommaaccent.sc" horiz-adv-x="1167" 
d="M545 -205h-51l20 144h143l-20 -144l-92 -174h-62zM274 807q0 174 111 288q111 113 344 113t469 -71l-65 -154q-242 61 -404 61q-254 0 -254 -186q0 -60 41 -91q57 -44 235 -76q179 -32 269 -103q90 -70 90 -197q0 -168 -128 -290t-378 -122t-481 72l65 154
q242 -61 412 -61t241 60q71 62 71 146t-88 118q-87 34 -142 42q-214 31 -321 107q-87 62 -87 190z" />
    <glyph glyph-name="Schwa.sc" horiz-adv-x="1284" 
d="M356 367q0 -233 283 -234q195 1 285 101t127 288h-670q-25 -86 -25 -155zM1270 756q0 -63 -15 -172q-41 -299 -193 -452t-444 -152q-442 0 -442 385q0 131 47 301h840q6 53 6 94q0 285 -328 284q-178 0 -389 -61l-22 154q220 71 460 71q480 0 480 -452z" />
    <glyph glyph-name="T.sc" horiz-adv-x="1064" 
d="M768 1024l-143 -1024h-185l144 1024h-348l24 164h881l-25 -164h-348z" />
    <glyph glyph-name="Tbar.sc" horiz-adv-x="1064" 
d="M514 528l70 496h-348l24 164h881l-25 -164h-348l-70 -496h174l-14 -112h-174l-59 -416h-185l60 416h-174l14 112h174z" />
    <glyph glyph-name="Tcaron.sc" horiz-adv-x="1064" 
d="M440 0l144 1024h-348l24 164h881l-25 -164h-348l-143 -1024h-185zM481 1597h144l108 -184l158 184h143l-248 -286h-133z" />
    <glyph glyph-name="Tcedilla.sc" horiz-adv-x="1064" 
d="M492 -420q-88 0 -162 25l20 61q57 -14 114 -14q56 0 90 35t34 75q0 76 -115 84l23 154h-56l144 1024h-348l24 164h881l-25 -164h-348l-143 -1024h-58l-16 -113q152 -14 151 -125q0 -82 -61 -132t-149 -50z" />
    <glyph glyph-name="uni021A.sc" horiz-adv-x="1064" 
d="M483 -205h-51l21 144h143l-21 -144l-92 -174h-61zM440 0l144 1024h-348l24 164h881l-25 -164h-348l-143 -1024h-185z" />
    <glyph glyph-name="U.sc" 
d="M303 1188h184q-111 -768 -110 -830q0 -104 57 -164t207 -61q191 0 263 113q36 55 52 107t27 128l98 707h185l-99 -707q-37 -264 -173 -383q-136 -118 -364 -118t-332 86q-105 86 -105 274q-1 84 110 848z" />
    <glyph glyph-name="Uacute.sc" 
d="M303 1188h184q-111 -768 -110 -830q0 -104 57 -164t207 -61q191 0 263 113q36 55 52 107t27 128l98 707h185l-99 -707q-37 -264 -173 -383q-136 -118 -364 -118t-332 86q-105 86 -105 274q-1 84 110 848zM891 1597h194l-213 -286h-143z" />
    <glyph glyph-name="Ucircumflex.sc" 
d="M303 1188h184q-111 -768 -110 -830q0 -104 57 -164t207 -61q191 0 263 113q36 55 52 107t27 128l98 707h185l-99 -707q-37 -264 -173 -383q-136 -118 -364 -118t-332 86q-105 86 -105 274q-1 84 110 848zM524 1311l250 286h133l170 -286h-143l-107 184l-159 -184h-144z
" />
    <glyph glyph-name="Udieresis.sc" 
d="M303 1188h184q-111 -768 -110 -830q0 -104 57 -164t207 -61q191 0 263 113q36 55 52 107t27 128l98 707h185l-99 -707q-37 -264 -173 -383q-136 -118 -364 -118t-332 86q-105 86 -105 274q-1 84 110 848zM1087 1331h-153l33 246h153zM678 1331h-154l33 246h154z" />
    <glyph glyph-name="Ugrave.sc" 
d="M303 1188h184q-111 -768 -110 -830q0 -104 57 -164t207 -61q191 0 263 113q36 55 52 107t27 128l98 707h185l-99 -707q-37 -264 -173 -383q-136 -118 -364 -118t-332 86q-105 86 -105 274q-1 84 110 848zM795 1597l84 -286h-144l-135 286h195z" />
    <glyph glyph-name="Uhungarumlaut.sc" 
d="M303 1188h184q-111 -768 -110 -830q0 -104 57 -164t207 -61q191 0 263 113q36 55 52 107t27 128l98 707h185l-99 -707q-37 -264 -173 -383q-136 -118 -364 -118t-332 86q-105 86 -105 274q-1 84 110 848zM1028 1556h123l-178 -245h-103zM793 1556h122l-178 -245h-102z
" />
    <glyph glyph-name="Umacron.sc" 
d="M303 1188h184q-111 -768 -110 -830q0 -104 57 -164t207 -61q191 0 263 113q36 55 52 107t27 128l98 707h185l-99 -707q-37 -264 -173 -383q-136 -118 -364 -118t-332 86q-105 86 -105 274q-1 84 110 848zM1128 1382h-634l18 123h635z" />
    <glyph glyph-name="Uogonek.sc" 
d="M606 -338q47 0 121 35v-47q-82 -60 -173 -60t-137 33t-46 92q0 139 186 267q-367 18 -367 358q0 92 111 848h184q-109 -752 -109 -844t57 -151q56 -59 206 -60q191 0 263 113q36 55 52 107t27 128l98 707h185l-99 -707q-37 -255 -163 -373t-351 -128q-150 -113 -149 -230
q0 -88 104 -88z" />
    <glyph glyph-name="Uring.sc" 
d="M303 1188h184q-111 -768 -110 -830q0 -104 57 -164t207 -61q191 0 263 113q36 55 52 107t27 128l98 707h185l-99 -707q-37 -264 -173 -383q-136 -118 -364 -118t-332 86q-105 86 -105 274q-1 84 110 848zM723 1423q0 -86 84 -86q41 0 74 33t33 74q0 40 -24 64
q-22 24 -63 24t-73 -34t-31 -75zM657 1420q1 66 55 116q54 51 122 51t105 -36q38 -37 38 -103t-53 -117q-52 -51 -120 -51t-108 37q-39 37 -39 103z" />
    <glyph glyph-name="V.sc" horiz-adv-x="1249" 
d="M670 231l471 957h205l-609 -1198h-219l-278 1198h217l211 -957h2z" />
    <glyph glyph-name="W.sc" horiz-adv-x="1843" 
d="M1032 881l-368 -891h-230l-194 1198h217l145 -955h2l377 955h209l125 -955h2l418 955h204l-532 -1198h-252l-119 891h-4z" />
    <glyph glyph-name="Wacute.sc" horiz-adv-x="1843" 
d="M434 -10l-194 1198h217l145 -955h2l377 955h209l125 -955h2l418 955h204l-532 -1198h-252l-119 891h-4l-368 -891h-230zM1198 1597h195l-213 -286h-144z" />
    <glyph glyph-name="Wcircumflex.sc" horiz-adv-x="1843" 
d="M434 -10l-194 1198h217l145 -955h2l377 955h209l125 -955h2l418 955h204l-532 -1198h-252l-119 891h-4l-368 -891h-230zM831 1311l250 286h133l170 -286h-143l-106 184l-160 -184h-144z" />
    <glyph glyph-name="Wdieresis.sc" horiz-adv-x="1843" 
d="M434 -10l-194 1198h217l145 -955h2l377 955h209l125 -955h2l418 955h204l-532 -1198h-252l-119 891h-4l-368 -891h-230zM1395 1331h-154l33 246h153zM985 1331h-154l33 246h154z" />
    <glyph glyph-name="Wgrave.sc" horiz-adv-x="1843" 
d="M434 -10l-194 1198h217l145 -955h2l377 955h209l125 -955h2l418 955h204l-532 -1198h-252l-119 891h-4l-368 -891h-230zM1102 1597l84 -286h-144l-135 286h195z" />
    <glyph glyph-name="X.sc" horiz-adv-x="1269" 
d="M1315 1188l-490 -563l369 -625h-233l-275 467l-401 -467h-207l518 614l-315 574h219l243 -408l355 408h217z" />
    <glyph glyph-name="Y.sc" horiz-adv-x="1187" 
d="M684 588l389 600h211l-547 -819l-51 -369h-184l51 369l-313 819h223l217 -600h4z" />
    <glyph glyph-name="Yacute.sc" horiz-adv-x="1187" 
d="M1284 1188l-547 -819l-51 -369h-184l51 369l-313 819h223l217 -600h4l389 600h211zM870 1597h195l-213 -286h-143z" />
    <glyph glyph-name="Ycircumflex.sc" horiz-adv-x="1187" 
d="M1284 1188l-547 -819l-51 -369h-184l51 369l-313 819h223l217 -600h4l389 600h211zM504 1311l250 286h133l170 -286h-144l-106 184l-160 -184h-143z" />
    <glyph glyph-name="Ydieresis.sc" horiz-adv-x="1187" 
d="M1284 1188l-547 -819l-51 -369h-184l51 369l-313 819h223l217 -600h4l389 600h211zM1067 1331h-154l33 246h154zM657 1331h-153l33 246h153z" />
    <glyph glyph-name="Ygrave.sc" horiz-adv-x="1187" 
d="M1284 1188l-547 -819l-51 -369h-184l51 369l-313 819h223l217 -600h4l389 600h211zM774 1597l84 -286h-143l-135 286h194z" />
    <glyph glyph-name="Z.sc" horiz-adv-x="1064" 
d="M858 1024h-592l25 164h839l-20 -144l-748 -876l-2 -4h646l-23 -164h-901l20 143l756 877v4z" />
    <glyph glyph-name="Zacute.sc" horiz-adv-x="1064" 
d="M858 1024h-592l25 164h839l-20 -144l-748 -876l-2 -4h646l-23 -164h-901l20 143l756 877v4zM809 1597h195l-213 -286h-144z" />
    <glyph glyph-name="Zcaron.sc" horiz-adv-x="1064" 
d="M858 1024h-592l25 164h839l-20 -144l-748 -876l-2 -4h646l-23 -164h-901l20 143l756 877v4zM481 1597h144l108 -184l158 184h143l-248 -286h-133z" />
    <glyph glyph-name="Zdotaccent.sc" horiz-adv-x="1064" 
d="M858 1024h-592l25 164h839l-20 -144l-748 -876l-2 -4h646l-23 -164h-901l20 143l756 877v4zM811 1300h-184l37 256h184z" />
    <glyph glyph-name="zero.subs" horiz-adv-x="679" 
d="M369 207q-145 0 -186 -283q-7 -55 -7 -102q0 -172 115 -172q144 0 184 287q8 57 8 102q1 168 -114 168zM279 -430q-205 0 -205 254q0 118 28 208q28 89 60 138q33 49 89 83t128 34q207 0 207 -246q0 -144 -58 -292q-31 -79 -95 -129t-154 -50z" />
    <glyph glyph-name="one.subs" horiz-adv-x="618" 
d="M240 -330l71 512l-180 -86l-14 76q160 66 237 121h70l-88 -623h205l-11 -80h-505l10 80h205z" />
    <glyph glyph-name="two.subs" horiz-adv-x="638" 
d="M446 100q0 109 -124 109q-74 0 -179 -47l-18 74q119 61 224 61t153 -48t49 -124q0 -111 -87 -217t-282 -230v-2h318l-13 -86h-452l12 93q399 240 399 417z" />
    <glyph glyph-name="three.subs" horiz-adv-x="659" 
d="M406 -61q129 -29 129 -163q0 -70 -65 -138t-207 -68t-224 59l41 74q96 -53 188 -53t130 44t38 91q0 102 -147 102h-88l12 80h82q88 0 128 47q40 48 40 94q0 100 -111 99q-69 0 -192 -53l-19 73q109 59 215 59t156 -39q51 -40 51 -113t-44 -123t-113 -72z" />
    <glyph glyph-name="four.subs" horiz-adv-x="700" 
d="M395 -152l43 314q-104 -152 -266 -314h223zM553 287l-61 -439h96l-13 -81h-96l-24 -177h-97l25 177h-324l13 81q227 217 360 439h121z" />
    <glyph glyph-name="five.subs" horiz-adv-x="659" 
d="M543 -165q0 -101 -76 -183t-197 -82t-229 61l39 74q104 -55 181 -55t128 49t51 115q0 130 -118 129q-82 0 -142 -66l-67 6l69 393h381l-10 -83h-299l-43 -226h2q68 61 154 62q176 0 176 -194z" />
    <glyph glyph-name="six.subs" horiz-adv-x="659" 
d="M168 -215q0 -135 115 -135q63 0 110 51t47 139q0 121 -118 121q-72 0 -142 -78q-12 -70 -12 -98zM408 207q-84 0 -146 -77t-80 -173h2q78 88 171 88t141 -48t47 -136q0 -133 -76 -212q-77 -79 -187 -79t-160 63t-50 168q0 29 8 86q55 399 346 400q80 0 156 -31l-23 -76
q-65 27 -149 27z" />
    <glyph glyph-name="seven.subs" horiz-adv-x="649" 
d="M479 203h-358l12 84h465l-10 -70q-268 -358 -348 -627h-103q43 140 141 312t201 299v2z" />
    <glyph glyph-name="eight.subs" horiz-adv-x="679" 
d="M156 -256q0 -45 34 -74q34 -28 110 -28q75 0 115 36t40 88q0 50 -37 76t-107 54q-155 -52 -155 -152zM485 121q1 47 -35 71t-92 23q-56 0 -95 -34q-40 -34 -40 -85q0 -76 125 -114q137 47 137 139zM555 -210q0 -87 -69 -154q-70 -66 -190 -66q-239 1 -240 149t186 213
q-117 56 -117 150t75 149t172 55t154 -39q57 -40 58 -110q0 -122 -166 -188q137 -72 137 -159z" />
    <glyph glyph-name="nine.subs" horiz-adv-x="659" 
d="M469 70q0 137 -113 137q-63 0 -110 -51t-47 -140q0 -123 116 -122q74 -1 144 79q10 55 10 97zM285 -188q-92 0 -142 48q-49 48 -49 136q0 133 77 212t189 79q207 0 207 -232q0 -43 -6 -86q-55 -399 -348 -399q-78 0 -154 31l23 75q66 -27 135 -26q98 0 161 77
q62 77 75 171q-76 -86 -168 -86z" />
    <glyph glyph-name="zero.sups" horiz-adv-x="679" 
d="M580 1702q-145 0 -186 -283q-7 -55 -7 -102q0 -172 115 -172q57 0 98 46q42 46 68 149t26 194q1 168 -114 168zM489 1065q-205 0 -204 254q0 146 56 290q30 77 94 125q65 48 155 48q207 0 207 -246q0 -144 -58 -292q-31 -79 -95 -129t-155 -50z" />
    <glyph glyph-name="four.sups" horiz-adv-x="700" 
d="M604 1343l43 314q-104 -154 -266 -314h223zM762 1782l-62 -439h97l-13 -79h-96l-24 -179h-97l25 179h-322l11 79q229 215 360 439h121z" />
    <glyph glyph-name="five.sups" horiz-adv-x="659" 
d="M754 1332q0 -100 -77 -184q-77 -83 -198 -83t-227 63l39 74q201 -107 306 -8q52 48 52 114t-27 99q-28 33 -99 33t-132 -66l-69 6l69 392h383l-12 -84h-297l-43 -224l2 -2q66 62 151 62t132 -46t47 -146z" />
    <glyph glyph-name="six.sups" horiz-adv-x="659" 
d="M379 1282q0 -137 113 -137q63 0 110 51t47 141q0 121 -117 121q-71 0 -141 -80q-12 -49 -12 -96zM631 1702q-99 0 -161 -77t-75 -171q76 86 169 86q94 0 142 -48t48 -136q0 -131 -76 -211t-191 -80q-207 0 -206 231q0 43 6 86q55 399 348 400q76 0 156 -31l-23 -76
q-70 27 -137 27z" />
    <glyph glyph-name="seven.sups" horiz-adv-x="649" 
d="M690 1698h-358l10 84h465l-10 -70q-82 -112 -135 -190q-54 -78 -116 -199t-97 -238h-103q43 139 141 311t203 300v2z" />
    <glyph glyph-name="eight.sups" horiz-adv-x="679" 
d="M518 1393q-153 -52 -153 -154q0 -103 142 -101q75 0 116 38q41 37 41 87q0 49 -36 75t-110 55zM694 1616q0 46 -37 70t-93 24t-94 -34q-40 -34 -40 -85q0 -76 125 -112q139 45 139 137zM762 1282q0 -84 -70 -150t-190 -67q-238 0 -240 156q0 143 189 209
q-117 55 -117 148t74 148q74 56 172 56t155 -40t58 -110q0 -118 -166 -188q67 -37 101 -73t34 -89z" />
    <glyph glyph-name="nine.sups" horiz-adv-x="659" 
d="M678 1565q0 139 -115 139q-63 0 -110 -51t-47 -142q0 -121 118 -120q76 -1 142 79q12 66 12 95zM424 1147q96 0 160 77q63 77 80 171h-2q-80 -86 -172 -86t-139 48q-48 48 -48 136q0 131 76 211t186 80q111 0 161 -64t50 -168q0 -29 -8 -86q-53 -399 -346 -399
q-78 0 -156 31l23 76q70 -27 135 -27z" />
    <glyph glyph-name="zero.tosf" 
d="M750 891q-267 0 -351 -324q-18 -74 -18 -141q0 -133 63 -213t172 -80q272 0 353 321q18 75 18 142q0 133 -64 214q-65 81 -173 81zM608 -20q-204 0 -314 114t-110 300q0 187 78 344q44 87 106 154q62 68 163 110t227 42q206 0 316 -114t110 -316q0 -203 -122 -404
q-62 -102 -180 -166t-274 -64z" />
    <glyph glyph-name="one.tosf" 
d="M555 154l92 659l-366 -178l-27 153q315 133 475 246h133l-123 -880h410l-23 -154h-1024l23 154h430z" />
    <glyph glyph-name="two.tosf" 
d="M946 702q0 94 -72 134t-157 41q-193 0 -395 -82l-23 157q239 92 445 92t306 -75q99 -76 99 -196t-42 -204q-42 -83 -141 -155t-213 -126t-304 -130l-3 -4l641 10l-22 -164h-901l24 180q434 170 596 284t162 238z" />
    <glyph glyph-name="three.tosf" 
d="M1090 70q0 -96 -27 -168q-109 -292 -518 -291q-266 0 -443 96l78 143q160 -86 377 -86q88 0 155 23q68 23 102 55t60 84q26 53 27 136q0 82 -76 136t-227 54h-174l22 154h166q176 0 260 93t84 197q0 195 -241 195q-176 0 -367 -86l-37 143q209 96 455 96q176 0 278 -78
t102 -218t-80 -246q-81 -106 -237 -152v-4q125 -28 193 -104t68 -172z" />
    <glyph glyph-name="four.tosf" 
d="M770 154l94 675h-4q-256 -387 -545 -675h455zM1077 1034l-123 -880h195l-23 -154h-194l-49 -348h-185l50 348h-646l23 154q457 430 723 880h229z" />
    <glyph glyph-name="five.tosf" 
d="M746 522q172 0 265 -91t93 -256t-83 -314q-83 -150 -264 -214q-101 -36 -229 -36q-227 0 -426 102l76 142q178 -91 362 -91t274 112q91 112 91 253q0 100 -56 168t-183 68q-162 0 -285 -136l-135 13l143 782h758l-23 -164h-598l-94 -467l4 -2q138 131 310 131z" />
    <glyph glyph-name="six.tosf" 
d="M639 133q149 0 235 118t87 275q-1 104 -55 175t-183 71q-154 0 -293 -164q-23 -106 -22 -194q0 -281 231 -281zM782 932q188 0 281 -96q94 -96 94 -286t-119 -371q-60 -89 -166 -144t-243 -55q-215 0 -314 126q-98 127 -98 334q0 70 14 174q113 799 693 799
q162 0 311 -51l-43 -143q-152 41 -272 41q-199 0 -327 -158t-159 -348l4 -2q156 180 344 180z" />
    <glyph glyph-name="seven.tosf" 
d="M954 860h-639l23 164h840l-19 -133q-235 -322 -411 -625t-277 -635h-205q82 277 280 621t408 604v4z" />
    <glyph glyph-name="eight.tosf" 
d="M652 119q160 0 238 82q77 82 77 178q0 117 -134 188q-50 27 -75 37t-84 35q-315 -106 -316 -313q0 -90 67 -148t227 -59zM1028 1087q0 97 -73 143t-187 46t-195 -71q-82 -71 -81 -173q0 -156 253 -229q283 94 283 284zM881 731q278 -126 278 -299t-123 -306
q-61 -67 -174 -107t-258 -39q-202 0 -320 80t-118 227q0 289 377 420v4q-238 109 -238 290q0 160 130 286t380 126q174 0 288 -80t114 -211t-75 -220t-261 -167v-4z" />
    <glyph glyph-name="nine.tosf" 
d="M735 891q-147 0 -234 -118t-87 -273q0 -106 55 -176t195 -70t282 164q20 109 21 192q0 281 -232 281zM592 92q-184 0 -280 97q-95 97 -95 288t119 369q60 88 166 143t243 55q215 0 314 -126q98 -127 98 -334q0 -84 -12 -174q-115 -799 -694 -799q-158 0 -312 51l43 143
q152 -41 266 -41q215 0 339 163t153 343l-4 2q-160 -180 -344 -180z" />
    <glyph glyph-name="zero.osf" horiz-adv-x="1208" 
d="M746 891q-267 0 -351 -324q-18 -74 -18 -141q0 -133 63 -213t172 -80q272 0 353 321q18 75 18 142q0 133 -64 214q-65 81 -173 81zM604 -20q-204 0 -314 114t-110 300q0 187 78 344q44 87 106 154q62 68 163 110t227 42q206 0 316 -114t110 -316q0 -203 -122 -404
q-62 -102 -180 -166t-274 -64z" />
    <glyph glyph-name="one.osf" horiz-adv-x="759" 
d="M190 635l-28 153q315 131 477 246h133l-145 -1034h-185l113 813z" />
    <glyph glyph-name="two.osf" horiz-adv-x="1208" 
d="M936 702q0 94 -72 134t-157 41q-193 0 -396 -82l-22 157q236 92 473 92q178 0 277 -76t99 -195q0 -120 -41 -204q-41 -83 -141 -155t-214 -126t-304 -130l-2 -4l641 10l-22 -164h-901l24 180q434 170 596 284t162 238z" />
    <glyph glyph-name="three.osf" horiz-adv-x="1167" 
d="M1059 70q0 -96 -27 -168q-109 -292 -518 -291q-266 0 -442 96l78 143q160 -86 376 -86q88 0 155 23t101 55t62 83q26 52 26 136t-75 138q-76 53 -228 53h-174l23 154h166q176 0 258 89t86 195q6 84 -50 142t-212 59q-156 0 -347 -86l-36 143q209 96 454 96q176 0 279 -78
q102 -78 102 -218t-80 -246t-237 -152v-4q125 -28 193 -104t67 -172z" />
    <glyph glyph-name="four.osf" 
d="M760 154l94 675h-4q-256 -387 -545 -675h455zM1067 1034l-123 -880h195l-23 -154h-194l-50 -348h-184l49 348h-645l23 154q457 430 723 880h229z" />
    <glyph glyph-name="five.osf" horiz-adv-x="1167" 
d="M708 522q172 0 266 -91q93 -91 93 -257t-77 -303q-88 -160 -270 -224q-101 -36 -228 -36q-227 0 -426 102l75 142q177 -91 361 -91t275 112t91 253q0 100 -56 168t-183 68q-162 0 -285 -136l-135 13l143 782h758l-23 -164h-598l-94 -467l4 -2q137 131 309 131z" />
    <glyph glyph-name="six.osf" horiz-adv-x="1167" 
d="M610 133q147 0 235 118q87 118 87 275q0 106 -55 176t-196 70t-282 -164q-23 -125 -22 -194q0 -281 233 -281zM751 932q187 0 282 -96t95 -286t-118 -371q-60 -89 -166 -144t-244 -55q-215 0 -313 126t-99 334q0 70 15 174q62 447 252 623t440 176q160 0 309 -51
l-43 -143q-152 41 -272 41q-199 0 -327 -158t-156 -348l4 -2q154 180 341 180z" />
    <glyph glyph-name="seven.osf" horiz-adv-x="1024" 
d="M852 860h-639l23 164h839l-18 -133q-236 -322 -412 -625t-276 -635h-205q82 277 280 621t408 604v4z" />
    <glyph glyph-name="eight.osf" horiz-adv-x="1208" 
d="M648 119q160 0 238 82q77 82 77 178q0 118 -135 188q-50 27 -74 37l-84 35q-315 -106 -316 -313q0 -90 67 -148t227 -59zM1024 1087q0 97 -73 143t-187 46t-195 -71q-82 -71 -82 -173q0 -156 254 -229q283 94 283 284zM877 731q278 -126 278 -299t-123 -306
q-61 -67 -174 -107t-258 -39q-202 0 -320 80t-118 227q0 289 377 420v4q-238 109 -238 290q0 160 130 286t380 126q174 0 288 -80q113 -80 113 -211t-74 -220t-261 -167v-4z" />
    <glyph glyph-name="nine.osf" horiz-adv-x="1167" 
d="M934 610q0 281 -232 281q-150 0 -236 -118t-87 -273q0 -106 55 -176t184 -70q154 0 293 164q23 102 23 192zM559 92q-186 0 -281 97q-96 97 -96 288t119 369q59 88 165 143t245 55q215 0 314 -126t99 -334q0 -70 -14 -174q-62 -445 -263 -631q-181 -168 -431 -168
q-160 0 -310 51l44 143q152 -41 272 -41q199 0 327 158q127 158 156 348l-4 2q-156 -180 -342 -180z" />
    <glyph glyph-name="zero.lf" horiz-adv-x="1208" 
d="M784 1260q-118 0 -202 -88t-122 -226q-65 -233 -67 -463q0 -350 234 -350q96 -1 170 63t114 155q41 91 76 241t35 332q0 336 -238 336zM604 -20q-408 0 -407 485q0 190 31 349t75 253q45 94 110 174q140 172 392 172q412 0 412 -475q0 -261 -66 -480q-41 -136 -105 -239
t-178 -171t-264 -68z" />
    <glyph glyph-name="one.lf" horiz-adv-x="759" 
d="M242 1004l-27 153q324 135 475 246h133l-196 -1403h-185l166 1182z" />
    <glyph glyph-name="two.lf" horiz-adv-x="1126" 
d="M938 1017q0 71 -26 120t-84 79t-140 29q-162 0 -356 -82l-35 148q250 102 450 102q201 0 297 -94t97 -248q0 -211 -167 -426t-577 -477v-4h639l-22 -164h-901l24 180q507 306 667 518q134 178 134 319z" />
    <glyph glyph-name="three.lf" horiz-adv-x="1167" 
d="M580 133q100 0 173 30t107 77q58 81 64 175q6 93 -70 149t-231 57h-174l22 153h166q174 0 256 89t87 185t-51 153q-56 59 -212 59t-346 -86l-37 143q213 96 457 96q184 0 287 -86t89 -244q-8 -125 -88 -223t-225 -141v-4q133 -29 200 -115t58 -205q-14 -180 -148 -298
q-134 -117 -398 -117t-439 98l78 141q164 -86 375 -86z" />
    <glyph glyph-name="four.lf" horiz-adv-x="1208" 
d="M809 512l90 641h-4q-184 -285 -541 -641h455zM1118 1393l-125 -881h195l-21 -154h-194l-51 -358h-185l51 358h-645l21 154q461 434 725 881h229z" />
    <glyph glyph-name="five.lf" horiz-adv-x="1167" 
d="M770 891q172 0 265 -91t93 -276t-121 -352q-63 -86 -181 -139t-273 -53q-221 0 -426 102l76 143q176 -92 360 -92t276 113q91 113 91 252q0 100 -56 168t-184 67q-162 0 -284 -135l-136 12l144 783h757l-22 -164h-598l-94 -467l4 -2q137 131 309 131z" />
    <glyph glyph-name="six.lf" horiz-adv-x="1167" 
d="M610 133q150 0 236 118t86 275q0 104 -54 175t-196 71t-281 -164q-23 -106 -22 -194q0 -281 231 -281zM753 932q187 0 281 -96t94 -286t-118 -371q-60 -89 -166 -144t-244 -55q-215 0 -313 126t-99 334q0 70 15 174q113 799 692 799q162 0 311 -51l-43 -143
q-152 41 -272 41q-199 0 -327 -158t-158 -348l4 -2q156 180 343 180z" />
    <glyph glyph-name="seven.lf" horiz-adv-x="1024" 
d="M903 1229h-639l25 164h839l-18 -133q-236 -316 -413 -622t-277 -638h-205q84 276 282 620t406 605v4z" />
    <glyph glyph-name="eight.lf" horiz-adv-x="1208" 
d="M648 119q160 0 238 82q77 82 77 178q0 118 -135 188q-50 27 -74 37l-84 35q-315 -106 -316 -313q0 -90 67 -148t227 -59zM1024 1087q0 97 -73 143t-187 46t-195 -71q-82 -71 -82 -173q0 -156 254 -229q283 94 283 284zM877 731q278 -126 278 -299t-123 -306
q-61 -67 -174 -107t-258 -39q-202 0 -320 80t-118 227q0 289 377 420v4q-238 109 -238 290q0 160 130 286t380 126q174 0 288 -80q113 -80 113 -211t-74 -220t-261 -167v-4z" />
    <glyph glyph-name="nine.lf" horiz-adv-x="1167" 
d="M760 1260q-150 0 -237 -118t-87 -274q0 -106 56 -176t184 -69q154 -1 293 163q23 102 22 193q0 281 -231 281zM616 461q-186 0 -281 97q-95 96 -95 288t118 368q60 88 166 144t244 55q215 0 314 -127t100 -334q0 -70 -15 -174q-62 -445 -263 -631q-182 -169 -431 -167
q-154 0 -309 53l43 141q152 -41 272 -41q199 0 327 158t157 348l-5 2q-156 -180 -342 -180z" />
    <glyph glyph-name="zero.tf" 
d="M793 1260q-119 0 -203 -88t-122 -226q-65 -233 -67 -463q0 -350 234 -350q96 -1 170 63t115 155q42 91 76 241t34 332q1 336 -237 336zM612 -20q-408 0 -407 485q0 190 31 349t75 253q45 94 110 174q140 172 392 172q412 0 412 -475q0 -261 -66 -480q-41 -136 -105 -239
t-178 -171t-264 -68z" />
    <glyph glyph-name="one.tf" 
d="M555 154l143 1028l-364 -178l-29 153q317 133 475 246h133l-174 -1249h410l-23 -154h-1024l23 154h430z" />
    <glyph glyph-name="two.tf" 
d="M739 1245q-162 0 -356 -82l-35 148q250 102 450 102t297 -94t97 -248q0 -211 -167 -426t-576 -477v-4h638l-22 -164h-901l24 180q507 306 667 518q77 102 106 175t29 144q-1 144 -95 190q-74 38 -156 38z" />
    <glyph glyph-name="three.tf" 
d="M608 133q100 0 173 30t107 77q60 83 64 175q4 93 -72 149t-231 57h-174l23 153h166q176 0 258 89t86 196q6 84 -50 142q-56 59 -212 59t-347 -86l-37 143q209 96 455 96q183 0 287 -86t92 -244q-8 -125 -89 -223t-226 -141v-4q133 -29 199 -114t59 -206
q-15 -180 -149 -298q-134 -117 -398 -117t-438 98l77 141q166 -86 377 -86z" />
    <glyph glyph-name="four.tf" 
d="M819 512l90 641h-4q-184 -285 -540 -641h454zM1128 1393l-124 -881h194l-20 -154h-195l-51 -358h-184l51 358h-645l20 154q461 434 725 881h229z" />
    <glyph glyph-name="five.tf" 
d="M798 891q172 0 266 -91q93 -91 93 -275t-122 -353q-62 -86 -180 -139t-273 -53q-221 0 -426 102l75 143q177 -92 361 -92t275 113t91 252q0 100 -56 168t-183 67q-162 0 -285 -135l-135 12l143 783h758l-22 -164h-598l-95 -467l4 -2q137 131 309 131z" />
    <glyph glyph-name="six.tf" 
d="M639 133q149 0 235 118t87 275q-1 104 -55 175t-183 71q-154 0 -293 -164q-23 -106 -22 -194q0 -281 231 -281zM782 932q188 0 281 -96q94 -96 94 -286t-119 -371q-60 -89 -166 -144t-243 -55q-215 0 -314 126q-98 127 -98 334q0 70 14 174q113 799 693 799
q162 0 311 -51l-43 -143q-152 41 -272 41q-199 0 -327 -158t-159 -348l4 -2q156 180 344 180z" />
    <glyph glyph-name="seven.tf" 
d="M1006 1229h-639l24 164h840l-19 -133q-236 -316 -412 -622t-278 -638h-205q84 276 282 620t407 605v4z" />
    <glyph glyph-name="eight.tf" 
d="M652 119q160 0 238 82q77 82 77 178q0 117 -134 188q-50 27 -75 37t-84 35q-315 -106 -316 -313q0 -90 67 -148t227 -59zM1028 1087q0 97 -73 143t-187 46t-195 -71q-82 -71 -81 -173q0 -156 253 -229q283 94 283 284zM881 731q278 -126 278 -299t-123 -306
q-61 -67 -174 -107t-258 -39q-202 0 -320 80t-118 227q0 289 377 420v4q-238 109 -238 290q0 160 130 286t380 126q174 0 288 -80t114 -211t-75 -220t-261 -167v-4z" />
    <glyph glyph-name="nine.tf" 
d="M1020 979q0 281 -232 281q-150 0 -236 -118t-87 -274q0 -106 55 -176t185 -69q153 -1 292 163q23 102 23 193zM645 461q-186 0 -281 97q-96 97 -96 288t119 368q59 88 165 144t245 55q215 0 314 -127t99 -334q0 -70 -14 -174q-62 -445 -263 -631q-182 -169 -431 -167
q-154 0 -309 53l43 141q152 -41 272 -41q199 0 327 158q127 158 156 348l-4 2q-156 -180 -342 -180z" />
    <glyph glyph-name="zero.dnom" horiz-adv-x="679" 
d="M428 616q-59 0 -100 -45q-40 -45 -66 -139t-26 -201q0 -172 114 -172q57 0 99 46q41 46 67 149t27 195q0 167 -115 167zM338 -20q-205 0 -205 253q0 148 56 290q30 77 95 125t154 48q207 0 207 -245q0 -149 -57 -292q-32 -79 -96 -129t-154 -50z" />
    <glyph glyph-name="one.dnom" horiz-adv-x="618" 
d="M297 80l72 512l-181 -86l-14 76q160 66 238 120h69l-88 -622h205l-10 -80h-506l10 80h205z" />
    <glyph glyph-name="two.dnom" horiz-adv-x="638" 
d="M608 535q0 -109 -86 -215t-280 -232v-2h317l-12 -86h-455l14 94q397 240 398 416q0 109 -123 108q-76 0 -180 -47l-17 74q120 61 224 61t152 -48t48 -123z" />
    <glyph glyph-name="three.dnom" horiz-adv-x="659" 
d="M415 696q105 0 156 -40t52 -111q0 -143 -158 -195q129 -31 129 -147q0 -88 -65 -156q-65 -67 -207 -67t-224 59l41 76q101 -55 191 -55t128 43q38 44 38 94q0 102 -148 102h-88l12 80h82q88 0 128 46t40 92q0 101 -110 99q-70 0 -193 -53l-18 74q109 59 214 59z" />
    <glyph glyph-name="four.dnom" horiz-adv-x="700" 
d="M453 258l43 313q-104 -152 -267 -313h224zM610 696l-61 -438h96l-12 -80h-96l-25 -178h-96l24 178h-323l12 80q233 223 360 438h121z" />
    <glyph glyph-name="five.dnom" horiz-adv-x="659" 
d="M423 438q177 0 177 -192q0 -100 -76 -184q-76 -82 -198 -82t-228 63l39 74q204 -110 308 -8q53 49 53 115q1 132 -119 130q-80 0 -141 -65l-68 6l70 391h381l-11 -84h-299l-43 -223l2 -2q68 61 153 61z" />
    <glyph glyph-name="six.dnom" horiz-adv-x="659" 
d="M498 252q0 121 -119 121q-71 0 -141 -80q-12 -66 -13 -96q0 -137 115 -138q62 -1 110 51t48 142zM414 455q92 0 139 -48t47 -137q0 -133 -76 -212q-76 -78 -186 -78t-161 63q-50 63 -50 168q0 29 8 86q55 399 346 399q80 1 156 -30l-23 -76q-66 27 -135 26
q-96 0 -160 -76q-63 -77 -79 -171h2q80 86 172 86z" />
    <glyph glyph-name="seven.dnom" horiz-adv-x="649" 
d="M537 612h-359l12 84h465l-10 -69q-125 -167 -211 -313t-137 -314h-102q43 139 141 311t201 299v2z" />
    <glyph glyph-name="eight.dnom" horiz-adv-x="679" 
d="M215 155q0 -101 137 -102q82 0 122 37t40 87t-36 76t-107 54q-156 -51 -156 -152zM418 625q-56 0 -96 -34t-39 -85q0 -76 125 -113q137 45 137 137q0 47 -36 71q-35 24 -91 24zM115 135q0 143 186 209q-117 57 -117 149q0 91 75 147t172 56t155 -40t57 -108
q0 -68 -41 -111q-41 -44 -125 -79q68 -36 103 -72t34 -89q0 -84 -70 -151q-70 -66 -190 -66q-240 0 -239 155z" />
    <glyph glyph-name="nine.dnom" horiz-adv-x="659" 
d="M526 479q0 137 -112 137q-62 0 -110 -51t-48 -139q0 -121 117 -121q73 0 143 78q10 55 10 96zM274 59q98 0 161 78q62 78 75 172q-74 -88 -167 -88t-142 49t-49 138q0 132 76 210t190 78q207 0 207 -231q0 -43 -7 -86q-55 -399 -348 -399q-79 -1 -153 32l22 74
q74 -27 135 -27z" />
    <glyph glyph-name="zero.numr" horiz-adv-x="679" 
d="M522 1292q-59 0 -100 -45q-40 -45 -66 -139t-26 -201q0 -172 114 -172q57 0 99 46q41 46 67 149t27 194q0 168 -115 168zM432 655q-205 0 -205 254q0 146 57 290q30 77 94 125q65 48 154 48q207 0 207 -246q0 -148 -57 -291q-32 -79 -96 -129t-154 -51z" />
    <glyph glyph-name="one.numr" horiz-adv-x="618" 
d="M393 756l72 512l-180 -86l-15 75q166 68 238 121h70l-89 -622h205l-12 -80h-506l12 80h205z" />
    <glyph glyph-name="two.numr" horiz-adv-x="638" 
d="M600 1186q0 109 -125 108q-74 0 -178 -47l-18 74q119 61 224 61q200 0 202 -190q1 -190 -369 -428v-2h317l-12 -86h-453l13 94q399 240 399 416z" />
    <glyph glyph-name="three.numr" horiz-adv-x="659" 
d="M509 1372q105 0 157 -40t51 -111q0 -143 -158 -195q129 -31 129 -147q0 -88 -64 -156t-205 -68q-140 0 -226 60l40 76q101 -55 191 -55t128 43q38 44 38 93q0 102 -148 103h-88l13 80h82q88 0 128 46q39 46 39 92q-1 101 -110 99q-70 0 -193 -53l-18 74q109 59 214 59z
" />
    <glyph glyph-name="four.numr" horiz-adv-x="700" 
d="M547 934l43 313q-104 -154 -266 -313h223zM705 1372l-62 -438h96l-12 -80h-96l-25 -178h-96l25 178h-322l10 80q229 215 361 438h121z" />
    <glyph glyph-name="five.numr" horiz-adv-x="659" 
d="M518 1114q178 0 178 -192q0 -100 -76 -184q-76 -83 -198 -83q-121 0 -227 64l38 74q203 -107 307 -9q52 48 52 114q0 132 -117 132q-80 0 -141 -65l-70 6l70 391h383l-12 -84h-297l-43 -223l2 -2q67 61 151 61z" />
    <glyph glyph-name="six.numr" horiz-adv-x="659" 
d="M322 872q0 -137 112 -137q63 0 111 51q47 51 47 142q0 121 -117 121q-71 0 -141 -80q-12 -49 -12 -97zM507 1130q93 0 141 -48t48 -136q0 -131 -76 -211t-190 -80q-207 0 -207 232q0 43 6 86q55 399 349 399q75 0 155 -31l-22 -75q-70 27 -138 26q-98 0 -160 -77
t-75 -171q76 86 169 86z" />
    <glyph glyph-name="seven.numr" horiz-adv-x="649" 
d="M633 1288h-359l11 84h465l-11 -69q-82 -113 -135 -191q-54 -78 -116 -199t-97 -237h-102q43 137 141 309t201 301z" />
    <glyph glyph-name="eight.numr" horiz-adv-x="679" 
d="M309 830q0 -101 137 -101q82 0 122 37t40 87t-36 76t-107 54q-156 -52 -156 -153zM639 1206q0 46 -36 70q-35 24 -91 24t-96 -34t-39 -84q0 -76 125 -113q137 45 137 137zM709 872q0 -84 -70 -150q-71 -66 -191 -67q-240 0 -239 156q0 143 186 209q-117 57 -117 149
t75 148q75 55 173 55t154 -40q57 -40 57 -108t-41 -111q-41 -44 -125 -79q68 -36 103 -72t35 -90z" />
    <glyph glyph-name="nine.numr" horiz-adv-x="659" 
d="M510 1292q-62 0 -110 -51t-48 -139q0 -121 117 -121q73 0 143 78q10 55 11 96q0 137 -113 137zM371 735q98 0 160 78t75 172q-74 -88 -167 -88t-142 49t-49 137q0 131 77 210t189 79q207 0 207 -231q0 -43 -6 -86q-55 -399 -348 -400q-80 0 -154 33l23 74q74 -27 135 -27
z" />
    <glyph glyph-name="florin.tf" 
d="M1020 1434q70 0 164 -15l-39 -143q-72 10 -105 10q-88 0 -127 -48t-53 -153l-10 -61h338l-19 -133h-338l-135 -973q-24 -180 -104 -264t-244 -84q-66 0 -160 14l37 144q72 -10 105 -11q88 1 128 49t54 152l135 973h-287l19 121l287 12l14 92q25 172 103 245q79 73 237 73
z" />
    <glyph glyph-name="cent.tosf" 
d="M623 -61h102l-29 -205h-102zM852 891q-120 0 -198 -46q-129 -75 -183 -263q-20 -74 -20 -146q1 -139 73 -221t203 -82t322 68v-144q-188 -77 -377 -77q-190 0 -304 116t-114 319q0 202 127 403q63 98 183 162t283 64t329 -75l-41 -144q-163 66 -283 66zM813 1290h102
l-28 -205h-103z" />
    <glyph glyph-name="dollar.tosf" 
d="M555 -61h102l-28 -205h-103zM768 897q-152 0 -201 -52t-49 -106q0 -96 199 -137q166 -38 261 -104t95 -199t-98 -226t-346 -93t-416 47l53 147q174 -45 379 -45q131 0 185 55t55 109q0 104 -211 145q-166 31 -254 91t-88 197q0 138 100 228t326 90t399 -45l-53 -149
q-184 47 -336 47zM745 1290h103l-29 -205h-102z" />
    <glyph glyph-name="Euro.tosf" 
d="M893 891q-133 0 -221 -72t-133 -184h266l-10 -62h-277q-16 -66 -16 -122h276l-8 -62h-264q12 -113 83 -185t197 -71q126 0 316 68v-144q-188 -77 -375 -77t-301 114t-121 295h-108l8 62h100q2 61 19 122h-103l10 62h111q58 176 202 293t349 116q170 1 336 -75l-41 -144
q-162 66 -295 66z" />
    <glyph glyph-name="sterling.tosf" 
d="M780 891q-133 0 -196 -53t-74 -131l-18 -134h286l-16 -112h-287l-43 -297h655l-22 -164h-942l22 164h103l43 297h-103l17 112h102l19 140q25 172 158 252q134 80 329 79q248 0 424 -116l-76 -137q-186 100 -381 100z" />
    <glyph glyph-name="yen.tosf" 
d="M1012 420l-13 -92h-245l-47 -328h-185l47 328h-245l12 92h217l-277 604h224l194 -477h4l330 477h211l-444 -604h217z" />
    <glyph glyph-name="cent.osf" horiz-adv-x="1075" 
d="M545 -61h102l-29 -205h-102zM759 891q-137 0 -227 -80q-158 -139 -157 -375q1 -139 73 -221t202 -82t321 68v-144q-186 -77 -376 -77q-189 0 -303 116t-114 300q0 183 80 343q152 303 528 305q148 0 314 -75l-43 -144q-162 66 -298 66zM735 1290h103l-29 -205h-102z" />
    <glyph glyph-name="dollar.osf" horiz-adv-x="1044" 
d="M463 -61h102l-28 -205h-103zM676 897q-152 0 -201 -52t-49 -106q0 -96 199 -137q166 -38 261 -104t95 -199t-98 -226t-346 -93t-416 47l53 147q174 -45 379 -45q131 0 185 55t55 109q0 104 -211 145q-166 31 -254 91t-88 197q0 138 101 228t325 90t399 -45l-53 -149
q-184 47 -336 47zM653 1290h103l-29 -205h-102z" />
    <glyph glyph-name="cent.tf" 
d="M686 137l105 750q-119 -10 -201 -93q-141 -143 -139 -362q0 -125 60 -205t175 -90zM637 -205l27 185q-195 8 -303 124q-107 116 -107 311q0 196 123 396q61 98 175 164t261 69l25 185h82l-25 -187q135 -8 281 -73l-43 -144q-158 59 -261 64l-106 -754q109 2 283 66v-144
q-160 -68 -304 -75l-26 -187h-82z" />
    <glyph glyph-name="colonsign.tf" 
d="M668 -20q-64 0 -131 10l-27 -195h-82l29 213q-330 102 -289 578q47 676 483 800l31 211h82l-29 -194q72 10 135 10t93 -2l26 186h82l-29 -192q158 -16 299 -64l-67 -163q-238 61 -408 61q-453 0 -493 -651q-15 -211 63 -323t277 -111q156 0 426 61l20 -164
q-174 -47 -315 -63l-27 -193h-82l27 187q-30 -2 -94 -2z" />
    <glyph glyph-name="currency.tf" 
d="M522 887h64l-23 -92h-49zM874 1239q-131 0 -229 -53q-98 -54 -153 -146q-109 -184 -117 -430h420l-31 -112h-389q25 -344 346 -344q203 0 416 149l45 -149q-250 -174 -509 -174t-384 142t-125 413t94 487q51 117 130 203t202 137t276 51q277 0 467 -174l-86 -147
q-168 147 -373 147z" />
    <glyph glyph-name="dollar.tf" 
d="M792 1239q-168 -1 -238 -65t-71 -159q0 -141 243 -205q74 -19 81 -22q172 -45 270 -131q99 -85 99 -251t-127 -290t-390 -136l-26 -185h-82l27 185q-238 6 -457 71l57 164q244 -61 432 -61t272 63q85 63 85 164q0 73 -32 108q-32 34 -49 48q-37 31 -176 70
q-222 63 -327 157q-107 94 -107 254t121 274t381 121l27 184h82l-27 -184q199 -6 414 -72l-66 -163q-248 61 -416 61z" />
    <glyph glyph-name="Euro.tf" 
d="M522 887h64l-23 -92h-49zM874 1239q-131 0 -229 -53q-98 -54 -153 -146q-109 -184 -117 -430h420l-31 -112h-389q25 -344 346 -344q203 0 416 149l45 -149q-250 -174 -509 -174t-384 142t-125 413t94 487q51 117 130 203t202 137t276 51q277 0 467 -174l-86 -147
q-168 147 -373 147z" />
    <glyph glyph-name="uni20A8.tf" 
d="M602 717q225 0 285 194h-686l12 93h690v12q0 96 -58 149t-161 54h-440l10 81l14 93h1086l-15 -93h-335q100 -92 100 -256l-2 -40h196l-12 -93h-201q-31 -123 -117 -217t-233 -121l275 -573h-228l-254 543h-378l22 174h430z" />
    <glyph glyph-name="sterling.tf" 
d="M860 1413q287 0 463 -123l-98 -151q-177 100 -355 100q-326 0 -352 -217l-35 -244h471l-20 -143h-471l-66 -471h717l-22 -164h-1004l23 164h102l66 471h-103l21 143h102l37 266q29 190 169 280t355 89z" />
    <glyph glyph-name="yen.tf" 
d="M1116 440h-342l-61 -440h-195l62 440h-344l16 113h313l-297 840h224l223 -701h4l424 701h211l-535 -840h314z" />
    <glyph glyph-name="percent.osf" horiz-adv-x="1556" 
d="M1200 86q100 0 146 73q45 73 45 165q0 141 -138 141q-71 0 -117 -43q-72 -69 -73 -197q0 -139 137 -139zM1266 561q243 0 243 -239q0 -119 -77 -226q-78 -106 -246 -106q-242 0 -242 243q0 125 81 227t241 101zM475 723q70 0 116 43t60 92t15 103q0 141 -138 141
q-102 0 -147 -74t-45 -164q0 -141 139 -141zM463 0h-123l926 1188h123zM461 627q-119 0 -181 59q-62 58 -62 174t67 218q79 120 273 120q104 0 165 -59t61 -180t-77 -227q-78 -105 -246 -105z" />
    <glyph glyph-name="perthousand.osf" horiz-adv-x="2211" 
d="M1855 86q100 0 146 73q45 73 45 165q0 141 -137 141q-72 0 -118 -43t-59 -93t-14 -104q0 -139 137 -139zM1200 86q100 0 146 73q45 73 45 165q0 141 -138 141q-71 0 -117 -43q-72 -69 -73 -197q0 -139 137 -139zM1841 -10q-241 0 -241 243q0 125 80 227q81 102 241 101
q241 0 243 -239q0 -120 -77 -226q-78 -106 -246 -106zM1266 561q243 0 243 -239q0 -119 -77 -226q-78 -106 -246 -106q-242 0 -242 243q0 125 81 227t241 101zM475 723q70 0 116 43t60 92t15 103q0 141 -138 141q-102 0 -147 -74t-45 -164q0 -141 139 -141zM340 0l926 1188
h123l-926 -1188h-123zM461 627q-119 0 -181 59q-62 58 -62 174t67 218q79 120 273 120q104 0 165 -59t61 -180t-77 -227q-78 -105 -246 -105z" />
    <glyph glyph-name="AT" horiz-adv-x="1699" 
d="M942 676q-117 0 -167 -49t-50 -121q0 -109 145 -109q115 0 207 68l31 211h-166zM1016 1108q138 0 202 -45t64 -152q0 -57 -65 -501q121 0 209 56q143 91 197 304q19 76 19 139q0 219 -157 352q-158 132 -400 132q-168 -1 -309 -57t-232 -143t-156 -198
q-120 -205 -120 -435t155 -384t408 -153l-26 -105q-297 0 -477 179t-180 446t143 505q76 126 183 225q108 99 270 163t354 63q289 0 476 -160t187 -415q0 -161 -78 -315q-93 -188 -275 -266q-103 -44 -230 -44h-123l12 80h-4q-115 -94 -262 -94q-225 1 -225 211
q0 106 88 187q90 81 284 81h172q6 35 12 102q6 66 -31 98q-36 32 -134 32t-258 -46l-13 101q182 57 320 57z" />
    <glyph glyph-name="Exclamdown" horiz-adv-x="409" 
d="M422 952l-125 -952h-184l145 952h164zM272 1126l37 267h185l-37 -267h-185z" />
    <glyph glyph-name="Questiondown" horiz-adv-x="983" 
d="M139 267q0 120 45 207t110 137q66 50 132 91q161 99 174 199l8 62h164l-8 -62q-12 -85 -62 -151t-109 -107q-61 -41 -121 -82q-140 -95 -140 -244q0 -164 225 -163q125 0 315 63l31 -158q-209 -79 -405 -79t-278 83q-81 84 -81 204zM659 1393h185l-37 -267h-184z" />
    </font>
</defs>
</svg>
