<?xml version="1.0" encoding="UTF-8"?>
<svg width="34px" height="30px" viewBox="0 0 34 30" version="1.1" xmlns="http://www.w3.org/2000/svg" xmlns:xlink="http://www.w3.org/1999/xlink">
    <!-- Generator: Sketch 54.1 (76490) - https://sketchapp.com -->
    <title>My trip</title>
    <desc>Created with Sketch.</desc>
    <g id="Anddroid" stroke="none" stroke-width="1" fill="none" fill-rule="evenodd">
        <g id="Kit" transform="translate(-44.000000, -5470.000000)" fill-rule="nonzero">
            <g id="My-trip" transform="translate(44.000000, 5470.000000)">
                <g id="Group" transform="translate(8.580786, 10.742358)" fill="#05AB32">
                    <path d="M24.9484061,18.6474891 L22.3136463,4.13148472 C22.2873799,3.98659389 22.1975109,3.8610917 22.0687336,3.78949782 L15.4371616,0.101069869 C15.3510917,0.0531222707 15.254607,0.0340611354 15.1598253,0.0413973799 L16.36631,15.6052402 L16.3258952,15.6233188 L24.2624017,19.183821 C24.3269869,19.2127074 24.3956332,19.2269869 24.463952,19.2269869 C24.5720961,19.2269869 24.6792576,19.1914192 24.7673581,19.1224454 C24.9113319,19.0100437 24.9809607,18.8271616 24.9484061,18.6474891 Z" id="Path"></path>
                    <path d="M8.18777293,3.62718341 L1.40534934,0.0945851528 C1.32406114,0.0522052402 1.23393013,0.0349126638 1.14517467,0.0408733624 C1.16868996,0.0394323144 1.19233624,0.0395633188 1.21578603,0.0413973799 L0.00930131004,15.6052402 L7.98622271,19.1838865 C8.05061135,19.2127074 8.11932314,19.2270524 8.18777293,19.2270524 L8.18777293,19.2270524 L8.18777293,3.62718341 L8.18777293,3.62718341 Z" id="Path"></path>
                </g>
                <g id="Group" transform="translate(0.000000, 10.742358)" fill="#00D339">
                    <path d="M9.79650655,0.0414628821 C9.70172489,0.0341266376 9.60524017,0.0531877729 9.51917031,0.101069869 L2.88753275,3.78949782 C2.75875546,3.8610917 2.66888646,3.98652838 2.64262009,4.13148472 L0.00792576419,18.6474891 C-0.0246943231,18.8270961 0.045,19.0099782 0.188908297,19.1225109 C0.277139738,19.1914847 0.384235808,19.2270524 0.49231441,19.2270524 C0.560633188,19.2270524 0.629344978,19.2128384 0.693864629,19.1838865 L8.58713974,15.6427729 L9.79650655,0.0414628821 Z" id="Path"></path>
                    <path d="M23.7405459,0.0411353712 C23.6753057,0.0461790393 23.610786,0.0635371179 23.5509825,0.0947161572 L16.768559,3.62724891 L16.768559,19.2271179 C16.768559,19.2271179 16.768559,19.2271179 16.768559,19.2271179 C16.8370742,19.2271179 16.9058515,19.2128384 16.9701747,19.183952 L24.9470961,15.6053057 L23.7405459,0.0411353712 Z" id="Path"></path>
                </g>
                <polygon id="Path" fill="#FFDB56" points="1.84414847 19.2729039 1.30893013 22.2217467 9.23430131 18.0357642 9.41829694 15.6620306 9.44882096 15.2683624"></polygon>
                <path d="M9.30563319,17.1153275 L9.23430131,18.0357642 L1.30893013,22.2217467 L0.00792576419,29.3898472 C-0.0246943231,29.5694541 0.045,29.7523362 0.188908297,29.864869 C0.277139738,29.9338428 0.384235808,29.9694105 0.49231441,29.9694105 C0.560633188,29.9694105 0.629344978,29.9551965 0.693864629,29.9262445 L8.58713974,26.385131 L9.30563319,17.1153275 L9.30563319,17.1153275 Z" id="Path" fill="#009CDE"></path>
                <g id="Group" transform="translate(9.170306, 12.445415)" fill="#F9AA38">
                    <polygon id="Path" points="7.60021834 3.869869 0.278515284 2.8229476 0.0639956332 5.59034934 7.59825328 17.0322052 7.59825328 12.8716376 3.10237991 5.79229258 7.60021834 6.33026201"></polygon>
                    <polygon id="Path" points="20.9571616 1.79613537 17.7714629 0.0242358079 14.7556114 0.728908297 14.7933406 1.21598253 14.9422926 3.13742358"></polygon>
                </g>
                <polygon id="Path" fill="#FFDB56" points="24.3800437 19.0333624 24.0944541 15.3489301 24.0944541 15.3489301 23.925917 13.1743231 16.770524 16.3152838 16.770524 18.7756769 21.4444978 16.7431441"></polygon>
                <path d="M33.5291921,29.3898472 L32.8674236,25.7436026 L24.1125983,15.5828384 L24.3801092,19.0333624 L33.3584934,29.8556987 C33.495,29.7425764 33.5609607,29.5649345 33.5291921,29.3898472 Z" id="Path" fill="#F9AA38"></path>
                <path d="M16.8000655,0.0304585153 C13.0033624,0.0304585153 9.91447598,3.11679039 9.91447598,6.91041485 C9.91447598,9.25709607 11.0286026,11.7765721 13.2260044,14.3987555 C14.8399127,16.3247162 16.4318777,17.5634279 16.4988865,17.6152402 C16.5875764,17.683821 16.693821,17.7180786 16.800131,17.7180786 C16.9063755,17.7180786 17.0126856,17.683821 17.1013755,17.6152402 C17.1683188,17.5634279 18.7603493,16.3247162 20.3742576,14.3987555 C22.5716594,11.7765721 23.685786,9.25716157 23.685786,6.91041485 C23.685655,3.11679039 20.5967686,0.0304585153 16.8000655,0.0304585153 Z M19.3500655,6.91034934 C19.3500655,8.31746725 18.2083624,9.45825328 16.8000655,9.45825328 C15.3917686,9.45825328 14.2500655,8.31753275 14.2500655,6.91034934 C14.2500655,5.50316594 15.3917686,4.36244541 16.8000655,4.36244541 C18.2083624,4.36244541 19.3500655,5.50323144 19.3500655,6.91034934 Z" id="Shape" fill="#FF5357"></path>
                <path d="M16.8000655,0.0304585153 C16.4991485,0.0304585153 16.2027511,0.0499781659 15.9119214,0.0875764192 C19.2907205,0.524279476 21.9094323,3.41744541 21.9094323,6.91041485 C21.9094323,9.25709607 20.7953057,11.7765721 18.5979039,14.3987555 C17.5600218,15.6372707 16.5319651,16.590917 15.9119869,17.1281659 C16.2561354,17.4263319 16.4750437,17.5967686 16.4988865,17.6152402 C16.5875764,17.683821 16.693821,17.7180786 16.800131,17.7180786 C16.9063755,17.7180786 17.0126856,17.683821 17.1013755,17.6152402 C17.1683188,17.5634279 18.7603493,16.3247162 20.3742576,14.3987555 C22.5716594,11.7765721 23.685786,9.25716157 23.685786,6.91041485 C23.685655,3.11679039 20.5967686,0.0304585153 16.8000655,0.0304585153 Z" id="Path" fill="#E7343F"></path>
                <path d="M16.9701747,29.9262445 L19.936441,28.5955022 L16.768559,25.3170524 L16.768559,29.9694105 C16.768559,29.9694105 16.768559,29.9694105 16.7686245,29.9694105 C16.8370742,29.9694105 16.905786,29.9551965 16.9701747,29.9262445 Z" id="Path" fill="#FFDB56"></path>
                <g id="Group" transform="translate(8.580786, 14.213974)">
                    <path d="M22.3135808,0.659868996 C22.2873144,0.514978166 22.1974454,0.389475983 22.0686681,0.317882096 L21.5466157,0.027510917 L15.5317467,1.36879913 L15.5317467,1.36879913 L24.2865066,11.5295633 L22.3135808,0.659868996 Z" id="Path" fill="#009CDE"></path>
                    <path d="M8.18775655,15.7554367 C8.18775655,15.7554367 8.18775655,15.7554367 8.18775655,15.7554367 L8.18770742,15.2636463 L0.653515284,3.82179039 L0.00917030568,12.13369 L7.9860917,15.7123362 C8.05048035,15.7412227 8.11919214,15.7554367 8.18775655,15.7554367 Z" id="Path" fill="#0681B6"></path>
                </g>
            </g>
        </g>
    </g>
</svg>