<?xml version="1.0" encoding="UTF-8"?>
<svg width="192px" height="192px" viewBox="0 0 192 192" version="1.1" xmlns="http://www.w3.org/2000/svg" xmlns:xlink="http://www.w3.org/1999/xlink">
    <!-- Generator: Sketch 54.1 (76490) - https://sketchapp.com -->
    <title>trip logbook</title>
    <desc>Created with Sketch.</desc>
    <defs>
        <path d="M56,107 C83.6142375,107 106,84.6142375 106,57 C106,29.3857625 83.6142375,7 56,7 C28.3857625,7 6,29.3857625 6,57 C6,84.6142375 28.3857625,107 56,107 Z" id="path-1"></path>
        <filter x="-72.5%" y="-71.5%" width="245.0%" height="245.0%" filterUnits="objectBoundingBox" id="filter-2">
            <feOffset dx="0" dy="1" in="SourceAlpha" result="shadowOffsetOuter1"></feOffset>
            <feGaussianBlur stdDeviation="24" in="shadowOffsetOuter1" result="shadowBlurOuter1"></feGaussianBlur>
            <feColorMatrix values="0 0 0 0 0.905315897   0 0 0 0 0.905315897   0 0 0 0 0.905315897  0 0 0 1 0" type="matrix" in="shadowBlurOuter1"></feColorMatrix>
        </filter>
        <path d="M56,112 C86.927946,112 112,86.927946 112,56 C112,25.072054 86.927946,-1.91180405e-13 56,-0 C25.072054,-1.91180405e-13 0,25.072054 0,56 C0,86.927946 25.072054,112 56,112 Z" id="path-3"></path>
        <filter x="-64.8%" y="-63.9%" width="229.6%" height="229.6%" filterUnits="objectBoundingBox" id="filter-4">
            <feMorphology radius="0.1" operator="dilate" in="SourceAlpha" result="shadowSpreadOuter1"></feMorphology>
            <feOffset dx="0" dy="1" in="shadowSpreadOuter1" result="shadowOffsetOuter1"></feOffset>
            <feMorphology radius="1" operator="erode" in="SourceAlpha" result="shadowInner"></feMorphology>
            <feOffset dx="0" dy="1" in="shadowInner" result="shadowInner"></feOffset>
            <feComposite in="shadowOffsetOuter1" in2="shadowInner" operator="out" result="shadowOffsetOuter1"></feComposite>
            <feGaussianBlur stdDeviation="24" in="shadowOffsetOuter1" result="shadowBlurOuter1"></feGaussianBlur>
            <feColorMatrix values="0 0 0 0 0.905315897   0 0 0 0 0.905315897   0 0 0 0 0.905315897  0 0 0 1 0" type="matrix" in="shadowBlurOuter1"></feColorMatrix>
        </filter>
    </defs>
    <g id="Update-changes" stroke="none" stroke-width="1" fill="none" fill-rule="evenodd">
        <g id="Logon-&amp;-register-008" transform="translate(-17.000000, -1407.000000)">
            <g id="trip-logbook" transform="translate(57.000000, 1445.000000)">
                <g id="Oval">
                    <use fill="black" fill-opacity="1" filter="url(#filter-2)" xlink:href="#path-1"></use>
                    <use fill="#F9FAFC" fill-rule="evenodd" xlink:href="#path-1"></use>
                </g>
                <g id="Oval-Copy-7" opacity="0.253696987" transform="translate(56.000000, 56.000000) rotate(-360.000000) translate(-56.000000, -56.000000) ">
                    <use fill="black" fill-opacity="1" filter="url(#filter-4)" xlink:href="#path-3"></use>
                    <use stroke="#878C8E" stroke-width="0.2" xlink:href="#path-3"></use>
                </g>
                <g id="Group-26" transform="translate(21.671642, 28.641791)">
                    <circle id="Oval" fill="#F2F2F2" cx="60.4477612" cy="15.6716418" r="2.23880597"></circle>
                    <circle id="Oval-Copy-10" stroke="#DFDFDF" stroke-width="0.5" cx="49.2537313" cy="1.49253731" r="1.49253731"></circle>
                    <circle id="Oval-Copy-11" fill="#E0E0E0" cx="11.1940299" cy="59.9701493" r="1.49253731"></circle>
                    <circle id="Oval-Copy-12" stroke="#F2F2F2" stroke-width="0.5" cx="0.746268657" cy="44.0298507" r="1"></circle>
                </g>
                <path d="M55.225423,78.4111579 C55.4374113,78.5762261 55.6984678,78.66577 55.9670994,78.6656569 C56.2584561,78.66577 56.5397505,78.5593801 56.7581832,78.3666121 C75.3181832,65.5338012 75.315809,49.5774698 75.2264912,47.4513684 C75.2313528,47.4089708 75.2337271,47.3662339 75.2337271,47.3234971 C75.2570175,36.6747875 66.6435088,28.0234035 55.9947992,28 C45.3460897,27.9767096 36.6947057,36.5903314 36.6714152,47.2390409 C36.6207641,47.9553918 35.660768,64.9210136 55.225423,78.4111579 Z M39.0543899,47.323384 C39.0643392,37.9956725 46.6235595,30.4364522 55.951384,30.4265029 C65.2086589,30.4364522 72.7382573,37.8860039 72.8471345,47.1426004 C72.8334542,47.229883 72.829384,47.3185224 72.835037,47.4067096 C72.8471345,47.564655 73.7057154,63.4003509 55.9586199,76.0113372 C38.2102807,63.3991072 39.0424055,47.564655 39.0543899,47.323384 Z" id="Shape" stroke="#FFFFFF" stroke-width="0.4" fill="#878C8E" fill-rule="nonzero"></path>
                <path d="M70.4098908,47.323384 C70.4098908,47.323384 70.4098908,47.323384 70.4098908,47.323384 C70.4098908,39.338152 63.936616,32.8648772 55.951384,32.8648772 C47.966152,32.8648772 41.4928772,39.338152 41.4928772,47.323384 C41.4928772,55.308616 47.966152,61.7818908 55.951384,61.7818908 C63.9335634,61.7745419 70.4025419,55.3055634 70.4098908,47.323384 Z M43.8783392,47.323384 C43.8783392,40.6556452 49.2836452,35.2503392 55.951384,35.2503392 C62.6160702,35.2576881 68.0170799,40.6586979 68.0244288,47.323384 C68.0244288,53.9911228 62.6191228,59.3964288 55.951384,59.3964288 C49.2836452,59.3964288 43.8783392,53.9912359 43.8783392,47.323384 Z" id="Shape" stroke="#FFFFFF" stroke-width="0.4" fill="#878C8E" fill-rule="nonzero"></path>
                <path d="M63.2004795,47.323384 C63.2004795,51.3269669 59.9549669,54.5724795 55.951384,54.5724795 L55.951384,56.9579415 C61.272347,56.9579415 65.5859415,52.644347 65.5859415,47.323384 C65.5859415,42.002308 61.272347,37.6888265 55.951384,37.6888265 C50.6304211,37.6888265 46.3168265,42.002308 46.3168265,47.323384 L48.7022885,47.323384 C48.7022885,43.3198012 51.9478012,40.0742885 55.951384,40.0742885 C59.9549669,40.0742885 63.2004795,43.3198012 63.2004795,47.323384 Z" id="Path" stroke="#FFFFFF" stroke-width="0.4" fill="#878C8E" fill-rule="nonzero"></path>
                <path d="M84.666924,77.9950955 L76.2250409,65.9352788 C75.886425,65.4499103 75.2429981,65.2866511 74.7139883,65.5517778 L69.890039,67.9636959 L70.9560858,70.0982768 L74.8598363,68.1469669 L81.95223,78.2771813 L73.4419454,83.0054815 L69.1225848,72.2067407 L66.9066004,73.0931345 L70.8981988,83.0725263 L56.2009084,79.9222105 C56.0362924,79.8873879 55.8662495,79.8873879 55.7016335,79.9222105 L41.0090916,83.0715088 L44.9974113,73.0898558 L42.7810877,72.2043665 L38.4644405,83.0077427 L29.9503119,78.2772943 L37.0427057,68.1470799 L40.9464561,70.1020078 L42.0125029,67.9674269 L37.1885536,65.5555088 C36.6594308,65.2909474 36.0163431,65.4540936 35.677501,65.9390097 L27.2358441,77.9987135 C27.2119883,78.0327446 27.1900546,78.0680195 27.1699298,78.1043119 C26.8506472,78.6804678 27.0589045,79.4064288 27.6350604,79.7257115 L38.4888616,85.7555634 C38.7417778,85.893384 39.0356218,85.9362339 39.3173684,85.8761988 L55.951384,82.3112904 L72.5853996,85.8761988 C72.6675945,85.8930448 72.7511462,85.9015244 72.835037,85.9015244 C73.0375283,85.9017505 73.2368538,85.850308 73.4139064,85.7519454 L84.2677076,79.7220936 C84.304,79.7019688 84.3392749,79.679922 84.373306,79.6561793 C84.9130565,79.2784444 85.0445458,78.534846 84.666924,77.9950955 Z" id="Path" stroke="#FFFFFF" stroke-width="0.4" fill="#878C8E" fill-rule="nonzero"></path>
                <path d="M60.7619922,47.323384 L58.3765302,47.323384 C58.3765302,48.6628109 57.2906979,49.7486433 55.951271,49.7486433 C54.6118441,49.7486433 53.5260117,48.6628109 53.5260117,47.323384 C53.5260117,45.9839571 54.6118441,44.8981248 55.951271,44.8981248 L55.951271,42.5126628 C53.2944639,42.5126628 51.1406628,44.6664639 51.1406628,47.323271 C51.1406628,49.980078 53.2944639,52.1338791 55.951271,52.1338791 C58.6070604,52.1313918 60.7593918,49.9791735 60.7619922,47.323384 Z" id="Path" stroke="#FFFFFF" stroke-width="0.4" fill="#878C8E" fill-rule="nonzero"></path>
                <rect id="Rectangle" stroke="#FFFFFF" stroke-width="0.4" fill="#878C8E" fill-rule="nonzero" x="54.7453684" y="64.2191345" width="2.41191813" height="2.38659259"></rect>
                <rect id="Rectangle" stroke="#FFFFFF" stroke-width="0.4" fill="#878C8E" fill-rule="nonzero" x="54.7453684" y="69.0430838" width="2.41191813" height="2.38659259"></rect>
            </g>
        </g>
    </g>
</svg>