<svg id="Layer_1" data-name="Layer 1" xmlns="http://www.w3.org/2000/svg" viewBox="0 0 408.93 171.67"><defs><style>.cls-1{fill:#149ce0;}.cls-1,.cls-2,.cls-3,.cls-4,.cls-5{fill-rule:evenodd;}.cls-2{fill:#62656a;}.cls-3{fill:#119d49;}.cls-4{fill:#888c8f;}.cls-5{fill:#aaabad;}</style></defs><title>RSM Logo</title><path class="cls-1" d="M306.68,297.49c5.22,1.32,252.43.41,257.79.43V254.85H306.65Z" transform="translate(-155.53 -254.81)"/><path class="cls-2" d="M347.32,374.4c-2,1.06-4.91.64-7.73.64-2.55,0-5.11,0-7.69,0l.07,16.32c2.41,0,6.36-.72,7.65,1.09L359,425.1l21.92-.25c-4.46-9-18.64-29.53-21.19-35.91,4.66-3.11,7.82-3.16,11.34-7.29,9.73-11.42,8.64-30.8-.53-40.87-6.24-6.85-15.29-9.06-27.46-9.08-9.06,0-28.43-1-36.39.25l0,93.09,19.35.07V349c4.39-.68,12.34-.33,17.07-.28C366,349,359.82,374,347.32,374.4Z" transform="translate(-155.53 -254.81)"/><path class="cls-2" d="M388.5,422.42c16.44,3.22,37.48,7.49,53.3-.5a25.12,25.12,0,0,0,13.66-17.5c8-36.67-40.47-32.08-47.69-43.51-4.52-7.14,2.16-13.76,15.54-13.57,9.68.14,17.35,2,26.25,4.09l.05-17.17c-21-5.11-62.46-10.54-63.21,21.5-.5,21.25,14.82,26.15,31.09,30.67,7.59,2.12,18.06,4.19,18.37,12.18.72,18.27-39.52,7.93-47.38,6.56Z" transform="translate(-155.53 -254.81)"/><polygon class="cls-3" points="51.03 43.08 133.06 43.08 133.04 0 51.05 0.04 51.03 43.08"/><path class="cls-2" d="M506.18,425c22.27.56,17.29,3,23.48-14.14l10.53-29.56c1.73-4.77,3.18-10.53,5.47-14.65.64,16.68.12,40.8.12,58.45l18.66,0V331.69H539.58Z" transform="translate(-155.53 -254.81)"/><path class="cls-2" d="M484.52,366.35c3,7.95,6.31,16.5,9.4,24.62l9.58,24.77c2.86-5.63,5.26-14.7,7.73-21.22,2.35-6.21,1.49-5.58-.64-11.23-6.26-16.64-12.78-36-19.36-51.61l-25.44.23.27,93.21,18.36-.24Z" transform="translate(-155.53 -254.81)"/><polygon class="cls-4" points="0.02 6.26 0.01 38.05 0 43.11 32.91 43.11 32.92 0.03 27.69 0.05 4.17 0.05 0.01 0.04 0.02 6.26"/><path class="cls-5" d="M339.62,392.46c-1.29-1.81-5.24-1-7.65-1.09l-.07-16.32c2.58,0,5.14,0,7.69,0,2.82,0,5.69.42,7.73-.64H331.5c-.62,3.94-.93,14.24.22,17.55Z" transform="translate(-155.53 -254.81)"/></svg>