<?xml version="1.0" encoding="UTF-8"?>
<svg width="40px" height="40px" viewBox="0 0 40 40" version="1.1" xmlns="http://www.w3.org/2000/svg" xmlns:xlink="http://www.w3.org/1999/xlink">
    <!-- Generator: Sketch 54.1 (76490) - https://sketchapp.com -->
    <title>Instagram_7_</title>
    <desc>Created with Sketch.</desc>
    <g id="Page-3" stroke="none" stroke-width="1" fill="none" fill-rule="evenodd">
        <g id="Contact-us" transform="translate(-146.000000, -436.000000)" fill="#2A5B83" fill-rule="nonzero">
            <g id="Instagram_7_" transform="translate(146.000000, 436.000000)">
                <path d="M27.55,10.7 L13.6,10.7 C12.4,10.7 11.4,11.65 11.4,12.85 L11.4,26.85 C11.4,28.05 12.4,29 13.6,29 L27.55,29 C28.75,29 29.75,28.05 29.75,26.85 L29.75,12.85 C29.7,11.65 28.75,10.7 27.55,10.7 Z M24.55,13.55 C24.55,13.25 24.8,13 25.1,13 L26.8,13 C27.1,13 27.35,13.25 27.35,13.55 L27.35,15.25 C27.35,15.55 27.1,15.8 26.8,15.8 L25.1,15.8 C24.8,15.8 24.55,15.55 24.55,15.25 L24.55,13.55 Z M20.55,16.35 C22.5,16.35 24.1,17.9 24.1,19.85 C24.1,21.8 22.5,23.35 20.55,23.35 C18.6,23.35 17.05,21.8 17.05,19.85 C17.05,17.95 18.6,16.35 20.55,16.35 Z M28,26.7 C28,27 27.75,27.25 27.45,27.25 L13.7,27.25 C13.4,27.25 13.15,27 13.15,26.7 L13.15,18.1 L15.45,18.1 C15.15,18.55 15.05,19.35 15.05,19.85 C15.05,22.9 17.55,25.4 20.65,25.4 C23.75,25.4 26.25,22.9 26.25,19.85 C26.25,19.35 26.2,18.55 25.8,18.1 L28.1,18.1 L28.1,26.7 L28,26.7 Z" id="Instagram_1_"></path>
                <path d="M20.05,39.65 C9.15,39.65 0.3,30.8 0.3,19.9 C0.3,9 9.15,0.15 20.05,0.15 C30.95,0.15 39.8,9 39.8,19.9 C39.8,30.8 30.95,39.65 20.05,39.65 Z M20.05,1.65 C10,1.65 1.8,9.85 1.8,19.9 C1.8,29.95 10,38.15 20.05,38.15 C30.1,38.15 38.3,29.95 38.3,19.9 C38.3,9.85 30.1,1.65 20.05,1.65 Z" id="Shape"></path>
            </g>
        </g>
    </g>
</svg>