<?xml version="1.0" encoding="UTF-8"?>
<svg width="30px" height="30px" viewBox="0 0 30 30" version="1.1" xmlns="http://www.w3.org/2000/svg" xmlns:xlink="http://www.w3.org/1999/xlink">
    <!-- Generator: Sketch 54.1 (76490) - https://sketchapp.com -->
    <title>Web</title>
    <desc>Created with Sketch.</desc>
    <g id="Anddroid" stroke="none" stroke-width="1" fill="none" fill-rule="evenodd">
        <g id="Kit" transform="translate(-46.000000, -5949.000000)" fill-rule="nonzero">
            <g id="Web" transform="translate(46.000000, 5949.000000)">
                <path d="M4.39338686,25.6066131 C1.56028746,22.7735138 0,19.0065765 0,15 C0,10.9934235 1.56028746,7.22648619 4.39338686,4.39338686 C7.22648619,1.56028746 10.9934235,-2.84217094e-14 15,-2.84217094e-14 C19.0065765,-2.84217094e-14 22.7735138,1.56028746 25.6066131,4.39338686 C28.4397125,7.22648619 30,10.9934235 30,15 C30,19.0065765 28.4397125,22.7735138 25.6066131,25.6066131 C22.7735138,28.4397125 19.0065765,30 15,30 C10.9934235,30 7.22648619,28.4397125 4.39338686,25.6066131 Z" id="Path" fill="#F3F5FB"></path>
                <path d="M1.36802672,15.8789062 L29.1210937,15.8789062 C29.6065521,15.8789062 30,15.4854584 30,15 C30,14.5145416 29.6065521,14.1210938 29.1210937,14.1210938 L1.36802672,14.1210938 C0.882568359,14.1210938 0.489120469,14.5145416 0.489120469,15 C0.489120469,15.4854584 0.882568359,15.8789062 1.36802672,15.8789062 Z" id="Path" fill="#D5F2FB"></path>
                <path d="M15.0398255,14.1210938 L29.1210938,14.1210938 C29.6065521,14.1210938 30,14.5145416 30,15 C30,15.4854584 29.6065521,15.8789062 29.1210938,15.8789062 L15.0398255,15.8789062 L15.0398255,14.1210938 Z" id="Path" fill="#9DE3FB"></path>
                <path d="M15,0 C15.4854584,0 15.8789062,0.393447891 15.8789062,0.87890625 L15.8789062,29.1210938 C15.8789062,29.6065521 15.4854584,30 15,30 C14.5145416,30 14.1210938,29.6065521 14.1210938,29.1210938 L14.1210938,0.87890625 C14.1210938,0.393447891 14.5145416,0 15,0 Z" id="Path" fill="#D5F2FB"></path>
                <path d="M15,0 C15.4854584,0 15.8789062,0.393447891 15.8789062,0.87890625 L15.8789062,29.1210938 C15.8789062,29.6065521 15.4854584,30 15,30 L15,0 Z" id="Path" fill="#9DE3FB"></path>
                <path d="M4.60144043,21.0978698 C1.63421631,19.5160675 0,17.3506165 0,15 C0,12.6493835 1.63421631,10.4839325 4.60144043,8.90213016 C7.39356996,7.41394043 11.0865784,6.59431459 15,6.59431459 C18.9134216,6.59431459 22.60643,7.41394043 25.3985596,8.90213016 C28.3657837,10.4839325 30,12.6493835 30,15 C30,17.3506165 28.3657837,19.5160675 25.3985596,21.0978698 C22.60643,22.5860596 18.9134216,23.4056854 15,23.4056854 C11.0865784,23.4056854 7.39356996,22.5860596 4.60144043,21.0978698 L4.60144043,21.0978698 Z M5.42839049,10.4532623 C3.06129457,11.7150879 1.7578125,13.3296204 1.7578125,15 C1.7578125,16.6703796 3.06129457,18.2849121 5.42839049,19.5467377 C7.97058105,20.9017181 11.3697052,21.6478729 15,21.6478729 C18.6302948,21.6478729 22.0296478,20.9017181 24.5716095,19.5467377 C26.9387054,18.2849121 28.2421875,16.6703796 28.2421875,15 C28.2421875,13.3296204 26.9387054,11.7150879 24.5716095,10.4532623 C22.0296478,9.09828187 18.6302948,8.35212709 15,8.35212709 C11.3697052,8.35212709 7.97035219,9.09828187 5.42839049,10.4532623 Z" id="Shape" fill="#00B3FF"></path>
                <path d="M15,21.6478729 C18.6302948,21.6478729 22.0296478,20.9017181 24.5716095,19.5467377 C26.9387054,18.2849121 28.2421875,16.6703796 28.2421875,15 C28.2421875,13.3296204 26.9387054,11.7150879 24.5716095,10.4532623 C22.0296478,9.09828187 18.6302948,8.35212709 15,8.35212709 L15,6.59431459 C18.9134216,6.59431459 22.60643,7.41394043 25.3985596,8.90213016 C28.3657837,10.4839325 30,12.6493835 30,15 C30,17.3506165 28.3657837,19.5160675 25.3985596,21.0978698 C22.60643,22.5860596 18.9134216,23.4056854 15,23.4056854 L15,21.6478729 Z" id="Path" fill="#009CDE"></path>
                <path d="M8.90213016,25.3985596 C7.41394043,22.60643 6.59431459,18.9134216 6.59431459,15 C6.59431459,11.0865784 7.41394043,7.39356996 8.90213016,4.60144043 C10.4839325,1.63421631 12.6493835,0 15,0 C17.3506165,0 19.5162964,1.63421631 21.0978698,4.60144043 C22.5860596,7.39356996 23.4056854,11.0865784 23.4056854,15 C23.4056854,18.9134216 22.5860596,22.60643 21.0978698,25.3985596 C19.5162964,28.3657837 17.3506165,30 15,30 C12.6493835,30 10.4839325,28.3657837 8.90213016,25.3985596 Z M10.4532623,5.42839049 C9.09828187,7.97035219 8.35212709,11.3697052 8.35212709,15 C8.35212709,18.6302948 9.09828187,22.0296478 10.4532623,24.5716095 C11.7150879,26.9387054 13.3296204,28.2421875 15,28.2421875 C16.6703796,28.2421875 18.2849121,26.9387054 19.5467377,24.5716095 C20.9017181,22.0296478 21.6478729,18.6302948 21.6478729,15 C21.6478729,11.3697052 20.9017181,7.97035219 19.5467377,5.42839049 C18.2849121,3.06129457 16.6703796,1.7578125 15,1.7578125 C13.3296204,1.7578125 11.7150879,3.06129457 10.4532623,5.42839049 Z" id="Shape" fill="#009CDE"></path>
                <path d="M15,28.2421875 C16.6703796,28.2421875 18.2849121,26.9387054 19.5467377,24.5716095 C20.9017181,22.0296478 21.6478729,18.6302948 21.6478729,15 C21.6478729,11.3697052 20.9017181,7.97035219 19.5467377,5.42839049 C18.2849121,3.06129457 16.6703796,1.7578125 15,1.7578125 L15,-2.84217094e-14 C17.3506165,-2.84217094e-14 19.5162964,1.63421631 21.0978698,4.60144043 C22.5860596,7.39356996 23.4056854,11.0865784 23.4056854,15 C23.4056854,18.9134216 22.5860596,22.60643 21.0978698,25.3985596 C19.5162964,28.3657837 17.3506165,30 15,30 L15,28.2421875 Z" id="Path" fill="#0681B6"></path>
                <path d="M4.39338686,25.6066131 C1.56028746,22.7735138 0,19.0065765 0,15 C0,10.9934235 1.56028746,7.22648619 4.39338686,4.39338686 C7.22648619,1.56028746 10.9934235,-2.84217094e-14 15,-2.84217094e-14 C19.0065765,-2.84217094e-14 22.7735138,1.56028746 25.6066131,4.39338686 C28.4397125,7.22648619 30,10.9934235 30,15 C30,19.0065765 28.4397125,22.7735138 25.6066131,25.6066131 C22.7735138,28.4397125 19.0065765,30 15,30 C10.9934235,30 7.22648619,28.4397125 4.39338686,25.6066131 Z M5.63644406,5.63644406 C3.13522336,8.1374359 1.7578125,11.4628601 1.7578125,15 C1.7578125,18.5371399 3.13522336,21.8625641 5.63644406,24.3635559 C8.1374359,26.8647766 11.4628601,28.2421875 15,28.2421875 C18.5371399,28.2421875 21.8625641,26.8647766 24.3635559,24.3635559 C26.8647766,21.8625641 28.2421875,18.5371399 28.2421875,15 C28.2421875,11.4628601 26.8647766,8.1374359 24.3635559,5.63644406 C21.8625641,3.13522336 18.5371399,1.7578125 15,1.7578125 C11.4628601,1.7578125 8.1374359,3.13522336 5.63644406,5.63644406 Z" id="Shape" fill="#009CDE"></path>
                <path d="M15,28.2421875 C18.5371399,28.2421875 21.8625641,26.8647766 24.3635559,24.3635559 C26.8647766,21.8625641 28.2421875,18.5371399 28.2421875,15 C28.2421875,11.4628601 26.8647766,8.1374359 24.3635559,5.63644406 C21.8625641,3.13522336 18.5371399,1.7578125 15,1.7578125 L15,0 C19.0065765,0 22.7735138,1.56028746 25.6066131,4.39338686 C28.4397125,7.22648619 30,10.9934235 30,15 C30,19.0065765 28.4397125,22.7735138 25.6066131,25.6066131 C22.7735138,28.4397125 19.0065765,30 15,30 L15,28.2421875 Z" id="Path" fill="#0681B6"></path>
            </g>
        </g>
    </g>
</svg>