<?xml version="1.0" encoding="UTF-8"?>
<svg width="40px" height="40px" viewBox="0 0 40 40" version="1.1" xmlns="http://www.w3.org/2000/svg" xmlns:xlink="http://www.w3.org/1999/xlink">
    <!-- Generator: Sketch 54.1 (76490) - https://sketchapp.com -->
    <title>LinKeDin_2_</title>
    <desc>Created with Sketch.</desc>
    <g id="Page-3" stroke="none" stroke-width="1" fill="none" fill-rule="evenodd">
        <g id="Contact-us" transform="translate(-246.000000, -436.000000)" fill="#187FB8" fill-rule="nonzero">
            <g id="LinKeDin_2_" transform="translate(246.000000, 436.000000)">
                <g id="LinkedIn_1_" transform="translate(11.000000, 11.500000)">
                    <rect id="Rectangle" x="0.65" y="5.55" width="3.6" height="11.4"></rect>
                    <path d="M14.05,5.4 C12,5.4 10.7,6.5 10.45,7.3 L10.45,5.5 L6.4,5.5 C6.45,6.45 6.4,16.9 6.4,16.9 L10.45,16.9 L10.45,10.75 C10.45,10.4 10.45,10.05 10.55,9.8 C10.85,9.1 11.4,8.4 12.5,8.4 C13.9,8.4 14.55,9.45 14.55,11 L14.55,16.9 L18.65,16.9 L18.65,10.55 C18.6,7.05 16.6,5.4 14.05,5.4 Z" id="Path"></path>
                    <path d="M2.35,0.15 C1,0.15 0.15,1 0.15,2.15 C0.15,3.25 1,4.1 2.3,4.1 L2.35,4.1 C3.7,4.1 4.55,3.25 4.55,2.1 C4.5,1 3.7,0.15 2.35,0.15 Z" id="Path"></path>
                </g>
                <path d="M20.05,39.65 C9.15,39.65 0.3,30.8 0.3,19.9 C0.3,9 9.15,0.15 20.05,0.15 C30.95,0.15 39.8,9 39.8,19.9 C39.8,30.8 30.95,39.65 20.05,39.65 Z M20.05,1.65 C10,1.65 1.8,9.85 1.8,19.9 C1.8,29.95 10,38.15 20.05,38.15 C30.1,38.15 38.3,29.95 38.3,19.9 C38.3,9.85 30.1,1.65 20.05,1.65 Z" id="Shape"></path>
            </g>
        </g>
    </g>
</svg>