<?xml version="1.0" encoding="UTF-8"?>
<svg width="40px" height="40px" viewBox="0 0 40 40" version="1.1" xmlns="http://www.w3.org/2000/svg" xmlns:xlink="http://www.w3.org/1999/xlink">
    <!-- Generator: Sketch 54.1 (76490) - https://sketchapp.com -->
    <title>Twitter_7_</title>
    <desc>Created with Sketch.</desc>
    <g id="Page-3" stroke="none" stroke-width="1" fill="none" fill-rule="evenodd">
        <g id="Contact-us" transform="translate(-96.000000, -436.000000)" fill="#24A9E6" fill-rule="nonzero">
            <g id="Twitter_7_" transform="translate(96.000000, 436.000000)">
                <path d="M28.7,12.3 C27.95,12.75 27.15,13.1 26.25,13.25 C25.55,12.5 24.55,12 23.45,12 C21.35,12 19.6,13.75 19.6,15.95 C19.6,16.25 19.65,16.55 19.7,16.85 C16.5,16.7 13.7,15.1 11.8,12.75 C11.45,13.35 11.3,14 11.3,14.75 C11.3,16.1 12,17.3 13,18.05 C12.35,18.05 11.8,17.85 11.25,17.55 L11.25,17.6 C11.25,19.5 12.55,21.1 14.35,21.45 C14.05,21.55 13.7,21.6 13.35,21.6 C13.1,21.6 12.85,21.6 12.65,21.55 C13.15,23.1 14.55,24.25 16.25,24.3 C14.95,25.35 13.3,26 11.5,26 C11.2,26 10.9,26 10.6,25.95 C12.3,27.05 14.3,27.7 16.5,27.7 C23.55,27.7 27.45,21.7 27.45,16.5 C27.45,16.35 27.45,16.15 27.45,16 C28.2,15.45 28.85,14.75 29.35,13.95 C28.65,14.25 27.9,14.5 27.15,14.55 C27.8,13.95 28.4,13.2 28.7,12.3 Z" id="Twitter_1_"></path>
                <path d="M20.05,39.65 C9.15,39.65 0.3,30.8 0.3,19.9 C0.3,9 9.15,0.15 20.05,0.15 C30.95,0.15 39.8,9 39.8,19.9 C39.8,30.8 30.95,39.65 20.05,39.65 Z M20.05,1.65 C10,1.65 1.8,9.85 1.8,19.9 C1.8,29.95 10,38.15 20.05,38.15 C30.1,38.15 38.3,29.95 38.3,19.9 C38.3,9.85 30.1,1.65 20.05,1.65 Z" id="Shape"></path>
            </g>
        </g>
    </g>
</svg>