<?xml version="1.0" encoding="UTF-8"?>
<svg width="183px" height="192px" viewBox="0 0 183 192" version="1.1" xmlns="http://www.w3.org/2000/svg" xmlns:xlink="http://www.w3.org/1999/xlink">
    <!-- Generator: Sketch 54.1 (76490) - https://sketchapp.com -->
    <title>add Expense</title>
    <desc>Created with Sketch.</desc>
    <defs>
        <path d="M56,107 C83.6142375,107 106,84.6142375 106,57 C106,29.3857625 83.6142375,7 56,7 C28.3857625,7 6,29.3857625 6,57 C6,84.6142375 28.3857625,107 56,107 Z" id="path-1"></path>
        <filter x="-72.5%" y="-71.5%" width="245.0%" height="245.0%" filterUnits="objectBoundingBox" id="filter-2">
            <feOffset dx="0" dy="1" in="SourceAlpha" result="shadowOffsetOuter1"></feOffset>
            <feGaussianBlur stdDeviation="24" in="shadowOffsetOuter1" result="shadowBlurOuter1"></feGaussianBlur>
            <feColorMatrix values="0 0 0 0 0.905315897   0 0 0 0 0.905315897   0 0 0 0 0.905315897  0 0 0 1 0" type="matrix" in="shadowBlurOuter1"></feColorMatrix>
        </filter>
        <path d="M56,112 C86.927946,112 112,86.927946 112,56 C112,25.072054 86.927946,-1.91180405e-13 56,-0 C25.072054,-1.91180405e-13 0,25.072054 0,56 C0,86.927946 25.072054,112 56,112 Z" id="path-3"></path>
        <filter x="-64.8%" y="-63.9%" width="229.6%" height="229.6%" filterUnits="objectBoundingBox" id="filter-4">
            <feMorphology radius="0.1" operator="dilate" in="SourceAlpha" result="shadowSpreadOuter1"></feMorphology>
            <feOffset dx="0" dy="1" in="shadowSpreadOuter1" result="shadowOffsetOuter1"></feOffset>
            <feMorphology radius="1" operator="erode" in="SourceAlpha" result="shadowInner"></feMorphology>
            <feOffset dx="0" dy="1" in="shadowInner" result="shadowInner"></feOffset>
            <feComposite in="shadowOffsetOuter1" in2="shadowInner" operator="out" result="shadowOffsetOuter1"></feComposite>
            <feGaussianBlur stdDeviation="24" in="shadowOffsetOuter1" result="shadowBlurOuter1"></feGaussianBlur>
            <feColorMatrix values="0 0 0 0 0.905315897   0 0 0 0 0.905315897   0 0 0 0 0.905315897  0 0 0 1 0" type="matrix" in="shadowBlurOuter1"></feColorMatrix>
        </filter>
    </defs>
    <g id="Page-3" stroke="none" stroke-width="1" fill="none" fill-rule="evenodd">
        <g id="Kit" transform="translate(-229.000000, -3990.000000)">
            <g id="Group-14" transform="translate(20.000000, 3908.000000)">
                <g id="add-Expense" transform="translate(249.000000, 120.000000)">
                    <g id="Oval">
                        <use fill="black" fill-opacity="1" filter="url(#filter-2)" xlink:href="#path-1"></use>
                        <use fill="#F9FAFC" fill-rule="evenodd" xlink:href="#path-1"></use>
                    </g>
                    <g id="Oval-Copy-7" opacity="0.253696987" transform="translate(56.000000, 56.000000) rotate(-360.000000) translate(-56.000000, -56.000000) ">
                        <use fill="black" fill-opacity="1" filter="url(#filter-4)" xlink:href="#path-3"></use>
                        <use stroke="#878C8E" stroke-width="0.2" xlink:href="#path-3"></use>
                    </g>
                    <g id="money-(2)" transform="translate(29.000000, 30.000000)" fill="#878C8E" fill-rule="nonzero">
                        <path d="M35.9951579,34.2482105 C34.7182105,34.2482105 33.6793684,33.3490526 33.6793684,32.2438947 C33.6793684,31.1386316 34.7182105,30.2394737 35.9951579,30.2394737 C37.2721053,30.2394737 38.3109474,31.1386316 38.3109474,32.2438947 C38.3109474,32.8251579 38.7823158,33.2965263 39.3635789,33.2965263 C39.9448421,33.2965263 40.4162105,32.8251579 40.4162105,32.2438947 C40.4162105,30.3149474 38.9789474,28.6930526 37.0477895,28.2528421 L37.0477895,27.7053684 C37.0477895,27.1241053 36.5764211,26.6527368 35.9951579,26.6527368 C35.4138947,26.6527368 34.9425263,27.1241053 34.9425263,27.7053684 L34.9425263,28.2528421 C33.0113684,28.6930526 31.5741053,30.3149474 31.5741053,32.2438947 C31.5741053,34.5098947 33.5573684,36.3534737 35.9951579,36.3534737 C37.2721053,36.3534737 38.3109474,37.2526316 38.3109474,38.3578947 C38.3109474,39.4631579 37.2721053,40.3623158 35.9951579,40.3623158 C34.7182105,40.3623158 33.6793684,39.4631579 33.6793684,38.3578947 C33.6793684,37.7766316 33.208,37.3052632 32.6267368,37.3052632 C32.0454737,37.3052632 31.5741053,37.7766316 31.5741053,38.3578947 C31.5741053,40.2868421 33.0113684,41.9087368 34.9425263,42.3489474 L34.9425263,42.8036842 C34.9425263,43.3849474 35.4138947,43.8563158 35.9951579,43.8563158 C36.5764211,43.8563158 37.0477895,43.3849474 37.0477895,42.8036842 L37.0477895,42.3489474 C38.9789474,41.9087368 40.4162105,40.2868421 40.4162105,38.3578947 C40.4162105,36.0917895 38.4329474,34.2482105 35.9951579,34.2482105 Z" id="Path"></path>
                        <path d="M47.5244211,27.9869474 C46.1493684,25.8443158 44.2121053,24.1297895 41.9221053,23.0289474 C41.398,22.7769474 40.7690526,22.9975789 40.5172632,23.5215789 C40.2653684,24.0455789 40.4858947,24.6744211 41.0098947,24.9263158 C45.0005263,26.8446316 47.5789474,30.9434737 47.5789474,35.3685263 C47.5789474,37.262 47.1122105,39.1397895 46.2293684,40.7991579 C45.9563158,41.3123158 46.1509474,41.9497895 46.6642105,42.2228421 C46.8216842,42.3066316 46.9909474,42.3464211 47.1576842,42.3464211 C47.5343158,42.3464211 47.8986316,42.1436842 48.0878947,41.788 C49.1322105,39.8254737 49.6842105,37.6055789 49.6842105,35.3685263 C49.6842105,32.7411579 48.9373684,30.1886316 47.5244211,27.9869474 Z" id="Path"></path>
                        <path d="M37.6497895,21.6844211 L37.5789474,21.6843158 C36.9976842,21.6843158 36.5263158,22.1555789 36.5263158,22.7369474 C36.5263158,23.3183158 36.9976842,23.7895789 37.5789474,23.7895789 L37.6398947,23.7896842 C37.6415789,23.7896842 37.6431579,23.7896842 37.6449474,23.7896842 C38.224,23.7896842 38.6947368,23.3216842 38.6974737,22.742 C38.7001053,22.1606316 38.2310526,21.6871579 37.6497895,21.6844211 Z" id="Path"></path>
                        <path d="M30.9902105,45.8107368 C26.9996842,43.8923158 24.4212632,39.7934737 24.4212632,35.3685263 C24.4212632,33.4750526 24.888,31.5972632 25.7708421,29.9378947 C26.0438947,29.4247368 25.8492632,28.7872632 25.336,28.5142105 C24.8229474,28.2411579 24.1852632,28.4357895 23.9123158,28.9490526 C22.868,30.9116842 22.316,33.1314737 22.316,35.3685263 C22.316,37.9958947 23.0628421,40.5483158 24.4757895,42.7501053 C25.8508421,44.8927368 27.7881053,46.6072632 30.0781053,47.7082105 C30.2251579,47.7789474 30.3805263,47.8123158 30.5334737,47.8123158 C30.9254737,47.8123158 31.3016842,47.5924211 31.4829474,47.2155789 C31.7346316,46.6915789 31.5142105,46.0626316 30.9902105,45.8107368 Z" id="Path"></path>
                        <path d="M34.4212632,46.9474737 L34.3603158,46.9472632 C33.7763158,46.9462105 33.3055789,47.4134737 33.3029474,47.9949474 C33.3002105,48.5763158 33.7694737,49.0497895 34.3507368,49.0525263 L34.4212632,49.0527368 C35.0025263,49.0527368 35.4738947,48.5813684 35.4738947,48.0001053 C35.4738947,47.4188421 35.0025263,46.9474737 34.4212632,46.9474737 Z" id="Path"></path>
                        <path d="M40.7798947,18.1229474 C40.6517895,17.8176842 40.4948421,17.53 40.3122105,17.2631579 L43.0526316,17.2631579 C45.7225263,17.2631579 47.8947368,15.0909474 47.8947368,12.4210526 C47.8947368,9.75115789 45.7225263,7.57894737 43.0526316,7.57894737 L34.6231579,7.57894737 C35.1590526,6.79978947 35.4736842,5.85715789 35.4736842,4.84210526 C35.4736842,2.17221053 33.3014737,0 30.6315789,0 L4.84210526,0 C2.17221053,0 0,2.17221053 0,4.84210526 C0,7.512 2.17221053,9.68421053 4.84210526,9.68421053 L13.2715789,9.68421053 C12.7356842,10.4633684 12.4210526,11.406 12.4210526,12.4210526 C12.4210526,13.4361053 12.7355789,14.3787368 13.2715789,15.1578947 L10.5263158,15.1578947 C7.85642105,15.1578947 5.68421053,17.3301053 5.68421053,20 C5.68421053,21.5333684 6.40147368,22.9016842 7.51736842,23.7894737 C6.40147368,24.6772632 5.68421053,26.0455789 5.68421053,27.5789474 C5.68421053,29.1123158 6.40147368,30.4806316 7.51736842,31.3684211 C6.40147368,32.2562105 5.68421053,33.6245263 5.68421053,35.1578947 C5.68421053,36.6912632 6.40147368,38.0595789 7.51736842,38.9473684 C6.40147368,39.8351579 5.68421053,41.2034737 5.68421053,42.7368421 C5.68421053,45.4067368 7.85642105,47.5789474 10.5263158,47.5789474 L22.9315789,47.5789474 C26.1995789,51.0744211 30.8486316,53.2632632 36.0001053,53.2632632 C45.8672632,53.2632632 53.8948421,45.2356842 53.8948421,35.3685263 C53.8948421,27.1562105 48.3337895,20.2192632 40.7798947,18.1229474 Z M43.0526316,9.68421053 C44.5617895,9.68421053 45.7894737,10.912 45.7894737,12.4210526 C45.7894737,13.9301053 44.5617895,15.1578947 43.0526316,15.1578947 L36.3157895,15.1578947 L17.2631579,15.1578947 C15.754,15.1578947 14.5263158,13.9301053 14.5263158,12.4210526 C14.5263158,10.912 15.754,9.68421053 17.2631579,9.68421053 L43.0526316,9.68421053 Z M4.84210526,7.57894737 C3.33294737,7.57894737 2.10526316,6.35115789 2.10526316,4.84210526 C2.10526316,3.33305263 3.33294737,2.10526316 4.84210526,2.10526316 L30.6315789,2.10526316 C32.1407368,2.10526316 33.3684211,3.33305263 33.3684211,4.84210526 C33.3684211,6.35115789 32.1407368,7.57894737 30.6315789,7.57894737 L4.84210526,7.57894737 Z M10.5263158,17.2631579 L36.3157895,17.2631579 C36.7397895,17.2631579 37.1457895,17.3616842 37.51,17.5381053 C37.0121053,17.4963158 36.5087368,17.4737895 36.0001053,17.4737895 C31.0585263,17.4737895 26.5785263,19.4873684 23.3370526,22.7368421 L10.5263158,22.7368421 C9.01726316,22.7368421 7.78947368,21.5090526 7.78947368,20 C7.78947368,18.4909474 9.01726316,17.2631579 10.5263158,17.2631579 Z M10.5263158,24.8421053 L21.5384211,24.8421053 C20.3434737,26.4792632 19.4195789,28.3257895 18.8328421,30.3157895 L10.5263158,30.3157895 C9.01715789,30.3157895 7.78947368,29.0881053 7.78947368,27.5789474 C7.78947368,26.0698947 9.01715789,24.8421053 10.5263158,24.8421053 Z M10.5263158,32.4210526 L18.3494737,32.4210526 C18.1897895,33.3803158 18.1053684,34.3646316 18.1053684,35.3685263 C18.1053684,36.226 18.1673684,37.0691579 18.2845263,37.8947368 L10.5263158,37.8947368 C9.01715789,37.8947368 7.78947368,36.6670526 7.78947368,35.1578947 C7.78947368,33.6487368 9.01715789,32.4210526 10.5263158,32.4210526 Z M10.5263158,45.4736842 C9.01715789,45.4736842 7.78947368,44.246 7.78947368,42.7368421 C7.78947368,41.2276842 9.01715789,40 10.5263158,40 L18.7143158,40 C19.2454737,41.9803158 20.1083158,43.8258947 21.2398947,45.4736842 L10.5263158,45.4736842 Z M36.0001053,51.158 C27.2937895,51.158 20.2106316,44.0748421 20.2106316,35.3685263 C20.2106316,26.6622105 27.2937895,19.5790526 36.0001053,19.5790526 C44.7064211,19.5790526 51.7895789,26.6622105 51.7895789,35.3685263 C51.7895789,44.0748421 44.7064211,51.158 36.0001053,51.158 Z" id="Shape"></path>
                    </g>
                    <g id="Group-26" transform="translate(21.671642, 28.641791)">
                        <circle id="Oval" fill="#F2F2F2" cx="60.4477612" cy="15.6716418" r="2.23880597"></circle>
                        <circle id="Oval-Copy-10" stroke="#DFDFDF" stroke-width="0.5" cx="49.2537313" cy="1.49253731" r="1.49253731"></circle>
                        <circle id="Oval-Copy-11" fill="#E0E0E0" cx="11.1940299" cy="55.9701493" r="1.49253731"></circle>
                        <circle id="Oval-Copy-12" stroke="#F2F2F2" stroke-width="0.5" cx="0.746268657" cy="44.0298507" r="1"></circle>
                    </g>
                </g>
            </g>
        </g>
    </g>
</svg>