<?xml version="1.0" encoding="UTF-8"?>
<svg width="192px" height="192px" viewBox="0 0 192 192" version="1.1" xmlns="http://www.w3.org/2000/svg" xmlns:xlink="http://www.w3.org/1999/xlink">
    <!-- Generator: Sketch 54.1 (76490) - https://sketchapp.com -->
    <title>Contact us</title>
    <desc>Created with Sketch.</desc>
    <defs>
        <path d="M56,107 C83.6142375,107 106,84.6142375 106,57 C106,29.3857625 83.6142375,7 56,7 C28.3857625,7 6,29.3857625 6,57 C6,84.6142375 28.3857625,107 56,107 Z" id="path-1"></path>
        <filter x="-72.5%" y="-71.5%" width="245.0%" height="245.0%" filterUnits="objectBoundingBox" id="filter-2">
            <feOffset dx="0" dy="1" in="SourceAlpha" result="shadowOffsetOuter1"></feOffset>
            <feGaussianBlur stdDeviation="24" in="shadowOffsetOuter1" result="shadowBlurOuter1"></feGaussianBlur>
            <feColorMatrix values="0 0 0 0 0.905315897   0 0 0 0 0.905315897   0 0 0 0 0.905315897  0 0 0 1 0" type="matrix" in="shadowBlurOuter1"></feColorMatrix>
        </filter>
        <path d="M56,112 C86.927946,112 112,86.927946 112,56 C112,25.072054 86.927946,-1.91180405e-13 56,-0 C25.072054,-1.91180405e-13 0,25.072054 0,56 C0,86.927946 25.072054,112 56,112 Z" id="path-3"></path>
        <filter x="-64.8%" y="-63.9%" width="229.6%" height="229.6%" filterUnits="objectBoundingBox" id="filter-4">
            <feMorphology radius="0.1" operator="dilate" in="SourceAlpha" result="shadowSpreadOuter1"></feMorphology>
            <feOffset dx="0" dy="1" in="shadowSpreadOuter1" result="shadowOffsetOuter1"></feOffset>
            <feMorphology radius="1" operator="erode" in="SourceAlpha" result="shadowInner"></feMorphology>
            <feOffset dx="0" dy="1" in="shadowInner" result="shadowInner"></feOffset>
            <feComposite in="shadowOffsetOuter1" in2="shadowInner" operator="out" result="shadowOffsetOuter1"></feComposite>
            <feGaussianBlur stdDeviation="24" in="shadowOffsetOuter1" result="shadowBlurOuter1"></feGaussianBlur>
            <feColorMatrix values="0 0 0 0 0.905315897   0 0 0 0 0.905315897   0 0 0 0 0.905315897  0 0 0 1 0" type="matrix" in="shadowBlurOuter1"></feColorMatrix>
        </filter>
    </defs>
    <g id="Update-changes" stroke="none" stroke-width="1" fill="none" fill-rule="evenodd">
        <g id="Logon-&amp;-register-008" transform="translate(-202.000000, -1407.000000)">
            <g id="Contact-us" transform="translate(242.000000, 1445.000000)">
                <g id="Oval">
                    <use fill="black" fill-opacity="1" filter="url(#filter-2)" xlink:href="#path-1"></use>
                    <use fill="#F9FAFC" fill-rule="evenodd" xlink:href="#path-1"></use>
                </g>
                <g id="contact-us" transform="translate(33.000000, 34.000000)" fill="#878C8E" fill-rule="nonzero">
                    <rect id="Rectangle" x="10.7333333" y="7.66666667" width="24.5333333" height="1.53333333"></rect>
                    <rect id="Rectangle" x="10.7333333" y="10.7333333" width="24.5333333" height="1.53333333"></rect>
                    <rect id="Rectangle" x="10.7333333" y="4.6" width="24.5333333" height="1.53333333"></rect>
                    <path d="M45.7753667,18.6246333 L39.8666667,12.7159333 L39.8666667,2.3 C39.8666667,1.02974508 38.8369216,0 37.5666667,0 L8.43333333,0 C7.16307841,0 6.13333333,1.02974508 6.13333333,2.3 L6.13333333,12.7159333 L0.224633333,18.6246333 C0.0808454793,18.7683778 4.34220109e-05,18.9633506 0,19.1666667 L0,43.7 C0,44.9702549 1.02974508,46 2.3,46 L43.7,46 C44.9702549,46 46,44.9702549 46,43.7 L46,19.1666667 C45.9999566,18.9633506 45.9191545,18.7683778 45.7753667,18.6246333 Z M44.1492667,19.1666667 L39.8666667,23.4492667 L39.8666667,14.8840667 L44.1492667,19.1666667 Z M8.43333333,1.53333333 L37.5666667,1.53333333 C37.990085,1.53333333 38.3333333,1.87658169 38.3333333,2.3 L38.3333333,24.9826 L37.3512333,25.9647 C36.1864011,18.9454628 30.1152319,13.7987663 23,13.7987663 C15.8847681,13.7987663 9.81359887,18.9454628 8.64876667,25.9647 L7.66666667,24.9826 L7.66666667,2.3 C7.66666667,1.87658169 8.00991503,1.53333333 8.43333333,1.53333333 Z M36.0333333,28.3666667 C36.0333333,35.5647779 30.1981112,41.4 23,41.4 C15.8018888,41.4 9.96666667,35.5647779 9.96666667,28.3666667 C9.96666667,21.1685554 15.8018888,15.3333333 23,15.3333333 C30.1947834,15.3413611 36.0253056,21.1718833 36.0333333,28.3666667 Z M6.13333333,23.4492667 L1.85073333,19.1666667 L6.13333333,14.8840667 L6.13333333,23.4492667 Z M43.7,44.4666667 L2.3,44.4666667 C1.87658169,44.4666667 1.53333333,44.1234183 1.53333333,43.7 L1.53333333,21.0174 L7.8913,27.3753667 C8.03504443,27.5191545 8.23001731,27.5999566 8.43333333,27.6 L8.47243333,27.6 C8.45863333,27.8553 8.43333333,28.1075333 8.43333333,28.3666667 C8.43333333,36.4116145 14.9550521,42.9333333 23,42.9333333 C31.0449479,42.9333333 37.5666667,36.4116145 37.5666667,28.3666667 C37.5666667,28.1075333 37.5413667,27.8553 37.5275667,27.6 L37.5666667,27.6 C37.7699827,27.5999566 37.9649556,27.5191545 38.1087,27.3753667 L44.4666667,21.0174 L44.4666667,43.7 C44.4666667,44.1234183 44.1234183,44.4666667 43.7,44.4666667 Z" id="Shape"></path>
                    <path d="M28.06,31.9339667 L25.3,30.9020333 L25.3,29.2774667 C26.7213129,28.4568733 27.5977692,26.9411883 27.6,25.3 L27.6,24.5333333 C28.0234183,24.5333333 28.3666667,24.190085 28.3666667,23.7666667 L28.3666667,22.2333333 C28.3666667,19.2694052 25.9639282,16.8666667 23,16.8666667 C20.0360718,16.8666667 17.6333333,19.2694052 17.6333333,22.2333333 L17.6333333,23.7666667 C17.6333333,24.190085 17.9765817,24.5333333 18.4,24.5333333 L18.4,25.3 C18.4022308,26.9411883 19.2786871,28.4568733 20.7,29.2774667 L20.7,30.9028 L17.9323333,31.9424 C15.9074621,32.701599 14.5661546,34.6374814 14.5666667,36.8 L14.5666667,37.5666667 C14.5666667,37.990085 14.909915,38.3333333 15.3333333,38.3333333 L30.6666667,38.3333333 C31.090085,38.3333333 31.4333333,37.990085 31.4333333,37.5666667 L31.4333333,36.7923333 C31.425254,34.6300121 30.083186,32.6971291 28.06,31.9339667 L28.06,31.9339667 Z M19.1666667,22.2333333 C19.1666667,20.1162418 20.8829085,18.4 23,18.4 C25.1170915,18.4 26.8333333,20.1162418 26.8333333,22.2333333 L26.8333333,23 L26.3840667,23 L25.0753667,21.6913 C24.8169392,21.4327913 24.411952,21.3926776 24.1078333,21.5954667 L22.0033333,23 L19.1666667,23 L19.1666667,22.2333333 Z M19.9333333,24.5333333 L22.2333333,24.5333333 C22.3847342,24.5330938 22.5327162,24.4882993 22.6588333,24.4045333 L24.4359667,23.2200333 L25.5246333,24.3087 C25.6683778,24.4524879 25.8633506,24.5332899 26.0666667,24.5333333 L26.0666667,25.3 C26.0666667,26.9936732 24.6936732,28.3666667 23,28.3666667 C21.3063268,28.3666667 19.9333333,26.9936732 19.9333333,25.3 L19.9333333,24.5333333 Z M23,29.9 C23.2570345,29.8984603 23.5134877,29.8753795 23.7666667,29.831 L23.7666667,31.1159333 L23,31.8826 L22.2333333,31.1159333 L22.2333333,29.831 C22.4865123,29.8753795 22.7429655,29.8984603 23,29.9 L23,29.9 Z M16.0999999,36.8 C16.099691,35.2766449 17.0443146,33.9128674 18.4705333,33.3776 L21.2734667,32.3249667 L22.4579667,33.5087 C22.7573499,33.8079928 23.2426501,33.8079928 23.5420333,33.5087 L24.7265333,32.3242 L27.5233333,33.3707 C28.9510572,33.9090443 29.8971436,35.2741554 29.9,36.8 L16.0999999,36.8 Z" id="Shape"></path>
                </g>
                <g id="Oval-Copy-7" opacity="0.253696987" transform="translate(56.000000, 56.000000) rotate(-360.000000) translate(-56.000000, -56.000000) ">
                    <use fill="black" fill-opacity="1" filter="url(#filter-4)" xlink:href="#path-3"></use>
                    <use stroke="#878C8E" stroke-width="0.2" xlink:href="#path-3"></use>
                </g>
                <g id="Group-26" transform="translate(21.671642, 28.641791)">
                    <circle id="Oval" fill="#F2F2F2" cx="60.4477612" cy="15.6716418" r="2.23880597"></circle>
                    <circle id="Oval-Copy-10" stroke="#DFDFDF" stroke-width="0.5" cx="49.2537313" cy="1.49253731" r="1.49253731"></circle>
                    <circle id="Oval-Copy-11" fill="#E0E0E0" cx="11.1940299" cy="55.9701493" r="1.49253731"></circle>
                    <circle id="Oval-Copy-12" stroke="#F2F2F2" stroke-width="0.5" cx="0.746268657" cy="44.0298507" r="1"></circle>
                </g>
            </g>
        </g>
    </g>
</svg>