<?xml version="1.0" encoding="UTF-8"?>
<svg width="38px" height="30px" viewBox="0 0 38 30" version="1.1" xmlns="http://www.w3.org/2000/svg" xmlns:xlink="http://www.w3.org/1999/xlink">
    <!-- Generator: Sketch 54.1 (76490) - https://sketchapp.com -->
    <title>Find us</title>
    <desc>Created with Sketch.</desc>
    <g id="Anddroid" stroke="none" stroke-width="1" fill="none" fill-rule="evenodd">
        <g id="Kit" transform="translate(-43.000000, -5869.000000)" fill-rule="nonzero">
            <g id="Find-us" transform="translate(43.000000, 5869.000000)">
                <path d="M35.9277108,29.9094515 L1.08433735,29.9094515 C0.48541041,29.9094515 -6.82121026e-13,29.4240411 -6.82121026e-13,28.8251141 L-6.82121026e-13,5.7561194 C-6.82121026e-13,5.15719246 0.48541041,4.67178205 1.08433735,4.67178205 L35.9277108,4.67178205 C36.5266378,4.67178205 37.0120482,5.15719246 37.0120482,5.7561194 L37.0120482,28.8251141 C37.0120482,29.4240411 36.5266378,29.9094515 35.9277108,29.9094515 Z" id="Path" fill="#CBEBF8"></path>
                <path d="M35.9277108,4.67178205 L18.5060241,4.67178205 L18.5060241,29.9094515 L35.9277108,29.9094515 C36.5266378,29.9094515 37.0120482,29.4240411 37.0120482,28.8251141 L37.0120482,5.7561194 C37.0120482,5.15719246 36.5266378,4.67178205 35.9277108,4.67178205 Z" id="Path" fill="#98D4FF"></path>
                <path d="M-6.82121026e-13,5.7561194 C-6.82121026e-13,5.15719246 0.48541041,4.67178205 1.08433735,4.67178205 L35.9277108,4.67178205 C36.5266378,4.67178205 37.0120482,5.15719246 37.0120482,5.7561194 L37.0120482,11.1955961 L-6.82121026e-13,11.1955961 L-6.82121026e-13,5.7561194 Z" id="Path" fill="#0681B6"></path>
                <path d="M18.5060241,4.67178205 L35.9277108,4.67178205 C36.5266378,4.67178205 37.0120482,5.15719246 37.0120482,5.7561194 L37.0120482,11.1955961 L18.5060241,11.1955961 L18.5060241,4.67178205 Z" id="Path" fill="#0681B6"></path>
                <path d="M17.5738893,24.5425463 C16.8171122,23.2803099 16.0100715,21.9971774 15.229857,20.7564018 C13.5381213,18.0673017 11.7890625,15.2864282 10.3492093,12.4072865 C10.3390437,12.3869552 10.3294428,12.3660592 10.320689,12.3451631 C9.23550448,9.78285132 9.43373494,6.90258024 10.864552,4.44277224 C12.2967809,1.98070528 14.7037839,0.383284287 17.4682793,0.0596773955 C20.1819466,-0.257999544 22.8591867,0.702937902 24.8138177,2.69597258 C26.767884,4.68844246 27.676299,7.38347258 27.3060994,10.0897979 C26.9971762,12.3482692 25.6115399,14.4810817 24.3891189,16.3625765 C24.0474398,16.8883672 23.7249623,17.3847903 23.4380647,17.8631413 L19.4339232,24.5428287 C19.2382342,24.8695419 18.8849774,25.0694666 18.5040474,25.0694666 C18.1228351,25.0694666 17.7698607,24.8695419 17.5738893,24.5425463 Z" id="Shape" fill="#FF5357"></path>
                <path d="M18.509695,0.000377660561 C20.857116,0.00602525092 23.1102221,0.958773781 24.8138177,2.69597258 C26.767884,4.68844246 27.676299,7.38347258 27.3060994,10.0897979 C26.9971762,12.3482692 25.6115399,14.4810817 24.3891189,16.3625765 C24.0474398,16.8883672 23.7249623,17.3847903 23.4380647,17.8631413 L19.4339232,24.5428287 C19.2390813,24.8678475 18.8886484,25.0672075 18.509695,25.0691841 L18.509695,0.000377660561 Z" id="Path" fill="#E02529"></path>
                <path d="M13.9701619,8.3686947 C13.9701619,5.87020072 16.0024473,3.83763299 18.5009413,3.83763299 C20.9991528,3.83763299 23.0317207,5.87020072 23.0317207,8.3686947 C23.0317207,10.8669063 20.9991528,12.899474 18.5009413,12.899474 C16.0024473,12.899474 13.9701619,10.8669063 13.9701619,8.3686947 L13.9701619,8.3686947 Z" id="Path" fill="#FDFDFF"></path>
                <path d="M18.509695,3.83791535 C21.0039533,3.84299814 23.0317207,5.87330691 23.0317207,8.3686947 C23.0317207,10.8640825 21.0039533,12.8943913 18.509695,12.8991917 L18.509695,3.83791535 Z" id="Path" fill="#F3F5FB"></path>
            </g>
        </g>
    </g>
</svg>