<?xml version="1.0" encoding="UTF-8"?>
<svg width="40px" height="40px" viewBox="0 0 40 40" version="1.1" xmlns="http://www.w3.org/2000/svg" xmlns:xlink="http://www.w3.org/1999/xlink">
    <!-- Generator: Sketch 54.1 (76490) - https://sketchapp.com -->
    <title>youtube</title>
    <desc>Created with Sketch.</desc>
    <g id="Page-3" stroke="none" stroke-width="1" fill="none" fill-rule="evenodd">
        <g id="Contact-us" transform="translate(-196.000000, -436.000000)" fill="#DC3E30">
            <g id="youtube" transform="translate(196.000000, 436.000000)">
                <g id="Group-99">
                    <g id="Group-97">
                        <path d="M19.9827848,1.51898734 C9.80151899,1.51898734 1.51898734,9.80151899 1.51898734,19.9822785 C1.51898734,30.1635443 9.80151899,38.4460759 19.9827848,38.4460759 C30.1635443,38.4460759 38.4465823,30.1635443 38.4465823,19.9822785 C38.4465823,9.80151899 30.1635443,1.51898734 19.9827848,1.51898734 Z M19.9827848,39.9650633 C8.96405063,39.9650633 -1.13686838e-13,31.0010127 -1.13686838e-13,19.9822785 C-1.13686838e-13,8.96405063 8.96405063,0 19.9827848,0 C31.0010127,0 39.9655696,8.96405063 39.9655696,19.9822785 C39.9655696,31.0010127 31.0010127,39.9650633 19.9827848,39.9650633 L19.9827848,39.9650633 Z" id="Fill-83"></path>
                    </g>
                    <g id="youtube-logo" transform="translate(10.000000, 8.000000)" fill-rule="nonzero">
                        <path d="M19.4978437,12.392625 C19.3820156,11.8660781 19.1252344,11.4245156 18.7283438,11.06775 C18.331125,10.7109844 17.8739531,10.5012656 17.3563125,10.4387812 C15.71475,10.260375 13.2389531,10.1712187 9.92864063,10.1712187 C6.61842188,10.1712187 4.14703125,10.2604219 2.51423438,10.4387812 C1.98796875,10.5012656 1.5285,10.7109844 1.13578125,11.06775 C0.74315625,11.4246562 0.48440625,11.8662656 0.3594375,12.392625 C0.1275,13.4277656 0.011484375,14.9890781 0.011484375,17.0768906 C0.011484375,19.2002812 0.1275,20.7617344 0.3594375,21.7611094 C0.47559375,22.2872813 0.732140625,22.7292188 1.12917188,23.0858438 C1.52620313,23.44275 1.98346875,23.6479219 2.500875,23.7015 C4.14271875,23.8888594 6.61870313,23.9825625 9.92873438,23.9825625 C13.2385313,23.9825625 15.7149844,23.8888594 17.3562188,23.7015 C17.8738594,23.6479219 18.3287813,23.44275 18.7215,23.0858438 C19.1141719,22.7292656 19.3729219,22.2872813 19.49775,21.7611094 C19.7296875,20.7259688 19.8458438,19.1646563 19.8458438,17.0768906 C19.8457969,14.9534531 19.7296406,13.3919531 19.4978437,12.392625 Z M5.67304688,13.7445938 L4.2410625,13.7445938 L4.2410625,21.3594375 L2.90282813,21.3594375 L2.90282813,13.7445938 L1.49751562,13.7445938 L1.49751562,12.4866094 L5.67309375,12.4866094 L5.67309375,13.7445938 L5.67304688,13.7445938 Z M9.28640625,21.3594375 L8.0953125,21.3594375 L8.0953125,20.6365781 C7.61353125,21.1810313 7.15832812,21.4530938 6.73007812,21.4530938 C6.31973437,21.4530938 6.0609375,21.2879063 5.95401562,20.9579063 C5.88271875,20.7437813 5.84685937,20.4179531 5.84685937,19.9808438 L5.84685937,14.7481406 L7.03795312,14.7481406 L7.03795312,19.6195781 C7.03795312,19.9049531 7.04245312,20.0611875 7.05145312,20.088 C7.07821875,20.2753594 7.17182812,20.3690156 7.33251562,20.3690156 C7.57335937,20.3690156 7.82779687,20.1816563 8.09535937,19.8069375 L8.09535937,14.7481406 L9.28645312,14.7481406 L9.28645312,21.3594375 L9.28640625,21.3594375 Z M13.8367031,19.3786406 C13.8367031,20.0299219 13.796625,20.4763125 13.7167031,20.7172969 C13.5646406,21.2077031 13.2481406,21.4530938 12.7664062,21.4530938 C12.3381094,21.4530938 11.9233125,21.2077031 11.5215938,20.7172969 L11.5215938,21.3595781 L10.3306875,21.3595781 L10.3306875,12.4866094 L11.5215938,12.4866094 L11.5215938,15.39075 C11.9054531,14.9092031 12.3201563,14.6682656 12.7664062,14.6682656 C13.2481406,14.6682656 13.5646406,14.9181562 13.7167031,15.4177031 C13.7965781,15.6496406 13.8367031,16.09125 13.8367031,16.7425781 L13.8367031,19.3786406 Z M18.3602344,18.2813906 L15.9647344,18.2813906 L15.9647344,19.4457188 C15.9647344,20.061375 16.1697656,20.3690156 16.58025,20.3690156 C16.8745781,20.3690156 17.0531719,20.2086094 17.1155625,19.8871406 C17.1331875,19.7979844 17.1423281,19.5259219 17.1423281,19.0709531 L18.3601875,19.0709531 L18.3601875,19.2448594 C18.3601875,19.6821563 18.3510469,19.9407656 18.333375,20.02125 C18.3067969,20.2618594 18.213375,20.5027969 18.0523594,20.7437344 C17.7311719,21.2166563 17.2489687,21.4530938 16.6066875,21.4530938 C15.9913594,21.4530938 15.5094844,21.2255156 15.1613906,20.7706875 C14.9027812,20.4405469 14.7735,19.9230469 14.7735,19.2181875 L14.7735,16.90275 C14.7735,16.1979375 14.8982812,15.6804375 15.1478906,15.3502969 C15.4960313,14.895375 15.9733594,14.6678906 16.58025,14.6678906 C17.1781406,14.6678906 17.6513438,14.895375 17.9988281,15.3502969 C18.2400469,15.6804375 18.3602344,16.1979375 18.3602344,16.90275 L18.3602344,18.2813906 L18.3602344,18.2813906 Z" id="Shape"></path>
                        <path d="M12.1234687,15.7520156 C11.9181562,15.7520156 11.717625,15.8505 11.5212656,16.0465312 L11.5212656,20.0746875 C11.7175781,20.2709062 11.9181562,20.3690156 12.1234687,20.3690156 C12.4712344,20.3690156 12.6456562,20.0703281 12.6456562,19.4722969 L12.6456562,16.6487344 C12.6456094,16.0508437 12.4716094,15.7520156 12.1234687,15.7520156 Z" id="Path"></path>
                        <path d="M16.5669375,15.7520156 C16.1654531,15.7520156 15.9647344,16.0555312 15.9647344,16.6618594 L15.9647344,17.2775156 L17.1690938,17.2775156 L17.1690938,16.6618594 C17.1690938,16.0552031 16.9682813,15.7520156 16.5669375,15.7520156 Z" id="Path"></path>
                        <path d="M4.89717188,5.33985937 L4.89717188,8.9668125 L6.23540625,8.9668125 L6.23540625,5.33985937 L7.85451563,0 L6.48946875,0 L5.579625,3.51979687 L4.62932812,0 L3.21079687,0 C3.46064062,0.74953125 3.75060938,1.58367187 4.08075,2.50270312 C4.50014063,3.733875 4.77210938,4.67976562 4.89717188,5.33985937 Z" id="Path"></path>
                        <path d="M9.6478125,9.06051563 C10.2634687,9.06051563 10.7362031,8.83298437 11.0663437,8.37796875 C11.3162812,8.04782812 11.4410625,7.521375 11.4410625,6.79879687 L11.4410625,4.45664062 C11.4410625,3.74296875 11.3159531,3.220875 11.0663437,2.89073437 C10.7362031,2.43571875 10.2634687,2.2081875 9.6478125,2.2081875 C9.049875,2.2081875 8.58140625,2.43571875 8.2425,2.89073437 C7.99279688,3.220875 7.867875,3.74296875 7.867875,4.45664062 L7.867875,6.79875 C7.867875,7.51242188 7.99265625,8.03892187 8.2425,8.37792188 C8.58154688,8.83298438 9.04982812,9.06051563 9.6478125,9.06051563 Z M9.07223438,4.21570312 C9.07223438,3.60004687 9.26409375,3.29221875 9.6478125,3.29221875 C10.0315312,3.29221875 10.2232031,3.60004687 10.2232031,4.21570312 L10.2232031,7.02609375 C10.2232031,7.65084375 10.0315312,7.96289062 9.6478125,7.96289062 C9.26409375,7.96289062 9.07223437,7.65065625 9.07223437,7.02609375 L9.07223437,4.21570312 L9.07223438,4.21570312 Z" id="Shape"></path>
                        <path d="M13.327875,9.06051563 C13.7742656,9.06051563 14.233875,8.78390625 14.7066094,8.23059375 L14.7066094,8.96667188 L15.9244688,8.96667188 L15.9244688,2.28853125 L14.7066094,2.28853125 L14.7066094,7.38745313 C14.4388594,7.77117188 14.18475,7.96284375 13.9435313,7.96284375 C13.7827969,7.96284375 13.6890938,7.86473437 13.6624688,7.66846875 C13.6535156,7.65060938 13.6490156,7.49432812 13.6490156,7.2 L13.6490156,2.28853125 L12.4311563,2.28853125 L12.4311563,7.56159375 C12.4311563,8.01651563 12.4671094,8.35096875 12.5383125,8.56523438 C12.6544219,8.895375 12.9175313,9.06051563 13.327875,9.06051563 Z" id="Path"></path>
                    </g>
                </g>
            </g>
        </g>
    </g>
</svg>