<?xml version="1.0" encoding="UTF-8"?>
<svg width="192px" height="192px" viewBox="0 0 192 192" version="1.1" xmlns="http://www.w3.org/2000/svg" xmlns:xlink="http://www.w3.org/1999/xlink">
    <!-- Generator: Sketch 54.1 (76490) - https://sketchapp.com -->
    <title>Calculator</title>
    <desc>Created with Sketch.</desc>
    <defs>
        <path d="M56,107 C83.6142375,107 106,84.6142375 106,57 C106,29.3857625 83.6142375,7 56,7 C28.3857625,7 6,29.3857625 6,57 C6,84.6142375 28.3857625,107 56,107 Z" id="path-1"></path>
        <filter x="-72.5%" y="-71.5%" width="245.0%" height="245.0%" filterUnits="objectBoundingBox" id="filter-2">
            <feOffset dx="0" dy="1" in="SourceAlpha" result="shadowOffsetOuter1"></feOffset>
            <feGaussianBlur stdDeviation="24" in="shadowOffsetOuter1" result="shadowBlurOuter1"></feGaussianBlur>
            <feColorMatrix values="0 0 0 0 0.905315897   0 0 0 0 0.905315897   0 0 0 0 0.905315897  0 0 0 1 0" type="matrix" in="shadowBlurOuter1"></feColorMatrix>
        </filter>
        <path d="M56,112 C86.927946,112 112,86.927946 112,56 C112,25.072054 86.927946,-1.91180405e-13 56,-0 C25.072054,-1.91180405e-13 0,25.072054 0,56 C0,86.927946 25.072054,112 56,112 Z" id="path-3"></path>
        <filter x="-64.8%" y="-63.9%" width="229.6%" height="229.6%" filterUnits="objectBoundingBox" id="filter-4">
            <feMorphology radius="0.1" operator="dilate" in="SourceAlpha" result="shadowSpreadOuter1"></feMorphology>
            <feOffset dx="0" dy="1" in="shadowSpreadOuter1" result="shadowOffsetOuter1"></feOffset>
            <feMorphology radius="1" operator="erode" in="SourceAlpha" result="shadowInner"></feMorphology>
            <feOffset dx="0" dy="1" in="shadowInner" result="shadowInner"></feOffset>
            <feComposite in="shadowOffsetOuter1" in2="shadowInner" operator="out" result="shadowOffsetOuter1"></feComposite>
            <feGaussianBlur stdDeviation="24" in="shadowOffsetOuter1" result="shadowBlurOuter1"></feGaussianBlur>
            <feColorMatrix values="0 0 0 0 0.905315897   0 0 0 0 0.905315897   0 0 0 0 0.905315897  0 0 0 1 0" type="matrix" in="shadowBlurOuter1"></feColorMatrix>
        </filter>
    </defs>
    <g id="Update-changes" stroke="none" stroke-width="1" fill="none" fill-rule="evenodd">
        <g id="Logon-&amp;-register-008" transform="translate(-202.000000, -1579.000000)">
            <g id="Calculator" transform="translate(242.000000, 1617.000000)">
                <g id="Oval">
                    <use fill="black" fill-opacity="1" filter="url(#filter-2)" xlink:href="#path-1"></use>
                    <use fill="#F9FAFC" fill-rule="evenodd" xlink:href="#path-1"></use>
                </g>
                <g id="payment-(1)" transform="translate(31.000000, 31.000000)" fill="#878C8E" fill-rule="nonzero">
                    <path d="M46.6510078,15.1666328 L22.8177422,15.1666328 C21.0228281,15.1666328 19.5677422,16.6217187 19.5677422,18.4166328 L19.5677422,48.75 C19.5677422,50.5449141 21.0228281,52 22.8177422,52 L46.6511094,52 C48.4460234,52 49.9011094,50.5449141 49.9011094,48.75 L49.9011094,18.4166328 C49.9010078,16.6217187 48.4459219,15.1666328 46.6510078,15.1666328 Z M47.734375,48.75 C47.734375,49.3483047 47.2493125,49.8333672 46.6510078,49.8333672 L22.8177422,49.8333672 C22.2194375,49.8333672 21.734375,49.3483047 21.734375,48.75 L21.734375,18.4166328 C21.734375,17.8183281 22.2194375,17.3332656 22.8177422,17.3332656 L46.6511094,17.3332656 C47.2494141,17.3332656 47.7344766,17.8183281 47.7344766,18.4166328 L47.7344766,48.75 L47.734375,48.75 Z" id="Shape"></path>
                    <rect id="Rectangle" x="20.6510078" y="27.0833672" width="28.1666328" height="2.16663281"></rect>
                    <path d="M45.5677422,19.5 L24.984375,19.5 C24.3860703,19.5 23.9010078,19.9850625 23.9010078,20.5833672 L23.9010078,24.9167344 L26.0676406,24.9167344 L26.0676406,21.6667344 L44.484375,21.6667344 L44.484375,24.9167344 L46.6510078,24.9167344 L46.6510078,20.5833672 C46.6510078,19.9850625 46.1660469,19.5 45.5677422,19.5 Z" id="Path"></path>
                    <path d="M29.3177422,31.4166328 L24.984375,31.4166328 C24.3860703,31.4166328 23.9010078,31.9016953 23.9010078,32.5 L23.9010078,36.8333672 C23.9010078,37.4316719 24.3860703,37.9167344 24.984375,37.9167344 L29.3177422,37.9167344 C29.9160469,37.9167344 30.4011094,37.4316719 30.4011094,36.8333672 L30.4011094,32.5 C30.4010078,31.9016953 29.9160469,31.4166328 29.3177422,31.4166328 Z M28.234375,35.75 L26.0677422,35.75 L26.0677422,33.5833672 L28.234375,33.5833672 L28.234375,35.75 Z" id="Shape"></path>
                    <path d="M37.984375,31.4166328 L33.6510078,31.4166328 C33.0527031,31.4166328 32.5676406,31.9016953 32.5676406,32.5 L32.5676406,36.8333672 C32.5676406,37.4316719 33.0527031,37.9167344 33.6510078,37.9167344 L37.984375,37.9167344 C38.5826797,37.9167344 39.0677422,37.4316719 39.0677422,36.8333672 L39.0677422,32.5 C39.0677422,31.9016953 38.5826797,31.4166328 37.984375,31.4166328 Z M36.9010078,35.75 L34.734375,35.75 L34.734375,33.5833672 L36.9010078,33.5833672 L36.9010078,35.75 L36.9010078,35.75 Z" id="Shape"></path>
                    <path d="M29.3177422,40.0833672 L24.984375,40.0833672 C24.3860703,40.0833672 23.9010078,40.5684297 23.9010078,41.1667344 L23.9010078,45.5 C23.9010078,46.0983047 24.3860703,46.5833672 24.984375,46.5833672 L29.3177422,46.5833672 C29.9160469,46.5833672 30.4011094,46.0983047 30.4011094,45.5 L30.4011094,41.1666328 C30.4010078,40.5683281 29.9160469,40.0833672 29.3177422,40.0833672 Z M28.234375,44.4166328 L26.0677422,44.4166328 L26.0677422,42.25 L28.234375,42.25 L28.234375,44.4166328 Z" id="Shape"></path>
                    <path d="M37.984375,40.0833672 L33.6510078,40.0833672 C33.0527031,40.0833672 32.5676406,40.5684297 32.5676406,41.1667344 L32.5676406,45.5 C32.5676406,46.0983047 33.0527031,46.5833672 33.6510078,46.5833672 L37.984375,46.5833672 C38.5826797,46.5833672 39.0677422,46.0983047 39.0677422,45.5 L39.0677422,41.1666328 C39.0677422,40.5683281 38.5826797,40.0833672 37.984375,40.0833672 Z M36.9010078,44.4166328 L34.734375,44.4166328 L34.734375,42.25 L36.9010078,42.25 L36.9010078,44.4166328 L36.9010078,44.4166328 Z" id="Shape"></path>
                    <rect id="Rectangle" x="41.234375" y="31.4166328" width="4.33336719" height="2.16663281"></rect>
                    <rect id="Rectangle" x="41.234375" y="35.75" width="4.33336719" height="2.16663281"></rect>
                    <rect id="Rectangle" x="41.234375" y="40.0833672" width="4.33336719" height="2.16663281"></rect>
                    <rect id="Rectangle" x="41.234375" y="44.4166328" width="4.33336719" height="2.16663281"></rect>
                    <path d="M27.1510078,0 L3.31774219,0 C1.52282813,0 0.0677421875,1.45508594 0.0677421875,3.25 L0.0677421875,48.75 C0.0677421875,50.5449141 1.52282813,52 3.31774219,52 L17.4011094,52 L17.4011094,49.8333672 L3.31774219,49.8333672 C2.7194375,49.8333672 2.234375,49.3483047 2.234375,48.75 L2.234375,3.25 C2.234375,2.65169531 2.7194375,2.16663281 3.31774219,2.16663281 L27.1511094,2.16663281 C27.7493125,2.16663281 28.234375,2.65169531 28.234375,3.25 L28.234375,13 L30.4010078,13 L30.4010078,3.25 C30.4010078,1.45508594 28.9459219,0 27.1510078,0 Z" id="Path"></path>
                    <path d="M11.8944922,45.5 C11.4285234,42.7742656 9.29347656,40.6392187 6.56774219,40.17325 L6.56774219,35.75 L4.40100781,35.75 L4.40100781,41.1666328 C4.40100781,41.7649375 4.88607031,42.25 5.484375,42.25 C7.87759375,42.25 9.81774219,44.1901484 9.81774219,46.5833672 C9.81774219,47.1816719 10.3028047,47.6667344 10.9011094,47.6667344 L16.3177422,47.6667344 L16.3177422,45.5 L11.8944922,45.5 Z" id="Path"></path>
                    <path d="M24.984375,9.75 C22.5911562,9.75 20.6510078,7.80985156 20.6510078,5.41663281 C20.6510078,4.81832812 20.1659453,4.33326562 19.5676406,4.33326562 L10.9010078,4.33326562 C10.3027031,4.33326562 9.81764062,4.81832812 9.81764062,5.41663281 C9.81774219,7.80985156 7.87759375,9.75 5.484375,9.75 C4.88607031,9.75 4.40100781,10.2350625 4.40100781,10.8333672 L4.40100781,16.25 L6.56764063,16.25 L6.56764063,11.82675 C9.293375,11.3607813 11.4284219,9.22573438 11.8943906,6.5 L18.5742578,6.5 C19.0402266,9.22573437 21.1752734,11.3607812 23.9010078,11.82675 L23.9010078,11.9166328 L26.0676406,11.9166328 L26.0676406,10.8332656 C26.0677422,10.2350625 25.5826797,9.75 24.984375,9.75 Z" id="Path"></path>
                    <rect id="Rectangle" x="4.40100781" y="45.5" width="2.16663281" height="2.16663281"></rect>
                    <rect id="Rectangle" x="4.40100781" y="4.33336719" width="2.16663281" height="2.16663281"></rect>
                    <rect id="Rectangle" x="23.9010078" y="4.33336719" width="2.16663281" height="2.16663281"></rect>
                    <path d="M15.234375,17.3333672 L15.234375,15.1667344 C9.25132813,15.1667344 4.40100781,20.0169531 4.40100781,26.0001016 C4.40100781,31.98325 9.25132813,36.8333672 15.234375,36.8333672 L15.234375,34.6667344 C10.4479375,34.6667344 6.56774219,30.7865391 6.56774219,26.0001016 C6.56774219,21.2136641 10.4479375,17.3333672 15.234375,17.3333672 Z" id="Path"></path>
                </g>
                <g id="Oval-Copy-7" opacity="0.253696987" transform="translate(56.000000, 56.000000) rotate(-360.000000) translate(-56.000000, -56.000000) ">
                    <use fill="black" fill-opacity="1" filter="url(#filter-4)" xlink:href="#path-3"></use>
                    <use stroke="#878C8E" stroke-width="0.2" xlink:href="#path-3"></use>
                </g>
                <g id="Group-26" transform="translate(21.671642, 28.641791)">
                    <circle id="Oval" fill="#F2F2F2" cx="60.4477612" cy="15.6716418" r="2.23880597"></circle>
                    <circle id="Oval-Copy-10" stroke="#DFDFDF" stroke-width="0.5" cx="49.2537313" cy="1.49253731" r="1.49253731"></circle>
                    <circle id="Oval-Copy-11" fill="#E0E0E0" cx="11.1940299" cy="59.9701493" r="1.49253731"></circle>
                    <circle id="Oval-Copy-12" stroke="#F2F2F2" stroke-width="0.5" cx="0.746268657" cy="44.0298507" r="1"></circle>
                </g>
            </g>
        </g>
    </g>
</svg>