<?xml version="1.0" encoding="UTF-8"?>
<svg width="192px" height="192px" viewBox="0 0 192 192" version="1.1" xmlns="http://www.w3.org/2000/svg" xmlns:xlink="http://www.w3.org/1999/xlink">
    <!-- Generator: Sketch 54.1 (76490) - https://sketchapp.com -->
    <title>Notification &amp; Subscribe</title>
    <desc>Created with Sketch.</desc>
    <defs>
        <path d="M56,107 C83.6142375,107 106,84.6142375 106,57 C106,29.3857625 83.6142375,7 56,7 C28.3857625,7 6,29.3857625 6,57 C6,84.6142375 28.3857625,107 56,107 Z" id="path-1"></path>
        <filter x="-72.5%" y="-71.5%" width="245.0%" height="245.0%" filterUnits="objectBoundingBox" id="filter-2">
            <feOffset dx="0" dy="1" in="SourceAlpha" result="shadowOffsetOuter1"></feOffset>
            <feGaussianBlur stdDeviation="24" in="shadowOffsetOuter1" result="shadowBlurOuter1"></feGaussianBlur>
            <feColorMatrix values="0 0 0 0 0.905315897   0 0 0 0 0.905315897   0 0 0 0 0.905315897  0 0 0 1 0" type="matrix" in="shadowBlurOuter1"></feColorMatrix>
        </filter>
        <path d="M56,112 C86.927946,112 112,86.927946 112,56 C112,25.072054 86.927946,-1.91180405e-13 56,-0 C25.072054,-1.91180405e-13 0,25.072054 0,56 C0,86.927946 25.072054,112 56,112 Z" id="path-3"></path>
        <filter x="-64.8%" y="-63.9%" width="229.6%" height="229.6%" filterUnits="objectBoundingBox" id="filter-4">
            <feMorphology radius="0.1" operator="dilate" in="SourceAlpha" result="shadowSpreadOuter1"></feMorphology>
            <feOffset dx="0" dy="1" in="shadowSpreadOuter1" result="shadowOffsetOuter1"></feOffset>
            <feMorphology radius="1" operator="erode" in="SourceAlpha" result="shadowInner"></feMorphology>
            <feOffset dx="0" dy="1" in="shadowInner" result="shadowInner"></feOffset>
            <feComposite in="shadowOffsetOuter1" in2="shadowInner" operator="out" result="shadowOffsetOuter1"></feComposite>
            <feGaussianBlur stdDeviation="24" in="shadowOffsetOuter1" result="shadowBlurOuter1"></feGaussianBlur>
            <feColorMatrix values="0 0 0 0 0.905315897   0 0 0 0 0.905315897   0 0 0 0 0.905315897  0 0 0 1 0" type="matrix" in="shadowBlurOuter1"></feColorMatrix>
        </filter>
    </defs>
    <g id="Update-changes" stroke="none" stroke-width="1" fill="none" fill-rule="evenodd">
        <g id="Logon-&amp;-register-008" transform="translate(-17.000000, -1579.000000)">
            <g id="Notification-&amp;-Subscribe" transform="translate(57.000000, 1617.000000)">
                <g id="Oval">
                    <use fill="black" fill-opacity="1" filter="url(#filter-2)" xlink:href="#path-1"></use>
                    <use fill="#F9FAFC" fill-rule="evenodd" xlink:href="#path-1"></use>
                </g>
                <g id="notification" transform="translate(34.000000, 35.000000)" fill="#878C8E" fill-rule="nonzero" stroke="#FFFFFF" stroke-width="0.4">
                    <path d="M22,44 C24.1323672,44 25.8671875,42.2651797 25.8671875,40.1328125 L25.8671875,38.84375 L38.84375,38.84375 L38.84375,36.265625 C38.6802109,35.7533516 38.5696953,32.7229375 35.3439453,29.7397031 C34.2912969,28.7662891 33.6875,27.3860469 33.6875,25.953125 L33.6875,16.7578125 C33.6875,11.5424375 30.2023906,7.12026563 25.4227187,5.66422656 C25.7059687,5.12685938 25.8671875,4.51567187 25.8671875,3.8671875 C25.8671875,1.73482031 24.1323672,0 22,0 C19.8676328,0 18.1328125,1.73482031 18.1328125,3.8671875 C18.1328125,4.51567187 18.2940312,5.12685938 18.5772812,5.66422656 C13.7976094,7.12017969 10.3125,11.5424375 10.3125,16.7578125 L10.3125,25.953125 C10.3125,27.3860469 9.70878906,28.7662031 8.65605469,29.7397031 C6.39925,31.8267812 5.15633594,34.4566406 5.15625,37.1448516 L5.15625,38.84375 L18.1328125,38.84375 L18.1328125,40.1328125 C18.1328125,42.2651797 19.8676328,44 22,44 Z M23.2890625,40.1328125 C23.2890625,40.8436016 22.7107891,41.421875 22,41.421875 C21.2892109,41.421875 20.7109375,40.8436016 20.7109375,40.1328125 L20.7109375,38.84375 L23.2890625,38.84375 L23.2890625,40.1328125 Z M20.7109375,3.8671875 C20.7109375,3.15639844 21.2892109,2.578125 22,2.578125 C22.7107891,2.578125 23.2890625,3.15639844 23.2890625,3.8671875 C23.2890625,4.57797656 22.7107891,5.15625 22,5.15625 C21.2892109,5.15625 20.7109375,4.57797656 20.7109375,3.8671875 Z M12.890625,16.7578125 C12.890625,11.7822891 16.9770391,7.734375 22,7.734375 C27.022875,7.734375 31.109375,11.7822891 31.109375,16.7578125 L31.109375,25.953125 C31.109375,27.8572422 31.8204219,29.6987969 33.0801797,31.109375 L10.9197344,31.109375 C12.1795781,29.6987969 12.890625,27.8572422 12.890625,25.953125 L12.890625,16.7578125 Z M8.72884375,33.6875 L35.2711563,33.6875 C35.7587656,34.5131016 36.0757891,35.3833047 36.2024609,36.265625 L7.797625,36.265625 C7.92421094,35.3832187 8.24123438,34.5130156 8.72884375,33.6875 Z" id="Shape"></path>
                    <path d="M6.92871094,0.66515625 C3.04244531,4.25639844 0.584546875,9.11238281 0.0078203125,14.3385859 L2.57039062,14.6214062 C3.07896875,10.0124062 5.24828906,5.72842188 8.67848438,2.55861719 L6.92871094,0.66515625 Z" id="Path"></path>
                    <path d="M43.9921797,14.3385859 C43.4154531,9.11229688 40.9574687,4.2563125 37.0712031,0.66515625 L35.3216016,2.55861719 C38.7517969,5.72833594 40.9210312,10.0123203 41.4296953,14.6214062 L43.9921797,14.3385859 Z" id="Path"></path>
                    <path d="M12.9248281,5.69825781 L11.3103203,3.68826563 C7.81532812,6.49567188 5.62142969,10.48025 5.13278906,14.9080938 L7.69535937,15.1909141 C8.10854687,11.4463594 9.96574219,8.07511719 12.9248281,5.69825781 Z" id="Path"></path>
                    <path d="M32.6897656,3.68826563 L31.0752578,5.69825781 C34.0343437,8.07520313 35.8915391,11.4463594 36.3047266,15.1908281 L38.8672109,14.9080938 C38.3786562,10.4803359 36.1848437,6.49575781 32.6897656,3.68826563 L32.6897656,3.68826563 Z" id="Path"></path>
                </g>
                <g id="Oval-Copy-7" opacity="0.253696987" transform="translate(56.000000, 56.000000) rotate(-360.000000) translate(-56.000000, -56.000000) ">
                    <use fill="black" fill-opacity="1" filter="url(#filter-4)" xlink:href="#path-3"></use>
                    <use stroke="#878C8E" stroke-width="0.2" xlink:href="#path-3"></use>
                </g>
                <g id="Group-26" transform="translate(21.671642, 28.641791)">
                    <circle id="Oval" fill="#F2F2F2" cx="60.4477612" cy="15.6716418" r="2.23880597"></circle>
                    <circle id="Oval-Copy" fill="#F2F2F2" cx="11.238806" cy="41.238806" r="2.23880597"></circle>
                    <circle id="Oval-Copy-10" stroke="#DFDFDF" stroke-width="0.5" cx="49.2537313" cy="1.49253731" r="1.49253731"></circle>
                    <circle id="Oval-Copy-11" fill="#E0E0E0" cx="11.1940299" cy="59.9701493" r="1.49253731"></circle>
                    <circle id="Oval-Copy-12" stroke="#F2F2F2" stroke-width="0.5" cx="0.746268657" cy="44.0298507" r="1"></circle>
                </g>
            </g>
        </g>
    </g>
</svg>