<?xml version="1.0" encoding="UTF-8"?>
<svg width="192px" height="192px" viewBox="0 0 192 192" version="1.1" xmlns="http://www.w3.org/2000/svg" xmlns:xlink="http://www.w3.org/1999/xlink">
    <!-- Generator: Sketch 54.1 (76490) - https://sketchapp.com -->
    <title>Receipt manager</title>
    <desc>Created with Sketch.</desc>
    <defs>
        <path d="M56,107 C83.6142375,107 106,84.6142375 106,57 C106,29.3857625 83.6142375,7 56,7 C28.3857625,7 6,29.3857625 6,57 C6,84.6142375 28.3857625,107 56,107 Z" id="path-1"></path>
        <filter x="-72.5%" y="-71.5%" width="245.0%" height="245.0%" filterUnits="objectBoundingBox" id="filter-2">
            <feOffset dx="0" dy="1" in="SourceAlpha" result="shadowOffsetOuter1"></feOffset>
            <feGaussianBlur stdDeviation="24" in="shadowOffsetOuter1" result="shadowBlurOuter1"></feGaussianBlur>
            <feColorMatrix values="0 0 0 0 0.905315897   0 0 0 0 0.905315897   0 0 0 0 0.905315897  0 0 0 1 0" type="matrix" in="shadowBlurOuter1"></feColorMatrix>
        </filter>
        <path d="M56,112 C86.927946,112 112,86.927946 112,56 C112,25.072054 86.927946,-1.91180405e-13 56,-0 C25.072054,-1.91180405e-13 0,25.072054 0,56 C0,86.927946 25.072054,112 56,112 Z" id="path-3"></path>
        <filter x="-64.8%" y="-63.9%" width="229.6%" height="229.6%" filterUnits="objectBoundingBox" id="filter-4">
            <feMorphology radius="0.1" operator="dilate" in="SourceAlpha" result="shadowSpreadOuter1"></feMorphology>
            <feOffset dx="0" dy="1" in="shadowSpreadOuter1" result="shadowOffsetOuter1"></feOffset>
            <feMorphology radius="1" operator="erode" in="SourceAlpha" result="shadowInner"></feMorphology>
            <feOffset dx="0" dy="1" in="shadowInner" result="shadowInner"></feOffset>
            <feComposite in="shadowOffsetOuter1" in2="shadowInner" operator="out" result="shadowOffsetOuter1"></feComposite>
            <feGaussianBlur stdDeviation="24" in="shadowOffsetOuter1" result="shadowBlurOuter1"></feGaussianBlur>
            <feColorMatrix values="0 0 0 0 0.905315897   0 0 0 0 0.905315897   0 0 0 0 0.905315897  0 0 0 1 0" type="matrix" in="shadowBlurOuter1"></feColorMatrix>
        </filter>
    </defs>
    <g id="Update-changes" stroke="none" stroke-width="1" fill="none" fill-rule="evenodd">
        <g id="Logon-&amp;-register-008" transform="translate(-202.000000, -1211.000000)">
            <g id="Receipt-manager" transform="translate(242.000000, 1249.000000)">
                <g id="Oval">
                    <use fill="black" fill-opacity="1" filter="url(#filter-2)" xlink:href="#path-1"></use>
                    <use fill="#F9FAFC" fill-rule="evenodd" xlink:href="#path-1"></use>
                </g>
                <g id="approve-invoice" transform="translate(35.000000, 34.000000)" fill="#878C8E" fill-rule="nonzero">
                    <path d="M39.1221448,0 L11.8275611,0 C10.2655792,0 8.99474661,1.27083258 8.99474661,2.83281448 L8.99474661,9.17215385 C3.8169638,10.6539367 0.0161538462,15.4300588 0.0161538462,21.0773484 C0.0161538462,26.724638 3.81686878,31.5007602 8.99474661,32.982543 L8.99474661,43.8895249 C8.99474661,45.4515068 10.2655792,46.7223394 11.8275611,46.7223394 L34.1325068,46.7223394 C34.3971448,46.7223394 34.6508552,46.6172443 34.8380498,46.4301448 L41.6626697,39.6054299 C41.8497692,39.4183303 41.9548643,39.1645249 41.9548643,38.8998869 L41.9548643,2.83281448 C41.9548643,1.27083258 40.6841267,0 39.1221448,0 Z M11.8275611,1.99547511 L39.1221448,1.99547511 C39.5837647,1.99547511 39.9593891,2.37109955 39.9593891,2.83281448 L39.9593891,5.84398643 L10.9902217,5.84398643 L10.9902217,2.83281448 C10.9902217,2.37109955 11.3658462,1.99547511 11.8275611,1.99547511 Z M2.01162896,21.0772534 C2.01162896,15.350905 6.67030317,10.6922308 12.3966516,10.6922308 C18.123,10.6922308 22.7816742,15.350905 22.7816742,21.0772534 C22.7816742,26.8036018 18.123,31.462371 12.3966516,31.462371 C6.67030317,31.462371 2.01162896,26.8036018 2.01162896,21.0772534 Z M10.9902217,43.8894299 L10.9902217,33.377457 C11.4520317,33.4299095 11.9211584,33.4578462 12.3967466,33.4578462 C16.115457,33.4578462 19.4561674,31.8094887 21.7274932,29.2053937 L27.8408688,29.2053937 C28.391905,29.2053937 28.8386063,28.7586923 28.8386063,28.2076561 C28.8386063,27.6566199 28.391905,27.2099186 27.8408688,27.2099186 L23.1485566,27.2099186 C24.0163982,25.6943077 24.5723756,23.9786742 24.7301131,22.150724 L27.8407738,22.150724 C28.39181,22.150724 28.8385113,21.7040226 28.8385113,21.1529864 C28.8385113,20.6019502 28.39181,20.1552489 27.8407738,20.1552489 L24.7427511,20.1552489 C24.607819,18.3313846 24.0756923,16.6164163 23.2332217,15.0961493 L27.8406787,15.0961493 C28.3917149,15.0961493 28.8384163,14.649448 28.8384163,14.0984118 C28.8384163,13.5473756 28.3917149,13.1006742 27.8406787,13.1006742 L21.856724,13.1006742 C19.5839729,10.4093484 16.186724,8.69666063 12.3964615,8.69666063 C11.9208733,8.69666063 11.4517466,8.72459729 10.9899367,8.77704977 L10.9899367,7.83946154 L39.9591041,7.83946154 L39.9591041,37.9019593 L35.9672986,37.9019593 C34.4052217,37.9019593 33.1345792,39.1727919 33.1345792,40.7346787 L33.1345792,44.7266742 L11.8275611,44.7266742 C11.3658462,44.7266742 10.9902217,44.3511448 10.9902217,43.8894299 Z M35.1303394,43.3155882 L35.1303394,40.7347738 C35.1303394,40.2730588 35.5059638,39.8975294 35.9675837,39.8975294 L38.5483982,39.8975294 L35.1303394,43.3155882 Z" id="Shape"></path>
                    <path d="M31.7609321,15.0961493 L35.074371,15.0961493 C35.6254072,15.0961493 36.0721086,14.649448 36.0721086,14.0984118 C36.0721086,13.5473756 35.6254072,13.1006742 35.074371,13.1006742 L31.7609321,13.1006742 C31.2098959,13.1006742 30.7631946,13.5473756 30.7631946,14.0984118 C30.7631946,14.649448 31.2098959,15.0961493 31.7609321,15.0961493 Z" id="Path"></path>
                    <path d="M31.7609321,22.150724 L35.074371,22.150724 C35.6254072,22.150724 36.0721086,21.7040226 36.0721086,21.1529864 C36.0721086,20.6019502 35.6254072,20.1552489 35.074371,20.1552489 L31.7609321,20.1552489 C31.2098959,20.1552489 30.7631946,20.6019502 30.7631946,21.1529864 C30.7631946,21.7040226 31.2098959,22.150724 31.7609321,22.150724 Z" id="Path"></path>
                    <path d="M31.7609321,29.2053937 L35.074371,29.2053937 C35.6254072,29.2053937 36.0721086,28.7586923 36.0721086,28.2076561 C36.0721086,27.6566199 35.6254072,27.2099186 35.074371,27.2099186 L31.7609321,27.2099186 C31.2098959,27.2099186 30.7631946,27.6566199 30.7631946,28.2076561 C30.7631946,28.7586923 31.2098959,29.2053937 31.7609321,29.2053937 Z" id="Path"></path>
                    <path d="M35.074371,36.2599683 C35.6254072,36.2599683 36.0721086,35.813267 36.0721086,35.2622308 C36.0721086,34.7111946 35.6254072,34.2644932 35.074371,34.2644932 L25.7407738,34.2644932 C25.1897376,34.2644932 24.7430362,34.7111946 24.7430362,35.2622308 C24.7430362,35.813267 25.1897376,36.2599683 25.7407738,36.2599683 L35.074371,36.2599683 Z" id="Path"></path>
                    <path d="M20.143086,16.044095 L18.9258462,14.8268552 C18.5980181,14.4991222 18.1622443,14.3185792 17.698629,14.3185792 C17.2350136,14.3185792 16.7992398,14.4991222 16.4714118,14.8268552 L10.0868416,21.2114253 L8.32198643,19.4465701 C7.99425339,19.1189321 7.55838462,18.9383891 7.09486425,18.9383891 C6.63134389,18.9383891 6.19547511,19.1189321 5.86774208,19.4466652 L4.65021719,20.664095 C3.97365611,21.3407511 3.97365611,22.4417783 4.65031222,23.1184344 L8.85952941,27.3275566 C9.18735747,27.6554796 9.62322624,27.8360226 10.0868416,27.8360226 C10.0868416,27.8360226 10.0869367,27.8360226 10.0869367,27.8360226 C10.550457,27.8360226 10.9863258,27.6554796 11.3139638,27.3277466 L20.143181,18.4985294 C20.8197421,17.8218733 20.8197421,16.7207511 20.143086,16.044095 Z M10.0867466,25.7327919 L6.24507692,21.8912172 L7.09476923,21.0415249 L9.38120362,23.3279593 C9.7708914,23.7176471 10.4026018,23.7176471 10.7922896,23.3279593 L17.698629,16.4216199 L18.5483213,17.2713122 L10.0867466,25.7327919 Z" id="Shape"></path>
                </g>
                <g id="Oval-Copy-7" opacity="0.253696987" transform="translate(56.000000, 56.000000) rotate(-360.000000) translate(-56.000000, -56.000000) ">
                    <use fill="black" fill-opacity="1" filter="url(#filter-4)" xlink:href="#path-3"></use>
                    <use stroke="#878C8E" stroke-width="0.2" xlink:href="#path-3"></use>
                </g>
                <g id="Group-26" transform="translate(21.671642, 28.641791)">
                    <circle id="Oval" fill="#F2F2F2" cx="60.4477612" cy="15.6716418" r="2.23880597"></circle>
                    <circle id="Oval-Copy" fill="#F2F2F2" cx="11.238806" cy="41.238806" r="2.23880597"></circle>
                    <circle id="Oval-Copy-10" stroke="#DFDFDF" stroke-width="0.5" cx="49.2537313" cy="1.49253731" r="1.49253731"></circle>
                    <circle id="Oval-Copy-11" fill="#E0E0E0" cx="11.1940299" cy="59.9701493" r="1.49253731"></circle>
                    <circle id="Oval-Copy-12" stroke="#F2F2F2" stroke-width="0.5" cx="0.746268657" cy="44.0298507" r="1"></circle>
                </g>
            </g>
        </g>
    </g>
</svg>