<?xml version="1.0" standalone="no"?>
<!DOCTYPE svg PUBLIC "-//W3C//DTD SVG 1.1//EN" "http://www.w3.org/Graphics/SVG/1.1/DTD/svg11.dtd" >
<svg xmlns="http://www.w3.org/2000/svg">
<metadata>
Created by FontPrep 20130207 at Mon Aug  3 10:13:27 2015
 By DSType
Copyright (c) 2012 by Dino dos Santos. All rights reserved.
</metadata>
<defs>
<font id="e59553d184a38c894da53c4ab749e0c9" horiz-adv-x='1024' >
  <font-face 
    font-family="Prelo-Light"
    font-weight="300"
    font-stretch="normal"
    units-per-em="2048"
    panose-1="0 0 4 0 0 0 0 0 0 0"
    ascent="1536"
    descent="-512"
    x-height="1024"
    cap-height="1393"
    bbox="-180 -432 2081.01 1843"
    underline-thickness="102"
    underline-position="-102"
    unicode-range="U+0020-FB02"
  />
<missing-glyph horiz-adv-x="1208" 
d="M195 25h821l-410 467zM1042 37v952l-419 -479zM166 993v-960l422 477zM606 530l414 469h-830zM1065 1024v-1024h-922v1024h922z" />
    <glyph glyph-name="fi" unicode="fi" horiz-adv-x="1062" 
d="M221 1096q0 178 88 258t258 80t326 -70l-14 -74q-156 64 -299 64q-144 0 -202 -65t-59 -193v-72h605v-1024h-99v950h-506v-950h-98v950h-170v66l170 8v72z" />
    <glyph glyph-name="fl" unicode="fl" horiz-adv-x="1062" 
d="M319 0h-98v950h-170v66l170 8v72q0 178 88 258q87 80 243 80t298 -60h74v-1374h-99v1294q-141 60 -265 60q-239 1 -241 -258v-72h310v-74h-310v-950z" />
    <glyph glyph-name="f_f" unicode="ff" horiz-adv-x="1310" 
d="M825 1024v86q-1 180 63 252t208 72q72 0 147 -13l-10 -78q-86 10 -119 11q-110 0 -150 -62t-40 -196v-72h309v-74h-309v-950h-99v950h-506v-950h-98v950h-170v66l170 8v86q-1 180 63 252t208 72q70 0 147 -13l-10 -78q-86 10 -119 11q-111 0 -151 -62t-40 -196v-72h506z
" />
    <glyph glyph-name="f_f_i" unicode="ffi" horiz-adv-x="1667" 
d="M319 950v-950h-98v950h-170v66l170 8v86q-1 180 63 252t208 72q70 0 147 -13l-10 -78q-86 10 -119 11q-111 0 -151 -62t-40 -196v-72h506v72q0 178 88 258t258 80t326 -70l-14 -74q-156 64 -299 64q-144 0 -202 -65t-58 -193v-72h604v-1024h-98v950h-506v-950h-99v950
h-506z" />
    <glyph glyph-name="f_f_l" unicode="ffl" horiz-adv-x="1667" 
d="M319 950v-950h-98v950h-170v66l170 8v86q-1 180 63 252t208 72q70 0 147 -13l-10 -78q-86 10 -119 11q-111 0 -151 -62t-40 -196v-72h506v72q0 178 88 258q87 80 243 80t298 -60h74v-1374h-98v1294q-141 60 -265 60q-241 1 -241 -258v-72h309v-74h-309v-950h-99v950h-506
z" />
    <glyph glyph-name=".notdef" horiz-adv-x="1208" 
d="M195 25h821l-410 467zM1042 37v952l-419 -479zM166 993v-960l422 477zM606 530l414 469h-830zM1065 1024v-1024h-922v1024h922z" />
    <glyph glyph-name=".null" horiz-adv-x="0" 
 />
    <glyph glyph-name="nonmarkingreturn" horiz-adv-x="681" 
 />
    <glyph glyph-name="space" unicode=" " horiz-adv-x="368" 
 />
    <glyph glyph-name="exclam" unicode="!" horiz-adv-x="376" 
d="M238 233v-233h-99v233h99zM238 1393v-959h-99v959h99z" />
    <glyph glyph-name="quotedbl" unicode="&#x22;" horiz-adv-x="786" 
d="M647 1393l-10 -238h-78l-10 238h98zM238 1393l-11 -238h-77l-11 238h99z" />
    <glyph glyph-name="numbersign" unicode="#" horiz-adv-x="1239" 
d="M776 332l39 360h-352l-39 -360h352zM469 762h352l29 262h74l-29 -262h205l-6 -70h-205l-39 -360h205l-6 -70h-205l-29 -262h-74l29 262h-352l-29 -262h-74l29 262h-205l8 70h205l37 360h-205l9 70h204l27 262h74z" />
    <glyph glyph-name="dollar" unicode="$" 
d="M592 -205v185q-250 6 -453 65l21 88q234 -61 438 -61t294 86q89 86 89 204q0 58 -30 108t-65 80q-36 30 -98 56t-94 34l-88 24q-173 40 -309 137q-137 97 -137 268q0 170 118 255t314 89v184h49v-184q203 -4 422 -65l-23 -88q-240 61 -426 61q-346 0 -346 -258
q0 -215 402 -313q420 -94 420 -383q0 -177 -123 -279t-326 -108v-185h-49z" />
    <glyph glyph-name="percent" unicode="%" horiz-adv-x="1556" 
d="M1185 51q197 0 197 214t-198 214t-197 -214q0 -214 198 -214zM1184 -4q-127 0 -195 72q-67 72 -67 198t67 197q68 72 195 72q128 0 196 -72t68 -199q0 -128 -68 -198t-196 -70zM372 913q198 0 198 214t-198 214t-198 -214t198 -214zM434 0h-69l757 1393h70zM373 858
q-127 0 -196 72t-69 198t69 198q69 71 196 71t195 -72t67 -198q1 -125 -67 -197t-195 -72z" />
    <glyph glyph-name="ampersand" unicode="&#x26;" horiz-adv-x="1443" 
d="M233 374q0 -109 68 -200q37 -49 115 -79t188 -29q244 -1 408 161l-465 471q-150 -66 -232 -140t-82 -184zM903 1120q0 221 -264 221q-55 -1 -111 -27q-92 -43 -118 -146q-11 -35 -11 -68q0 -84 43 -150t133 -157q328 143 328 327zM584 -20q-221 0 -337 99t-116 267
q0 125 80 221t281 185l-41 47q-114 125 -131 189q-17 63 -17 106q0 156 108 238q109 82 259 81q150 0 238 -77t89 -220q0 -102 -81 -194t-283 -185l444 -442q139 162 174 422h95q-43 -297 -205 -490l184 -188l-65 -72l-187 195q-193 -182 -489 -182z" />
    <glyph glyph-name="quotesingle" unicode="'" horiz-adv-x="376" 
d="M238 1393l-11 -238h-77l-11 238h99z" />
    <glyph glyph-name="parenleft" unicode="(" horiz-adv-x="675" 
d="M164 697q0 249 91 506t253 476h70q-317 -508 -317 -980t317 -986h-70q-160 219 -252 477t-92 507z" />
    <glyph glyph-name="parenright" unicode=")" horiz-adv-x="675" 
d="M512 697q0 -249 -92 -507t-252 -477h-70q317 514 317 986t-317 980h70q162 -219 253 -476t91 -506z" />
    <glyph glyph-name="asterisk" unicode="*" horiz-adv-x="860" 
d="M399 1393h62l-6 -271l295 70l18 -59l-299 -54l193 -245l-48 -37l-186 258l-182 -258l-47 37l192 245l-299 54l19 59l295 -70z" />
    <glyph glyph-name="plus" unicode="+" horiz-adv-x="1024" 
d="M553 584h332v-82h-332v-332h-82v332h-332v82h332v331h82v-331z" />
    <glyph glyph-name="comma" unicode="," horiz-adv-x="376" 
d="M139 0v233h99v-233l-56 -266h-39l31 266h-35z" />
    <glyph glyph-name="hyphen" unicode="-" horiz-adv-x="1024" 
d="M885 502h-746v82h746v-82z" />
    <glyph glyph-name="period" unicode="." horiz-adv-x="376" 
d="M238 0h-99v233h99v-233z" />
    <glyph glyph-name="slash" unicode="/" horiz-adv-x="1105" 
d="M975 1393l-758 -1393h-86l758 1393h86z" />
    <glyph glyph-name="zero" unicode="0" horiz-adv-x="1208" 
d="M604 1329q-362 -1 -362 -633t362 -633q362 0 362 633t-362 633zM604 1413q470 0 465 -706q0 -727 -465 -727t-465 727q0 302 93 494q50 101 144 157t228 55z" />
    <glyph glyph-name="one" unicode="1" horiz-adv-x="737" 
d="M588 1403v-1403h-96v1280l-396 -227l-28 82q305 158 452 268h68z" />
    <glyph glyph-name="two" unicode="2" horiz-adv-x="1126" 
d="M139 0v100q725 492 725 881q0 106 -36 180t-94 106q-102 56 -199 56q-180 0 -365 -92l-31 80q219 102 419 102t304 -117t105 -290q0 -430 -688 -914v-4h708v-88h-848z" />
    <glyph glyph-name="three" unicode="3" horiz-adv-x="1167" 
d="M1028 358q0 -182 -116 -280t-362 -98t-411 94l35 78q158 -88 387 -89q119 0 199 32t112 85q53 87 56 182q0 131 -98 212t-298 81h-163v82h159q170 0 267 90q96 90 96 215q0 203 -186 267q-61 20 -144 20q-182 0 -352 -88l-31 78q174 94 385 94t317 -95t107 -265
q0 -131 -82 -220t-205 -124v-4q150 -23 239 -116t89 -231z" />
    <glyph glyph-name="four" unicode="4" horiz-adv-x="1208" 
d="M780 479v785h-4q-178 -362 -553 -785h557zM879 1393v-914h211v-82h-211v-397h-99v397h-661v82q442 481 635 914h125z" />
    <glyph glyph-name="five" unicode="5" horiz-adv-x="1167" 
d="M616 868q196 0 305 -114q107 -114 107 -322q0 -209 -129 -331q-129 -121 -342 -121t-418 102l31 76q188 -94 368 -94t284 98t104 284t-135 283q-78 55 -197 55q-188 0 -315 -174l-76 6l39 777h704v-88h-618l-37 -603l4 -2q125 168 321 168z" />
    <glyph glyph-name="six" unicode="6" horiz-adv-x="1167" 
d="M583 846q-99 0 -187 -60t-152 -161q-7 -409 167 -516q73 -45 197 -45t220 102q98 104 98 266t-72 288q-73 126 -271 126zM595 932q209 0 321 -126t112 -348t-122 -350t-306 -128q-461 0 -461 634q0 442 158 621q158 178 397 178q133 0 291 -47l-14 -78q-141 41 -261 41
t-204 -46t-133 -113t-90 -183t-45 -272l4 -2q143 219 353 219z" />
    <glyph glyph-name="seven" unicode="7" horiz-adv-x="1024" 
d="M797 1305h-678v88h786v-74q-461 -737 -555 -1319h-108q43 288 209 658t346 642v5z" />
    <glyph glyph-name="eight" unicode="8" horiz-adv-x="1208" 
d="M240 350q0 -127 88 -211t278 -84t277 81q86 81 86 206q0 190 -267 298q-41 17 -110 42q-160 -53 -256 -129t-96 -203zM592 1337q-62 0 -128 -18q-66 -17 -126 -81q-59 -64 -59 -172t89 -178t246 -116q152 51 234 119t82 178q0 78 -33 134t-86 83t-105 39t-114 12z
M1069 335q0 -157 -122 -256t-344 -99t-343 96t-121 252q1 156 101 245q100 88 268 146v4q-156 57 -242 138t-86 225t117 236q117 91 307 91t307 -91q117 -90 117 -230t-82 -216t-248 -141v-4q180 -70 276 -154q95 -85 95 -242z" />
    <glyph glyph-name="nine" unicode="9" horiz-adv-x="1167" 
d="M560 1329q-124 0 -221 -103t-97 -266t66 -279q78 -134 278 -134q98 1 186 61t152 160q4 240 -59 387q-75 174 -305 174zM572 461q-210 0 -322 126t-111 348q0 222 122 350t306 128q461 0 461 -635q0 -443 -159 -622q-159 -178 -396 -176q-133 0 -291 47l15 77
q141 -41 260 -41q119 1 203 47t135 112q49 67 90 186t45 270l-4 2q-144 -219 -354 -219z" />
    <glyph glyph-name="colon" unicode=":" horiz-adv-x="376" 
d="M238 0h-99v233h99v-233zM238 709h-99v233h99v-233z" />
    <glyph glyph-name="semicolon" unicode=";" horiz-adv-x="376" 
d="M139 0v233h99v-233l-56 -266h-39l31 266h-35zM238 942v-233h-99v233h99z" />
    <glyph glyph-name="less" unicode="&#x3c;" horiz-adv-x="778" 
d="M639 879v-91l-397 -276l397 -276v-91l-500 334v66z" />
    <glyph glyph-name="equal" unicode="=" horiz-adv-x="1024" 
d="M885 297h-746v82h746v-82zM885 707h-746v81h746v-81z" />
    <glyph glyph-name="greater" unicode="&#x3e;" horiz-adv-x="778" 
d="M139 139v92l398 281l-398 281v92l500 -340v-66z" />
    <glyph glyph-name="question" unicode="?" horiz-adv-x="983" 
d="M463 0h-98v233h98v-233zM506 1413q186 0 272 -100t86 -223t-42 -200t-101 -121t-119 -82q-144 -92 -143 -195v-62h-88v62q0 134 139 229q57 39 115 81q139 102 139 261q0 258 -303 258q-125 0 -311 -70l-31 84q201 78 387 78z" />
    <glyph glyph-name="at" unicode="@" horiz-adv-x="1699" 
d="M1053 532h-193q-144 0 -202 -46t-58 -129t53 -128t156 -45q143 0 244 86v262zM1133 684v-487q102 1 182 33t127 81t89 138t42 217q0 272 -200 440t-484 168q-334 0 -547 -210t-213 -532t196 -521q196 -198 498 -197l-6 -60q-330 0 -543 217t-213 560q1 343 235 573
t593 231q315 0 532 -187t217 -480q0 -229 -133 -381t-377 -152h-75v80h-4q-109 -94 -247 -94t-210 58t-72 163q0 242 336 242h197v96q0 100 -46 150t-160 50t-261 -44l-17 57q154 51 292 51t205 -58t67 -202z" />
    <glyph glyph-name="A" unicode="A" horiz-adv-x="1331" 
d="M670 1276l-295 -795h583l-284 795h-4zM979 393h-627l-145 -393h-109l512 1403h127l496 -1403h-115z" />
    <glyph glyph-name="B" unicode="B" horiz-adv-x="1249" 
d="M262 92h461q143 0 221 73t78 209t-84 213t-246 77h-430v-572zM262 756h424q295 0 295 272q0 127 -77 200t-218 72h-424v-544zM737 0h-577v1393h536q190 -1 292 -97t102 -238q1 -280 -246 -345v-4q139 -27 213 -119t73 -223q0 -171 -101 -269t-292 -98z" />
    <glyph glyph-name="C" unicode="C" horiz-adv-x="1269" 
d="M139 688q1 142 15 240q72 485 536 485q246 0 475 -65l-22 -88q-246 61 -393.5 61t-232.5 -34t-136 -89q-133 -143 -133 -500q0 -358 133 -502q114 -124 315 -124t447 61l22 -88q-229 -66 -427.5 -65.5t-313.5 55.5t-175.5 160.5t-85 228t-24.5 264.5z" />
    <glyph glyph-name="D" unicode="D" horiz-adv-x="1331" 
d="M262 92h371q451 0 450 615q0 256 -89 415q-99 178 -361 178h-371v-1208zM160 1393h473q559 0 559 -686q0 -707 -559 -707h-473v1393z" />
    <glyph glyph-name="E" unicode="E" horiz-adv-x="1146" 
d="M262 1300v-530h643v-92h-643v-586h746v-92h-848v1393h837v-93h-735z" />
    <glyph glyph-name="F" unicode="F" horiz-adv-x="1095" 
d="M977 1300h-715v-571h623v-92h-623v-637h-102v1393h817v-93z" />
    <glyph glyph-name="G" unicode="G" horiz-adv-x="1310" 
d="M1151 684v-580q-72 -39 -119 -60t-138 -42.5t-187 -21.5q-335 0 -459 216q-110 192 -109 492q1 142 15 240q34 226 152 346q138 138 401 139q215 0 444 -65l-25 -88q-246 61 -385 61t-224 -34t-136 -89q-133 -143 -133 -500q0 -358 133 -502q114 -124 334 -124
q180 0 334 102v418h-322v92h424z" />
    <glyph glyph-name="H" unicode="H" horiz-adv-x="1310" 
d="M160 0v1393h102v-623h787v623h102v-1393h-102v678h-787v-678h-102z" />
    <glyph glyph-name="I" unicode="I" horiz-adv-x="421" 
d="M160 0v1393h102v-1393h-102z" />
    <glyph glyph-name="J" unicode="J" horiz-adv-x="647" 
d="M487 1393v-1065q1 -193 -69 -271t-215 -77q-84 0 -160 12l12 88q63 -10 125 -10q113 0 159 62t46 200v1061h102z" />
    <glyph glyph-name="K" unicode="K" horiz-adv-x="1265" 
d="M262 0h-102v1393h102v-818l760 818h123l-518 -568l532 -825h-129l-479 743l-289 -307v-436z" />
    <glyph glyph-name="L" unicode="L" horiz-adv-x="1105" 
d="M262 1393v-1301h725v-92h-827v1393h102z" />
    <glyph glyph-name="M" unicode="M" horiz-adv-x="1638" 
d="M1479 1393v-1393h-103v1192h-4l-516 -1192h-78l-514 1192h-4v-1192h-100v1393h131l528 -1223h4l525 1223h131z" />
    <glyph glyph-name="N" unicode="N" horiz-adv-x="1331" 
d="M160 0v1393h102l805 -1200h4v1200h100v-1393h-102l-805 1192h-4v-1192h-100z" />
    <glyph glyph-name="O" unicode="O" horiz-adv-x="1413" 
d="M706.5 1325q-141.5 0 -236.5 -49t-141 -142.5t-63.5 -192.5t-17.5 -219.5t9 -205t39 -171.5t78 -145.5t133 -95t199.5 -36.5t199.5 36.5t133 95t87 171.5t39 292t-17.5 278t-63.5 192.5t-141 142.5t-236.5 49zM139 707q-1 399 167 567q138 138 400 139q380 0 501 -294
q67 -164 67 -412q0 -413 -168 -585q-138 -141 -400 -142q-381 0 -500 302q-67 170 -67 425z" />
    <glyph glyph-name="P" unicode="P" 
d="M262 711h440q145 0 225 75q79 76 79 216t-81 219q-81 80 -223 79h-440v-589zM262 618v-618h-102v1393h553q189 0 293 -109q104 -110 104 -284t-102 -278t-295 -104h-451z" />
    <glyph glyph-name="Q" unicode="Q" horiz-adv-x="1413" 
d="M707 1325q-141 0 -237 -49q-222 -114 -222 -569q0 -223 39 -336t87 -171t133 -96t200 -36q115 0 199 36t133 96q48 58 87 171t39 292t-17 278q-18 99 -64 193t-141 142q-95 49 -236 49zM139 707q0 398 167 568q138 138 401 138q381 0 500 -294q67 -164 67 -412
q0 -495 -258 -637q-100 -55 -244 -60q93 -141 475 -110v-95q-119 -12 -215 -2q-256 20 -354 177q-317 12 -434 227q-105 192 -105 500z" />
    <glyph glyph-name="R" unicode="R" horiz-adv-x="1259" 
d="M262 684h424q145 0 232.5 82t87.5 222t-82 226t-222 86h-440v-616zM262 592v-592h-102v1393h553q188 0 292.5 -115t104.5 -279t-91 -271t-253 -122l387 -606h-121l-373 592h-397z" />
    <glyph glyph-name="S" unicode="S" 
d="M614 1321q-346 0 -346 -258q0 -59 30 -109t70 -80q96 -73 302 -124q420 -90 420 -383q0 -186 -131.5 -286.5t-361 -100.5t-458.5 65l21 88q246 -61 443 -61t287.5 86t90.5 202q0 59 -28.5 108.5t-60.5 77t-97.5 55.5t-94 36t-94.5 27q-117 27 -211 72.5t-164.5 132.5
t-70.5 198q0 176 125 261t337 85.5t441 -65.5l-23 -88q-246 61 -426 61z" />
    <glyph glyph-name="T" unicode="T" horiz-adv-x="1146" 
d="M625 1300v-1300h-103v1300h-403v93h909v-93h-403z" />
    <glyph glyph-name="U" unicode="U" horiz-adv-x="1310" 
d="M262 1393v-901q0 -63 4 -107.5t26.5 -110t62.5 -105.5t119 -70.5t186.5 -30.5t182.5 29.5t113 71.5q92 101 93 323v901h102v-901q0 -264 -122 -388t-374 -124t-373.5 123.5t-121.5 388.5v901h102z" />
    <glyph glyph-name="V" unicode="V" horiz-adv-x="1331" 
d="M678 117l446 1276h109l-496 -1403h-127l-512 1403h115l463 -1276h2z" />
    <glyph glyph-name="W" unicode="W" horiz-adv-x="1925" 
d="M961 1229l-340 -1239h-134l-389 1403h115l344 -1264h2l344 1264h123l346 -1264h2l344 1264h109l-389 -1403h-133l-340 1239h-4z" />
    <glyph glyph-name="X" unicode="X" horiz-adv-x="1331" 
d="M659 647h-4l-432 -647h-117l488 733l-438 660h123l385 -572h4l381 572h120l-438 -660l494 -733h-125z" />
    <glyph glyph-name="Y" unicode="Y" horiz-adv-x="1269" 
d="M686 0h-102v492l-486 901h119l418 -791h4l420 791h112l-485 -901v-492z" />
    <glyph glyph-name="Z" unicode="Z" horiz-adv-x="1146" 
d="M1042 92v-92h-938v78l781 1218v4h-740v93h877v-78l-774 -1219v-4h794z" />
    <glyph glyph-name="bracketleft" unicode="[" horiz-adv-x="614" 
d="M516 -287h-377v1966h377v-63h-274v-1839h274v-64z" />
    <glyph glyph-name="backslash" unicode="\" horiz-adv-x="1105" 
d="M131 1393h86l758 -1393h-86z" />
    <glyph glyph-name="bracketright" unicode="]" horiz-adv-x="614" 
d="M373 1616h-275v63h377v-1966h-377v64h275v1839z" />
    <glyph glyph-name="asciicircum" unicode="^" horiz-adv-x="778" 
d="M199 1044h-60l211 390h76l213 -390h-59l-193 330z" />
    <glyph glyph-name="underscore" unicode="_" horiz-adv-x="1024" 
d="M885 -186h-746v63h746v-63z" />
    <glyph glyph-name="grave" unicode="`" horiz-adv-x="483" 
d="M227 1434l133 -287h-77l-158 287h102z" />
    <glyph glyph-name="a" unicode="a" horiz-adv-x="1034" 
d="M797 508h-252q-188 0 -263 -60t-75 -166t70.5 -165.5t203.5 -59.5q182 0 316 113v338zM797 571v136q0 131 -62.5 192.5t-213.5 61.5t-328 -35l-15 80q193 38 369 38t262 -73.5t86 -257.5v-713h-98v102h-4q-160 -122 -330 -122t-262 76.5t-92 211.5q0 303 430 303h258z
" />
    <glyph glyph-name="b" unicode="b" horiz-adv-x="1085" 
d="M549 63q315 0 315 449t-315 449q-94 0 -178 -35t-133 -76v-676q49 -41 133 -76t178 -35zM238 922h4q137 123 340 122q385 0 385 -532q1 -246 -93 -389t-296 -143t-340 120h-5l-18 -102h-76v1436h99v-512z" />
    <glyph glyph-name="c" unicode="c" horiz-adv-x="983" 
d="M594 -20q-475 0 -475 532t475 532q166 0 338 -43l-21 -81q-158 41 -317 41q-195 0 -284 -123t-89 -326t89 -326t284 -123q159 0 317 41l21 -81q-172 -43 -338 -43z" />
    <glyph glyph-name="d" unicode="d" horiz-adv-x="1085" 
d="M537 961q-315 0 -315 -449t315 -449q94 0 178 35t133 76v676q-49 41 -133 76t-178 35zM848 0v102h-4q-137 -123 -340 -122q-385 0 -385 532q0 246 93 389t295 143t337 -120h4v510h98v-1434h-98z" />
    <glyph glyph-name="e" unicode="e" horiz-adv-x="1085" 
d="M223 575h649q39 212 -66 319q-71 73 -216 73q-336 -1 -367 -392zM610 -20q-492 0 -491 532q0 248 113 390q114 142 354 142t328 -133q79 -115 71 -280q-6 -64 -20 -123h-742q6 -444 400 -445q195 0 319 41l14 -81q-156 -43 -346 -43z" />
    <glyph glyph-name="f" unicode="f" horiz-adv-x="706" 
d="M319 1024h279v-74h-279v-950h-98v950h-170v66l170 8v152q1 141 63 199t208 59q70 0 147 -13l-10 -78q-86 10 -119 11q-109 0 -150 -42t-41 -149v-139z" />
    <glyph glyph-name="g" unicode="g" horiz-adv-x="1136" 
d="M166 -150q0 -211 344 -210q196 0 318 66t122 190q0 139 -215 149l-399 21q-88 -56 -129 -102t-41 -114zM540 432q138 0 218 73t80 193t-81 199q-81 78 -223 78t-218 -76t-76 -200q0 -123 81 -195t219 -72zM147 696q1 162 105 255t291 93q59 0 133 -20h342v-63h-236
q146 -85 146 -255t-108 -256t-277 -85q-100 0 -168 26q-37 -33 -56 -74q-35 -57 -19 -112t83 -58l387 -22q283 -16 283 -213q1 -162 -141 -252t-431 -90q-397 0 -397 266q0 139 195 248v4q-84 40 -72 142t112 176v4q-172 86 -172 286z" />
    <glyph glyph-name="h" unicode="h" horiz-adv-x="1085" 
d="M238 0h-99v1434h99v-564h4q188 174 397 174q307 0 307 -331v-713h-98v692q0 268 -248 269q-172 0 -362 -158v-803z" />
    <glyph glyph-name="i" unicode="i" horiz-adv-x="376" 
d="M238 1024v-1024h-99v1024h99zM238 1393v-230h-99v230h99z" />
    <glyph glyph-name="j" unicode="j" horiz-adv-x="458" 
d="M319 1024v-1196q0 -142 -62 -200t-208 -58q-70 0 -147 12l10 78q86 -10 119 -10q109 0 149 42t41 148v1184h98zM319 1393v-230h-98v230h98z" />
    <glyph glyph-name="k" unicode="k" horiz-adv-x="1083" 
d="M238 0h-99v1434h99v-891l604 481h123l-406 -336l426 -688h-117l-379 633l-251 -199v-434z" />
    <glyph glyph-name="l" unicode="l" horiz-adv-x="376" 
d="M139 1434h99v-1434h-99v1434z" />
    <glyph glyph-name="m" unicode="m" horiz-adv-x="1699" 
d="M238 0h-99v1024h99v-154h4q178 174 350 174q231 0 287 -190q182 190 374 190q307 0 308 -331v-713h-99v692q0 268 -248 269q-61 0 -130 -31q-68 -31 -104 -59t-89 -72q8 -66 8 -111v-688h-98v696q-4 264 -248 265q-63 0 -129 -30t-100 -57t-86 -71v-803z" />
    <glyph glyph-name="n" unicode="n" horiz-adv-x="1085" 
d="M238 0h-99v1024h99v-154h4q188 174 397 174q307 0 307 -331v-713h-98v692q0 268 -248 269q-172 0 -362 -158v-803z" />
    <glyph glyph-name="o" unicode="o" horiz-adv-x="1126" 
d="M563 961q-342 0 -342 -449t342 -449t342 449t-342 449zM563 -20q-231 0 -338 142q-106 142 -106 390t106 390q105 142 337 142t338 -142t108 -390q0 -248 -107 -390t-338 -142z" />
    <glyph glyph-name="p" unicode="p" horiz-adv-x="1085" 
d="M549 63q315 0 315 449t-315 449q-94 0 -178 -35t-133 -76v-676q49 -41 133 -76t178 -35zM238 922h4q137 123 340 122q385 0 385 -532q1 -246 -93 -389t-296 -143t-336 120h-4v-510h-99v1434h99v-102z" />
    <glyph glyph-name="q" unicode="q" horiz-adv-x="1085" 
d="M537 961q-315 0 -315 -449t315 -449q94 0 178 35t133 76v676q-49 41 -133 76t-178 35zM848 102h-4q-137 -123 -340 -122q-385 0 -385 532q0 246 93 389t296 143t340 -120h4l18 102h76v-1436h-98v512z" />
    <glyph glyph-name="r" unicode="r" horiz-adv-x="757" 
d="M238 0h-99v1024h99v-164h4q205 184 417 184v-92q-115 0 -229 -49t-192 -110v-793z" />
    <glyph glyph-name="s" unicode="s" horiz-adv-x="983" 
d="M129 776q-1 270 373 268q194 0 366 -43l-18 -81q-174 45 -365 45q-86 0 -143 -23q-57 -22 -86 -66t-29 -107q-1 -63 55 -115t234 -89t268 -101t90 -198q0 -133 -90 -210t-262 -76q-242 0 -413 43l20 81q174 -45 383 -45q213 0 257 157q7 26 7 50q0 76 -58 126t-232 85
t-265 101q-92 66 -92 198z" />
    <glyph glyph-name="t" unicode="t" horiz-adv-x="768" 
d="M221 950h-170v66l170 8l12 287h86v-287h320v-74h-320v-633q0 -133 43 -195t158 -63q33 0 119 11l10 -78q-76 -12 -157 -12q-143 0 -207 71q-63 72 -64 252v647z" />
    <glyph glyph-name="u" unicode="u" horiz-adv-x="1085" 
d="M848 1024h98v-1024h-98v154h-4q-188 -174 -398 -174q-307 0 -307 331v713h99v-692q0 -268 247 -269q172 0 363 158v803z" />
    <glyph glyph-name="v" unicode="v" horiz-adv-x="1146" 
d="M514 -10l-399 1034h110l348 -918h5l350 918h104l-401 -1034h-117z" />
    <glyph glyph-name="w" unicode="w" horiz-adv-x="1617" 
d="M807 872l-260 -882h-107l-325 1034h106l281 -918h4l258 918h94l270 -918h5l268 918h102l-317 -1034h-109l-266 882h-4z" />
    <glyph glyph-name="x" unicode="x" horiz-adv-x="1116" 
d="M899 0l-348 459h-4l-340 -459h-109l400 535l-369 489h115l315 -418h4l309 418h107l-365 -487l404 -537h-119z" />
    <glyph glyph-name="y" unicode="y" horiz-adv-x="1146" 
d="M256 -430q-68 0 -121 12l10 84q43 -10 93 -10t93 24q45 24 71 50q59 60 133 245l-420 1049h110l365 -934h4l334 934h104l-409 -1112q-66 -180 -153 -261t-214 -81z" />
    <glyph glyph-name="z" unicode="z" horiz-adv-x="962" 
d="M205 78h682v-78h-811v74l669 868v4h-639v78h766v-74l-667 -868v-4z" />
    <glyph glyph-name="braceleft" unicode="{" horiz-adv-x="696" 
d="M598 -238v-49q-172 -1 -254 61t-82 238l21 387q0 191 -62 233q-31 20 -82 30v69q51 9 82 29q62 41 62 233l-21 387q0 176 82 238t254 61v-49q-143 0 -188 -59t-45 -189l22 -442q0 -116 -41 -170t-123 -72v-4q82 -18 123 -72t41 -169l-22 -443q0 -134 50 -194
q31 -41 116 -52q24 -2 67 -2z" />
    <glyph glyph-name="bar" unicode="|" horiz-adv-x="389" 
d="M160 -205v1802h69v-1802h-69z" />
    <glyph glyph-name="braceright" unicode="}" horiz-adv-x="696" 
d="M98 1630v49q172 0 254 -61t82 -238l-20 -387q0 -194 61 -233q31 -20 82 -29v-69q-51 -8 -82 -28q-48 -32 -58 -139q-3 -32 -3 -96l20 -387q0 -176 -82 -237t-254 -62v49q141 0 186 59q46 59 48 189l-23 443q0 115 41 169t123 72v4q-82 18 -123 72t-41 170l23 442
q0 198 -107 232q-49 16 -127 16z" />
    <glyph glyph-name="asciitilde" unicode="~" horiz-adv-x="933" 
d="M685 569q-46 1 -190 63q-145 62 -183 62t-74 -19t-111 -93l-35 28q70 86 116 120t99 34t197 -64t174 -63q76 0 133 100l31 -30q-37 -70 -74 -104t-83 -34z" />
    <glyph glyph-name="exclamdown" unicode="&#xa1;" horiz-adv-x="376" 
d="M238 -369h-99v959h99v-959zM238 791h-99v233h99v-233z" />
    <glyph glyph-name="cent" unicode="&#xa2;" horiz-adv-x="1060" 
d="M582 66v892q-168 -8 -261 -135t-93 -312t92 -311q94 -126 262 -134zM582 -205v185q-213 6 -335 152t-122 380t122 380t335 152v185h49v-187q139 -2 305 -71l-12 -78q-178 63 -293 68v-898q119 2 293 68l12 -78q-158 -70 -305 -71v-187h-49z" />
    <glyph glyph-name="sterling" unicode="&#xa3;" horiz-adv-x="1253" 
d="M324 88h749v-88h-948v88h102v580h-102v77h102v322q0 176 122 261t327 85q274 0 454 -113l-43 -81q-185 102 -391 102t-289 -74t-83 -192v-310h503v-77h-503v-580z" />
    <glyph glyph-name="currency" unicode="&#xa4;" horiz-adv-x="1433" 
d="M375 719q0 -55 4 -133h459l-13 -66h-430q33 -200 142 -324t325 -124t410 161l37 -79q-59 -47 -99 -75t-148 -64t-228 -35q-246 0 -381 147t-172 393h-156v66h147q-4 37 -4 113t2 108h-145v65h154q33 246 168 394q136 147 387 147q120 0 228 -36q108 -35 148 -63t99 -75
l-37 -80q-195 162 -413 162t-328 -123t-140 -326h447l-13 -65h-448q-2 -33 -2 -88z" />
    <glyph glyph-name="yen" unicode="&#xa5;" horiz-adv-x="1320" 
d="M1073 526v-63h-362v-463h-103v463h-360v63h344l-467 867h117l420 -791h4l417 791h113l-467 -867h344z" />
    <glyph glyph-name="brokenbar" unicode="&#xa6;" horiz-adv-x="348" 
d="M139 -205v819h70v-819h-70zM139 778v819h70v-819h-70z" />
    <glyph glyph-name="section" unicode="&#xa7;" horiz-adv-x="1198" 
d="M145 760h107q0 -217 401 -318q420 -90 420 -383q0 -186 -131 -286q-132 -101 -360 -101t-457 66l18 88q245 -62 443 -62t290 86q91 86 91 203q0 59 -29 109t-60 77q-66 58 -286 117q-117 27 -211 73t-165 133t-71 198zM967 668q0 59 -29 108t-60 77q-62 55 -286 118
q-117 27 -211 73t-165 132q-71 88 -71 198q0 176 124 261t337 85t443 -65l-25 -88q-246 61 -429 61t-263 -73t-80 -185q0 -59 30 -108t70 -80q91 -71 301 -125q186 -39 304 -131t116 -258h-106z" />
    <glyph glyph-name="dieresis" unicode="&#xa8;" horiz-adv-x="884" 
d="M694 1178h-84v225h84v-225zM274 1178h-84v225h84v-225z" />
    <glyph glyph-name="copyright" unicode="&#xa9;" horiz-adv-x="1566" 
d="M461 700q0 176 82 266q81 91 235 91t256 -72l-24 -51q-100 66 -219 65q-262 0 -263 -294q0 -315 263 -316q123 0 217 62l26 -48q-102 -71 -256 -71t-236 96t-81 272zM113 696q-1 -280 195 -474t474 -194t476 196q196 194 196 471t-197 472t-475 195t-474 -194
q-195 -194 -195 -472zM61 696q0 299 211 508t511 209t511 -209t211 -508t-211 -508q-211 -208 -511 -208t-511 208t-211 508z" />
    <glyph glyph-name="ordfeminine" unicode="&#xaa;" horiz-adv-x="610" 
d="M326 1135q-168 0 -168 -115q0 -49 35 -80t113 -31t147 58v168h-127zM453 1167v68q0 67 -32 97q-33 30 -101 30t-168 -19q-9 27 -9 41q243 45 316 -18q43 -37 43 -129v-356h-49v51q-86 -62 -169 -62t-129 39t-46 107q0 152 215 151h129z" />
    <glyph glyph-name="guillemotleft" unicode="&#xab;" horiz-adv-x="1292" 
d="M1151 885v-92l-395 -281l395 -281v-92l-498 340v66zM639 885v-92l-397 -281l397 -281v-92l-500 340v66z" />
    <glyph glyph-name="logicalnot" unicode="&#xac;" horiz-adv-x="1208" 
d="M1028 584v-312h-84v230h-764v82h848z" />
    <glyph glyph-name="softhyphen" unicode="&#xad;" horiz-adv-x="1024" 
d="M139 502v82h746v-82h-746z" />
    <glyph glyph-name="registered" unicode="&#xae;" horiz-adv-x="1566" 
d="M604 655h203q184 0 184 172q0 76 -46 119t-132 43h-209v-334zM604 596v-252h-63v705h272q119 -1 181 -61t62 -160t-52 -157q-53 -58 -148 -65l223 -262h-80l-215 252h-180zM113 696q-1 -280 195 -474t474 -194t476 196q196 194 196 471t-197 472t-475 195t-474 -194
q-195 -194 -195 -472zM61 696q0 299 211 508t511 209t511 -209t211 -508t-211 -508q-211 -208 -511 -208t-511 208t-211 508z" />
    <glyph glyph-name="macron" unicode="&#xaf;" horiz-adv-x="870" 
d="M735 1245h-602v70h602v-70z" />
    <glyph glyph-name="degree" unicode="&#xb0;" horiz-adv-x="536" 
d="M137 1218q0 -56 37 -94t93 -39q56 0 94 38q38 39 38 95t-38 94t-94 38t-93 -38t-37 -94zM92 1218q0 74 51 124t124 50t124 -50q51 -52 51 -124t-51 -124t-124 -52t-124 52t-51 124z" />
    <glyph glyph-name="plusminus" unicode="&#xb1;" horiz-adv-x="1024" 
d="M471 209v299h-332v84h332v326h82v-326h332v-84h-332v-299h332v-84h-746v84h332z" />
    <glyph glyph-name="twosuperior" unicode="&#xb2;" horiz-adv-x="645" 
d="M109 1085v56q360 246 360 434q0 69 -33 109q-32 40 -64 48t-65 9q-84 0 -182 -49l-16 45q111 55 212 55t153 -58t52 -147q0 -213 -340 -448v-2h351v-52h-428z" />
    <glyph glyph-name="threesuperior" unicode="&#xb3;" horiz-adv-x="665" 
d="M324 1782q104 0 158 -48t55 -132q0 -129 -142 -172q74 -14 118 -60t44 -115q0 -190 -233 -190q-133 0 -215 53l18 43q87 -49 191 -49t143 42t39 91q0 156 -193 156h-82v45h80q84 0 130 44t46 101t-35 101t-117 43q-82 0 -184 -49l-18 43q93 53 197 53z" />
    <glyph glyph-name="acute" unicode="&#xb4;" horiz-adv-x="483" 
d="M258 1434h102l-157 -287h-78z" />
    <glyph glyph-name="paragraph" unicode="&#xb6;" horiz-adv-x="1140" 
d="M881 1348v-1348h-50v1348h-139v-744h-188q-184 0 -298 110t-114 288t113 284t299 107h545v-45h-168z" />
    <glyph glyph-name="periodcentered" unicode="&#xb7;" horiz-adv-x="458" 
d="M279 395h-99v234h99v-234z" />
    <glyph glyph-name="cedilla" unicode="&#xb8;" horiz-adv-x="595" 
d="M246 0h45v-119q172 -8 172 -145q0 -72 -51.5 -114t-125.5 -42t-153 25l10 39q75 -18 133 -18t89.5 37.5t31.5 78.5t-33.5 74.5t-117.5 36.5v147z" />
    <glyph glyph-name="onesuperior" unicode="&#xb9;" horiz-adv-x="624" 
d="M317 1133v587q-132 -72 -192 -108l-16 43q158 78 227 133h37v-655h215v-48h-486v48h215z" />
    <glyph glyph-name="ordmasculine" unicode="&#xba;" horiz-adv-x="661" 
d="M502 1136q0 226 -171 226t-171 -225t172 -226q170 -1 170 225zM331 870q-222 0 -222 266t222 267q222 -1 222 -267t-222 -266z" />
    <glyph glyph-name="guillemotright" unicode="&#xbb;" horiz-adv-x="1292" 
d="M653 885l498 -340v-66l-498 -340v92l396 281l-396 281v92zM139 885l500 -340v-66l-500 -340v92l398 281l-398 281v92z" />
    <glyph glyph-name="onequarter" unicode="&#xbc;" horiz-adv-x="1638" 
d="M1376 244v379q-92 -178 -272 -379h272zM1432 696v-452h102v-49h-102v-195h-56v195h-332v49q219 240 316 452h72zM319 723v588q-178 -100 -192 -109l-16 43q160 82 225 133h39v-655h215v-47h-486v47h215zM555 0h-41l758 1393h41z" />
    <glyph glyph-name="onehalf" unicode="&#xbd;" horiz-adv-x="1638" 
d="M1106 0v55q360 246 360 434q0 68 -32 109q-33 41 -65 49t-64 8q-82 0 -181 -49l-18 45q111 55 213 55q101 0 153 -58t52 -146q0 -213 -338 -449v-2h348v-51h-428zM319 723v588q-178 -100 -192 -109l-16 43q160 82 225 133h39v-655h215v-47h-486v47h215zM514 0h-41
l758 1393h41z" />
    <glyph glyph-name="threequarters" unicode="&#xbe;" horiz-adv-x="1638" 
d="M1376 244v379q-92 -178 -272 -379h272zM1432 696v-452h102v-49h-102v-195h-56v195h-332v49q219 240 316 452h72zM320 1372q104 0 158 -48t54 -123t-40 -119t-103 -62q76 -14 120 -60t44 -114q0 -190 -234 -191q-133 0 -215 54l19 43q86 -50 190 -50t144 42q39 42 39 92
q0 156 -193 155h-82v45h78q84 0 131 44t47 102t-35 100q-35 43 -119 43t-182 -49l-18 43q93 53 197 53zM555 0h-41l758 1393h41z" />
    <glyph glyph-name="questiondown" unicode="&#xbf;" horiz-adv-x="983" 
d="M477 -389q-186 0 -272 100t-86 223t42 200t101 121q58 44 118 82q144 92 144 195v62h88v-62q0 -134 -139 -229q-57 -39 -115 -81q-140 -102 -139 -261q0 -258 303 -258q126 0 312 70l30 -84q-201 -78 -387 -78zM520 1024h98v-233h-98v233z" />
    <glyph glyph-name="Agrave" unicode="&#xc0;" horiz-adv-x="1331" 
d="M958 481l-284 795h-4l-295 -795h583zM207 0h-109l512 1403h127l496 -1403h-115l-139 393h-627zM582 1802l133 -286h-78l-158 286h103z" />
    <glyph glyph-name="Aacute" unicode="&#xc1;" horiz-adv-x="1331" 
d="M958 481l-284 795h-4l-295 -795h583zM207 0h-109l512 1403h127l496 -1403h-115l-139 393h-627zM770 1802h102l-157 -286h-78z" />
    <glyph glyph-name="Acircumflex" unicode="&#xc2;" horiz-adv-x="1331" 
d="M958 481l-284 795h-4l-295 -795h583zM207 0h-109l512 1403h127l496 -1403h-115l-139 393h-627zM426 1516l213 286h74l213 -286h-78l-172 227l-170 -227h-80z" />
    <glyph glyph-name="Atilde" unicode="&#xc3;" horiz-adv-x="1331" 
d="M958 481l-284 795h-4l-295 -795h583zM207 0h-109l512 1403h127l496 -1403h-115l-139 393h-627zM569 1671q-41 0 -73 -18t-109 -94l-35 38q68 86 114 118t100 32q54 1 146 -63t124 -64q72 0 133 106l30 -40q-72 -139 -163 -140q-38 0 -132 62t-135 63z" />
    <glyph glyph-name="Adieresis" unicode="&#xc4;" horiz-adv-x="1331" 
d="M958 481l-284 795h-4l-295 -795h583zM207 0h-109l512 1403h127l496 -1403h-115l-139 393h-627zM928 1546h-84v226h84v-226zM508 1546h-84v226h84v-226z" />
    <glyph glyph-name="Aring" unicode="&#xc5;" horiz-adv-x="1331" 
d="M958 481l-284 795h-4l-295 -795h583zM207 0h-109l512 1403h127l496 -1403h-115l-139 393h-627zM565 1638q0 -46 32 -78t79 -32t78 32q30 32 30 78t-30 79q-31 32 -78 32t-79 -32t-32 -79zM524 1638q0 64 43 106t107 42t108 -42q43 -42 43 -106t-43 -105q-44 -42 -108 -42
t-107 42t-43 105z" />
    <glyph glyph-name="AE" unicode="&#xc6;" horiz-adv-x="1896" 
d="M909 696v602h-4l-325 -602h329zM1747 1393v-93h-735v-530h643v-92h-643v-586h745v-92h-848v612h-366l-338 -612h-107l758 1393h891z" />
    <glyph glyph-name="Ccedilla" unicode="&#xc7;" horiz-adv-x="1269" 
d="M139 690q0 416 167 585q138 138 384 138t475 -65l-22 -88q-245 61 -393 61t-233 -34t-136 -89q-133 -142 -133 -500q0 -357 125 -493q125 -135 342 -133q182 0 428 61l22 -88q-223 -66 -448 -65v-99q172 -8 172 -145q0 -72 -50 -114t-125 -42t-153 25l8 39
q73 -18 133 -18t91 36q31 37 31 79t-33 76t-117 36v127q-317 12 -431 224q-104 192 -104 486z" />
    <glyph glyph-name="Egrave" unicode="&#xc8;" horiz-adv-x="1146" 
d="M262 770h643v-92h-643v-586h746v-92h-848v1393h837v-93h-735v-530zM481 1802l133 -286h-77l-158 286h102z" />
    <glyph glyph-name="Eacute" unicode="&#xc9;" horiz-adv-x="1146" 
d="M262 770h643v-92h-643v-586h746v-92h-848v1393h837v-93h-735v-530zM670 1802h102l-158 -286h-77z" />
    <glyph glyph-name="Ecircumflex" unicode="&#xca;" horiz-adv-x="1146" 
d="M262 770h643v-92h-643v-586h746v-92h-848v1393h837v-93h-735v-530zM324 1516l213 286h73l213 -286h-78l-172 227l-170 -227h-79z" />
    <glyph glyph-name="Edieresis" unicode="&#xcb;" horiz-adv-x="1146" 
d="M262 770h643v-92h-643v-586h746v-92h-848v1393h837v-93h-735v-530zM825 1546h-84v226h84v-226zM406 1546h-84v226h84v-226z" />
    <glyph glyph-name="Igrave" unicode="&#xcc;" horiz-adv-x="421" 
d="M262 1393v-1393h-102v1393h102zM119 1843l133 -287h-78l-158 287h103z" />
    <glyph glyph-name="Iacute" unicode="&#xcd;" horiz-adv-x="421" 
d="M262 1393v-1393h-102v1393h102zM307 1843h103l-158 -287h-78z" />
    <glyph glyph-name="Icircumflex" unicode="&#xce;" horiz-adv-x="421" 
d="M262 1393v-1393h-102v1393h102zM-39 1556l213 287h74l213 -287h-78l-172 228l-170 -228h-80z" />
    <glyph glyph-name="Idieresis" unicode="&#xcf;" horiz-adv-x="421" 
d="M262 1393v-1393h-102v1393h102zM463 1587h-84v225h84v-225zM43 1587h-84v225h84v-225z" />
    <glyph glyph-name="Eth" unicode="&#xd0;" horiz-adv-x="1341" 
d="M272 92h371q451 0 451 615q0 256 -89 415q-99 178 -362 178h-371v-561h269v-65h-269v-582zM170 674h-113v65h113v654h473q557 0 557 -686q0 -707 -557 -707h-473v674z" />
    <glyph glyph-name="Ntilde" unicode="&#xd1;" horiz-adv-x="1331" 
d="M1071 193v1200h100v-1393h-102l-805 1192h-4v-1192h-100v1393h102l805 -1200h4zM559 1671q-41 0 -74 -18t-108 -94l-35 38q68 86 114 118t100 32q54 1 146 -63t123 -64q72 0 133 106l31 -40q-72 -139 -164 -140q-39 0 -132 62t-134 63z" />
    <glyph glyph-name="Ograve" unicode="&#xd2;" horiz-adv-x="1413" 
d="M707 1325q-141 0 -237 -49q-222 -114 -222 -569q0 -223 39 -336t87 -171t133 -96t200 -36q115 0 199 36t133 96q48 58 87 171t39 292t-17 278q-18 99 -64 193t-141 142q-95 49 -236 49zM707 1413q381 0 500 -294q67 -164 67 -412q0 -410 -167 -585q-135 -142 -400 -142
q-381 0 -501 303q-65 164 -67 424q0 398 167 568q138 138 401 138zM614 1802l134 -286h-78l-158 286h102z" />
    <glyph glyph-name="Oacute" unicode="&#xd3;" horiz-adv-x="1413" 
d="M707 1325q-141 0 -237 -49q-222 -114 -222 -569q0 -223 39 -336t87 -171t133 -96t200 -36q115 0 199 36t133 96q48 58 87 171t39 292t-17 278q-18 99 -64 193t-141 142q-95 49 -236 49zM707 1413q381 0 500 -294q67 -164 67 -412q0 -410 -167 -585q-135 -142 -400 -142
q-381 0 -501 303q-65 164 -67 424q0 398 167 568q138 138 401 138zM803 1802h102l-157 -286h-78z" />
    <glyph glyph-name="Ocircumflex" unicode="&#xd4;" horiz-adv-x="1413" 
d="M707 1325q-141 0 -237 -49q-222 -114 -222 -569q0 -223 39 -336t87 -171t133 -96t200 -36q115 0 199 36t133 96q48 58 87 171t39 292t-17 278q-18 99 -64 193t-141 142q-95 49 -236 49zM707 1413q381 0 500 -294q67 -164 67 -412q0 -410 -167 -585q-135 -142 -400 -142
q-381 0 -501 303q-65 164 -67 424q0 398 167 568q138 138 401 138zM457 1516l213 286h73l213 -286h-77l-172 227l-170 -227h-80z" />
    <glyph glyph-name="Otilde" unicode="&#xd5;" horiz-adv-x="1413" 
d="M707 1325q-141 0 -237 -49q-222 -114 -222 -569q0 -223 39 -336t87 -171t133 -96t200 -36q115 0 199 36t133 96q48 58 87 171t39 292t-17 278q-18 99 -64 193t-141 142q-95 49 -236 49zM707 1413q381 0 500 -294q67 -164 67 -412q0 -410 -167 -585q-135 -142 -400 -142
q-381 0 -501 303q-65 164 -67 424q0 398 167 568q138 138 401 138zM600 1671q-41 0 -74 -18t-108 -94l-35 38q68 86 114 118t100 32q54 1 146 -63t123 -64q72 0 133 106l31 -40q-72 -139 -164 -140q-39 0 -132 62t-134 63z" />
    <glyph glyph-name="Odieresis" unicode="&#xd6;" horiz-adv-x="1413" 
d="M707 1325q-141 0 -237 -49q-222 -114 -222 -569q0 -223 39 -336t87 -171t133 -96t200 -36q115 0 199 36t133 96q48 58 87 171t39 292t-17 278q-18 99 -64 193t-141 142q-95 49 -236 49zM707 1413q381 0 500 -294q67 -164 67 -412q0 -410 -167 -585q-135 -142 -400 -142
q-381 0 -501 303q-65 164 -67 424q0 398 167 568q138 138 401 138zM958 1546h-84v226h84v-226zM539 1546h-84v226h84v-226z" />
    <glyph glyph-name="multiply" unicode="&#xd7;" horiz-adv-x="980" 
d="M549 543l291 -291l-58 -59l-293 290l-290 -290l-60 59l293 291l-293 291l60 59l290 -291l293 291l58 -59z" />
    <glyph glyph-name="Oslash" unicode="&#xd8;" horiz-adv-x="1413" 
d="M1165 741q0 257 -90 396l-721 -912q111 -158 353 -157q115 0 199 36t133 96q48 58 78 145q48 139 48 396zM707 1325q-284 0 -378 -191q-45 -92 -63 -192t-18 -235q0 -290 82 -433l723 910q-111 141 -346 141zM1274 707q0 -410 -167 -585q-137 -144 -408 -143t-410 168
l-158 -200l-39 30l166 207q-119 176 -119 549t167 542q138 138 404 138t402 -153l170 213l37 -31l-172 -217q127 -170 127 -518z" />
    <glyph glyph-name="Ugrave" unicode="&#xd9;" horiz-adv-x="1310" 
d="M262 1393v-901q0 -64 4 -108t27 -110t63 -106t118 -70t186 -30t183 30t113 71q38 42 61 105q23 62 27 110t5 108v901h102v-901q0 -264 -122 -388t-374 -124q-251 0 -373 124t-122 388v901h102zM563 1802l133 -286h-78l-157 286h102z" />
    <glyph glyph-name="Uacute" unicode="&#xda;" horiz-adv-x="1310" 
d="M262 1393v-901q0 -64 4 -108t27 -110t63 -106t118 -70t186 -30t183 30t113 71q38 42 61 105q23 62 27 110t5 108v901h102v-901q0 -264 -122 -388t-374 -124q-251 0 -373 124t-122 388v901h102zM752 1802h102l-158 -286h-78z" />
    <glyph glyph-name="Ucircumflex" unicode="&#xdb;" horiz-adv-x="1310" 
d="M262 1393v-901q0 -64 4 -108t27 -110t63 -106t118 -70t186 -30t183 30t113 71q38 42 61 105q23 62 27 110t5 108v901h102v-901q0 -264 -122 -388t-374 -124q-251 0 -373 124t-122 388v901h102zM406 1516l212 286h74l213 -286h-78l-172 227l-170 -227h-79z" />
    <glyph glyph-name="Udieresis" unicode="&#xdc;" horiz-adv-x="1310" 
d="M262 1393v-901q0 -64 4 -108t27 -110t63 -106t118 -70t186 -30t183 30t113 71q38 42 61 105q23 62 27 110t5 108v901h102v-901q0 -264 -122 -388t-374 -124q-251 0 -373 124t-122 388v901h102zM907 1546h-84v226h84v-226zM487 1546h-84v226h84v-226z" />
    <glyph glyph-name="Yacute" unicode="&#xdd;" horiz-adv-x="1269" 
d="M686 0h-102v492l-486 901h119l418 -791h4l420 791h112l-485 -901v-492zM731 1802h103l-158 -286h-78z" />
    <glyph glyph-name="Thorn" unicode="&#xde;" 
d="M262 412h436q145 0 227 75q81 75 81 215t-83 220t-225 79h-436v-589zM262 319v-319h-102v1393h102v-299h445q191 0 297 -109t106 -283t-105 -278t-298 -105h-445z" />
    <glyph glyph-name="germandbls" unicode="&#xdf;" horiz-adv-x="1320" 
d="M655 1434q189 0 291 -82t103 -226q0 -88 -42 -156q-41 -68 -93 -103t-94 -71t-42 -69q0 -55 103 -90q170 -53 251 -134t80 -200q0 -166 -112 -245q-112 -78 -260 -78t-277 40l15 78q125 -41 222 -41q167 0 231 62q63 62 76 136q3 23 3 57t-18 74q-49 110 -230 176
q-114 42 -146 75t-32 78t40 87t87 74t87 94t40 149t-54 145t-112 74t-144 16q-85 0 -155 -34q-116 -56 -143 -211q-10 -56 -11 -130v-979h-98v950h-170v66l170 8q0 410 434 410z" />
    <glyph glyph-name="agrave" unicode="&#xe0;" horiz-adv-x="1034" 
d="M797 508h-252q-188 0 -263 -59t-75 -166t71 -166t203 -60q182 0 316 113v338zM797 571v136q-1 131 -63 192t-213 61t-328 -34l-15 80q193 38 369 38t262 -74t86 -257v-713h-98v102h-4q-160 -122 -330 -122t-262 76t-92 212q0 303 430 303h258zM426 1434l133 -287h-78
l-157 287h102z" />
    <glyph glyph-name="aacute" unicode="&#xe1;" horiz-adv-x="1034" 
d="M797 508h-252q-188 0 -263 -59t-75 -166t71 -166t203 -60q182 0 316 113v338zM797 571v136q-1 131 -63 192t-213 61t-328 -34l-15 80q193 38 369 38t262 -74t86 -257v-713h-98v102h-4q-160 -122 -330 -122t-262 76t-92 212q0 303 430 303h258zM614 1434h103l-158 -287
h-78z" />
    <glyph glyph-name="acircumflex" unicode="&#xe2;" horiz-adv-x="1034" 
d="M797 508h-252q-188 0 -263 -59t-75 -166t71 -166t203 -60q182 0 316 113v338zM797 571v136q-1 131 -63 192t-213 61t-328 -34l-15 80q193 38 369 38t262 -74t86 -257v-713h-98v102h-4q-160 -122 -330 -122t-262 76t-92 212q0 303 430 303h258zM268 1147l213 287h74
l213 -287h-78l-172 227l-170 -227h-80z" />
    <glyph glyph-name="atilde" unicode="&#xe3;" horiz-adv-x="1034" 
d="M797 508h-252q-188 0 -263 -59t-75 -166t71 -166t203 -60q182 0 316 113v338zM797 571v136q-1 131 -63 192t-213 61t-328 -34l-15 80q193 38 369 38t262 -74t86 -257v-713h-98v102h-4q-160 -122 -330 -122t-262 76t-92 212q0 303 430 303h258zM678 1178q-39 0 -132 62
t-134 62t-74 -18t-109 -94l-34 39q68 86 113 118q46 31 100 31t147 -63q92 -63 123 -64q72 1 133 107l31 -41q-72 -139 -164 -139z" />
    <glyph glyph-name="adieresis" unicode="&#xe4;" horiz-adv-x="1034" 
d="M797 508h-252q-188 0 -263 -59t-75 -166t71 -166t203 -60q182 0 316 113v338zM797 571v136q-1 131 -63 192t-213 61t-328 -34l-15 80q193 38 369 38t262 -74t86 -257v-713h-98v102h-4q-160 -122 -330 -122t-262 76t-92 212q0 303 430 303h258zM770 1178h-84v225h84v-225z
M350 1178h-84v225h84v-225z" />
    <glyph glyph-name="aring" unicode="&#xe5;" horiz-adv-x="1034" 
d="M797 508h-252q-188 0 -263 -59t-75 -166t71 -166t203 -60q182 0 316 113v338zM797 571v136q-1 131 -63 192t-213 61t-328 -34l-15 80q193 38 369 38t262 -74t86 -257v-713h-98v102h-4q-160 -122 -330 -122t-262 76t-92 212q0 303 430 303h258zM410 1270q0 -47 32 -79
t78 -32q47 0 78 32t31 79t-31 79q-31 31 -78 31t-79 -31q-31 -32 -31 -79zM369 1270q0 63 43 105t107 42q63 0 107 -42t44 -105q0 -64 -43 -106t-108 -42t-107 42t-43 106z" />
    <glyph glyph-name="ae" unicode="&#xe6;" horiz-adv-x="1763" 
d="M545 508q-188 0 -263 -59t-75 -166t71 -166t203 -60q211 0 367 156q-49 88 -49 230l-2 65h-252zM901 575h649q12 49 13 105q0 119 -68 203t-227 84q-336 -1 -367 -392zM1288 -20q-297 0 -414 192q-176 -193 -425 -192q-150 0 -245 74t-95 214q0 303 430 303h258v136
q-1 131 -63 192t-213 61t-328 -34l-15 80q455 91 594 -24q76 -62 94 -210q90 272 406 272q265 0 350 -183q68 -146 20 -353h-741q4 -444 397 -445q197 0 322 41l14 -81q-158 -43 -346 -43z" />
    <glyph glyph-name="ccedilla" unicode="&#xe7;" horiz-adv-x="983" 
d="M119 512q0 532 475 532q166 0 338 -43l-21 -81q-158 41 -317 41q-195 0 -284 -123t-89 -326t89 -326t284 -123q160 0 317 41l21 -81q-172 -43 -334 -43v-99q172 -8 172 -145q0 -72 -51 -114t-125 -42t-154 25l11 39q74 -18 132 -18t90 36q32 37 32 79t-34 76t-118 36v129
q-434 20 -434 530z" />
    <glyph glyph-name="egrave" unicode="&#xe8;" horiz-adv-x="1085" 
d="M223 575h649q39 212 -66 319q-71 73 -216 73q-336 -1 -367 -392zM610 -20q-492 0 -491 532q0 248 113 390q114 142 354 142t328 -133q79 -115 71 -280q-6 -64 -20 -123h-742q6 -444 400 -445q195 0 319 41l14 -81q-156 -43 -346 -43zM500 1434l133 -287h-78l-158 287h103
z" />
    <glyph glyph-name="eacute" unicode="&#xe9;" horiz-adv-x="1085" 
d="M223 575h649q39 212 -66 319q-71 73 -216 73q-336 -1 -367 -392zM610 -20q-492 0 -491 532q0 248 113 390q114 142 354 142t328 -133q79 -115 71 -280q-6 -64 -20 -123h-742q6 -444 400 -445q195 0 319 41l14 -81q-156 -43 -346 -43zM680 1434h102l-157 -287h-78z" />
    <glyph glyph-name="ecircumflex" unicode="&#xea;" horiz-adv-x="1085" 
d="M223 575h649q39 212 -66 319q-71 73 -216 73q-336 -1 -367 -392zM610 -20q-492 0 -491 532q0 248 113 390q114 142 354 142t328 -133q79 -115 71 -280q-6 -64 -20 -123h-742q6 -444 400 -445q195 0 319 41l14 -81q-156 -43 -346 -43zM293 1147l213 287h74l213 -287h-78
l-172 227l-170 -227h-80z" />
    <glyph glyph-name="edieresis" unicode="&#xeb;" horiz-adv-x="1085" 
d="M223 575h649q39 212 -66 319q-71 73 -216 73q-336 -1 -367 -392zM610 -20q-492 0 -491 532q0 248 113 390q114 142 354 142t328 -133q79 -115 71 -280q-6 -64 -20 -123h-742q6 -444 400 -445q195 0 319 41l14 -81q-156 -43 -346 -43zM795 1178h-84v225h84v-225zM375 1178
h-84v225h84v-225z" />
    <glyph glyph-name="igrave" unicode="&#xec;" horiz-adv-x="376" 
d="M139 0v1024h99v-1024h-99zM98 1434l133 -287h-77l-158 287h102z" />
    <glyph glyph-name="iacute" unicode="&#xed;" horiz-adv-x="376" 
d="M139 0v1024h99v-1024h-99zM289 1434h102l-158 -287h-77z" />
    <glyph glyph-name="icircumflex" unicode="&#xee;" horiz-adv-x="376" 
d="M139 0v1024h99v-1024h-99zM-61 1147l213 287h73l213 -287h-78l-172 227l-170 -227h-79z" />
    <glyph glyph-name="idieresis" unicode="&#xef;" horiz-adv-x="376" 
d="M139 0v1024h99v-1024h-99zM440 1178h-84v225h84v-225zM20 1178h-83v225h83v-225z" />
    <glyph glyph-name="eth" unicode="&#xf0;" horiz-adv-x="1126" 
d="M903 625q-63 100 -151 160q-88 61 -188 61q-266 1 -327 -260q-15 -63 -16 -135q0 -179 97 -283q98 -104 222 -104q230 -1 305 174q62 145 58 387zM119 458q0 222 111 348q112 126 322 126t353 -219l4 2q-18 340 -151 487l-168 -168l-39 41l158 160q-104 94 -251 94
t-282 -45l-14 78q158 51 291 51q195 0 323 -110l160 157l39 -39l-156 -153q188 -203 189 -654q0 -635 -461 -634q-184 0 -306 128t-122 350z" />
    <glyph glyph-name="ntilde" unicode="&#xf1;" horiz-adv-x="1085" 
d="M139 1024h99v-154h4q188 174 397 174q307 0 307 -331v-713h-98v692q0 268 -248 269q-172 0 -362 -158v-803h-99v1024zM702 1178q-39 0 -132 62t-134 62t-74 -18t-108 -94l-35 39q68 86 114 118q46 31 100 31q55 0 147 -63t122 -64q73 1 134 107l30 -41
q-72 -139 -164 -139z" />
    <glyph glyph-name="ograve" unicode="&#xf2;" horiz-adv-x="1126" 
d="M563 961q-342 0 -342 -449t342 -449t342 449t-342 449zM563 -20q-231 0 -338 142q-106 142 -106 390t106 390q105 142 337 142t338 -142t108 -390q0 -248 -107 -390t-338 -142zM487 1434l134 -287h-78l-158 287h102z" />
    <glyph glyph-name="oacute" unicode="&#xf3;" horiz-adv-x="1126" 
d="M563 961q-342 0 -342 -449t342 -449t342 449t-342 449zM563 -20q-231 0 -338 142q-106 142 -106 390t106 390q105 142 337 142t338 -142t108 -390q0 -248 -107 -390t-338 -142zM633 1434h102l-157 -287h-78z" />
    <glyph glyph-name="ocircumflex" unicode="&#xf4;" horiz-adv-x="1126" 
d="M563 961q-342 0 -342 -449t342 -449t342 449t-342 449zM563 -20q-231 0 -338 142q-106 142 -106 390t106 390q105 142 337 142t338 -142t108 -390q0 -248 -107 -390t-338 -142zM313 1147l213 287h74l213 -287h-78l-172 227l-170 -227h-80z" />
    <glyph glyph-name="otilde" unicode="&#xf5;" horiz-adv-x="1126" 
d="M563 961q-342 0 -342 -449t342 -449t342 449t-342 449zM563 -20q-231 0 -338 142q-106 142 -106 390t106 390q105 142 337 142t338 -142t108 -390q0 -248 -107 -390t-338 -142zM729 1178q-39 0 -132 62t-134 62t-74 -18t-108 -94l-35 39q68 86 113 118q47 31 101 31
t146 -63t123 -64q72 1 133 107l31 -41q-72 -139 -164 -139z" />
    <glyph glyph-name="odieresis" unicode="&#xf6;" horiz-adv-x="1126" 
d="M563 961q-342 0 -342 -449t342 -449t342 449t-342 449zM563 -20q-231 0 -338 142q-106 142 -106 390t106 390q105 142 337 142t338 -142t108 -390q0 -248 -107 -390t-338 -142zM813 1178h-84v225h84v-225zM393 1178h-84v225h84v-225z" />
    <glyph glyph-name="divide" unicode="&#xf7;" horiz-adv-x="1024" 
d="M555 115h-86v223h86v-223zM885 502h-746v82h746v-82zM555 748h-86v223h86v-223z" />
    <glyph glyph-name="oslash" unicode="&#xf8;" horiz-adv-x="1126" 
d="M563 63q342 0 342 449q0 176 -63 287l-533 -623q82 -113 254 -113zM563 961q-342 0 -342 -449q1 -176 64 -287l532 623q-86 113 -254 113zM576 -20q-218 0 -330 124l-135 -157l-39 30l139 162q-92 133 -92 377t106 386q105 142 325 142t329 -124l137 159l39 -30
l-142 -164q95 -135 95 -378t-106 -385q-108 -142 -326 -142z" />
    <glyph glyph-name="ugrave" unicode="&#xf9;" horiz-adv-x="1085" 
d="M946 0h-98v154h-4q-188 -174 -398 -174q-307 0 -307 331v713h99v-692q0 -268 247 -269q172 0 363 158v803h98v-1024zM451 1434l133 -287h-78l-158 287h103z" />
    <glyph glyph-name="uacute" unicode="&#xfa;" horiz-adv-x="1085" 
d="M946 0h-98v154h-4q-188 -174 -398 -174q-307 0 -307 331v713h99v-692q0 -268 247 -269q172 0 363 158v803h98v-1024zM639 1434h102l-157 -287h-78z" />
    <glyph glyph-name="ucircumflex" unicode="&#xfb;" horiz-adv-x="1085" 
d="M946 0h-98v154h-4q-188 -174 -398 -174q-307 0 -307 331v713h99v-692q0 -268 247 -269q172 0 363 158v803h98v-1024zM293 1147l213 287h74l213 -287h-78l-172 227l-170 -227h-80z" />
    <glyph glyph-name="udieresis" unicode="&#xfc;" horiz-adv-x="1085" 
d="M946 0h-98v154h-4q-188 -174 -398 -174q-307 0 -307 331v713h99v-692q0 -268 247 -269q172 0 363 158v803h98v-1024zM795 1178h-84v225h84v-225zM375 1178h-84v225h84v-225z" />
    <glyph glyph-name="yacute" unicode="&#xfd;" horiz-adv-x="1146" 
d="M256 -430q-68 0 -121 12l10 84q43 -10 93 -10t93 24q45 24 71 50q59 60 133 245l-420 1049h110l365 -934h4l334 934h104l-409 -1112q-66 -180 -153 -261t-214 -81zM682 1434h102l-157 -287h-78z" />
    <glyph glyph-name="thorn" unicode="&#xfe;" horiz-adv-x="1085" 
d="M549 63q315 0 315 449t-315 449q-94 0 -178 -35t-133 -76v-676q49 -41 133 -76t178 -35zM238 922h4q137 123 340 122q385 0 385 -532q1 -246 -93 -389t-296 -143t-336 120h-4v-510h-99v1844h99v-512z" />
    <glyph glyph-name="ydieresis" unicode="&#xff;" horiz-adv-x="1146" 
d="M256 -430q-68 0 -121 12l10 84q43 -10 93 -10t93 24q45 24 71 50q59 60 133 245l-420 1049h110l365 -934h4l334 934h104l-409 -1112q-66 -180 -153 -261t-214 -81zM825 1178h-84v225h84v-225zM406 1178h-84v225h84v-225z" />
    <glyph glyph-name="Amacron" unicode="&#x100;" horiz-adv-x="1331" 
d="M958 481l-284 795h-4l-295 -795h583zM207 0h-109l512 1403h127l496 -1403h-115l-139 393h-627zM975 1614h-602v69h602v-69z" />
    <glyph glyph-name="amacron" unicode="&#x101;" horiz-adv-x="1034" 
d="M797 508h-252q-188 0 -263 -59t-75 -166t71 -166t203 -60q182 0 316 113v338zM797 571v136q-1 131 -63 192t-213 61t-328 -34l-15 80q193 38 369 38t262 -74t86 -257v-713h-98v102h-4q-160 -122 -330 -122t-262 76t-92 212q0 303 430 303h258zM819 1245h-602v70h602v-70z
" />
    <glyph glyph-name="Abreve" unicode="&#x102;" horiz-adv-x="1331" 
d="M958 481l-284 795h-4l-295 -795h583zM207 0h-109l512 1403h127l496 -1403h-115l-139 393h-627zM673 1593q175 0 224 199h47q-20 -132 -93 -196t-177 -64t-178 64t-93 196h50q45 -199 220 -199z" />
    <glyph glyph-name="abreve" unicode="&#x103;" horiz-adv-x="1034" 
d="M797 508h-252q-188 0 -263 -59t-75 -166t71 -166t203 -60q182 0 316 113v338zM797 571v136q-1 131 -63 192t-213 61t-328 -34l-15 80q193 38 369 38t262 -74t86 -257v-713h-98v102h-4q-160 -122 -330 -122t-262 76t-92 212q0 303 430 303h258zM248 1423h49
q45 -199 220 -199t224 199h47q-20 -133 -93 -196t-177 -63t-177 62q-73 64 -93 197z" />
    <glyph glyph-name="Aogonek" unicode="&#x104;" horiz-adv-x="1331" 
d="M958 481l-286 795l-297 -795h583zM1148 -403q-173 0 -173 133q0 141 176 270h-33l-139 393h-627l-145 -393h-109l512 1403h127l496 -1403q-76 -35 -132 -109t-57 -139q0 -111 115 -110q57 0 137 45l9 -31q-76 -59 -157 -59z" />
    <glyph glyph-name="aogonek" unicode="&#x105;" horiz-adv-x="1034" 
d="M797 508h-252q-188 0 -263 -59t-75 -166t71 -166t203 -60q182 0 316 113v338zM814 -403q-176 0 -175 136q0 136 176 267h-18v102h-4q-160 -122 -330 -122t-262 76t-92 212q0 303 430 303h258v136q-1 131 -63 192t-213 61t-328 -34l-15 80q193 38 369 38t262 -74t86 -257
v-713h-23q-68 -51 -114 -121t-47 -127q0 -111 114 -110q62 0 136 45l10 -31q-77 -59 -157 -59z" />
    <glyph glyph-name="Cacute" unicode="&#x106;" horiz-adv-x="1269" 
d="M139 688q0 418 167 587q138 138 384 138t475 -65l-22 -88q-245 61 -393 61t-233 -34t-136 -89q-133 -142 -133 -500q0 -357 125 -493q125 -135 342 -133q182 0 428 61l22 -88q-229 -65 -427 -65t-314 55q-115 55 -175 161q-110 193 -110 492zM805 1802h102l-157 -286h-78
z" />
    <glyph glyph-name="cacute" unicode="&#x107;" horiz-adv-x="983" 
d="M594 -20q-475 0 -475 532t475 532q166 0 338 -43l-21 -81q-158 41 -317 41q-195 0 -284 -123t-89 -326t89 -326t284 -123q159 0 317 41l21 -81q-172 -43 -338 -43zM635 1434h102l-157 -287h-78z" />
    <glyph glyph-name="Cdotaccent" unicode="&#x10a;" horiz-adv-x="1269" 
d="M139 688q0 418 167 587q138 138 384 138t475 -65l-22 -88q-245 61 -393 61t-233 -34t-136 -89q-133 -142 -133 -500q0 -357 125 -493q125 -135 342 -133q182 0 428 61l22 -88q-229 -65 -427 -65t-314 55q-115 55 -175 161q-110 193 -110 492zM758 1532h-99v229h99v-229z
" />
    <glyph glyph-name="cdotaccent" unicode="&#x10b;" horiz-adv-x="983" 
d="M594 -20q-475 0 -475 532t475 532q166 0 338 -43l-21 -81q-158 41 -317 41q-195 0 -284 -123t-89 -326t89 -326t284 -123q159 0 317 41l21 -81q-172 -43 -338 -43zM629 1163h-99v230h99v-230z" />
    <glyph glyph-name="Ccaron" unicode="&#x10c;" horiz-adv-x="1269" 
d="M139 688q0 418 167 587q138 138 384 138t475 -65l-22 -88q-245 61 -393 61t-233 -34t-136 -89q-133 -142 -133 -500q0 -357 125 -493q125 -135 342 -133q182 0 428 61l22 -88q-229 -65 -427 -65t-314 55q-115 55 -175 161q-110 193 -110 492zM459 1802h80l170 -227
l172 227h77l-213 -286h-73z" />
    <glyph glyph-name="ccaron" unicode="&#x10d;" horiz-adv-x="983" 
d="M594 -20q-475 0 -475 532t475 532q166 0 338 -43l-21 -81q-158 41 -317 41q-195 0 -284 -123t-89 -326t89 -326t284 -123q159 0 317 41l21 -81q-172 -43 -338 -43zM344 1434h80l170 -228l172 228h78l-213 -287h-74z" />
    <glyph glyph-name="Dcaron" unicode="&#x10e;" horiz-adv-x="1331" 
d="M262 92h371q451 0 450 615q0 432 -228 547q-91 46 -222 46h-371v-1208zM160 1393h473q559 0 559 -686q0 -707 -559 -707h-473v1393zM375 1802h80l170 -227l172 227h77l-212 -286h-74z" />
    <glyph glyph-name="dcaron" unicode="&#x10f;" horiz-adv-x="1150" 
d="M537 961q-315 0 -315 -449t315 -449q94 0 178 35t133 76v676q-49 41 -133 76t-178 35zM1073 1300v134h78v-134l-39 -178h-39l25 178h-25zM848 102h-4q-137 -123 -340 -122q-385 0 -385 532q0 246 93 389t295 143t337 -120h4v510h98v-1434h-98v102z" />
    <glyph glyph-name="Dcroat" unicode="&#x110;" horiz-adv-x="1341" 
d="M272 92h371q451 0 451 615q0 256 -89 415q-99 178 -362 178h-371v-561h269v-65h-269v-582zM170 674h-113v65h113v654h473q557 0 557 -686q0 -707 -557 -707h-473v674z" />
    <glyph glyph-name="dcroat" unicode="&#x111;" horiz-adv-x="1085" 
d="M537 961q-315 0 -315 -449t315 -449q94 0 178 35t133 76v676q-49 41 -133 76t-178 35zM848 0v102h-4q-137 -123 -340 -122q-385 0 -385 532q0 246 93 389t295 143t337 -120h4v252h-236v65h236v193h98v-193h144v-65h-144v-1176h-98z" />
    <glyph glyph-name="Emacron" unicode="&#x112;" horiz-adv-x="1146" 
d="M262 770h643v-92h-643v-586h746v-92h-848v1393h837v-93h-735v-530zM874 1614h-602v69h602v-69z" />
    <glyph glyph-name="emacron" unicode="&#x113;" horiz-adv-x="1085" 
d="M223 575h649q39 212 -66 319q-71 73 -216 73q-336 -1 -367 -392zM610 -20q-492 0 -491 532q0 248 113 390q114 142 354 142t328 -133q79 -115 71 -280q-6 -64 -20 -123h-742q6 -444 400 -445q195 0 319 41l14 -81q-156 -43 -346 -43zM881 1245h-602v70h602v-70z" />
    <glyph glyph-name="Edotaccent" unicode="&#x116;" horiz-adv-x="1146" 
d="M262 770h643v-92h-643v-586h746v-92h-848v1393h837v-93h-735v-530zM623 1532h-99v229h99v-229z" />
    <glyph glyph-name="edotaccent" unicode="&#x117;" horiz-adv-x="1085" 
d="M223 575h649q39 212 -66 319q-71 73 -216 73q-336 -1 -367 -392zM610 -20q-492 0 -491 532q0 248 113 390q114 142 354 142t328 -133q79 -115 71 -280q-6 -64 -20 -123h-742q6 -444 400 -445q195 0 319 41l14 -81q-156 -43 -346 -43zM635 1163h-98v230h98v-230z" />
    <glyph glyph-name="Eogonek" unicode="&#x118;" horiz-adv-x="1146" 
d="M950 -403q-174 0 -174 133q0 139 174 270h-790v1393h837v-93h-735v-530h643v-92h-643v-586h746v-92q-68 -51 -115 -121t-47 -127q0 -111 115 -110q59 0 137 45l8 -31q-76 -59 -156 -59z" />
    <glyph glyph-name="eogonek" unicode="&#x119;" horiz-adv-x="1085" 
d="M223 575h649q39 212 -66 319q-71 73 -216 73q-336 -1 -367 -392zM795 -225q0 -111 114 -111q57 0 138 45l8 -31q-77 -59 -157 -59q-174 0 -173 133q0 133 149 254q-125 -27 -264 -26q-492 0 -491 532q0 248 113 390q114 142 354 142t328 -133q79 -115 71 -280
q-6 -64 -20 -123h-742q6 -444 400 -445q195 0 319 41l14 -81q-68 -49 -114 -120t-47 -128z" />
    <glyph glyph-name="Ecaron" unicode="&#x11a;" horiz-adv-x="1146" 
d="M262 770h643v-92h-643v-586h746v-92h-848v1393h837v-93h-735v-530zM324 1802h79l170 -227l172 227h78l-213 -286h-73z" />
    <glyph glyph-name="ecaron" unicode="&#x11b;" horiz-adv-x="1085" 
d="M223 575h649q39 212 -66 319q-71 73 -216 73q-336 -1 -367 -392zM610 -20q-492 0 -491 532q0 248 113 390q114 142 354 142t328 -133q79 -115 71 -280q-6 -64 -20 -123h-742q6 -444 400 -445q195 0 319 41l14 -81q-156 -43 -346 -43zM344 1434h80l170 -228l172 228h78
l-213 -287h-74z" />
    <glyph glyph-name="Gbreve" unicode="&#x11e;" horiz-adv-x="1310" 
d="M1151 684v-580q-72 -38 -119 -60t-138 -44t-187 -20q-336 0 -458 216q-110 192 -110 511q0 398 167 568q138 138 401 138q215 0 444 -65l-25 -88q-246 61 -385 61t-224 -34t-136 -89q-133 -142 -133 -500q0 -357 125 -493q125 -135 342 -133q180 0 334 102v418h-322v92
h424zM691 1593q175 0 224 199h48q-19 -132 -93 -196t-178 -64t-177 64t-93 196h49q45 -199 220 -199z" />
    <glyph glyph-name="gbreve" unicode="&#x11f;" horiz-adv-x="1136" 
d="M166 -150q0 -211 344 -210q196 0 318 66t122 190q0 139 -215 149l-399 21q-88 -56 -129 -102t-41 -114zM540 432q138 0 218 73t80 193t-81 199q-81 78 -223 78t-218 -76t-76 -200q0 -123 81 -195t219 -72zM147 696q1 162 105 255t291 93q59 0 133 -20h342v-63h-236
q146 -85 146 -255t-108 -256t-277 -85q-100 0 -168 26q-37 -33 -56 -74q-35 -57 -19 -112t83 -58l387 -22q283 -16 283 -213q1 -162 -141 -252t-431 -90q-397 0 -397 266q0 139 195 248v4q-84 40 -72 142t112 176v4q-172 86 -172 286zM270 1423h49q45 -199 221 -199t224 199
h47q-20 -133 -93 -196t-177 -63q-103 0 -177 62q-74 64 -94 197z" />
    <glyph glyph-name="Gdotaccent" unicode="&#x120;" horiz-adv-x="1310" 
d="M1151 684v-580q-72 -38 -119 -60t-138 -44t-187 -20q-336 0 -458 216q-110 192 -110 511q0 398 167 568q138 138 401 138q215 0 444 -65l-25 -88q-246 61 -385 61t-224 -34t-136 -89q-133 -142 -133 -500q0 -357 125 -493q125 -135 342 -133q180 0 334 102v418h-322v92
h424zM743 1532h-98v229h98v-229z" />
    <glyph glyph-name="gdotaccent" unicode="&#x121;" horiz-adv-x="1136" 
d="M166 -150q0 -211 344 -210q196 0 318 66t122 190q0 139 -215 149l-399 21q-88 -56 -129 -102t-41 -114zM540 432q138 0 218 73t80 193t-81 199q-81 78 -223 78t-218 -76t-76 -200q0 -123 81 -195t219 -72zM147 696q1 162 105 255t291 93q59 0 133 -20h342v-63h-236
q146 -85 146 -255t-108 -256t-277 -85q-100 0 -168 26q-37 -33 -56 -74q-35 -57 -19 -112t83 -58l387 -22q283 -16 283 -213q1 -162 -141 -252t-431 -90q-397 0 -397 266q0 139 195 248v4q-84 40 -72 142t112 176v4q-172 86 -172 286zM590 1163h-98v230h98v-230z" />
    <glyph glyph-name="Gcommaaccent" unicode="&#x122;" horiz-adv-x="1310" 
d="M616 -195v134h78v-134l-39 -178h-39l25 178h-25zM1151 684v-580q-72 -38 -119 -60t-138 -44t-187 -20q-336 0 -458 216q-110 192 -110 511q0 398 167 568q138 138 401 138q215 0 444 -65l-25 -88q-246 61 -385 61t-224 -34t-136 -89q-133 -142 -133 -500q0 -357 125 -493
q125 -135 342 -133q180 0 334 102v418h-322v92h424z" />
    <glyph glyph-name="gcommaaccent" unicode="&#x123;" horiz-adv-x="1136" 
d="M166 -150q0 -211 344 -210q196 0 318 66t122 190q0 139 -215 149l-399 21q-88 -56 -129 -102t-41 -114zM540 432q138 0 218 73t80 193t-81 199q-81 78 -223 78t-218 -76t-76 -200q0 -123 81 -195t219 -72zM147 696q1 162 105 255t291 93q59 0 133 -20h342v-63h-236
q146 -85 146 -255t-108 -256t-277 -85q-100 0 -168 26q-37 -33 -56 -74q-35 -57 -19 -112t83 -58l387 -22q283 -16 283 -213q1 -162 -141 -252t-431 -90q-397 0 -397 266q0 139 195 248v4q-84 40 -72 142t112 176v4q-172 86 -172 286zM580 1260v-134h-78v134l39 178h39
l-25 -178h25z" />
    <glyph glyph-name="Hbar" unicode="&#x126;" horiz-adv-x="1310" 
d="M1049 770v324h-787v-324h787zM160 1159v234h102v-234h787v234h102v-234h143v-65h-143v-1094h-102v678h-787v-678h-102v1094h-144v65h144z" />
    <glyph glyph-name="hbar" unicode="&#x127;" horiz-adv-x="1085" 
d="M238 870h4q188 174 397 174q307 0 307 -331v-713h-98v692q0 268 -248 269q-172 0 -362 -158v-803h-99v1176h-143v65h143v193h99v-193h235v-65h-235v-306z" />
    <glyph glyph-name="Imacron" unicode="&#x12a;" horiz-adv-x="421" 
d="M262 1393v-1393h-102v1393h102zM512 1655h-602v69h602v-69z" />
    <glyph glyph-name="imacron" unicode="&#x12b;" horiz-adv-x="376" 
d="M139 0v1024h99v-1024h-99zM489 1245h-602v70h602v-70z" />
    <glyph glyph-name="Iogonek" unicode="&#x12e;" horiz-adv-x="421" 
d="M160 0v1393h102v-1393q-80 -45 -131 -115t-51 -133q0 -111 115 -110q59 0 137 45l8 -31q-76 -59 -156 -59q-174 0 -174 133q0 72 50 144t126 126h-26z" />
    <glyph glyph-name="iogonek" unicode="&#x12f;" horiz-adv-x="376" 
d="M158 -403q-80 -1 -127 33t-47 102q0 137 176 268h-21v1024h99v-1024h-21q-68 -51 -115 -121t-47 -127q0 -111 115 -110q61 0 135 45l10 -31q-77 -59 -157 -59zM238 1163h-99v230h99v-230z" />
    <glyph glyph-name="Idotaccent" unicode="&#x130;" horiz-adv-x="421" 
d="M262 1393v-1393h-102v1393h102zM260 1573h-98v229h98v-229z" />
    <glyph glyph-name="dotlessi" unicode="&#x131;" horiz-adv-x="376" 
d="M238 1024v-1024h-99v1024h99z" />
    <glyph glyph-name="IJ" unicode="&#x132;" horiz-adv-x="1071" 
d="M911 1393v-1065q-1 -193 -71 -271t-213 -77q-82 0 -160 12l10 88q66 -10 125 -10q115 0 161 62t46 200v1061h102zM160 0v1393h102v-1393h-102z" />
    <glyph glyph-name="ij" unicode="&#x133;" horiz-adv-x="743" 
d="M602 1024v-1196q0 -142 -61 -200t-207 -58q-74 0 -148 12l11 78q86 -10 116 -10q111 0 152 42t41 148v1184h96zM238 1024v-1024h-99v1024h99zM602 1393v-230h-96v230h96zM238 1393v-230h-99v230h99z" />
    <glyph glyph-name="Kcommaaccent" unicode="&#x136;" horiz-adv-x="1265" 
d="M588 -195v134h78v-134l-39 -178h-39l24 178h-24zM262 0h-102v1393h102v-818l760 818h123l-518 -568l532 -825h-129l-479 743l-289 -307v-436z" />
    <glyph glyph-name="kcommaaccent" unicode="&#x137;" horiz-adv-x="1083" 
d="M485 -195v134h78v-134l-39 -178h-39l25 178h-25zM238 0h-99v1434h99v-891l604 481h123l-406 -336l426 -688h-117l-379 633l-251 -199v-434z" />
    <glyph glyph-name="Lacute" unicode="&#x139;" horiz-adv-x="1105" 
d="M987 92v-92h-827v1393h102v-1301h725zM305 1802h103l-158 -286h-78z" />
    <glyph glyph-name="lacute" unicode="&#x13a;" horiz-adv-x="376" 
d="M238 0h-99v1434h99v-1434zM287 1823h102l-158 -287h-77z" />
    <glyph glyph-name="Lcommaaccent" unicode="&#x13b;" horiz-adv-x="1105" 
d="M514 -195v134h78v-134l-39 -178h-39l25 178h-25zM987 92v-92h-827v1393h102v-1301h725z" />
    <glyph glyph-name="lcommaaccent" unicode="&#x13c;" horiz-adv-x="376" 
d="M150 -195v134h77v-134l-39 -178h-38l24 178h-24zM238 0h-99v1434h99v-1434z" />
    <glyph glyph-name="Lcaron" unicode="&#x13d;" horiz-adv-x="1105" 
d="M449 1159v234h98v-234l-55 -266h-39l30 266h-34zM987 92v-92h-827v1393h102v-1301h725z" />
    <glyph glyph-name="lcaron" unicode="&#x13e;" horiz-adv-x="417" 
d="M340 1300v134h78v-134l-39 -178h-39l25 178h-25zM238 0h-99v1434h99v-1434z" />
    <glyph glyph-name="Ldot" unicode="&#x13f;" horiz-adv-x="1105" 
d="M633 604h-98v234h98v-234zM987 92v-92h-827v1393h102v-1301h725z" />
    <glyph glyph-name="ldot" unicode="&#x140;" horiz-adv-x="452" 
d="M453 498h-99v233h99v-233zM238 0h-99v1434h99v-1434z" />
    <glyph glyph-name="Lslash" unicode="&#x141;" horiz-adv-x="1126" 
d="M283 92h725v-92h-828v725l-143 -35v64l143 34v605h103v-580l237 57v-63l-237 -57v-658z" />
    <glyph glyph-name="lslash" unicode="&#x142;" horiz-adv-x="458" 
d="M279 0h-99v688l-221 -55v65l221 54v682h99v-658l221 53v-63l-221 -53v-713z" />
    <glyph glyph-name="Nacute" unicode="&#x143;" horiz-adv-x="1331" 
d="M1071 193v1200h100v-1393h-102l-805 1192h-4v-1192h-100v1393h102l805 -1200h4zM762 1802h102l-157 -286h-78z" />
    <glyph glyph-name="nacute" unicode="&#x144;" horiz-adv-x="1085" 
d="M139 1024h99v-154h4q188 174 397 174q307 0 307 -331v-713h-98v692q0 268 -248 269q-172 0 -362 -158v-803h-99v1024zM631 1434h102l-158 -287h-77z" />
    <glyph glyph-name="Ncommaaccent" unicode="&#x145;" horiz-adv-x="1331" 
d="M627 -195v134h78v-134l-39 -178h-39l24 178h-24zM1071 193v1200h100v-1393h-102l-805 1192h-4v-1192h-100v1393h102l805 -1200h4z" />
    <glyph glyph-name="ncommaaccent" unicode="&#x146;" horiz-adv-x="1085" 
d="M508 -195v134h78v-134l-39 -178h-39l24 178h-24zM139 1024h99v-154h4q188 174 397 174q307 0 307 -331v-713h-98v692q0 268 -248 269q-172 0 -362 -158v-803h-99v1024z" />
    <glyph glyph-name="Ncaron" unicode="&#x147;" horiz-adv-x="1331" 
d="M1071 193v1200h100v-1393h-102l-805 1192h-4v-1192h-100v1393h102l805 -1200h4zM416 1802h80l170 -227l172 227h77l-213 -286h-73z" />
    <glyph glyph-name="ncaron" unicode="&#x148;" horiz-adv-x="1085" 
d="M139 1024h99v-154h4q188 174 397 174q307 0 307 -331v-713h-98v692q0 268 -248 269q-172 0 -362 -158v-803h-99v1024zM293 1434h80l170 -228l172 228h78l-213 -287h-74z" />
    <glyph glyph-name="Eng" unicode="&#x14a;" horiz-adv-x="1331" 
d="M260 1192v-1192h-100v1393h102l805 -1200h4v1200h100v-1567q0 -142 -62 -200t-208 -58q-45 0 -147 12l10 80q63 -10 119 -10q109 0 149 42t41 146v162l-809 1192h-4z" />
    <glyph glyph-name="eng" unicode="&#x14b;" horiz-adv-x="1085" 
d="M848 -160v852q0 268 -248 269q-172 0 -362 -158v-803h-99v1024h99v-154h4q188 174 397 174q307 0 307 -331v-885q0 -142 -62 -200t-208 -58q-70 0 -148 12l11 78q86 -10 118 -10q109 0 150 42t41 148z" />
    <glyph glyph-name="Omacron" unicode="&#x14c;" horiz-adv-x="1413" 
d="M707 1325q-141 0 -237 -49q-222 -114 -222 -569q0 -223 39 -336t87 -171t133 -96t200 -36q115 0 199 36t133 96q48 58 87 171t39 292t-17 278q-18 99 -64 193t-141 142q-95 49 -236 49zM707 1413q381 0 500 -294q67 -164 67 -412q0 -410 -167 -585q-135 -142 -400 -142
q-381 0 -501 303q-65 164 -67 424q0 398 167 568q138 138 401 138zM1008 1614h-602v69h602v-69z" />
    <glyph glyph-name="omacron" unicode="&#x14d;" horiz-adv-x="1126" 
d="M563 961q-342 0 -342 -449t342 -449t342 449t-342 449zM563 -20q-231 0 -338 142q-106 142 -106 390t106 390q105 142 337 142t338 -142t108 -390q0 -248 -107 -390t-338 -142zM864 1245h-602v70h602v-70z" />
    <glyph glyph-name="Ohungarumlaut" unicode="&#x150;" horiz-adv-x="1413" 
d="M707 1325q-141 0 -237 -49q-222 -114 -222 -569q0 -223 39 -336t87 -171t133 -96t200 -36q115 0 199 36t133 96q48 58 87 171t39 292t-17 278q-18 99 -64 193t-141 142q-95 49 -236 49zM707 1413q381 0 500 -294q67 -164 67 -412q0 -410 -167 -585q-135 -142 -400 -142
q-381 0 -501 303q-65 164 -67 424q0 398 167 568q138 138 401 138zM926 1761h67l-143 -245h-59zM707 1761h67l-143 -245h-60z" />
    <glyph glyph-name="ohungarumlaut" unicode="&#x151;" horiz-adv-x="1126" 
d="M563 961q-342 0 -342 -449t342 -449t342 449t-342 449zM563 -20q-231 0 -338 142q-106 142 -106 390t106 390q105 142 337 142t338 -142t108 -390q0 -248 -107 -390t-338 -142zM762 1393h67l-143 -246h-59zM543 1393h67l-143 -246h-59z" />
    <glyph glyph-name="OE" unicode="&#x152;" horiz-adv-x="2150" 
d="M1081 1140q-98 185 -378 185t-374 -191q-81 -164 -81 -412q0 -120 9 -206q9 -84 39 -171t78 -145t133 -96t200 -36q223 1 331 133q97 116 118 324q9 87 9 208q0 249 -84 407zM2001 1300h-735v-530h643v-92h-643v-586h745v-92h-846v336h-2q-33 -170 -133 -248t-188 -93
q-87 -15 -135 -15q-137 0 -241 40t-164 106q-160 173 -161 576q-2 403 165 573q138 138 401 138q365 0 458 -344v324h836v-93z" />
    <glyph glyph-name="oe" unicode="&#x153;" horiz-adv-x="1871" 
d="M563 961q-342 0 -342 -449t342 -449t342 449t-342 449zM1673 682q0 123 -71 204q-72 81 -228 81q-337 -1 -364 -392h649q14 61 14 107zM1395 -20q-360 0 -439 317q-72 -317 -393 -317q-231 0 -338 142q-106 142 -106 390t106 390t338 142q322 0 393 -317q78 317 424 317
q117 0 199 -34t121 -94q70 -107 72 -248q-1 -68 -21 -160h-741q4 -444 397 -445q195 0 322 41l14 -81q-158 -43 -348 -43z" />
    <glyph glyph-name="Racute" unicode="&#x154;" horiz-adv-x="1259" 
d="M262 684h424q145 0 233 82q87 82 87 222t-82 226t-222 86h-440v-616zM262 592v-592h-102v1393h553q189 0 293 -115t104 -279q0 -163 -91 -271t-253 -122l387 -606h-121l-373 592h-397zM672 1802h102l-158 -286h-77z" />
    <glyph glyph-name="racute" unicode="&#x155;" horiz-adv-x="757" 
d="M139 1024h99v-164h4q205 184 417 184v-92q-115 0 -229 -49t-192 -110v-793h-99v1024zM451 1434h102l-158 -287h-78z" />
    <glyph glyph-name="Rcommaaccent" unicode="&#x156;" horiz-adv-x="1259" 
d="M592 -195v134h78v-134l-39 -178h-39l24 178h-24zM262 684h424q145 0 233 82q87 82 87 222t-82 226t-222 86h-440v-616zM262 592v-592h-102v1393h553q189 0 293 -115t104 -279q0 -163 -91 -271t-253 -122l387 -606h-121l-373 592h-397z" />
    <glyph glyph-name="rcommaaccent" unicode="&#x157;" horiz-adv-x="757" 
d="M150 -195v134h77v-134l-39 -178h-38l24 178h-24zM139 1024h99v-164h4q205 184 417 184v-92q-115 0 -229 -49t-192 -110v-793h-99v1024z" />
    <glyph glyph-name="Rcaron" unicode="&#x158;" horiz-adv-x="1259" 
d="M262 684h424q145 0 233 82q87 82 87 222t-82 226t-222 86h-440v-616zM262 592v-592h-102v1393h553q189 0 293 -115t104 -279q0 -163 -91 -271t-253 -122l387 -606h-121l-373 592h-397zM326 1802h80l169 -227l173 227h77l-213 -286h-73z" />
    <glyph glyph-name="rcaron" unicode="&#x159;" horiz-adv-x="757" 
d="M139 1024h99v-164h4q205 184 417 184v-92q-115 0 -229 -49t-192 -110v-793h-99v1024zM145 1434h80l170 -228l172 228h78l-213 -287h-74z" />
    <glyph glyph-name="Sacute" unicode="&#x15a;" 
d="M614 1321q-346 0 -346 -258q0 -59 30 -109t70 -80q92 -72 302 -124q420 -90 420 -383q0 -187 -132 -287t-360 -100q-230 0 -459 65l21 88q246 -61 443 -61t288 86q90 86 90 202q0 58 -29 108t-60 78q-32 28 -98 56t-94 35q-29 8 -94 27q-117 26 -211 72t-165 133t-70 198
q0 176 125 261q125 86 337 86t441 -66l-23 -88q-246 61 -426 61zM711 1802h102l-158 -286h-77z" />
    <glyph glyph-name="sacute" unicode="&#x15b;" horiz-adv-x="983" 
d="M129 776q-1 270 373 268q194 0 366 -43l-18 -81q-174 45 -365 45q-86 0 -143 -23q-57 -22 -86 -66t-29 -107q-1 -63 55 -115t234 -89t268 -101t90 -198q0 -133 -90 -210t-262 -76q-242 0 -413 43l20 81q174 -45 383 -45q213 0 257 157q7 26 7 50q0 76 -58 126t-232 85
t-265 101q-92 66 -92 198zM621 1434h102l-158 -287h-78z" />
    <glyph glyph-name="Scedilla" unicode="&#x15e;" 
d="M614 1321q-346 0 -346 -258q0 -59 30 -109t70 -80q92 -72 302 -124q420 -90 420 -383q0 -183 -126 -283t-335 -104v-99q172 -8 172 -145q0 -72 -50 -114t-126 -42t-152 25l8 39q73 -18 133 -18t91 36q31 37 31 79t-34 76q-33 34 -116 36v127q-250 8 -447 65l21 88
q246 -61 443 -61t288 86q90 86 90 202q0 58 -29 108t-60 78q-32 28 -98 56t-94 35q-29 8 -94 27q-117 26 -211 72t-165 133t-70 198q0 176 125 261q125 86 337 86t441 -66l-23 -88q-246 61 -426 61z" />
    <glyph glyph-name="scedilla" unicode="&#x15f;" horiz-adv-x="983" 
d="M129 776q-1 270 373 268q194 0 366 -43l-18 -81q-174 45 -365 45q-86 0 -143 -23q-57 -22 -86 -66t-29 -107q-1 -63 55 -115t234 -89t268 -101t90 -197q0 -132 -89 -209t-259 -78v-99q172 -8 172 -145q0 -72 -51 -114t-125 -42t-151 25l8 39q73 -18 133 -18t90 36
q30 37 31 79q0 42 -34 76t-118 36v127q-219 6 -372 43l20 81q174 -45 383 -45q213 0 257 157q7 26 7 50q0 76 -58 126t-232 85t-265 101q-92 66 -92 198z" />
    <glyph glyph-name="Scaron" unicode="&#x160;" 
d="M614 1321q-346 0 -346 -258q0 -59 30 -109t70 -80q92 -72 302 -124q420 -90 420 -383q0 -187 -132 -287t-360 -100q-230 0 -459 65l21 88q246 -61 443 -61t288 86q90 86 90 202q0 58 -29 108t-60 78q-32 28 -98 56t-94 35q-29 8 -94 27q-117 26 -211 72t-165 133t-70 198
q0 176 125 261q125 86 337 86t441 -66l-23 -88q-246 61 -426 61zM365 1802h79l170 -227l172 227h78l-213 -286h-73z" />
    <glyph glyph-name="scaron" unicode="&#x161;" horiz-adv-x="983" 
d="M129 776q-1 270 373 268q194 0 366 -43l-18 -81q-174 45 -365 45q-86 0 -143 -23q-57 -22 -86 -66t-29 -107q-1 -63 55 -115t234 -89t268 -101t90 -198q0 -133 -90 -210t-262 -76q-242 0 -413 43l20 81q174 -45 383 -45q213 0 257 157q7 26 7 50q0 76 -58 126t-232 85
t-265 101q-92 66 -92 198zM260 1434h80l170 -228l172 228h78l-213 -287h-74z" />
    <glyph glyph-name="Tcedilla" unicode="&#x162;" horiz-adv-x="1146" 
d="M596 0v-119q172 -8 172 -145q0 -72 -51 -114t-125 -42t-154 25l11 39q74 -18 132 -18t90 37q32 38 31 79q0 41 -33 75q-34 34 -118 36v147h-29v1300h-403v93h909v-93h-403v-1300h-29z" />
    <glyph glyph-name="tcedilla" unicode="&#x163;" horiz-adv-x="768" 
d="M467 -20v-107q172 -8 172 -145q0 -72 -51 -114q-50 -42 -124 -42t-155 25l10 38q75 -18 133 -18t90 38t31 79q0 41 -33 75q-34 34 -118 35v140q-104 14 -153 88q-48 74 -48 231v647h-170v66l170 8l12 287h86v-287h320v-74h-320v-633q0 -133 43 -195t158 -63q33 0 119 11
l10 -78q-76 -12 -157 -12h-25z" />
    <glyph glyph-name="Tcaron" unicode="&#x164;" horiz-adv-x="1146" 
d="M522 0v1300h-403v93h909v-93h-403v-1300h-103zM324 1802h79l170 -227l172 227h78l-213 -286h-73z" />
    <glyph glyph-name="tcaron" unicode="&#x165;" horiz-adv-x="768" 
d="M319 1311v-287h320v-74h-320v-633q0 -133 43 -195t158 -63q33 0 119 11l10 -78q-76 -12 -157 -12q-143 0 -207 71q-63 72 -64 252v647h-170v66l170 8l12 287h86zM485 1321v133h78v-133l-39 -178h-39l25 178h-25z" />
    <glyph glyph-name="Tbar" unicode="&#x166;" horiz-adv-x="1146" 
d="M522 586v714h-403v93h909v-93h-403v-714h190v-66h-190v-520h-103v520h-190v66h190z" />
    <glyph glyph-name="tbar" unicode="&#x167;" horiz-adv-x="768" 
d="M98 528v64h123v358h-170v66l170 8l12 287h86v-287h320v-74h-320v-358h299v-64h-299v-211q0 -133 43 -195t158 -63q33 0 119 11l10 -78q-76 -12 -157 -12q-143 0 -207 71q-63 72 -64 252v225h-123z" />
    <glyph glyph-name="Umacron" unicode="&#x16a;" horiz-adv-x="1310" 
d="M262 1393v-901q0 -64 4 -108t27 -110t63 -106t118 -70t186 -30t183 30t113 71q38 42 61 105q23 62 27 110t5 108v901h102v-901q0 -264 -122 -388t-374 -124q-251 0 -373 124t-122 388v901h102zM956 1614h-602v69h602v-69z" />
    <glyph glyph-name="umacron" unicode="&#x16b;" horiz-adv-x="1085" 
d="M946 0h-98v154h-4q-188 -174 -398 -174q-307 0 -307 331v713h99v-692q0 -268 247 -269q172 0 363 158v803h98v-1024zM844 1245h-602v70h602v-70z" />
    <glyph glyph-name="Uring" unicode="&#x16e;" horiz-adv-x="1310" 
d="M262 1393v-901q0 -64 4 -108t27 -110t63 -106t118 -70t186 -30t183 30t113 71q38 42 61 105q23 62 27 110t5 108v901h102v-901q0 -264 -122 -388t-374 -124q-251 0 -373 124t-122 388v901h102zM547 1638q0 -46 32 -78q33 -32 79 -32t77 32t31 78t-31 79q-31 32 -78 32
t-79 -32t-31 -79zM506 1638q0 64 43 106t107 42t108 -42t43 -106q0 -64 -43 -105q-43 -42 -108 -42q-66 0 -108 42t-42 105z" />
    <glyph glyph-name="uring" unicode="&#x16f;" horiz-adv-x="1085" 
d="M946 0h-98v154h-4q-188 -174 -398 -174q-307 0 -307 331v713h99v-692q0 -268 247 -269q172 0 363 158v803h98v-1024zM434 1270q0 -47 32 -79t79 -32t78 32t30 79q0 47 -30 79q-31 31 -78 31t-79 -32t-32 -78zM393 1270q0 63 43 105q44 42 108 42t107 -42t43 -105
q0 -64 -43 -106t-107 -42t-108 42q-43 42 -43 106z" />
    <glyph glyph-name="Uhungarumlaut" unicode="&#x170;" horiz-adv-x="1310" 
d="M262 1393v-901q0 -64 4 -108t27 -110t63 -106t118 -70t186 -30t183 30t113 71q38 42 61 105q23 62 27 110t5 108v901h102v-901q0 -264 -122 -388t-374 -124q-251 0 -373 124t-122 388v901h102zM874 1761h68l-143 -245h-60zM655 1761h68l-143 -245h-60z" />
    <glyph glyph-name="uhungarumlaut" unicode="&#x171;" horiz-adv-x="1085" 
d="M946 0h-98v154h-4q-188 -174 -398 -174q-307 0 -307 331v713h99v-692q0 -268 247 -269q172 0 363 158v803h98v-1024zM762 1393h67l-143 -246h-59zM543 1393h67l-143 -246h-59z" />
    <glyph glyph-name="Uogonek" unicode="&#x172;" horiz-adv-x="1310" 
d="M262 1393v-901q0 -64 4 -108t27 -110t63 -106t118 -70t186 -30t183 30t113 71q38 42 61 105q23 62 27 110t5 108v901h102v-901q0 -258 -116 -382t-357 -130q-59 -48 -98 -112t-39 -116q0 -111 114 -110q57 0 138 45l8 -31q-77 -59 -157 -59q-174 0 -173 133
q0 127 150 252q-238 8 -350 132t-111 378v901h102z" />
    <glyph glyph-name="uogonek" unicode="&#x173;" horiz-adv-x="1085" 
d="M868 -403q-176 0 -176 136t176 267h-20v154h-4q-188 -174 -398 -174q-307 0 -307 331v713h99v-692q0 -268 247 -269q172 0 363 158v803h98v-1024h-20q-68 -51 -115 -121t-47 -127q0 -111 115 -110q61 0 135 45l10 -31q-76 -59 -156 -59z" />
    <glyph glyph-name="Wcircumflex" unicode="&#x174;" horiz-adv-x="1925" 
d="M487 -10l-389 1403h115l344 -1264h2l344 1264h123l346 -1264h2l344 1264h109l-389 -1403h-133l-340 1239h-4l-340 -1239h-134zM713 1516l213 286h73l213 -286h-77l-172 227l-170 -227h-80z" />
    <glyph glyph-name="wcircumflex" unicode="&#x175;" horiz-adv-x="1617" 
d="M440 -10l-325 1034h106l281 -918h4l258 918h94l270 -918h5l268 918h102l-317 -1034h-109l-266 882h-4l-260 -882h-107zM559 1147l213 287h74l213 -287h-78l-172 227l-170 -227h-80z" />
    <glyph glyph-name="Ycircumflex" unicode="&#x176;" horiz-adv-x="1269" 
d="M686 0h-102v492l-486 901h119l418 -791h4l420 791h112l-485 -901v-492zM385 1516l213 286h74l213 -286h-78l-172 227l-170 -227h-80z" />
    <glyph glyph-name="ycircumflex" unicode="&#x177;" horiz-adv-x="1146" 
d="M256 -430q-68 0 -121 12l10 84q43 -10 93 -10t93 24q45 24 71 50q59 60 133 245l-420 1049h110l365 -934h4l334 934h104l-409 -1112q-66 -180 -153 -261t-214 -81zM324 1147l213 287h73l213 -287h-78l-172 227l-170 -227h-79z" />
    <glyph glyph-name="Ydieresis" unicode="&#x178;" horiz-adv-x="1269" 
d="M686 0h-102v492l-486 901h119l418 -791h4l420 791h112l-485 -901v-492zM887 1546h-84v226h84v-226zM467 1546h-84v226h84v-226z" />
    <glyph glyph-name="Zacute" unicode="&#x179;" horiz-adv-x="1146" 
d="M1042 0h-938v78l781 1218v4h-740v93h877v-78l-774 -1219v-4h794v-92zM670 1802h102l-158 -286h-77z" />
    <glyph glyph-name="zacute" unicode="&#x17a;" horiz-adv-x="962" 
d="M205 78h682v-78h-811v74l669 868v4h-639v78h766v-74l-667 -868v-4zM573 1434h103l-158 -287h-78z" />
    <glyph glyph-name="Zdotaccent" unicode="&#x17b;" horiz-adv-x="1146" 
d="M1042 0h-938v78l781 1218v4h-740v93h877v-78l-774 -1219v-4h794v-92zM623 1532h-99v229h99v-229z" />
    <glyph glyph-name="zdotaccent" unicode="&#x17c;" horiz-adv-x="962" 
d="M205 78h682v-78h-811v74l669 868v4h-639v78h766v-74l-667 -868v-4zM530 1163h-98v230h98v-230z" />
    <glyph glyph-name="Zcaron" unicode="&#x17d;" horiz-adv-x="1146" 
d="M1042 0h-938v78l781 1218v4h-740v93h877v-78l-774 -1219v-4h794v-92zM324 1802h79l170 -227l172 227h78l-213 -286h-73z" />
    <glyph glyph-name="zcaron" unicode="&#x17e;" horiz-adv-x="962" 
d="M205 78h682v-78h-811v74l669 868v4h-639v78h766v-74l-667 -868v-4zM231 1434h80l170 -228l172 228h78l-213 -287h-74z" />
    <glyph glyph-name="Schwa" unicode="&#x18f;" horiz-adv-x="1355" 
d="M242 455q0 -175 97 -281t310 -106q302 0 400 236q53 128 57 319h-846q-18 -86 -18 -168zM1048 1274q166 -169 166 -579q0 -411 -166 -577q-140 -140 -399 -138q-510 0 -510 501q0 92 25 234h942q-7 344 -138 486q-111 120 -310 120t-445 -61l-25 88q229 66 475 66
t385 -140z" />
    <glyph glyph-name="florin" unicode="&#x192;" horiz-adv-x="706" 
d="M221 950h-170v66l170 8v86q-1 180 63 252t208 72q70 0 147 -13l-10 -78q-86 10 -119 11q-111 0 -151 -62t-40 -196v-72h310v-74h-310v-1042q0 -184 -62 -261t-208 -77q-70 0 -147 12l10 78q86 -10 119 -10q111 0 151 61t39 197v1042z" />
    <glyph glyph-name="Scommaaccent" unicode="&#x218;" 
d="M575 -195v134h78v-134l-39 -178h-39l25 178h-25zM614 1321q-346 0 -346 -258q0 -59 30 -109t70 -80q92 -72 302 -124q420 -90 420 -383q0 -187 -132 -287t-360 -100q-230 0 -459 65l21 88q246 -61 443 -61t288 86q90 86 90 202q0 58 -29 108t-60 78q-32 28 -98 56t-94 35
q-29 8 -94 27q-117 26 -211 72t-165 133t-70 198q0 176 125 261q125 86 337 86t441 -66l-23 -88q-246 61 -426 61z" />
    <glyph glyph-name="scommaaccent" unicode="&#x219;" horiz-adv-x="983" 
d="M457 -195v134h78v-134l-39 -178h-39l24 178h-24zM129 776q-1 270 373 268q194 0 366 -43l-18 -81q-174 45 -365 45q-86 0 -143 -23q-57 -22 -86 -66t-29 -107q-1 -63 55 -115t234 -89t268 -101t90 -198q0 -133 -90 -210t-262 -76q-242 0 -413 43l20 81q174 -45 383 -45
q213 0 257 157q7 26 7 50q0 76 -58 126t-232 85t-265 101q-92 66 -92 198z" />
    <glyph glyph-name="uni021A" unicode="&#x21a;" horiz-adv-x="1146" 
d="M535 -195v134h77v-134l-39 -178h-38l24 178h-24zM522 0v1300h-403v93h909v-93h-403v-1300h-103z" />
    <glyph glyph-name="uni021B" unicode="&#x21b;" horiz-adv-x="768" 
d="M371 -195v134h78v-134l-39 -178h-39l24 178h-24zM319 1311v-287h320v-74h-320v-633q0 -133 43 -195t158 -63q33 0 119 11l10 -78q-76 -12 -157 -12q-143 0 -207 71q-63 72 -64 252v647h-170v66l170 8l12 287h86z" />
    <glyph glyph-name="dotlessj" unicode="&#x237;" horiz-adv-x="458" 
d="M319 1024v-1196q0 -142 -62 -200t-208 -58q-70 0 -147 12l10 78q86 -10 119 -10q109 0 149 42t41 148v1184h98z" />
    <glyph glyph-name="schwa" unicode="&#x259;" horiz-adv-x="1085" 
d="M862 449h-649q-39 -212 67 -319q71 -73 216 -73q335 1 366 392zM475 1044q492 0 492 -532q0 -248 -114 -390t-353 -142t-329 133q-77 112 -71 280q7 64 21 123h741q-6 444 -399 445q-195 0 -320 -41l-14 81q156 43 346 43z" />
    <glyph glyph-name="circumflex" unicode="&#x2c6;" horiz-adv-x="765" 
d="M213 1147h-80l213 287h74l213 -287h-78l-172 227z" />
    <glyph glyph-name="caron" unicode="&#x2c7;" horiz-adv-x="765" 
d="M213 1434l170 -228l172 228h78l-213 -287h-74l-213 287h80z" />
    <glyph glyph-name="breve" unicode="&#x2d8;" horiz-adv-x="806" 
d="M403.5 1163q-104.5 0 -177.5 63.5t-93 196.5h49q45 -199 220 -198.5t225 198.5h47q-20 -133 -93 -196.5t-177.5 -63.5z" />
    <glyph glyph-name="dotaccent" unicode="&#x2d9;" horiz-adv-x="356" 
d="M227 1163h-98v230h98v-230z" />
    <glyph glyph-name="ring" unicode="&#x2da;" horiz-adv-x="567" 
d="M174 1270q0 -47 32 -79t79 -32t77.5 32t30.5 79t-30.5 78.5t-77.5 31.5t-79 -31.5t-32 -78.5zM133 1269.5q0 63.5 43 105.5q44 42 108 42t107 -42t43 -105.5t-43 -105.5t-107 -42t-107.5 42t-43.5 105.5z" />
    <glyph glyph-name="ogonek" unicode="&#x2db;" horiz-adv-x="598" 
d="M308 -403q-176 0 -175 136q0 136 176 267h58q-68 -51 -115 -121t-47 -127q0 -111 114 -110q62 0 136 45l10 -31q-77 -59 -157 -59z" />
    <glyph glyph-name="tilde" unicode="&#x2dc;" horiz-adv-x="913" 
d="M616 1178q-39 0 -132 62.5t-134 62.5t-73.5 -18.5t-108.5 -94.5l-35 39q68 86 114 117.5t100 31.5t146.5 -63.5t122.5 -63.5q73 1 134 107l30 -41q-72 -139 -164 -139z" />
    <glyph glyph-name="hungarumlaut" unicode="&#x2dd;" horiz-adv-x="688" 
d="M487 1393h68l-143 -246h-60zM268 1393h68l-143 -246h-60z" />
    <glyph glyph-name="commaaccentcomb" unicode="&#x326;" horiz-adv-x="0" 
d="M147 -195v134h78v-134l-39 -178h-39l25 178h-25z" />
    <glyph glyph-name="Delta" unicode="&#x394;" horiz-adv-x="1286" 
d="M164 49h913l-489 1241zM1184 0h-1082l500 1454z" />
    <glyph glyph-name="Omega" unicode="&#x3a9;" horiz-adv-x="1372" 
d="M528 74v190q-194 20 -302 173t-107 362q0 270 138 442t429 172t429 -172t138 -442q1 -209 -107 -362t-302 -173v-190h409v-74h-483v313q188 5 282 145t93 341q0 397 -276 496q-81 30 -183 30q-455 0 -458 -537q-2 -190 92 -329t282 -146v-313h-483v74h409z" />
    <glyph glyph-name="mu" unicode="&#x3bc;" horiz-adv-x="1085" 
d="M238 1024v-711q6 -250 247 -250q172 0 363 158v803h98v-1024h-98v154h-4q-182 -160 -363 -168q-190 -4 -243 131v-209q0 -188 -66 -263t-209 -75q-66 0 -143 12l10 78q86 -10 119 -10q115 0 153 63t37 195v1116h99z" />
    <glyph glyph-name="pi" unicode="&#x3c0;" horiz-adv-x="1085" 
d="M139 0v1024h807v-1024h-98v936h-610v-936h-99z" />
    <glyph glyph-name="Wgrave" unicode="&#x1e80;" horiz-adv-x="1925" 
d="M487 -10l-389 1403h115l344 -1264h2l344 1264h123l346 -1264h2l344 1264h109l-389 -1403h-133l-340 1239h-4l-340 -1239h-134zM870 1802l134 -286h-78l-158 286h102z" />
    <glyph glyph-name="wgrave" unicode="&#x1e81;" horiz-adv-x="1617" 
d="M440 -10l-325 1034h106l281 -918h4l258 918h94l270 -918h5l268 918h102l-317 -1034h-109l-266 882h-4l-260 -882h-107zM715 1434l133 -287h-78l-158 287h103z" />
    <glyph glyph-name="Wacute" unicode="&#x1e82;" horiz-adv-x="1925" 
d="M487 -10l-389 1403h115l344 -1264h2l344 1264h123l346 -1264h2l344 1264h109l-389 -1403h-133l-340 1239h-4l-340 -1239h-134zM1059 1802h102l-157 -286h-78z" />
    <glyph glyph-name="wacute" unicode="&#x1e83;" horiz-adv-x="1617" 
d="M440 -10l-325 1034h106l281 -918h4l258 918h94l270 -918h5l268 918h102l-317 -1034h-109l-266 882h-4l-260 -882h-107zM911 1430h103l-158 -287h-78z" />
    <glyph glyph-name="Wdieresis" unicode="&#x1e84;" horiz-adv-x="1925" 
d="M487 -10l-389 1403h115l344 -1264h2l344 1264h123l346 -1264h2l344 1264h109l-389 -1403h-133l-340 1239h-4l-340 -1239h-134zM1214 1546h-84v226h84v-226zM795 1546h-84v226h84v-226z" />
    <glyph glyph-name="wdieresis" unicode="&#x1e85;" horiz-adv-x="1617" 
d="M440 -10l-325 1034h106l281 -918h4l258 918h94l270 -918h5l268 918h102l-317 -1034h-109l-266 882h-4l-260 -882h-107zM1061 1178h-84v225h84v-225zM641 1178h-84v225h84v-225z" />
    <glyph glyph-name="Ygrave" unicode="&#x1ef2;" horiz-adv-x="1269" 
d="M686 0h-102v492l-486 901h119l418 -791h4l420 791h112l-485 -901v-492zM543 1802l133 -286h-78l-158 286h103z" />
    <glyph glyph-name="ygrave" unicode="&#x1ef3;" horiz-adv-x="1146" 
d="M256 -430q-68 0 -121 12l10 84q43 -10 93 -10t93 24q45 24 71 50q59 60 133 245l-420 1049h110l365 -934h4l334 934h104l-409 -1112q-66 -180 -153 -261t-214 -81zM477 1434l133 -287h-78l-157 287h102z" />
    <glyph glyph-name="figuredash" unicode="&#x2012;" horiz-adv-x="1417" 
d="M1278 502h-1139v82h1139v-82z" />
    <glyph glyph-name="endash" unicode="&#x2013;" horiz-adv-x="1417" 
d="M1278 502h-1139v82h1139v-82z" />
    <glyph glyph-name="emdash" unicode="&#x2014;" horiz-adv-x="1556" 
d="M1417 502h-1278v82h1278v-82z" />
    <glyph glyph-name="quoteleft" unicode="&#x2018;" horiz-adv-x="376" 
d="M238 1126v-233h-99v233l56 267h38l-30 -267h35z" />
    <glyph glyph-name="quoteright" unicode="&#x2019;" horiz-adv-x="376" 
d="M139 1159v234h99v-234l-56 -266h-39l31 266h-35z" />
    <glyph glyph-name="quotesinglbase" unicode="&#x201a;" horiz-adv-x="376" 
d="M139 -29v234h99v-234l-56 -266h-39l31 266h-35z" />
    <glyph glyph-name="quotedblleft" unicode="&#x201c;" horiz-adv-x="827" 
d="M688 1126v-233h-98v233q4 18 55 267h39l-31 -267h35zM238 1126v-233h-99v233l56 267h38l-30 -267h35z" />
    <glyph glyph-name="quotedblright" unicode="&#x201d;" horiz-adv-x="827" 
d="M590 1159v234h98v-234l-55 -266h-39l31 266h-35zM139 1159v234h99v-234l-56 -266h-39l31 266h-35z" />
    <glyph glyph-name="quotedblbase" unicode="&#x201e;" horiz-adv-x="827" 
d="M590 -29v234h98v-234l-55 -266h-39l31 266h-35zM139 -29v234h99v-234l-56 -266h-39l31 266h-35z" />
    <glyph glyph-name="dagger" unicode="&#x2020;" horiz-adv-x="1187" 
d="M641 0h-94v936l-408 -4v92l404 -4v414h98v-414l408 4v-92l-408 4v-936z" />
    <glyph glyph-name="daggerdbl" unicode="&#x2021;" horiz-adv-x="1187" 
d="M543 1434h98v-439l408 6v-92l-408 4v-393l408 4v-92l-404 6v-438h-98v438l-408 -6v92l408 -4v393l-408 -4v92l404 -6v439z" />
    <glyph glyph-name="bullet" unicode="&#x2022;" horiz-adv-x="458" 
d="M279 395h-99v234h99v-234z" />
    <glyph glyph-name="onedotenleader" unicode="&#x2024;" horiz-adv-x="376" 
d="M238 0h-99v233h99v-233z" />
    <glyph glyph-name="twodotenleader" unicode="&#x2025;" horiz-adv-x="630" 
d="M489 0h-96v233h96v-233zM238 0h-99v233h99v-233z" />
    <glyph glyph-name="ellipsis" unicode="&#x2026;" horiz-adv-x="1196" 
d="M1057 0h-99v233h99v-233zM647 0h-98v233h98v-233zM238 0h-99v233h99v-233z" />
    <glyph glyph-name="perthousand" unicode="&#x2030;" horiz-adv-x="2189" 
d="M1819 51q197 0 197 214t-198 214q-196 0 -196 -214t197 -214zM1185 51q197 0 197 214t-198 214t-197 -214q0 -214 198 -214zM1819 -4q-127 0 -196 71t-69 197t69 199q69 72 196 72t195 -72t67 -198q1 -125 -67 -197t-195 -72zM1184 -4q-127 0 -195 72q-67 72 -67 198
t67 197q68 72 195 72q128 0 196 -72t68 -199q0 -128 -68 -198t-196 -70zM372 913q198 0 198 214t-198 214t-198 -214t198 -214zM434 0h-69l757 1393h70zM373 858q-127 0 -196 72t-69 198t69 198q69 71 196 71t195 -72t67 -198q1 -125 -67 -197t-195 -72z" />
    <glyph glyph-name="guilsinglleft" unicode="&#x2039;" horiz-adv-x="778" 
d="M639 885v-92l-397 -281l397 -281v-92l-500 340v66z" />
    <glyph glyph-name="guilsinglright" unicode="&#x203a;" horiz-adv-x="778" 
d="M139 139v92l398 281l-398 281v92l500 -340v-66z" />
    <glyph glyph-name="exclamdbl" unicode="&#x203c;" horiz-adv-x="630" 
d="M489 233v-233h-96v233h96zM238 233v-233h-99v233h99zM489 1393v-959h-96v959h96zM238 1393v-959h-99v959h99z" />
    <glyph glyph-name="fraction" unicode="&#x2044;" horiz-adv-x="919" 
d="M100 0h-39l758 1393h39z" />
    <glyph glyph-name="colonsign" unicode="&#x20a1;" horiz-adv-x="1290" 
d="M815 -205v189q-66 -4 -123 -4t-135 14v-199h-49v209q-219 62 -299 264q-68 171 -70 439q0 419 186 583q75 66 183 99v208h49v-198q81 14 137 14t121 -4v188h49v-192q141 -10 301 -57l-22 -88q-265 61 -415 61t-246 -48q-234 -116 -234 -566q0 -360 123 -497
q123 -138 346 -138q172 0 426 61l22 -88q-141 -41 -301 -57v-193h-49z" />
    <glyph glyph-name="uni20A8" unicode="&#x20a8;" horiz-adv-x="1357" 
d="M1245 1393v-54h-381q176 -102 183 -335h198v-54h-201q-12 -141 -102 -235t-240 -109l388 -606h-121l-373 592h-436v92h463q135 0 219 71t96 195h-778v54h780q-4 133 -84 215t-217 81h-479v93h1085z" />
    <glyph glyph-name="Euro" unicode="&#x20ac;" horiz-adv-x="1433" 
d="M375 719q0 -55 4 -133h459l-13 -66h-430q33 -200 142 -324t325 -124t410 161l37 -79q-59 -47 -99 -75t-148 -64t-228 -35q-246 0 -381 147t-172 393h-156v66h147q-4 37 -4 113t2 108h-145v65h154q33 246 168 394q136 147 387 147q120 0 228 -36q108 -35 148 -63t99 -75
l-37 -80q-195 162 -413 162t-328 -123t-140 -326h447l-13 -65h-448q-2 -33 -2 -88z" />
    <glyph glyph-name="uni2113" unicode="&#x2113;" horiz-adv-x="919" 
d="M410 1112v-395q274 317 274 495q0 84 -39 134t-98 49q-59 1 -98 -57t-39 -226zM410 317q0 -276 166 -276t245 270h37q-43 -170 -129 -251q-86 -80 -183 -80t-168 50t-98 126t-26 227v106l-168 -170l-25 23l193 203v497q0 208 84 310t203 102q90 0 143 -55t53 -153
t-63 -226q-63 -127 -264 -358v-345z" />
    <glyph glyph-name="uni2116" unicode="&#x2116;" horiz-adv-x="2215" 
d="M2056 592h-684v63h684v-63zM1714 776q131 0 201 77t70 212t-70 212t-201 77t-201 -77q-69 -77 -69 -212t70 -212t200 -77zM160 1393h102l805 -1200h4v1200h100v-1393h-102l-805 1192h-4v-1192h-100v1393zM1714 717q-166 0 -254 92t-88 256t88 256t254 92t254 -92t88 -256
t-88 -256t-254 -92z" />
    <glyph glyph-name="trademark" unicode="&#x2122;" horiz-adv-x="1607" 
d="M1513 1393v-705h-63v580h-4l-260 -580h-53l-254 580v-580h-62v705h84l260 -600h4l265 600h83zM385 1333v-645h-66v645h-227v60h520v-60h-227z" />
    <glyph glyph-name="estimated" unicode="&#x212e;" horiz-adv-x="1507" 
d="M1143 813v387q-168 158 -392 158t-386 -158v-387h778zM365 715v-482q166 -160 389 -159q334 0 516 321l94 -53q-139 -197 -273 -280t-337 -82q-305 0 -499 208t-194 529t194 529t491 208q296 0 492 -192t208 -547h-1081z" />
    <glyph glyph-name="oneeighth" unicode="&#x215b;" horiz-adv-x="1638" 
d="M1122 166q0 -60 44 -102t136 -42t135 40q42 40 42 92t-31 87q-31 34 -64 49t-92 38q-170 -62 -170 -162zM1300 653q-59 -1 -109 -29t-50 -100q0 -98 166 -147q154 53 153 145q0 72 -50 102q-51 29 -110 29zM1534 156q0 -76 -61 -126t-173 -50t-174 49q-61 49 -61 133
q0 125 182 186q-80 33 -121 73q-41 39 -41 111q-1 72 59 118t155 46t155 -45t59 -115q1 -70 -39 -109q-40 -38 -120 -69q88 -41 134 -83q46 -43 46 -119zM319 723v588q-178 -100 -192 -109l-16 43q160 82 225 133h39v-655h215v-47h-486v47h215zM479 0h-39l758 1393h39z" />
    <glyph glyph-name="threeeighths" unicode="&#x215c;" horiz-adv-x="1638" 
d="M1122 166q0 -60 44 -102t136 -42t135 40q42 40 42 92t-31 87q-31 34 -64 49t-92 38q-170 -62 -170 -162zM1300 653q-59 -1 -109 -29t-50 -100q0 -98 166 -147q154 53 153 145q0 72 -50 102q-51 29 -110 29zM1534 156q0 -76 -61 -126t-173 -50t-174 49q-61 49 -61 133
q0 125 182 186q-80 33 -121 73q-41 39 -41 111q-1 72 59 118t155 46t155 -45t59 -115q1 -70 -39 -109q-40 -38 -120 -69q88 -41 134 -83q46 -43 46 -119zM320 1372q104 0 158 -48t54 -123t-40 -119t-103 -62q76 -14 120 -60t44 -114q0 -190 -234 -191q-133 0 -215 54l19 43
q86 -50 190 -50t144 42q39 42 39 92q0 156 -193 155h-82v45h78q84 0 131 44t47 102t-35 100q-35 43 -119 43t-182 -49l-18 43q93 53 197 53zM467 0h-41l758 1393h41z" />
    <glyph glyph-name="fiveeighths" unicode="&#x215d;" horiz-adv-x="1638" 
d="M1122 166q0 -60 44 -102t136 -42t135 40q42 40 42 92t-31 87q-31 34 -64 49t-92 38q-170 -62 -170 -162zM1300 653q-59 -1 -109 -29t-50 -100q0 -98 166 -147q154 53 153 145q0 72 -50 102q-51 29 -110 29zM1534 156q0 -76 -61 -126t-173 -50t-174 49q-61 49 -61 133
q0 125 182 186q-80 33 -121 73q-41 39 -41 111q-1 72 59 118t155 46t155 -45t59 -115q1 -70 -39 -109q-40 -38 -120 -69q88 -41 134 -83q46 -43 46 -119zM346 1102q98 0 152 -58t55 -160q0 -104 -66 -166t-172 -62t-211 57l17 43q211 -108 321 -4q54 49 54 125q0 75 -39 125
t-128 50t-151 -83l-41 4l19 389h356v-49h-309l-17 -291l2 -2q60 82 158 82zM467 0h-41l758 1393h41z" />
    <glyph glyph-name="seveneighths" unicode="&#x215e;" horiz-adv-x="1638" 
d="M1122 166q0 -60 44 -102t136 -42t135 40q42 40 42 92t-31 87q-31 34 -64 49t-92 38q-170 -62 -170 -162zM1300 653q-59 -1 -109 -29t-50 -100q0 -98 166 -147q154 53 153 145q0 72 -50 102q-51 29 -110 29zM1534 156q0 -76 -61 -126t-173 -50t-174 49q-61 49 -61 133
q0 125 182 186q-80 33 -121 73q-41 39 -41 111q-1 72 59 118t155 46t155 -45t59 -115q1 -70 -39 -109q-40 -38 -120 -69q88 -41 134 -83q46 -43 46 -119zM481 1323h-377v49h439v-41q-229 -367 -279 -655h-57q23 144 103 328t171 317v2zM365 0h-41l757 1393h41z" />
    <glyph glyph-name="partialdiff" unicode="&#x2202;" horiz-adv-x="1177" 
d="M934 625q-49 100 -128 160q-79 61 -179 61q-266 1 -364 -260q-24 -63 -34 -135q-25 -179 57 -283t222 -105q244 0 348 240q58 133 78 322zM587 1413q128 0 218 -40t158 -133q129 -176 75 -626q-92 -635 -551 -634q-184 0 -287 128q-104 128 -72 350t160 348t328 126
q109 0 194 -58t138 -161h2l4 2q11 70 -2 226q-14 156 -103 272t-295 116q-112 0 -253 -45q-4 24 -4 78q162 51 290 51z" />
    <glyph glyph-name="emptyset" unicode="&#x2205;" horiz-adv-x="1413" 
d="M707 68q115 0 199 36t133 96q48 58 87 171t39 336q1 381 -153 520l-588 -1075q106 -84 283 -84zM723 1325q-157 0 -253 -49q-222 -114 -222 -569q-1 -394 155 -537l588 1075q-111 80 -268 80zM139 707q0 398 167 568q138 138 401 138q201 0 331 -82l78 144h31l-88 -160
q215 -160 215 -589t-167 -604q-137 -144 -400 -142q-203 0 -330 86l-80 -148h-31l88 162q-215 166 -215 627z" />
    <glyph glyph-name="product" unicode="&#x220f;" horiz-adv-x="1331" 
d="M160 0v1434h1011v-1434h-98v1346h-815v-1346h-98z" />
    <glyph glyph-name="summation" unicode="&#x2211;" horiz-adv-x="1126" 
d="M266 92h735v-92h-876v78l393 614l-393 623v78h876v-93h-739v-4l385 -602l-381 -598v-4z" />
    <glyph glyph-name="minus" unicode="&#x2212;" horiz-adv-x="1024" 
d="M885 502h-746v82h746v-82z" />
    <glyph glyph-name="bulletoperator" unicode="&#x2219;" horiz-adv-x="458" 
d="M279 395h-99v234h99v-234z" />
    <glyph glyph-name="radical" unicode="&#x221a;" horiz-adv-x="1654" 
d="M180 799h416l264 -693h4l504 1328h105l-555 -1444h-117l-293 745h-328v64z" />
    <glyph glyph-name="infinity" unicode="&#x221e;" horiz-adv-x="1404" 
d="M362 743q-104 0 -172 -63q-68 -62 -68 -166t66 -170q64 -66 172 -66t185 74q76 74 112 154q-33 82 -112 160q-80 77 -183 77zM1050 745q-110 1 -191 -75t-118 -162q35 -90 119 -159t190 -69t168 68t62 164t-60 165q-60 68 -170 68zM342 217q-127 0 -206 80t-79 214
t85 215t233 81q203 0 327 -248q131 248 351 248q135 0 215 -81t80 -211t-83 -214t-229 -84q-96 1 -190 63t-150 177q-47 -98 -137 -169t-217 -71z" />
    <glyph glyph-name="integral" unicode="&#x222b;" horiz-adv-x="706" 
d="M221 -160v1270q-1 180 63 252t208 72q70 0 147 -13l-10 -78q-86 10 -119 11q-111 0 -151 -62t-40 -196v-1268q0 -138 -60 -198t-210 -60q-70 0 -147 12l10 78q86 -10 119 -10q113 0 151 43t39 147z" />
    <glyph glyph-name="approxequal" unicode="&#x2248;" horiz-adv-x="1028" 
d="M354 436q52 0 196 -63t175 -64q76 1 133 101l31 -31q-37 -70 -74 -104q-37 -33 -83 -33t-190 62t-182 62t-76 -18q-36 -20 -110 -94l-35 29q70 85 116 119t99 34zM732 651q-46 1 -190 63t-182 62t-76 -19q-36 -19 -110 -93l-35 28q70 86 116 120t99 34q52 0 196 -64
t175 -63q76 0 133 100l31 -31q-37 -70 -74 -104t-83 -33z" />
    <glyph glyph-name="notequal" unicode="&#x2260;" horiz-adv-x="1024" 
d="M139 707v81h482l245 451h49l-245 -451h215v-81h-260l-179 -328h439v-82h-482l-245 -451h-49l243 451h-213v82h258l178 328h-436z" />
    <glyph glyph-name="lessequal" unicode="&#x2264;" horiz-adv-x="983" 
d="M844 141v-63h-705v63h705zM823 973v-74l-561 -285l561 -284v-74l-663 332v53z" />
    <glyph glyph-name="greaterequal" unicode="&#x2265;" horiz-adv-x="983" 
d="M139 141h705v-63h-705v63zM160 973l663 -332v-53l-663 -332v74l561 284l-561 285v74z" />
    <glyph glyph-name="lozenge" unicode="&#x25ca;" horiz-adv-x="966" 
d="M483 70l338 635l-338 634l-338 -634zM61 705l408 765h29l407 -765l-407 -766h-29z" />
    <glyph glyph-name="a.sups" horiz-adv-x="610" 
d="M326 1135q-168 0 -168 -115q0 -49 35 -80t113 -31t147 58v168h-127zM453 1167v68q0 67 -32 97q-33 30 -101 30t-168 -19q-9 27 -9 41q243 45 316 -18q43 -37 43 -129v-356h-49v51q-86 -62 -169 -62t-129 39t-46 107q0 152 215 151h129z" />
    <glyph glyph-name="b.sups" horiz-adv-x="630" 
d="M471 1136q0 226 -158 226q-83 0 -155 -55v-338q68 -57 155 -58q158 -1 158 225zM158 1341h2q68 61 170 62q192 0 192 -266t-194 -267q-102 0 -170 62h-2l-11 -51h-36v716h49v-256z" />
    <glyph glyph-name="d.sups" horiz-adv-x="630" 
d="M317 1362q-157 0 -157 -225t157 -226q88 0 156 58v338q-72 55 -156 55zM473 1341v256h49v-716h-49v51h-2q-72 -61 -168 -62q-195 0 -195 266t193 267q102 0 170 -62h2z" />
    <glyph glyph-name="e.sups" horiz-adv-x="651" 
d="M344 1364q-170 0 -182 -197h323q7 45 5 84t-38 76t-108 37zM162 1135q0 -223 198 -224q84 0 160 21q6 -37 6 -39q-82 -23 -172 -23q-246 0 -246 266t238 267q109 0 152 -56q64 -83 32 -212h-368z" />
    <glyph glyph-name="h.sups" horiz-adv-x="620" 
d="M158 881h-49v716h49v-282h2q92 88 198 88q154 0 154 -166v-356h-49v346q0 135 -125 135q-90 0 -180 -80v-401z" />
    <glyph glyph-name="i.sups" horiz-adv-x="266" 
d="M158 1393v-512h-49v512h49zM158 1597v-114h-49v114h49z" />
    <glyph glyph-name="l.sups" horiz-adv-x="266" 
d="M109 1597h49v-716h-49v716z" />
    <glyph glyph-name="m.sups" horiz-adv-x="927" 
d="M487 881h-49v348q0 133 -123 133q-68 0 -157 -80v-401h-49v512h49v-78h2q88 88 174 88q115 0 145 -94q86 94 187 94q154 0 153 -166v-356h-49v346q0 135 -125 135q-72 0 -160 -82l2 -57v-342z" />
    <glyph glyph-name="n.sups" horiz-adv-x="620" 
d="M158 881h-49v512h49v-78h2q92 88 198 88q154 0 154 -166v-356h-49v346q0 135 -125 135q-90 0 -180 -80v-401z" />
    <glyph glyph-name="o.sups" horiz-adv-x="661" 
d="M502 1136q0 226 -171 226t-171 -225t172 -226q170 -1 170 225zM331 870q-222 0 -222 266t222 267q222 -1 222 -267t-222 -266z" />
    <glyph glyph-name="r.sups" horiz-adv-x="477" 
d="M158 881h-49v512h49v-82h2q100 92 209 92v-47q-106 0 -211 -78v-397z" />
    <glyph glyph-name="s.sups" horiz-adv-x="600" 
d="M168 1272q0 -37 28 -64t118 -45t133 -50q44 -32 45 -95q0 -147 -177 -148q-123 0 -206 23l10 39q79 -20 163 -20t117 23q33 24 38 43t5 47q0 68 -143 95q-86 16 -133 49t-47 101q0 133 176 133q106 -1 194 -21l-10 -41q-80 20 -182 21q-129 0 -129 -90z" />
    <glyph glyph-name="t.sups" horiz-adv-x="516" 
d="M242 1040q0 -129 83 -129q40 0 78 7l5 -41q-40 -7 -96 -7q-121 -1 -119 162v324h-84v33l84 4l8 143h41v-143h159v-37h-159v-316z" />
    <glyph glyph-name="T_h" horiz-adv-x="2109" 
d="M1262 0h-99v1300h-538v-1300h-103v1300h-403v93h1143v-523h4q188 174 397 174q307 0 307 -331v-713h-98v692q0 268 -248 269q-172 0 -362 -158v-803z" />
    <glyph glyph-name="f_f_j" horiz-adv-x="1667" 
d="M1430 950h-506v-950h-99v950h-506v-950h-98v950h-170v66l170 8v86q-1 180 63 252t208 72q70 0 147 -13l-10 -78q-86 10 -119 11q-111 0 -151 -62t-40 -196v-72h506v72q0 178 88 258t258 80t326 -70l-14 -74q-156 64 -299 64q-144 0 -202 -65t-58 -193v-72h604v-1196
q0 -142 -62 -200t-209 -58q-70 0 -147 12l10 78q86 -10 119 -10q109 0 150 42t41 148v1110z" />
    <glyph glyph-name="f_j" horiz-adv-x="1062" 
d="M825 950h-506v-950h-98v950h-170v66l170 8v72q0 178 88 258t258 80t326 -70l-14 -74q-156 64 -299 64q-144 0 -202 -65t-59 -193v-72h605v-1196q0 -142 -62 -200t-209 -58q-72 0 -147 12l10 78q86 -10 119 -10q109 0 149 42t41 148v1110z" />
    <glyph glyph-name="A.sc" horiz-adv-x="1249" 
d="M881 430l-252 643l-258 -643h510zM903 346h-557l-139 -346h-109l475 1198h119l459 -1198h-115z" />
    <glyph glyph-name="Aacute.sc" horiz-adv-x="1249" 
d="M371 430h510l-252 643zM207 0h-109l475 1198h119l459 -1198h-115l-133 346h-557zM729 1597h102l-157 -286h-78z" />
    <glyph glyph-name="Abreve.sc" horiz-adv-x="1249" 
d="M371 430h510l-252 643zM207 0h-109l475 1198h119l459 -1198h-115l-133 346h-557zM362 1587h50q45 -199 220 -199t224 199h47q-20 -133 -93 -196t-177 -63q-103 0 -177 62q-74 64 -94 197z" />
    <glyph glyph-name="Acircumflex.sc" horiz-adv-x="1249" 
d="M371 430h510l-252 643zM207 0h-109l475 1198h119l459 -1198h-115l-133 346h-557zM383 1311l213 286h74l213 -286h-78l-172 227l-170 -227h-80z" />
    <glyph glyph-name="Adieresis.sc" horiz-adv-x="1249" 
d="M371 430h510l-252 643zM207 0h-109l475 1198h119l459 -1198h-115l-133 346h-557zM885 1341h-84v226h84v-226zM465 1341h-84v226h84v-226z" />
    <glyph glyph-name="Agrave.sc" horiz-adv-x="1249" 
d="M371 430h510l-252 643zM207 0h-109l475 1198h119l459 -1198h-115l-133 346h-557zM541 1597l133 -286h-78l-158 286h103z" />
    <glyph glyph-name="Amacron.sc" horiz-adv-x="1249" 
d="M371 430h510l-252 643zM207 0h-109l475 1198h119l459 -1198h-115l-133 346h-557zM932 1409h-602v70h602v-70z" />
    <glyph glyph-name="Aogonek.sc" horiz-adv-x="1249" 
d="M881 430l-252 643l-258 -643h510zM965 -248q0 -111 116 -110q57 0 136 45l8 -31q-75 -59 -155 -59q-174 0 -175 133q0 74 49 144t127 126h-35l-133 346h-557l-139 -346h-109l475 1198h119l459 -1198q-78 -37 -132 -111t-54 -137z" />
    <glyph glyph-name="Aring.sc" horiz-adv-x="1249" 
d="M371 430h510l-252 643zM207 0h-109l475 1198h119l459 -1198h-115l-133 346h-557zM522 1434q0 -47 32 -79t79 -32t78 32t30 79q-1 46 -31 78t-77 32t-79 -32t-32 -78zM481 1434q0 63 43 105q44 42 108 42t107 -42t43 -105q0 -64 -43 -106t-107 -42t-108 42q-43 42 -43 106
z" />
    <glyph glyph-name="Atilde.sc" horiz-adv-x="1249" 
d="M371 430h510l-252 643zM207 0h-109l475 1198h119l459 -1198h-115l-133 346h-557zM526 1466q-42 0 -74 -18t-108 -94l-35 39q68 85 114 117t100 32q55 0 147 -63t123 -64q72 1 133 107l30 -41q-72 -139 -163 -140q-39 1 -133 63t-134 62z" />
    <glyph glyph-name="AE.sc" horiz-adv-x="1814" 
d="M909 1100h-4l-321 -498h325v498zM1665 1188v-88h-657v-453h565v-86h-565v-473h667v-88h-766v520h-368l-336 -520h-107l756 1188h811z" />
    <glyph glyph-name="B.sc" horiz-adv-x="1167" 
d="M258 88h377q311 0 311 239t-342 238h-346v-477zM258 643h336q311 0 311 236q0 106 -76 163t-219 58h-352v-457zM1049 311q0 -311 -400 -311h-489v1188h473q182 0 278 -77q97 -77 97 -206q1 -246 -246 -295v-4q135 -16 211 -92t76 -203z" />
    <glyph glyph-name="C.sc" horiz-adv-x="1204" 
d="M139 596q0 307 126 459.5t421 152.5q197 0 414 -65l-25 -84q-215 61 -387 61q-250 0 -348 -132t-98 -392t98 -394t348 -134q172 0 387 61l25 -84q-217 -66 -414 -65q-297 0 -422 154.5t-125 461.5z" />
    <glyph glyph-name="Cacute.sc" horiz-adv-x="1204" 
d="M139 596q0 307 126 460t421 152q197 0 414 -65l-25 -84q-215 61 -387 61q-250 0 -348 -132t-98 -392t98 -394t348 -134q172 0 387 61l25 -84q-217 -66 -414 -65q-297 0 -422 154t-125 462zM782 1597h103l-158 -286h-78z" />
    <glyph glyph-name="Ccaron.sc" horiz-adv-x="1204" 
d="M139 596q0 307 126 460t421 152q197 0 414 -65l-25 -84q-215 61 -387 61q-250 0 -348 -132t-98 -392t98 -394t348 -134q172 0 387 61l25 -84q-217 -66 -414 -65q-297 0 -422 154t-125 462zM436 1597h80l170 -227l172 227h78l-213 -286h-74z" />
    <glyph glyph-name="Ccedilla.sc" horiz-adv-x="1204" 
d="M881 -264q1 -72 -51 -114t-126 -42t-153 25l10 39q75 -18 133 -18t90 37q32 38 31 79q0 41 -34 75t-117 36v127q-283 6 -404 160t-121 459q0 304 126 457t421 152q197 0 414 -65l-25 -84q-215 61 -387 61q-250 0 -348 -132t-98 -392t98 -394t348 -134q172 0 387 61
l25 -84q-211 -63 -391 -65v-99q172 -8 172 -145z" />
    <glyph glyph-name="Cdotaccent.sc" horiz-adv-x="1204" 
d="M139 596q0 307 126 460t421 152q197 0 414 -65l-25 -84q-215 61 -387 61q-250 0 -348 -132t-98 -392t98 -394t348 -134q172 0 387 61l25 -84q-217 -66 -414 -65q-297 0 -422 154t-125 462zM735 1327h-98v229h98v-229z" />
    <glyph glyph-name="D.sc" horiz-adv-x="1249" 
d="M258 88h305q248 0 346.5 132t98.5 382t-97.5 374t-347.5 124h-305v-1012zM160 1188h407q285 0 414 -145.5t129 -441.5t-129 -448.5t-414 -152.5h-407v1188z" />
    <glyph glyph-name="Eth.sc" horiz-adv-x="1249" 
d="M268 88h295q248 0 346 132q99 132 99 382t-98 374t-347 124h-295v-463h297v-66h-297v-483zM170 571h-143v66h143v551h397q285 0 414 -146t129 -441q0 -297 -129 -449t-414 -152h-397v571z" />
    <glyph glyph-name="Dcaron.sc" horiz-adv-x="1249" 
d="M258 88h305q248 0 346 132q99 132 99 382t-98 374t-347 124h-305v-1012zM160 1188h407q285 0 414 -146t129 -441q0 -297 -129 -449t-414 -152h-407v1188zM338 1597h80l170 -227l172 227h78l-213 -286h-74z" />
    <glyph glyph-name="Dcroat.sc" horiz-adv-x="1249" 
d="M268 88h295q248 0 346 132q99 132 99 382t-98 374t-347 124h-295v-463h297v-66h-297v-483zM170 571h-143v66h143v551h397q285 0 414 -146t129 -441q0 -297 -129 -449t-414 -152h-397v571z" />
    <glyph glyph-name="E.sc" horiz-adv-x="1064" 
d="M258 1100v-453h565v-86h-565v-473h668v-88h-766v1188h755v-88h-657z" />
    <glyph glyph-name="Eacute.sc" horiz-adv-x="1064" 
d="M258 647h565v-86h-565v-473h668v-88h-766v1188h755v-88h-657v-453zM649 1597h103l-158 -286h-78z" />
    <glyph glyph-name="Ecaron.sc" horiz-adv-x="1064" 
d="M258 647h565v-86h-565v-473h668v-88h-766v1188h755v-88h-657v-453zM303 1597h80l170 -227l172 227h78l-213 -286h-74z" />
    <glyph glyph-name="Ecircumflex.sc" horiz-adv-x="1064" 
d="M258 647h565v-86h-565v-473h668v-88h-766v1188h755v-88h-657v-453zM303 1311l213 286h74l213 -286h-78l-172 227l-170 -227h-80z" />
    <glyph glyph-name="Edieresis.sc" horiz-adv-x="1064" 
d="M258 647h565v-86h-565v-473h668v-88h-766v1188h755v-88h-657v-453zM805 1341h-84v226h84v-226zM385 1341h-84v226h84v-226z" />
    <glyph glyph-name="Edotaccent.sc" horiz-adv-x="1064" 
d="M258 647h565v-86h-565v-473h668v-88h-766v1188h755v-88h-657v-453zM602 1327h-98v229h98v-229z" />
    <glyph glyph-name="Egrave.sc" horiz-adv-x="1064" 
d="M258 647h565v-86h-565v-473h668v-88h-766v1188h755v-88h-657v-453zM461 1597l133 -286h-78l-158 286h103z" />
    <glyph glyph-name="Emacron.sc" horiz-adv-x="1064" 
d="M258 647h565v-86h-565v-473h668v-88h-766v1188h755v-88h-657v-453zM854 1409h-602v70h602v-70z" />
    <glyph glyph-name="Eogonek.sc" horiz-adv-x="1064" 
d="M868 -403q-174 0 -174 133q0 139 174 270h-708v1188h755v-88h-657v-453h565v-86h-565v-473h668v-88q-68 -51 -115 -121t-47 -127q0 -111 115 -110q57 0 137 45l8 -31q-76 -59 -156 -59z" />
    <glyph glyph-name="F.sc" horiz-adv-x="1013" 
d="M895 1100h-637v-494h545v-86h-545v-520h-98v1188h735v-88z" />
    <glyph glyph-name="G.sc" horiz-adv-x="1259" 
d="M688 1120q-250 0 -348 -132t-98 -392t98 -394t348 -134q133 0 299 45v411h-280v74h376v-553q-203 -66 -397 -65q-297 0 -422 154.5t-125 461.5t126 459.5t421 152.5q197 1 414 -65l-25 -84q-215 61 -387 61z" />
    <glyph glyph-name="Gbreve.sc" horiz-adv-x="1259" 
d="M688 1120q-250 0 -348 -132t-98 -392t98 -394t348 -134q133 0 299 45v411h-280v74h376v-553q-203 -66 -397 -65q-297 0 -422 154t-125 462q0 307 126 460t421 152q197 1 414 -65l-25 -84q-215 61 -387 61zM416 1587h49q45 -199 220 -199t224 199h47q-20 -133 -93 -196
t-177 -63t-177 62q-73 64 -93 197z" />
    <glyph glyph-name="Gcommaaccent.sc" horiz-adv-x="1259" 
d="M647 -195v134h78v-134l-39 -178h-39l25 178h-25zM688 1120q-250 0 -348 -132t-98 -392t98 -394t348 -134q133 0 299 45v411h-280v74h376v-553q-203 -66 -397 -65q-297 0 -422 154t-125 462q0 307 126 460t421 152q197 1 414 -65l-25 -84q-215 61 -387 61z" />
    <glyph glyph-name="Gdotaccent.sc" horiz-adv-x="1259" 
d="M688 1120q-250 0 -348 -132t-98 -392t98 -394t348 -134q133 0 299 45v411h-280v74h376v-553q-203 -66 -397 -65q-297 0 -422 154t-125 462q0 307 126 460t421 152q197 1 414 -65l-25 -84q-215 61 -387 61zM735 1327h-98v229h98v-229z" />
    <glyph glyph-name="H.sc" 
d="M160 0v1188h98v-541h713v541h98v-1188h-98v561h-713v-561h-98z" />
    <glyph glyph-name="Hbar.sc" horiz-adv-x="1269" 
d="M991 647v283h-712v-283h712zM180 995v193h99v-193h712v193h99v-193h143v-65h-143v-930h-99v561h-712v-561h-99v930h-143v65h143z" />
    <glyph glyph-name="I.sc" horiz-adv-x="417" 
d="M160 0v1188h98v-1188h-98z" />
    <glyph glyph-name="IJ.sc" horiz-adv-x="1019" 
d="M864 1188v-860q0 -193 -70 -271t-214 -77q-84 0 -160 12l12 88q63 -10 125 -10q113 0 159 62t46 200v856h102zM258 1188v-1188h-98v1188h98z" />
    <glyph glyph-name="Iacute.sc" horiz-adv-x="417" 
d="M258 1188v-1188h-98v1188h98zM305 1597h103l-158 -286h-78z" />
    <glyph glyph-name="Icircumflex.sc" horiz-adv-x="417" 
d="M258 1188v-1188h-98v1188h98zM-41 1311l213 286h74l213 -286h-78l-172 227l-170 -227h-80z" />
    <glyph glyph-name="Idieresis.sc" horiz-adv-x="417" 
d="M258 1188v-1188h-98v1188h98zM461 1341h-84v226h84v-226zM41 1341h-84v226h84v-226z" />
    <glyph glyph-name="Idotaccent.sc" horiz-adv-x="417" 
d="M258 1188v-1188h-98v1188h98zM258 1327h-98v229h98v-229z" />
    <glyph glyph-name="Igrave.sc" horiz-adv-x="417" 
d="M258 1188v-1188h-98v1188h98zM117 1597l133 -286h-78l-158 286h103z" />
    <glyph glyph-name="Imacron.sc" horiz-adv-x="417" 
d="M258 1188v-1188h-98v1188h98zM510 1409h-602v70h602v-70z" />
    <glyph glyph-name="Iogonek.sc" horiz-adv-x="417" 
d="M258 1188v-1188q-76 -37 -128 -111t-52 -137q0 -111 115 -110q57 0 137 45l8 -31q-76 -59 -156 -59q-174 0 -174 133q0 74 50 148t126 122l-24 227v961h98z" />
    <glyph glyph-name="J.sc" horiz-adv-x="643" 
d="M487 1188v-860q1 -193 -69 -271t-215 -77q-84 0 -160 12l12 88q63 -10 125 -10q113 0 159 62t46 200v856h102z" />
    <glyph glyph-name="K.sc" horiz-adv-x="1183" 
d="M258 0h-98v1188h98v-705l680 705h125l-451 -471l465 -717h-123l-413 643l-283 -295v-348z" />
    <glyph glyph-name="Kcommaaccent.sc" horiz-adv-x="1183" 
d="M549 -195v134h78v-134l-39 -178h-39l24 178h-24zM258 0h-98v1188h98v-705l680 705h125l-451 -471l465 -717h-123l-413 643l-283 -295v-348z" />
    <glyph glyph-name="L.sc" horiz-adv-x="1024" 
d="M258 1188v-1100h647v-88h-745v1188h98z" />
    <glyph glyph-name="Lacute.sc" horiz-adv-x="1024" 
d="M905 88v-88h-745v1188h98v-1100h647zM305 1597h103l-158 -286h-78z" />
    <glyph glyph-name="Lcaron.sc" horiz-adv-x="1024" 
d="M438 954v234h99v-234l-56 -266h-39l31 266h-35zM905 88v-88h-745v1188h98v-1100h647z" />
    <glyph glyph-name="Lcommaaccent.sc" horiz-adv-x="1024" 
d="M473 -195v134h78v-134l-39 -178h-39l25 178h-25zM905 88v-88h-745v1188h98v-1100h647z" />
    <glyph glyph-name="Ldot.sc" horiz-adv-x="1024" 
d="M614 522h-98v234h98v-234zM905 88v-88h-745v1188h98v-1100h647z" />
    <glyph glyph-name="Lslash.sc" horiz-adv-x="1024" 
d="M258 88h647v-88h-745v561l-144 -35v64l144 35v563h98v-539l236 58v-64l-236 -57v-498z" />
    <glyph glyph-name="M.sc" horiz-adv-x="1556" 
d="M1397 1188v-1188h-99v1014h-4l-479 -1014h-78l-477 1014h-4v-1014h-96v1188h131l487 -1030h4l484 1030h131z" />
    <glyph glyph-name="N.sc" horiz-adv-x="1249" 
d="M160 0v1188h102l727 -1024h4v1024h97v-1188h-103l-727 1024h-4v-1024h-96z" />
    <glyph glyph-name="Nacute.sc" horiz-adv-x="1249" 
d="M993 164v1024h97v-1188h-103l-727 1024h-4v-1024h-96v1188h102l727 -1024h4zM721 1597h102l-157 -286h-78z" />
    <glyph glyph-name="Ncaron.sc" horiz-adv-x="1249" 
d="M993 164v1024h97v-1188h-103l-727 1024h-4v-1024h-96v1188h102l727 -1024h4zM375 1597h80l170 -227l172 227h77l-212 -286h-74z" />
    <glyph glyph-name="Ncommaaccent.sc" horiz-adv-x="1249" 
d="M586 -195v134h78v-134l-39 -178h-39l24 178h-24zM993 164v1024h97v-1188h-103l-727 1024h-4v-1024h-96v1188h102l727 -1024h4z" />
    <glyph glyph-name="Eng.sc" horiz-adv-x="1249" 
d="M256 1024v-1024h-96v1188h102l727 -1024h4v1024h97v-1360q0 -142 -62 -200t-209 -58q-70 0 -147 12l10 78q86 -10 119 -10q109 0 149 42t41 148v160l-731 1024h-4z" />
    <glyph glyph-name="Ntilde.sc" horiz-adv-x="1249" 
d="M993 164v1024h97v-1188h-103l-727 1024h-4v-1024h-96v1188h102l727 -1024h4zM518 1466q-41 0 -74 -18t-108 -94l-35 39q68 85 114 117t100 32q55 0 147 -63t122 -64q73 1 134 107l30 -41q-72 -139 -164 -140q-39 1 -132 63t-134 62z" />
    <glyph glyph-name="O.sc" horiz-adv-x="1331" 
d="M666 1124q-129 0 -216.5 -38.5t-131.5 -114.5t-60 -162t-16 -205t16 -208t60 -169t131.5 -122t216.5 -42t216 42t131 122t60.5 169t16.5 208t-16.5 205t-60.5 162t-131 114.5t-216 38.5zM665.5 -20q-284.5 0 -405.5 159.5t-121 461.5t121 454.5t405.5 152.5t405.5 -152.5
t121 -454.5t-121 -461.5t-405.5 -159.5z" />
    <glyph glyph-name="Oacute.sc" horiz-adv-x="1331" 
d="M242 604q0 -119 16 -208q39 -218 192 -291q87 -42 216 -42t216 42t131 122t60 169t17 208q0 234 -77 367q-89 153 -346 153t-349 -153q-44 -76 -60 -162t-16 -205zM666 -20q-285 0 -406 160t-121 461q0 302 121 455q121 152 406 152q286 0 406 -152t120 -455
q0 -301 -120 -461t-406 -160zM762 1597h102l-157 -286h-78z" />
    <glyph glyph-name="Ocircumflex.sc" horiz-adv-x="1331" 
d="M242 604q0 -119 16 -208q39 -218 192 -291q87 -42 216 -42t216 42t131 122t60 169t17 208q0 234 -77 367q-89 153 -346 153t-349 -153q-44 -76 -60 -162t-16 -205zM666 -20q-285 0 -406 160t-121 461q0 302 121 455q121 152 406 152q286 0 406 -152t120 -455
q0 -301 -120 -461t-406 -160zM416 1311l213 286h73l213 -286h-77l-172 227l-170 -227h-80z" />
    <glyph glyph-name="Odieresis.sc" horiz-adv-x="1331" 
d="M242 604q0 -119 16 -208q39 -218 192 -291q87 -42 216 -42t216 42t131 122t60 169t17 208q0 234 -77 367q-89 153 -346 153t-349 -153q-44 -76 -60 -162t-16 -205zM666 -20q-285 0 -406 160t-121 461q0 302 121 455q121 152 406 152q286 0 406 -152t120 -455
q0 -301 -120 -461t-406 -160zM918 1341h-84v226h84v-226zM498 1341h-84v226h84v-226z" />
    <glyph glyph-name="Ograve.sc" horiz-adv-x="1331" 
d="M242 604q0 -119 16 -208q39 -218 192 -291q87 -42 216 -42t216 42t131 122t60 169t17 208q0 234 -77 367q-89 153 -346 153t-349 -153q-44 -76 -60 -162t-16 -205zM666 -20q-285 0 -406 160t-121 461q0 302 121 455q121 152 406 152q286 0 406 -152t120 -455
q0 -301 -120 -461t-406 -160zM573 1597l134 -286h-78l-158 286h102z" />
    <glyph glyph-name="Ohungarumlaut.sc" horiz-adv-x="1331" 
d="M242 604q0 -119 16 -208q39 -218 192 -291q87 -42 216 -42t216 42t131 122t60 169t17 208q0 234 -77 367q-89 153 -346 153t-349 -153q-44 -76 -60 -162t-16 -205zM666 -20q-285 0 -406 160t-121 461q0 302 121 455q121 152 406 152q286 0 406 -152t120 -455
q0 -301 -120 -461t-406 -160zM885 1556h67l-143 -245h-59zM666 1556h67l-143 -245h-60z" />
    <glyph glyph-name="Omacron.sc" horiz-adv-x="1331" 
d="M242 604q0 -119 16 -208q39 -218 192 -291q87 -42 216 -42t216 42t131 122t60 169t17 208q0 234 -77 367q-89 153 -346 153t-349 -153q-44 -76 -60 -162t-16 -205zM666 -20q-285 0 -406 160t-121 461q0 302 121 455q121 152 406 152q286 0 406 -152t120 -455
q0 -301 -120 -461t-406 -160zM967 1409h-602v70h602v-70z" />
    <glyph glyph-name="Oslash.sc" horiz-adv-x="1331" 
d="M666 63q257 0 347 164q44 80 60 169t17 208q0 250 -84 369l-650 -799q104 -111 310 -111zM242 604q0 -264 88 -389l647 799q-100 111 -311 110q-256 0 -348 -153q-44 -76 -60 -162t-16 -205zM1192 604q0 -304 -121 -465q-121 -160 -405 -159q-240 0 -367 122l-129 -161
l-37 30l131 162q-125 150 -125 460t121 463t406 152q246 0 368 -123l127 156l37 -31l-127 -155q121 -147 121 -451z" />
    <glyph glyph-name="Otilde.sc" horiz-adv-x="1331" 
d="M242 604q0 -119 16 -208q39 -218 192 -291q87 -42 216 -42t216 42t131 122t60 169t17 208q0 234 -77 367q-89 153 -346 153t-349 -153q-44 -76 -60 -162t-16 -205zM666 -20q-285 0 -406 160t-121 461q0 302 121 455q121 152 406 152q286 0 406 -152t120 -455
q0 -301 -120 -461t-406 -160zM559 1466q-41 0 -74 -18t-108 -94l-35 39q68 85 114 117t100 32t146 -63t123 -64q72 1 133 107l31 -41q-72 -139 -164 -140q-39 1 -132 63t-134 62z" />
    <glyph glyph-name="OE.sc" horiz-adv-x="1998" 
d="M242 604q0 -119 16 -208q39 -218 192 -291q87 -42 216 -42t216 42t131 122t60 169t17 208q0 234 -77 367q-89 153 -346 153t-349 -153q-44 -76 -60 -162t-16 -205zM1192 1100v-453h565v-86h-565v-473h668v-88h-760v287q-88 -307 -434 -307q-285 0 -406 160t-121 461
q0 302 121 455t406 152q346 0 436 -297v277h747v-88h-657z" />
    <glyph glyph-name="P.sc" horiz-adv-x="1146" 
d="M258 524h367q145 0 224 74t79 210t-80 214t-223 78h-367v-576zM258 438v-438h-98v1188h471q189 0 293 -102t104 -277q0 -174 -102 -272t-295 -99h-373z" />
    <glyph glyph-name="Thorn.sc" horiz-adv-x="1146" 
d="M258 307h367q145 0 224 74t79 209t-80 213t-223 78h-367v-574zM258 219v-219h-98v1188h98v-219h367q191 1 297 -103t106 -276t-105 -272t-298 -99h-367z" />
    <glyph glyph-name="Q.sc" horiz-adv-x="1331" 
d="M666 63q240 1 332 143t92 387t-77 378q-89 153 -346 153t-349 -153q-44 -76 -60 -162t-16 -205t16 -208q39 -218 192 -291q87 -42 216 -42zM139 604q0 299 121 452q121 152 406 152q286 0 406 -152t120 -449t-111 -447t-360 -158q43 -70 167 -98t277 -13v-86
q-391 -43 -526 175q-270 8 -385 166t-115 458z" />
    <glyph glyph-name="R.sc" horiz-adv-x="1177" 
d="M258 524h356q313 0 314 289q0 131 -78 209t-219 78h-373v-576zM258 438v-438h-98v1188h471q188 0 292.5 -104.5t104.5 -266.5t-86 -258t-248 -106l377 -453h-125l-358 438h-330z" />
    <glyph glyph-name="Racute.sc" horiz-adv-x="1177" 
d="M258 524h356q313 0 314 289q0 131 -78 209t-219 78h-373v-576zM258 438v-438h-98v1188h471q189 0 293 -104t104 -267q0 -162 -86 -258t-248 -106l377 -453h-125l-358 438h-330zM649 1597h103l-158 -286h-78z" />
    <glyph glyph-name="Rcaron.sc" horiz-adv-x="1177" 
d="M258 524h356q313 0 314 289q0 131 -78 209t-219 78h-373v-576zM258 438v-438h-98v1188h471q189 0 293 -104t104 -267q0 -162 -86 -258t-248 -106l377 -453h-125l-358 438h-330zM303 1597h80l170 -227l172 227h78l-213 -286h-74z" />
    <glyph glyph-name="Rcommaaccent.sc" horiz-adv-x="1177" 
d="M551 -195v134h78v-134l-39 -178h-39l24 178h-24zM258 524h356q313 0 314 289q0 131 -78 209t-219 78h-373v-576zM258 438v-438h-98v1188h471q189 0 293 -104t104 -267q0 -162 -86 -258t-248 -106l377 -453h-125l-358 438h-330z" />
    <glyph glyph-name="S.sc" horiz-adv-x="1167" 
d="M582 68q182 0 263 70.5t81 162.5q0 93 -70 165q-48 50 -254 89l-27 6q-243 50 -319 128t-76 208q0 311 393 311q205 0 435 -65l-25 -84q-236 61 -408 61q-293 0 -292 -215q-1 -92 45 -137q26 -25 47.5 -41t63.5 -29.5t65.5 -19.5t75 -16.5t67.5 -14.5
q184 -37 282.5 -109.5t98.5 -231.5t-123 -242.5t-330 -84t-436 65.5l25 84q236 -61 418 -61z" />
    <glyph glyph-name="Sacute.sc" horiz-adv-x="1167" 
d="M582 68q182 0 263 70t81 161q0 90 -70 167q-20 22 -84 44q-73 26 -168 45q-96 19 -148 33q-136 37 -206 108t-70 201q0 311 393 311q205 0 435 -65l-25 -84q-236 61 -408 61q-293 0 -292 -215q0 -95 46 -137q25 -25 47 -41q22 -15 64 -29q62 -20 140 -36
q246 -48 347 -123q101 -74 101 -233t-123 -243t-330 -84t-436 66l25 84q236 -61 418 -61zM670 1597h102l-158 -286h-77z" />
    <glyph glyph-name="Scaron.sc" horiz-adv-x="1167" 
d="M582 68q182 0 263 70t81 161q0 90 -70 167q-20 22 -84 44q-73 26 -168 45q-96 19 -148 33q-136 37 -206 108t-70 201q0 311 393 311q205 0 435 -65l-25 -84q-236 61 -408 61q-293 0 -292 -215q0 -95 46 -137q25 -25 47 -41q22 -15 64 -29q62 -20 140 -36
q246 -48 347 -123q101 -74 101 -233t-123 -243t-330 -84t-436 66l25 84q236 -61 418 -61zM324 1597h79l170 -227l172 227h78l-213 -286h-73z" />
    <glyph glyph-name="Scedilla.sc" horiz-adv-x="1167" 
d="M582 68q182 0 263 70t81 161q0 90 -70 167q-20 22 -84 44q-73 26 -168 45q-96 19 -148 33q-136 37 -206 108t-70 201q0 311 393 311q205 0 435 -65l-25 -84q-236 61 -408 61q-293 0 -292 -215q0 -95 46 -137q25 -25 47 -41q22 -15 64 -29q62 -20 140 -36
q246 -48 347 -123q101 -74 101 -233q0 -158 -120 -240t-304 -86v-99q172 -8 172 -145q0 -72 -50 -114t-126 -42t-151 25l8 39q74 -18 133 -18t90 36q31 37 31 79t-33 76t-117 36v127q-211 6 -422 65l25 84q236 -61 418 -61z" />
    <glyph glyph-name="Scommaaccent.sc" horiz-adv-x="1167" 
d="M555 -195v134h78v-134l-39 -178h-39l25 178h-25zM582 68q182 0 263 70t81 161q0 90 -70 167q-20 22 -84 44q-73 26 -168 45q-96 19 -148 33q-136 37 -206 108t-70 201q0 311 393 311q205 0 435 -65l-25 -84q-236 61 -408 61q-293 0 -292 -215q0 -95 46 -137
q25 -25 47 -41q22 -15 64 -29q62 -20 140 -36q246 -48 347 -123q101 -74 101 -233t-123 -243t-330 -84t-436 66l25 84q236 -61 418 -61z" />
    <glyph glyph-name="Schwa.sc" horiz-adv-x="1294" 
d="M236 428q0 -365 393 -365q250 0 339 143q79 128 83 343h-805q-10 -68 -10 -121zM1155 591q0 -306 -121 -459t-405 -152q-489 0 -490 477q0 86 15 170h893q-9 245 -105 369t-336 124q-172 0 -387 -61l-24 84q217 66 413 65q297 0 422 -156t125 -461z" />
    <glyph glyph-name="T.sc" horiz-adv-x="1064" 
d="M582 1100v-1100h-99v1100h-364v88h827v-88h-364z" />
    <glyph glyph-name="Tbar.sc" horiz-adv-x="1064" 
d="M483 504v596h-364v88h827v-88h-364v-596h190v-66h-190v-438h-99v438h-190v66h190z" />
    <glyph glyph-name="Tcaron.sc" horiz-adv-x="1064" 
d="M483 0v1100h-364v88h827v-88h-364v-1100h-99zM283 1597h79l170 -227l173 227h77l-213 -286h-73z" />
    <glyph glyph-name="Tcedilla.sc" horiz-adv-x="1064" 
d="M555 0v-119q172 -8 172 -145q0 -72 -51 -114q-50 -42 -124 -42t-155 25l11 39q74 -18 132 -18t90 37q32 38 32 79t-34 75t-118 36v147h-27v1100h-364v88h827v-88h-364v-1100h-27z" />
    <glyph glyph-name="uni021A.sc" horiz-adv-x="1064" 
d="M494 -195v134h77v-134l-39 -178h-38l24 178h-24zM483 0v1100h-364v88h827v-88h-364v-1100h-99z" />
    <glyph glyph-name="U.sc" 
d="M160 1188h98v-713q0 -70 4 -115t23.5 -107.5t56.5 -99t108.5 -63.5t168 -27t163 27t102.5 65q87 92 87 320v713h98v-713q0 -260 -112.5 -377.5t-341 -117.5t-342 111.5t-113.5 369.5v727z" />
    <glyph glyph-name="Uacute.sc" 
d="M258 1188v-713q0 -70 4 -115t24 -107t56 -99q37 -37 109 -64t168 -27q178 0 265 92t87 320v713h98v-713q0 -260 -113 -378q-113 -117 -341 -117t-342 112t-113 369v727h98zM711 1597h102l-158 -286h-77z" />
    <glyph glyph-name="Ucircumflex.sc" 
d="M258 1188v-713q0 -70 4 -115t24 -107t56 -99q37 -37 109 -64t168 -27q178 0 265 92t87 320v713h98v-713q0 -260 -113 -378q-113 -117 -341 -117t-342 112t-113 369v727h98zM365 1311l213 286h73l213 -286h-78l-172 227l-170 -227h-79z" />
    <glyph glyph-name="Udieresis.sc" 
d="M258 1188v-713q0 -70 4 -115t24 -107t56 -99q37 -37 109 -64t168 -27q178 0 265 92t87 320v713h98v-713q0 -260 -113 -378q-113 -117 -341 -117t-342 112t-113 369v727h98zM866 1341h-84v226h84v-226zM446 1341h-84v226h84v-226z" />
    <glyph glyph-name="Ugrave.sc" 
d="M258 1188v-713q0 -70 4 -115t24 -107t56 -99q37 -37 109 -64t168 -27q178 0 265 92t87 320v713h98v-713q0 -260 -113 -378q-113 -117 -341 -117t-342 112t-113 369v727h98zM522 1597l133 -286h-77l-158 286h102z" />
    <glyph glyph-name="Uhungarumlaut.sc" 
d="M258 1188v-713q0 -70 4 -115t24 -107t56 -99q37 -37 109 -64t168 -27q178 0 265 92t87 320v713h98v-713q0 -260 -113 -378q-113 -117 -341 -117t-342 112t-113 369v727h98zM834 1556h67l-143 -245h-60zM614 1556h68l-143 -245h-60z" />
    <glyph glyph-name="Umacron.sc" 
d="M258 1188v-713q0 -70 4 -115t24 -107t56 -99q37 -37 109 -64t168 -27q178 0 265 92t87 320v713h98v-713q0 -260 -113 -378q-113 -117 -341 -117t-342 112t-113 369v727h98zM915 1409h-602v70h602v-70z" />
    <glyph glyph-name="Uogonek.sc" 
d="M160 1188h98v-713q0 -70 4 -115t24 -107t56 -99q37 -37 109 -64t168 -27q178 0 265 92t87 320v713h98v-713q0 -254 -106 -372t-326 -123q-57 -48 -96 -112t-39 -116q0 -111 114 -110q59 0 138 45l8 -31q-76 -59 -156 -59q-174 0 -174 133t150 250q-211 8 -317 119
q-105 112 -105 362v727z" />
    <glyph glyph-name="Uring.sc" 
d="M258 1188v-713q0 -70 4 -115t24 -107t56 -99q37 -37 109 -64t168 -27q178 0 265 92t87 320v713h98v-713q0 -260 -113 -378q-113 -117 -341 -117t-342 112t-113 369v727h98zM506 1434q0 -47 32 -79t78 -32t78 32q31 32 31 79q0 46 -31 78t-78 32q-46 0 -78 -32t-32 -78z
M465 1434q0 63 43 105t107 42q63 0 107 -42t44 -105q0 -64 -43 -106t-108 -42t-107 42t-43 106z" />
    <glyph glyph-name="V.sc" horiz-adv-x="1249" 
d="M637 115l405 1073h109l-459 -1198h-119l-475 1198h115l422 -1073h2z" />
    <glyph glyph-name="W.sc" horiz-adv-x="1843" 
d="M913 1032l-301 -1042h-125l-389 1198h115l344 -1071h2l303 1071h115l313 -1071h2l344 1071h109l-389 -1198h-133l-305 1042h-5z" />
    <glyph glyph-name="Wacute.sc" horiz-adv-x="1843" 
d="M487 -10l-389 1198h115l344 -1071h2l303 1071h115l313 -1071h2l344 1071h109l-389 -1198h-133l-305 1042h-5l-301 -1042h-125zM1018 1597h102l-157 -286h-78z" />
    <glyph glyph-name="Wcircumflex.sc" horiz-adv-x="1843" 
d="M487 -10l-389 1198h115l344 -1071h2l303 1071h115l313 -1071h2l344 1071h109l-389 -1198h-133l-305 1042h-5l-301 -1042h-125zM672 1311l213 286h73l213 -286h-77l-172 227l-170 -227h-80z" />
    <glyph glyph-name="Wdieresis.sc" horiz-adv-x="1843" 
d="M487 -10l-389 1198h115l344 -1071h2l303 1071h115l313 -1071h2l344 1071h109l-389 -1198h-133l-305 1042h-5l-301 -1042h-125zM1174 1341h-84v226h84v-226zM754 1341h-84v226h84v-226z" />
    <glyph glyph-name="Wgrave.sc" horiz-adv-x="1843" 
d="M487 -10l-389 1198h115l344 -1071h2l303 1071h115l313 -1071h2l344 1071h109l-389 -1198h-133l-305 1042h-5l-301 -1042h-125zM829 1597l134 -286h-78l-158 286h102z" />
    <glyph glyph-name="X.sc" horiz-adv-x="1280" 
d="M1120 1188l-424 -559l478 -629h-123l-418 547l-414 -547h-113l467 625l-417 563h116l367 -477l365 477h116z" />
    <glyph glyph-name="Y.sc" horiz-adv-x="1187" 
d="M643 0h-98v369l-447 819h119l377 -703h4l379 703h113l-447 -819v-369z" />
    <glyph glyph-name="Yacute.sc" horiz-adv-x="1187" 
d="M643 0h-98v369l-447 819h119l377 -703h4l379 703h113l-447 -819v-369zM690 1597h103l-158 -286h-78z" />
    <glyph glyph-name="Ycircumflex.sc" horiz-adv-x="1187" 
d="M643 0h-98v369l-447 819h119l377 -703h4l379 703h113l-447 -819v-369zM344 1311l213 286h74l213 -286h-78l-172 227l-170 -227h-80z" />
    <glyph glyph-name="Ydieresis.sc" horiz-adv-x="1187" 
d="M643 0h-98v369l-447 819h119l377 -703h4l379 703h113l-447 -819v-369zM846 1341h-84v226h84v-226zM426 1341h-84v226h84v-226z" />
    <glyph glyph-name="Ygrave.sc" horiz-adv-x="1187" 
d="M643 0h-98v369l-447 819h119l377 -703h4l379 703h113l-447 -819v-369zM502 1597l133 -286h-78l-158 286h103z" />
    <glyph glyph-name="Z.sc" horiz-adv-x="1064" 
d="M961 88v-88h-857v78l705 1018v4h-664v88h795v-78l-700 -1018v-4h721z" />
    <glyph glyph-name="Zacute.sc" horiz-adv-x="1064" 
d="M961 0h-857v78l705 1018v4h-664v88h795v-78l-700 -1018v-4h721v-88zM629 1597h102l-158 -286h-77z" />
    <glyph glyph-name="Zcaron.sc" horiz-adv-x="1064" 
d="M961 0h-857v78l705 1018v4h-664v88h795v-78l-700 -1018v-4h721v-88zM283 1597h79l170 -227l173 227h77l-213 -286h-73z" />
    <glyph glyph-name="Zdotaccent.sc" horiz-adv-x="1064" 
d="M961 0h-857v78l705 1018v4h-664v88h795v-78l-700 -1018v-4h721v-88zM582 1327h-99v229h99v-229z" />
    <glyph glyph-name="zero.subs" horiz-adv-x="686" 
d="M344 240q-176 0 -176 -312t176 -311q176 -1 176 311t-176 312zM577 -72q-1 -358 -235 -358t-234 358t236 359q233 -1 233 -359z" />
    <glyph glyph-name="one.subs" horiz-adv-x="624" 
d="M317 -362v587q-33 -18 -96 -54t-96 -54l-16 43q158 78 227 133h37v-655h215v-48h-486v48h215z" />
    <glyph glyph-name="two.subs" horiz-adv-x="645" 
d="M109 -410v56q360 246 360 434q0 68 -33 108q-32 40 -64 50q-32 8 -65 8q-84 0 -182 -49l-16 45q111 55 212 55t153 -58t52 -147q0 -213 -340 -448v-2h351v-52h-428z" />
    <glyph glyph-name="three.subs" horiz-adv-x="665" 
d="M557 -240q0 -190 -233 -190q-133 0 -215 53l18 43q87 -49 191 -49t143 42t39 91q0 156 -193 156h-82v45h80q84 0 130 44t46 101q0 56 -35 100t-117 44t-184 -50l-18 43q93 53 197 53t158 -47q54 -48 55 -133q0 -129 -142 -172q74 -14 118 -60t44 -114z" />
    <glyph glyph-name="four.subs" horiz-adv-x="706" 
d="M438 -166v379q-90 -176 -270 -379h270zM494 287v-453h104v-49h-104v-195h-56v195h-329v49q219 240 315 453h70z" />
    <glyph glyph-name="five.subs" horiz-adv-x="665" 
d="M353 16q97 0 151 -57t53 -161q0 -104 -65 -166q-66 -62 -170 -62t-213 57l16 43q104 -53 187 -53t135 49q53 49 53 125t-39 126t-128 50t-151 -84l-41 4l19 389h356v-49h-309l-17 -290l3 -3q63 82 160 82z" />
    <glyph glyph-name="six.subs" horiz-adv-x="665" 
d="M336 -383q68 0 115 50t47 133q0 82 -37 140t-130 58t-163 -107q-8 -274 168 -274zM392 240q-68 0 -114 -32t-78 -101t-36 -166h2q74 104 176 104t158 -62q56 -63 57 -175q0 -112 -61 -175t-156 -63q-231 0 -231 317q0 211 76 306q77 94 202 94q74 0 148 -27l-9 -45
q-66 25 -134 25z" />
    <glyph glyph-name="seven.subs" horiz-adv-x="655" 
d="M485 238h-376v49h438v-41q-231 -377 -277 -656h-59q20 142 102 326t172 320v2z" />
    <glyph glyph-name="eight.subs" horiz-adv-x="686" 
d="M166 -244q0 -61 44 -102t135 -41t133 40t43 92t-29 86q-31 34 -64 49t-92 38q-170 -60 -170 -162zM342 244q-58 0 -108 -29t-50 -100q0 -98 166 -148q152 53 152 146q0 71 -50 101t-110 30zM342 -430q-111 0 -172 48t-61 134q0 125 182 187q-80 33 -121 73t-41 111
q0 72 59 118q58 46 154 46t156 -45q60 -46 59 -116q0 -70 -40 -108t-122 -69q90 -41 136 -83q47 -42 47 -119t-62 -127t-174 -50z" />
    <glyph glyph-name="nine.subs" horiz-adv-x="665" 
d="M168 56q0 -83 37 -140t130 -57t163 106q8 274 -168 275q-68 0 -115 -50t-47 -134zM272 -383q68 0 115 32q102 69 115 267h-2q-74 -104 -176 -104t-159 62q-56 62 -56 174t61 175t156 64q231 0 231 -318q0 -211 -77 -305t-201 -94q-74 0 -148 27l8 45q65 -25 133 -25z" />
    <glyph glyph-name="zero.sups" horiz-adv-x="686" 
d="M344 1735q-176 0 -176 -311t176 -312q176 0 176 312t-176 311zM342 1065q-234 1 -234 359t235 358q234 0 234 -358q-1 -358 -235 -359z" />
    <glyph glyph-name="four.sups" horiz-adv-x="706" 
d="M438 1329v379q-90 -176 -270 -379h270zM494 1782v-453h104v-49h-104v-195h-56v195h-329v49q219 240 315 453h70z" />
    <glyph glyph-name="five.sups" horiz-adv-x="665" 
d="M557 1294q0 -104 -65 -167q-66 -62 -170 -62t-213 57l16 43q104 -53 187 -53t135 49q53 49 53 125t-39 126t-128 50t-151 -84l-41 4l19 390h356v-50h-309l-17 -290l3 -2q63 82 160 82t151 -58q54 -56 53 -160z" />
    <glyph glyph-name="six.sups" horiz-adv-x="665" 
d="M336 1112q68 0 115 50t47 133t-37 141t-130 56q-93 0 -163 -106q-8 -274 168 -274zM392 1735q-68 0 -114 -32t-78 -101t-36 -166h2q74 104 176 104t158 -62t57 -174q0 -112 -61 -176q-61 -63 -156 -63q-231 0 -231 317q0 211 76 306q77 94 202 94q74 0 148 -27l-9 -45
q-66 25 -134 25z" />
    <glyph glyph-name="seven.sups" horiz-adv-x="655" 
d="M485 1733h-376v49h438v-41q-231 -377 -277 -656h-59q20 141 102 325t172 321v2z" />
    <glyph glyph-name="eight.sups" horiz-adv-x="686" 
d="M166 1251q0 -61 44 -102t135 -41t133 40t43 92t-29 86q-31 34 -64 49t-92 38q-170 -60 -170 -162zM342 1739q-58 0 -108 -29t-50 -100q0 -98 166 -148q152 53 152 146q0 72 -50 102t-110 29zM342 1065q-111 0 -172 48t-61 134q0 125 182 187q-80 32 -121 72t-41 112
t59 118q58 46 154 46t156 -45t59 -115q0 -70 -40 -109q-40 -38 -122 -69q90 -41 136 -83q47 -42 47 -119t-62 -127t-174 -50z" />
    <glyph glyph-name="nine.sups" horiz-adv-x="665" 
d="M168 1551q0 -83 37 -140t130 -57t163 106q8 274 -168 275q-68 -1 -115 -51t-47 -133zM272 1112q68 0 115 32q102 69 115 267h-2q-74 -104 -176 -104t-159 62q-56 62 -56 174t61 175t156 64q231 0 231 -318q0 -211 -77 -305t-201 -94q-74 0 -148 27l8 45q65 -25 133 -25z
" />
    <glyph glyph-name="zero.tosf" 
d="M614 961q-174 0 -268 -128t-94 -321t94 -321t268 -128t269 128q94 128 94 321t-94 321q-95 128 -269 128zM614 -20q-219 0 -342 146t-122 386q0 240 122 386q123 146 342 146t342 -146t123 -386t-123 -386t-342 -146z" />
    <glyph glyph-name="one.tosf" 
d="M582 84v827l-394 -227l-30 82q313 162 452 268h68v-950h432v-84h-991v84h463z" />
    <glyph glyph-name="two.tosf" 
d="M190 0v100q420 182 573 314t152 276q0 78 -34 133q-57 90 -190 120q-48 11 -91 11q-190 0 -383 -92l-27 84q208 98 408 98t310 -93t110 -242q0 -242 -280 -416q-147 -91 -408 -205h708v-88h-848z" />
    <glyph glyph-name="three.tosf" 
d="M1059 -10q0 -182 -116 -280q-115 -98 -361 -99q-246 0 -412 94l35 78q158 -88 387 -88q119 0 199 32q81 32 113 85q54 89 54 182q0 131 -98 212t-297 81h-164v82h160q170 0 266 90t97 215q0 205 -187 266q-61 20 -143 21q-182 0 -352 -89l-31 78q174 94 385 94t317 -95
t107 -265q0 -131 -82 -220t-205 -124v-4q150 -23 239 -116t89 -230z" />
    <glyph glyph-name="four.tosf" 
d="M791 84v838h-5q-242 -489 -553 -838h558zM889 1034v-950h211v-84h-211v-348h-98v348h-662v84q176 193 352 453t283 497h125z" />
    <glyph glyph-name="five.tosf" 
d="M647 500q196 0 304 -114t108 -322t-129 -331q-129 -122 -342 -122t-418 102l31 76q189 -94 369 -94t283 98t103 273q0 90 -28 164t-107 130q-78 55 -196 56q-188 0 -316 -174l-76 6l39 776h705v-88h-619l-36 -602l4 -2q125 168 321 168z" />
    <glyph glyph-name="six.tosf" 
d="M956 433q0 163 -66 279q-78 134 -278 134q-98 0 -186 -60t-152 -161q-7 -407 167 -516q73 -45 197 -45t221 102q97 104 97 267zM626 932q210 0 322 -126t111 -348q0 -222 -122 -350t-306 -128q-461 0 -461 634q0 442 158 621q158 178 397 178q133 0 291 -47l-15 -78
q-141 41 -260 41t-203 -46q-207 -112 -256 -428q-12 -70 -14 -140l4 -2q144 219 354 219z" />
    <glyph glyph-name="seven.tosf" 
d="M899 936h-678v88h787v-74q-461 -737 -555 -1319h-109q43 287 209 658t346 643v4z" />
    <glyph glyph-name="eight.tosf" 
d="M250 350q0 -127 88 -211t278 -84t277 81q86 81 86 206q0 155 -168 249q-80 45 -209 91q-160 -53 -256 -129t-96 -203zM602 1337q-62 0 -128 -18q-66 -17 -126 -81q-59 -64 -59 -172t89 -178t247 -116q151 51 233 119t82 178q0 78 -33 134t-86 83t-105 39t-114 12z
M1079 335q0 -157 -122 -256t-344 -99t-343 96q-120 96 -120 252t100 245q100 88 268 146v4q-156 57 -242 138t-86 225t117 236q117 91 307 91t308 -91q118 -90 116 -230q0 -140 -82 -216t-247 -141v-4q180 -71 275 -155t95 -241z" />
    <glyph glyph-name="nine.tosf" 
d="M615 178q99 0 187 60t152 161q7 409 -167 516q-73 45 -197 45t-220 -102q-98 -104 -98 -266t72 -288q73 -126 271 -126zM603 92q-209 0 -321 126t-112 348t122 350t306 128q461 0 461 -634q0 -442 -158 -621q-158 -178 -397 -178q-133 0 -291 47l14 78q141 -41 261 -41
t204 46t133 113t90 185t46 270l-5 2q-143 -219 -353 -219z" />
    <glyph glyph-name="zero.osf" horiz-adv-x="1208" 
d="M604 961q-174 0 -268 -128t-94 -321t94 -321t268 -128t268 128t95 321q-1 193 -95 321t-268 128zM604 -20q-219 0 -342 146t-123 386t123 386t342 146t342 -146t123 -386t-123 -386t-342 -146z" />
    <glyph glyph-name="one.osf" horiz-adv-x="737" 
d="M588 1034v-1034h-96v911l-396 -227l-28 82q305 158 452 268h68z" />
    <glyph glyph-name="two.osf" horiz-adv-x="1208" 
d="M180 0v100q420 182 573 314t152 276q0 78 -35 133t-88 82q-96 49 -192 49q-190 0 -383 -92l-27 84q208 98 408 98t310 -93t110 -253t-134 -292q-106 -106 -300 -199q-195 -94 -255 -119h709v-88h-848z" />
    <glyph glyph-name="three.osf" horiz-adv-x="1167" 
d="M1028 -10q0 -182 -116 -280t-362 -99q-246 0 -411 94l35 78q158 -88 387 -88q119 0 199 32t112 85q53 87 56 182q0 131 -98 212t-298 81h-163v82h159q170 0 267 90q96 90 96 215q0 205 -186 266q-61 20 -144 21q-182 0 -352 -89l-31 78q174 94 385 94t317 -95t107 -265
q0 -131 -82 -220t-205 -124v-4q150 -23 239 -116t89 -230z" />
    <glyph glyph-name="four.osf" 
d="M780 84v838h-4q-242 -489 -553 -838h557zM879 1034v-950h211v-84h-211v-348h-99v348h-661v84q176 193 352 453t283 497h125z" />
    <glyph glyph-name="five.osf" horiz-adv-x="1167" 
d="M616 500q196 0 305 -114q107 -114 107 -322t-129 -331q-129 -122 -342 -122t-418 102l31 76q188 -94 368 -94t284 98t104 284t-135 283q-78 55 -197 56q-188 0 -315 -174l-76 6l39 776h704v-88h-618l-37 -602l4 -2q125 168 321 168z" />
    <glyph glyph-name="six.osf" horiz-adv-x="1167" 
d="M583 846q-99 0 -187 -60t-152 -161q-7 -409 167 -516q73 -45 197 -45t220 102q98 104 98 266t-72 288q-73 126 -271 126zM595 932q209 0 321 -126t112 -348t-122 -350t-306 -128q-461 0 -461 634q0 442 158 621q158 178 397 178q133 0 291 -47l-14 -78q-141 41 -261 41
t-204 -46t-133 -113t-90 -183t-45 -272l4 -2q143 219 353 219z" />
    <glyph glyph-name="seven.osf" horiz-adv-x="1024" 
d="M797 936h-678v88h786v-74q-461 -737 -555 -1319h-108q43 287 209 658t346 643v4z" />
    <glyph glyph-name="eight.osf" horiz-adv-x="1208" 
d="M240 350q0 -127 88 -211t278 -84t277 81q86 81 86 206q0 190 -267 298q-41 17 -110 42q-160 -53 -256 -129t-96 -203zM592 1337q-62 0 -128 -18q-66 -17 -126 -81q-59 -64 -59 -172t89 -178t246 -116q152 51 234 119t82 178q0 78 -33 134t-86 83t-105 39t-114 12z
M1069 335q0 -157 -122 -256t-344 -99t-343 96t-121 252q1 156 101 245q100 88 268 146v4q-156 57 -242 138t-86 225t117 236q117 91 307 91t307 -91q117 -90 117 -230t-82 -216t-248 -141v-4q180 -70 276 -154q95 -85 95 -242z" />
    <glyph glyph-name="nine.osf" horiz-adv-x="1167" 
d="M586 178q98 0 186 60t152 161q7 407 -167 516q-73 45 -197 45t-221 -102q-97 -104 -97 -267t66 -279q78 -134 278 -134zM572 92q-210 0 -322 126t-111 348q0 222 122 350t306 128q461 0 461 -634q0 -442 -158 -621q-158 -178 -397 -178q-133 0 -291 47l15 78
q141 -41 260 -41t203 46t135 113q92 125 121 315q12 70 14 140l-4 2q-144 -219 -354 -219z" />
    <glyph glyph-name="zero.lf" horiz-adv-x="1208" 
d="M604 1329q-362 -1 -362 -633t362 -633q362 0 362 633t-362 633zM604 1413q470 0 465 -706q0 -727 -465 -727t-465 727q0 302 93 494q50 101 144 157t228 55z" />
    <glyph glyph-name="one.lf" horiz-adv-x="737" 
d="M588 1403v-1403h-96v1280l-396 -227l-28 82q305 158 452 268h68z" />
    <glyph glyph-name="two.lf" horiz-adv-x="1126" 
d="M139 0v100q725 492 725 881q0 106 -36 180t-94 106q-102 56 -199 56q-180 0 -365 -92l-31 80q219 102 419 102t304 -117t105 -290q0 -430 -688 -914v-4h708v-88h-848z" />
    <glyph glyph-name="three.lf" horiz-adv-x="1167" 
d="M1028 358q0 -182 -116 -280t-362 -98t-411 94l35 78q158 -88 387 -89q119 0 199 32t112 85q53 87 56 182q0 131 -98 212t-298 81h-163v82h159q170 0 267 90q96 90 96 215q0 203 -186 267q-61 20 -144 20q-182 0 -352 -88l-31 78q174 94 385 94t317 -95t107 -265
q0 -131 -82 -220t-205 -124v-4q150 -23 239 -116t89 -231z" />
    <glyph glyph-name="four.lf" horiz-adv-x="1208" 
d="M780 479v785h-4q-178 -362 -553 -785h557zM879 1393v-914h211v-82h-211v-397h-99v397h-661v82q442 481 635 914h125z" />
    <glyph glyph-name="five.lf" horiz-adv-x="1167" 
d="M616 868q196 0 305 -114q107 -114 107 -322q0 -209 -129 -331q-129 -121 -342 -121t-418 102l31 76q188 -94 368 -94t284 98t104 284t-135 283q-78 55 -197 55q-188 0 -315 -174l-76 6l39 777h704v-88h-618l-37 -603l4 -2q125 168 321 168z" />
    <glyph glyph-name="six.lf" horiz-adv-x="1167" 
d="M583 846q-99 0 -187 -60t-152 -161q-7 -409 167 -516q73 -45 197 -45t220 102q98 104 98 266t-72 288q-73 126 -271 126zM595 932q209 0 321 -126t112 -348t-122 -350t-306 -128q-461 0 -461 634q0 442 158 621q158 178 397 178q133 0 291 -47l-14 -78q-141 41 -261 41
t-204 -46t-133 -113t-90 -183t-45 -272l4 -2q143 219 353 219z" />
    <glyph glyph-name="seven.lf" horiz-adv-x="1024" 
d="M797 1305h-678v88h786v-74q-461 -737 -555 -1319h-108q43 288 209 658t346 642v5z" />
    <glyph glyph-name="eight.lf" horiz-adv-x="1208" 
d="M240 350q0 -127 88 -211t278 -84t277 81q86 81 86 206q0 190 -267 298q-41 17 -110 42q-160 -53 -256 -129t-96 -203zM592 1337q-62 0 -128 -18q-66 -17 -126 -81q-59 -64 -59 -172t89 -178t246 -116q152 51 234 119t82 178q0 78 -33 134t-86 83t-105 39t-114 12z
M1069 335q0 -157 -122 -256t-344 -99t-343 96t-121 252q1 156 101 245q100 88 268 146v4q-156 57 -242 138t-86 225t117 236q117 91 307 91t307 -91q117 -90 117 -230t-82 -216t-248 -141v-4q180 -70 276 -154q95 -85 95 -242z" />
    <glyph glyph-name="nine.lf" horiz-adv-x="1167" 
d="M560 1329q-124 0 -221 -103t-97 -266t66 -279q78 -134 278 -134q98 1 186 61t152 160q4 240 -59 387q-75 174 -305 174zM572 461q-210 0 -322 126t-111 348q0 222 122 350t306 128q461 0 461 -635q0 -443 -159 -622q-159 -178 -396 -176q-133 0 -291 47l15 77
q141 -41 260 -41q119 1 203 47t135 112q49 67 90 186t45 270l-4 2q-144 -219 -354 -219z" />
    <glyph glyph-name="zero.tf" 
d="M614 1329q-362 -1 -362 -633t362 -633q362 0 362 633t-362 633zM614 -20q-465 0 -464 727q0 510 237 651q94 55 227 55q268 0 372 -212q95 -192 93 -494q0 -727 -465 -727z" />
    <glyph glyph-name="one.tf" 
d="M582 84v1196l-394 -227l-30 82q313 162 452 268h68v-1319h432v-84h-991v84h463z" />
    <glyph glyph-name="two.tf" 
d="M190 0v100q725 492 725 881q0 106 -35 180q-36 74 -94 106q-102 56 -200 56q-180 0 -365 -92l-31 80q219 102 419 102t304 -117t105 -290q0 -430 -688 -914v-4h708v-88h-848z" />
    <glyph glyph-name="three.tf" 
d="M1059 358q0 -182 -116 -280q-115 -98 -361 -98t-412 94l35 78q158 -88 387 -89q119 0 199 32q81 32 113 85q54 89 54 182q0 131 -98 212t-297 81h-164v82h160q170 0 266 90t97 215q0 203 -187 267q-61 20 -143 20q-182 0 -352 -88l-31 78q174 94 385 94t317 -95t107 -265
q0 -131 -82 -220t-205 -124v-4q150 -23 239 -116t89 -231z" />
    <glyph glyph-name="four.tf" 
d="M791 479v785h-5q-178 -362 -553 -785h558zM889 1393v-914h211v-82h-211v-397h-98v397h-662v82q442 481 635 914h125z" />
    <glyph glyph-name="five.tf" 
d="M647 868q196 0 304 -114t108 -322q0 -209 -129 -331q-129 -121 -342 -121t-418 102l31 76q189 -94 369 -94t283 98t103 272q0 90 -28 165q-29 75 -107 130t-196 55q-188 0 -316 -174l-76 6l39 777h705v-88h-619l-36 -603l4 -2q125 168 321 168z" />
    <glyph glyph-name="six.tf" 
d="M956 433q0 163 -66 279q-78 134 -278 134q-98 0 -186 -60t-152 -161q-7 -407 167 -516q73 -45 197 -45t221 102q97 104 97 267zM626 932q210 0 322 -126t111 -348q0 -222 -122 -350t-306 -128q-461 0 -461 634q0 442 158 621q158 178 397 178q133 0 291 -47l-15 -78
q-141 41 -260 41t-203 -46q-207 -112 -256 -428q-12 -70 -14 -140l4 -2q144 219 354 219z" />
    <glyph glyph-name="seven.tf" 
d="M899 1305h-678v88h787v-74q-461 -737 -555 -1319h-109q43 288 209 658t346 642v5z" />
    <glyph glyph-name="eight.tf" 
d="M250 350q0 -127 88 -211t278 -84t277 81q86 81 86 206q0 155 -168 249q-80 45 -209 91q-160 -53 -256 -129t-96 -203zM602 1337q-62 0 -128 -18q-66 -17 -126 -81q-59 -64 -59 -172t89 -178t247 -116q151 51 233 119t82 178q0 78 -33 134t-86 83t-105 39t-114 12z
M1079 335q0 -157 -122 -256t-344 -99t-343 96q-120 96 -120 252t100 245q100 88 268 146v4q-156 57 -242 138t-86 225t117 236q117 91 307 91t308 -91q118 -90 116 -230q0 -140 -82 -216t-247 -141v-4q180 -71 275 -155t95 -241z" />
    <glyph glyph-name="nine.tf" 
d="M590 1329q-124 0 -220 -103q-98 -103 -98 -265t72 -288t272 -126q98 0 187 60q88 61 151 161q7 409 -167 516q-73 45 -197 45zM603 461q-209 0 -321 126t-112 348t122 350t306 128q461 0 461 -635q0 -443 -159 -622q-159 -178 -396 -176q-133 0 -291 47l14 77
q141 -41 261 -41q120 1 204 47t133 112t90 186q41 119 46 270l-5 2q-143 -219 -353 -219z" />
    <glyph glyph-name="zero.dnom" horiz-adv-x="686" 
d="M344 649q-176 0 -176 -311t176 -311t176 311t-176 311zM342 -20q-234 0 -234 358t235 358q234 0 234 -358q-1 -358 -235 -358z" />
    <glyph glyph-name="one.dnom" horiz-adv-x="624" 
d="M317 47v588q-51 -28 -192 -109l-16 43q158 78 227 133h37v-655h215v-47h-486v47h215z" />
    <glyph glyph-name="two.dnom" horiz-adv-x="645" 
d="M109 0v55q360 246 360 434q0 68 -33 109q-32 41 -64 49t-65 8q-84 0 -182 -49l-16 45q111 55 212 55t153 -58t52 -146q0 -213 -340 -449v-2h351v-51h-428z" />
    <glyph glyph-name="three.dnom" horiz-adv-x="665" 
d="M324 696q104 0 158 -48t55 -132q0 -129 -142 -172q74 -14 118 -60t44 -114q0 -190 -233 -190q-133 0 -215 53l18 43q87 -49 191 -49t143 42t39 91q0 156 -193 155h-82v45h80q84 0 130 44t46 102t-35 100q-35 43 -117 43t-184 -49l-18 43q93 53 197 53z" />
    <glyph glyph-name="four.dnom" horiz-adv-x="706" 
d="M438 244v379q-90 -176 -270 -379h270zM494 696v-452h104v-49h-104v-195h-56v195h-329v49q219 240 315 452h70z" />
    <glyph glyph-name="five.dnom" horiz-adv-x="665" 
d="M353 426q97 0 151 -57t53 -161q0 -104 -65 -166q-66 -62 -170 -62t-213 57l16 43q104 -53 187 -53t135 49q53 49 53 125t-39 126t-128 50t-151 -84l-41 4l19 389h356v-49h-309l-17 -291l3 -2q63 82 160 82z" />
    <glyph glyph-name="six.dnom" horiz-adv-x="665" 
d="M336 27q68 0 115 50t47 133t-37 140t-130 57t-163 -106q-8 -274 168 -274zM557 218q0 -112 -61 -175t-156 -63q-231 0 -231 317q0 211 76 305q77 94 202 94q74 1 148 -26l-9 -45q-66 25 -134 25t-114 -33q-106 -73 -114 -267h2q74 104 176 104t158 -62t57 -174z" />
    <glyph glyph-name="seven.dnom" horiz-adv-x="655" 
d="M485 647h-376v49h438v-41q-231 -377 -277 -655h-59q20 142 102 326t172 319v2z" />
    <glyph glyph-name="eight.dnom" horiz-adv-x="686" 
d="M166 166q0 -60 44 -102t135 -42t133 40t43 92t-29 87q-31 34 -64 49t-92 38q-170 -60 -170 -162zM342 653q-59 0 -109 -28q-49 -29 -49 -101q0 -98 166 -147q152 53 152 145q0 72 -50 102q-51 29 -110 29zM342 -20q-111 0 -172 48t-61 134q0 125 182 186q-80 33 -121 73
q-41 39 -41 111t59 118q58 46 154 46t156 -45t59 -115q0 -70 -40 -109q-40 -38 -122 -69q90 -41 136 -83q47 -43 47 -119t-62 -126t-174 -50z" />
    <glyph glyph-name="nine.dnom" horiz-adv-x="665" 
d="M330 649q-68 0 -115 -50t-47 -133t37 -140t130 -57t163 106q8 274 -168 274zM109 458q0 112 61 175t156 63q231 0 231 -317q0 -211 -77 -305t-201 -94q-74 -1 -148 26l8 45q65 -25 133 -25q176 1 217 210q10 45 13 90h-2q-74 -104 -176 -104t-159 62q-56 62 -56 174z" />
    <glyph glyph-name="zero.numr" horiz-adv-x="686" 
d="M344 1325q-176 0 -176 -311t176 -312q176 0 176 312t-176 311zM342 655q-234 1 -234 359t235 358q234 0 234 -358q-1 -358 -235 -359z" />
    <glyph glyph-name="one.numr" horiz-adv-x="624" 
d="M317 723v588q-114 -62 -192 -109l-16 43q158 78 227 133h37v-655h215v-47h-486v47h215z" />
    <glyph glyph-name="two.numr" horiz-adv-x="645" 
d="M109 676v55q360 246 360 434q0 68 -33 109q-32 41 -64 49t-65 8q-84 0 -182 -49l-16 45q111 55 212 55t153 -58t52 -146q0 -213 -340 -449v-2h351v-51h-428z" />
    <glyph glyph-name="three.numr" horiz-adv-x="665" 
d="M324 1372q104 0 158 -48t55 -132q0 -129 -142 -172q74 -14 118 -60t44 -114q0 -190 -233 -191q-133 0 -215 54l18 43q87 -50 191 -50t143 42t39 92q0 156 -193 155h-82v45h80q84 0 130 44t46 102t-35 100q-35 43 -117 43t-184 -49l-18 43q93 53 197 53z" />
    <glyph glyph-name="four.numr" horiz-adv-x="706" 
d="M438 920v378q-90 -176 -270 -378h270zM494 1372v-452h104v-50h-104v-194h-56v194h-329v50q219 240 315 452h70z" />
    <glyph glyph-name="five.numr" horiz-adv-x="665" 
d="M353 1102q97 0 151 -58t53 -160q0 -103 -65 -166q-66 -62 -170 -62t-213 57l16 43q213 -109 322 -4q53 49 53 125q0 75 -39 125t-128 50t-151 -83l-41 4l19 389h356v-49h-309l-17 -291l3 -2q63 82 160 82z" />
    <glyph glyph-name="six.numr" horiz-adv-x="665" 
d="M498 886q0 83 -37 140t-130 57t-163 -106q-8 -274 168 -275q68 0 115 50t47 134zM392 1325q-68 0 -114 -32t-78 -101t-36 -166h2q74 104 176 104t158 -62t57 -174q0 -112 -61 -175t-156 -64q-231 0 -231 318q0 211 76 305q77 94 202 94q74 1 148 -26l-9 -46
q-66 25 -134 25z" />
    <glyph glyph-name="seven.numr" horiz-adv-x="655" 
d="M485 1323h-376v49h438v-41q-231 -377 -277 -655h-59q20 141 102 325t172 320v2z" />
    <glyph glyph-name="eight.numr" horiz-adv-x="686" 
d="M166 842q0 -60 44 -102t135 -42t133 40t43 92t-29 86t-64 50q-33 16 -92 38q-170 -60 -170 -162zM342 1329q-58 0 -108 -29t-50 -100q0 -98 166 -147q152 53 152 145q0 72 -50 102t-110 29zM109 838q0 125 182 186q-80 33 -121 73q-41 39 -41 111t59 118q58 46 154 46
t156 -45t59 -115q0 -70 -40 -109q-40 -38 -122 -69q90 -41 136 -83q47 -43 47 -119t-62 -126t-174 -50q-111 0 -172 47q-61 48 -61 135z" />
    <glyph glyph-name="nine.numr" horiz-adv-x="665" 
d="M330 1325q-68 0 -115 -50t-47 -133q0 -82 37 -140t130 -58t163 107q8 274 -168 274zM272 702q68 0 115 32q102 69 115 267h-2q-74 -104 -176 -104t-159 62q-56 63 -56 175t61 175t156 63q231 0 231 -317q0 -211 -77 -305t-201 -95q-74 0 -148 27l8 45q65 -25 133 -25z
" />
    <glyph glyph-name="florin.tf" 
d="M565 950h-319v66l319 8v86q-1 180 63 252t208 72q70 0 147 -13l-10 -78q-86 10 -119 11q-111 0 -151 -62t-39 -196v-72h364v-74h-364v-1042q0 -184 -62 -261t-209 -77q-70 0 -147 12l10 78q86 -10 119 -10q111 0 151 61t39 197v1042z" />
    <glyph glyph-name="cent.tosf" 
d="M643 -61h59v-205h-59v205zM690 961q-178 0 -278 -127t-100 -322t100 -322t278 -127q139 0 318 68l12 -78q-170 -74 -336 -73q-221 0 -348 147t-127 385t127 385t348 147q166 1 336 -73l-12 -78q-178 68 -318 68zM643 1290h59v-205h-59v205z" />
    <glyph glyph-name="dollar.tosf" 
d="M586 -61h57v-205h-57v205zM635 59q82 0 140 24q58 25 82 61q42 64 42 108q0 78 -59 135q-60 57 -232 91t-264 100t-92 196t97 200t279 70t363 -69l-18 -76q-197 66 -365 66q-82 0 -138 -23t-88 -68t-32 -106q0 -62 56 -114t232 -88q177 -36 268 -106t91 -196
q0 -127 -96 -206t-256 -78q-230 -1 -414 69l21 76q190 -66 383 -66zM586 1290h57v-205h-57v205z" />
    <glyph glyph-name="Euro.tosf" 
d="M158 625h110q29 190 152 305q123 114 302 114t349 -73l-12 -78q-178 68 -323 68q-144 1 -240 -93t-123 -243h303v-41h-309q-5 -23 -5 -72t5 -72h309v-41h-303q27 -151 123 -243q178 -172 563 -25l12 -78q-169 -73 -349 -73t-302 114t-152 305h-110v41h104q-2 23 -2 72
t2 72h-104v41z" />
    <glyph glyph-name="sterling.tosf" 
d="M350 88h688v-88h-888v88h102v399h-102v64h102v184q0 160 115 235t288 74q248 0 424 -110l-32 -74q-184 100 -398 101q-159 0 -229 -66t-70 -162v-182h320v-64h-320v-399z" />
    <glyph glyph-name="yen.tosf" 
d="M926 397v-53h-262v-344h-99v344h-262v53h246l-389 627h119l335 -557h4l338 557h113l-389 -627h246z" />
    <glyph glyph-name="cent.osf" horiz-adv-x="1091" 
d="M575 -61h58v-205h-58v205zM623 961q-177 0 -279 -128t-102 -321t101 -321t280 -128q137 0 315 68l14 -78q-170 -74 -338 -73q-221 0 -348 147t-127 385t127 385t348 147q168 1 338 -73l-14 -78q-178 68 -315 68zM575 1290h58v-205h-58v205z" />
    <glyph glyph-name="dollar.osf" horiz-adv-x="1044" 
d="M494 -61h57v-205h-57v205zM543 59q82 0 140 24q58 25 82 61q42 64 42 108q0 78 -59 135q-60 57 -232 91t-264 100t-92 196t97 200t279 70t363 -69l-18 -76q-197 66 -365 66q-82 0 -138 -23t-88 -68t-32 -106q0 -62 55 -114t232 -88t269 -105q91 -70 91 -197t-96 -206
t-256 -78q-230 -1 -414 69l21 76q190 -66 383 -66zM494 1290h57v-205h-57v205z" />
    <glyph glyph-name="cent.tf" 
d="M311 511q-1 -185 93 -311t262 -134v892q-168 -8 -262 -135t-93 -312zM666 -205v185q-213 6 -335 152t-122 380t122 380t335 152v185h49v-187q139 -2 305 -71l-12 -78q-178 63 -293 68v-898q119 2 293 68l12 -78q-158 -70 -305 -71v-187h-49z" />
    <glyph glyph-name="colonsign.tf" 
d="M776 -205v189q-66 -4 -122 -4t-136 14v-199h-49v209q-219 62 -299 264q-68 171 -70 439q0 419 186 583q75 66 183 99v208h49v-198q80 14 136 14t122 -4v188h49v-192q139 -10 303 -57l-24 -88q-266 61 -416 61t-246 -48q-234 -116 -233 -566q0 -360 123 -497
q123 -138 346 -138q172 0 426 61l24 -88q-145 -41 -303 -57v-193h-49z" />
    <glyph glyph-name="currency.tf" 
d="M201 719q0 -55 4 -133h459l-13 -66h-430q33 -200 141 -324t325 -124q216 0 411 161l37 -79q-59 -47 -99 -75t-148 -64q-108 -35 -237 -35t-233 49t-165 124q-159 199 -159 554q0 209 62 371q37 99 97 170q61 71 165 118t233 47t237 -36q108 -35 148 -63t99 -75l-37 -80
q-195 162 -413 162t-328 -123t-140 -326h447l-13 -65h-448q-2 -33 -2 -88z" />
    <glyph glyph-name="dollar.tf" 
d="M592 -205v185q-250 6 -453 65l21 88q234 -61 438 -61t294 86q89 86 89 204q0 58 -30 108t-65 80q-36 30 -98 56t-94 34l-88 24q-173 40 -309 137q-137 97 -137 268q0 170 118 255t314 89v184h49v-184q203 -4 422 -65l-23 -88q-240 61 -426 61q-346 0 -346 -258
q0 -215 402 -313q420 -94 420 -383q0 -177 -123 -279t-326 -108v-185h-49z" />
    <glyph glyph-name="Euro.tf" 
d="M201 719q0 -55 4 -133h459l-13 -66h-430q33 -200 141 -324t325 -124q216 0 411 161l37 -79q-59 -47 -99 -75t-148 -64q-108 -35 -237 -35t-233 49t-165 124q-159 199 -159 554q0 209 62 371q37 99 97 170q61 71 165 118t233 47t237 -36q108 -35 148 -63t99 -75l-37 -80
q-195 162 -413 162t-328 -123t-140 -326h447l-13 -65h-448q-2 -33 -2 -88z" />
    <glyph glyph-name="uni20A8.tf" 
d="M1157 1339h-383q176 -102 182 -335h201v-54h-203q-10 -141 -100 -235t-240 -109l387 -606h-120l-373 592h-436v92h463q133 0 218 71t97 195h-778v54h780q-4 133 -84 215t-217 81h-479v93h1085v-54z" />
    <glyph glyph-name="sterling.tf" 
d="M311 88h750v-88h-950v88h102v580h-102v77h102v322q0 176 123 261t328 85q274 0 454 -113l-43 -81q-185 102 -391 102t-290 -74t-83 -192v-310h504v-77h-504v-580z" />
    <glyph glyph-name="yen.tf" 
d="M1028 463h-362v-463h-103v463h-362v63h346l-459 867h117l409 -791h4l410 791h113l-459 -867h346v-63z" />
    <glyph glyph-name="percent.osf" horiz-adv-x="1556" 
d="M1185 51q197 0 197 214t-198 214t-197 -214q0 -214 198 -214zM1184 -4q-127 0 -195 72q-67 72 -67 198t67 197q68 72 195 72q128 0 196 -72t68 -199q0 -128 -68 -198t-196 -70zM372 709q198 0 198 214t-198 214t-198 -214t198 -214zM434 0h-69l757 1188h70zM373 653
q-127 0 -196 72t-68 199q1 128 69 198t195 70t195 -72t67 -198q1 -126 -67 -197q-68 -72 -195 -72z" />
    <glyph glyph-name="perthousand.osf" horiz-adv-x="2189" 
d="M1819 51q197 0 197 214t-198 214q-196 0 -196 -214t197 -214zM1185 51q197 0 197 214t-198 214t-197 -214q0 -214 198 -214zM1819 -4q-127 0 -196 71t-69 197t69 199q69 72 196 72t195 -72t67 -198q1 -125 -67 -197t-195 -72zM1184 -4q-127 0 -195 72q-67 72 -67 198
t67 197q68 72 195 72q128 0 196 -72t68 -199q0 -128 -68 -198t-196 -70zM372 709q198 0 198 214t-198 214t-198 -214t198 -214zM365 0l757 1188h70l-758 -1188h-69zM373 653q-127 0 -196 72t-68 199q1 128 69 198t195 70t195 -72t67 -198q1 -126 -67 -197q-68 -72 -195 -72z
" />
    <glyph glyph-name="AT" horiz-adv-x="1699" 
d="M1053 696h-193q-144 0 -202 -46t-58 -129t53 -128t156 -45q143 0 244 86v262zM1133 848v-488q102 0 182 33t127 82t89 138t42 216q0 273 -200 441t-484 168q-334 0 -547 -210t-213 -532t196 -521q196 -198 498 -198l-6 -59q-330 0 -543 217t-213 560q1 343 235 573
t593 231q315 0 532 -187t217 -481q0 -229 -133 -381t-377 -151h-75v80h-4q-109 -94 -247 -94t-210 58t-72 163q0 242 336 242h197v96q0 100 -46 150t-160 50t-261 -45l-17 58q154 51 292 51t205 -58t67 -202z" />
    <glyph glyph-name="Exclamdown" horiz-adv-x="376" 
d="M233 958v-958h-88v958h88zM139 1159v234h99v-234h-99z" />
    <glyph glyph-name="Questiondown" horiz-adv-x="983" 
d="M119 303q0 123 42 200t101 121q58 44 118 82q144 92 144 195v62h88v-62q0 -134 -139 -229q-57 -39 -115 -81t-98 -108q-41 -66 -41 -153q0 -258 303 -258q126 -1 312 69l30 -84q-201 -78 -366 -77q-207 0 -293 100t-86 223zM520 1393h98v-234h-98v234z" />
    </font>
</defs>
</svg>
