<?xml version="1.0" encoding="UTF-8"?>
<svg width="40px" height="40px" viewBox="0 0 40 40" version="1.1" xmlns="http://www.w3.org/2000/svg" xmlns:xlink="http://www.w3.org/1999/xlink">
    <!-- Generator: Sketch 54.1 (76490) - https://sketchapp.com -->
    <title>Facebook_6_</title>
    <desc>Created with Sketch.</desc>
    <g id="Page-3" stroke="none" stroke-width="1" fill="none" fill-rule="evenodd">
        <g id="Contact-us" transform="translate(-46.000000, -436.000000)" fill="#43619C" fill-rule="nonzero">
            <g id="Facebook_6_" transform="translate(46.000000, 436.000000)">
                <path d="M20.05,39.65 C9.15,39.65 0.3,30.8 0.3,19.9 C0.3,9 9.15,0.15 20.05,0.15 C30.95,0.15 39.8,9 39.8,19.9 C39.8,30.8 30.95,39.65 20.05,39.65 Z M20.05,1.65 C10,1.65 1.8,9.85 1.8,19.9 C1.8,29.95 10,38.15 20.05,38.15 C30.1,38.15 38.3,29.95 38.3,19.9 C38.3,9.85 30.1,1.65 20.05,1.65 Z" id="Shape"></path>
                <path d="M29.1,27.7 C29.1,28.25 28.65,28.7 28.1,28.7 L23.4,28.7 L23.4,21.6 L25.8,21.6 L26.15,18.85 L23.4,18.85 L23.4,17.1 C23.4,16.3 23.6,15.75 24.75,15.75 L26.2,15.75 L26.2,13.25 C25.95,13.2 25.1,13.15 24.05,13.15 C21.95,13.15 20.5,14.45 20.5,16.8 L20.5,18.85 L18.1,18.85 L18.1,21.6 L20.5,21.6 L20.5,28.7 L11.7,28.7 C11.15,28.7 10.7,28.25 10.7,27.7 L10.7,11.35 C10.7,10.8 11.15,10.35 11.7,10.35 L28.05,10.35 C28.6,10.35 29.05,10.8 29.05,11.35 L29.05,27.7 L29.1,27.7 Z" id="Facebook_1_"></path>
            </g>
        </g>
    </g>
</svg>