<?xml version="1.0" encoding="UTF-8"?>
<svg width="41px" height="32px" viewBox="0 0 41 32" version="1.1" xmlns="http://www.w3.org/2000/svg" xmlns:xlink="http://www.w3.org/1999/xlink">
    <!-- Generator: Sketch 54.1 (76490) - https://sketchapp.com -->
    <title>mailing</title>
    <desc>Created with Sketch.</desc>
    <g id="Anddroid" stroke="none" stroke-width="1" fill="none" fill-rule="evenodd">
        <g id="Kit" transform="translate(-41.000000, -5790.000000)" fill-rule="nonzero">
            <g id="mailing" transform="translate(41.000000, 5790.000000)">
                <path d="M17.4443069,16.5482673 L17.4443069,1.18811881 C17.4443069,0.531868832 17.9761758,0 18.6321164,0 L39.40625,0 C40.0621906,0 40.5940594,0.531868832 40.5940594,1.18811881 L40.5940594,16.5482673 C40.5940594,17.2045173 40.0621906,17.7363861 39.40625,17.7363861 L18.6321164,17.7363861 C17.9761758,17.7363861 17.4443069,17.2045173 17.4443069,16.5482673 Z" id="Path" fill="#F2F2F2"></path>
                <path d="M29.0191832,0 L39.40625,0 C40.0621906,0 40.5940594,0.531868832 40.5940594,1.18811881 L40.5940594,16.5482673 C40.5940594,17.2045173 40.0621906,17.7363861 39.40625,17.7363861 L29.0191832,17.7363861 L29.0191832,0 Z" id="Path" fill="#E9E8E8"></path>
                <path d="M28.3131188,9.82363865 L17.926052,2.14356436 C17.5136139,1.83879952 17.3434406,1.30352721 17.5040223,0.816522297 C17.664604,0.329207921 18.1194307,0 18.6321164,0 L39.40625,0 C39.9189356,0 40.3737624,0.329207921 40.5343441,0.816522297 C40.6946163,1.30352721 40.5244431,1.83879952 40.1123144,2.14356436 L29.7252475,9.82363865 C29.5154703,9.9789604 29.2673267,10.0563119 29.0191832,10.0563119 C28.7710396,10.0563119 28.522896,9.9789604 28.3131188,9.82363865 Z" id="Path" fill="#B0AFAC"></path>
                <path d="M28.3131188,9.82363865 L17.926052,2.14356436 C17.5136139,1.83879952 17.3434406,1.30352721 17.5040223,0.816522297 C17.664604,0.329207921 18.1194307,0 18.6321164,0 L39.40625,0 C39.9189356,0 40.3737624,0.329207921 40.5343441,0.816522297 C40.6946163,1.30352721 40.5244431,1.83879952 40.1123144,2.14356436 L29.7252475,9.82363865 C29.5154703,9.9789604 29.2673267,10.0563119 29.0191832,10.0563119 C28.7710396,10.0563119 28.522896,9.9789604 28.3131188,9.82363865 Z" id="Path" fill="#E4E4E4"></path>
                <path d="M29.0191832,0 L39.40625,0 C39.9189356,0 40.3737624,0.329207921 40.5343441,0.816212911 C40.6946163,1.30352721 40.5244431,1.83879952 40.1123144,2.14356436 L29.7252475,9.82363865 C29.5154703,9.9789604 29.2673267,10.0563119 29.0191832,10.0563119 L29.0191832,0 Z" id="Path" fill="#C6C6C6"></path>
                <path d="M1.3375619,9.46596531 L2.54176982,9.46596531 C3.19771042,9.46596531 3.72957925,8.93409655 3.72957925,8.2778465 C3.72957925,7.6219059 3.19771042,7.08972768 2.54176982,7.08972768 L1.3375619,7.08972768 C0.681621307,7.08972768 0.149752475,7.6219059 0.149752475,8.2778465 C0.149752475,8.93409655 0.681621307,9.46596531 1.3375619,9.46596531 Z" id="Path" fill="#0681B6"></path>
                <path d="M11.1729579,4.83477719 L13.5649752,4.83477719 C14.2209158,4.83477719 14.7527846,4.30290844 14.7527846,3.64665838 C14.7527846,2.9904084 14.2209158,2.45853956 13.5649752,2.45853956 L11.1729579,2.45853956 C10.5170173,2.45853956 9.9854579,2.9904084 9.9854579,3.64665838 C9.98514851,4.30290844 10.5170173,4.83477719 11.1729579,4.83477719 Z" id="Path" fill="#009CDE"></path>
                <path d="M7.29888618,9.4820545 L17.4542079,9.4820545 C18.1101485,9.4820545 18.6420173,8.95018566 18.6420173,8.29393568 C18.6420173,7.63768562 18.1101485,7.10581687 17.4542079,7.10581687 L7.29888618,7.10581687 C6.64294558,7.10581687 6.11138614,7.63768562 6.11138614,8.29393568 C6.11107675,8.95018566 6.64294558,9.4820545 7.29888618,9.4820545 Z" id="Path" fill="#009CDE"></path>
                <path d="M0.0792079208,30.7561881 L0.0792079208,15.3960396 C0.0792079208,14.7397896 0.611076752,14.2079208 1.26701735,14.2079208 L22.041151,14.2079208 C22.6970916,14.2079208 23.2289604,14.7397896 23.2289604,15.3960396 L23.2289604,30.7561881 C23.2289604,31.4124381 22.6970916,31.9443069 22.041151,31.9443069 L1.26701735,31.9443069 C0.611076752,31.9443069 0.0792079208,31.4124381 0.0792079208,30.7561881 Z" id="Path" fill="#F2F2F2"></path>
                <path d="M11.6540841,14.2079208 L22.041151,14.2079208 C22.6970916,14.2079208 23.2289604,14.7397896 23.2289604,15.3960396 L23.2289604,30.7561881 C23.2289604,31.4124381 22.6970916,31.9443069 22.041151,31.9443069 L11.6540841,31.9443069 L11.6540841,14.2079208 Z" id="Path" fill="#E9E8E8"></path>
                <path d="M10.9480198,24.0315594 L0.56095295,16.3514851 C0.148824238,16.0464109 -0.0216584554,15.511448 0.138923248,15.0241337 C0.29950495,14.5371287 0.754331723,14.2079208 1.26701735,14.2079208 L22.041151,14.2079208 C22.5538367,14.2079208 23.0086634,14.5371287 23.1692451,15.0241337 C23.3298267,15.511448 23.1593441,16.0464109 22.7472154,16.3514851 L12.3601485,24.0315594 C12.1503713,24.1865718 11.9022277,24.2642327 11.6540841,24.2642327 C11.4059406,24.2642327 11.1577971,24.1865718 10.9480198,24.0315594 Z" id="Path" fill="#E4E4E4"></path>
                <path d="M11.6540841,14.2079208 L22.041151,14.2079208 C22.5538367,14.2079208 23.0086634,14.5368193 23.1692451,15.0241337 C23.3298267,15.5111386 23.1593441,16.0464109 22.7472154,16.3511758 L12.3601485,24.03125 C12.1503713,24.1865718 11.9022277,24.2642327 11.6540841,24.2642327 L11.6540841,14.2079208 Z" id="Path" fill="#C6C6C6"></path>
                <path d="M26.335396,31.623453 L29.2815594,31.623453 C29.9378094,31.623453 30.4693688,31.0915842 30.4693688,30.4353342 C30.4693688,29.7793936 29.9375,29.2472154 29.2815594,29.2472154 L26.335396,29.2472154 C25.6794554,29.2472154 25.1475866,29.7793936 25.1475866,30.4353342 C25.1475866,31.0915842 25.6794554,31.623453 26.335396,31.623453 Z" id="Path" fill="#0681B6"></path>
                <path d="M23.1318069,26.9922649 L32.9470916,26.9922649 C33.6030322,26.9922649 34.1345916,26.4600867 34.1345916,25.8041461 C34.1345916,25.1478961 33.6027228,24.6160272 32.9470916,24.6160272 L23.1318069,24.6160272 C22.4758663,24.6160272 21.9443069,25.1478961 21.9443069,25.8041461 C21.9443069,26.4600867 22.4758663,26.9922649 23.1318069,26.9922649 L23.1318069,26.9922649 Z" id="Path" fill="#009CDE"></path>
                <path d="M37.7162748,26.9922649 L39.4458539,26.9922649 C40.1021039,26.9922649 40.6336634,26.4600867 40.6336634,25.8041461 C40.6336634,25.1478961 40.1017945,24.6160272 39.4458539,24.6160272 L37.7162748,24.6160272 C37.0603342,24.6160272 36.5284653,25.1478961 36.5284653,25.8041461 C36.5284653,26.4600867 37.0603342,26.9922649 37.7162748,26.9922649 L37.7162748,26.9922649 Z" id="Path" fill="#009CDE"></path>
            </g>
        </g>
    </g>
</svg>